<svg xmlns="http://www.w3.org/2000/svg" width="1515" height="238" viewBox="0 0 1515 238">
<style>.music{font-family:"Leland","Bravura","Segoe UI Symbol","Noto Music",sans-serif;}</style>
<rect width="100%" height="100%" fill="#f7f5ef"/>
<text x="24.0" y="44.0" font-family="Segoe UI, Arial, sans-serif" font-size="11" font-weight="700" text-anchor="start" fill="#6b4c16">Mark</text>
<text x="24.0" y="71.0" font-family="Segoe UI, Arial, sans-serif" font-size="11" font-weight="700" text-anchor="start" fill="#6d3b60">Repeat</text>
<text x="24.0" y="98.0" font-family="Segoe UI, Arial, sans-serif" font-size="11" font-weight="700" text-anchor="start" fill="#4c6232">Key</text>
<text x="24.0" y="126.0" font-family="Segoe UI, Arial, sans-serif" font-size="11" font-weight="700" text-anchor="start" fill="#6b4c16">Meter</text>
<text x="24.0" y="193.0" font-family="Segoe UI, Arial, sans-serif" font-size="11" font-weight="700" text-anchor="start" fill="#1e526f">Tempo</text>
<line x1="82.0" y1="27" x2="1477.0" y2="27" stroke="#d7d0c2" stroke-width="1"/>
<rect x="82.0" y="160.0" width="40.0" height="46" fill="#ffffff" stroke="#ddd6c8" stroke-width="1"/>
<line x1="82.0" y1="26" x2="82.0" y2="206.0" stroke="#cbc3b5" stroke-width="1"/>
<rect x="86.9" y="82.0" width="30.3" height="22" rx="4" fill="#e4eed1" stroke="#8da969"/><text x="102.0" y="97.0" font-family="Segoe UI, Arial, sans-serif" font-size="11" font-weight="700" text-anchor="middle" fill="#222">3♭</text>
<text x="102.0" y="122.0" font-family="Segoe UI, Arial, sans-serif" font-size="10" font-weight="700" text-anchor="middle" fill="#222">4</text><line x1="92.0" y1="126.0" x2="112.0" y2="126.0" stroke="#5f512f" stroke-width="1"/><text x="102.0" y="137.0" font-family="Segoe UI, Arial, sans-serif" font-size="10" font-weight="700" text-anchor="middle" fill="#222">4</text>
<text x="102.0" y="192.0" font-family="Segoe UI, Arial, sans-serif" class="music" font-size="11" font-weight="700" text-anchor="middle" fill="#1e526f">♩=72</text>
<text x="102.0" y="224.0" font-family="Segoe UI, Arial, sans-serif" font-size="10" font-weight="400" text-anchor="middle" fill="#636363">0</text>
<rect x="122.0" y="160.0" width="70.0" height="46" rx="4" fill="#ece8de" stroke="#c8c0b1" stroke-dasharray="4 3"/>
<line x1="130.0" y1="183.0" x2="184.0" y2="183.0" stroke="#8f8778" stroke-width="1.4"/>
<text x="157.0" y="177.0" font-family="Segoe UI, Arial, sans-serif" font-size="11" font-weight="700" text-anchor="middle" fill="#5e594f">--25--</text>
<text x="157.0" y="223.0" font-family="Segoe UI, Arial, sans-serif" font-size="9" font-weight="400" text-anchor="middle" fill="#777066">1-25</text>
<rect x="192.0" y="160.0" width="47.0" height="46" fill="#ffffff" stroke="#ddd6c8" stroke-width="1"/>
<line x1="192.0" y1="26" x2="192.0" y2="206.0" stroke="#cbc3b5" stroke-width="1"/>
<text x="215.5" y="122.0" font-family="Segoe UI, Arial, sans-serif" font-size="10" font-weight="700" text-anchor="middle" fill="#222">2</text><line x1="205.5" y1="126.0" x2="225.5" y2="126.0" stroke="#5f512f" stroke-width="1"/><text x="215.5" y="137.0" font-family="Segoe UI, Arial, sans-serif" font-size="10" font-weight="700" text-anchor="middle" fill="#222">4</text>
<text x="215.5" y="192.0" font-family="Segoe UI, Arial, sans-serif" class="music" font-size="11" font-weight="700" text-anchor="middle" fill="#1e526f">♩=144</text>
<line x1="237.0" y1="26.0" x2="237.0" y2="206.0" stroke="#27221b" stroke-width="1.2"/><line x1="241.0" y1="26.0" x2="241.0" y2="206.0" stroke="#27221b" stroke-width="1.2"/>
<text x="215.5" y="224.0" font-family="Segoe UI, Arial, sans-serif" font-size="10" font-weight="400" text-anchor="middle" fill="#636363">26</text>
<rect x="239.0" y="160.0" width="34.0" height="46" fill="#fbfaf6" stroke="#ddd6c8" stroke-width="1"/>
<line x1="239.0" y1="26" x2="239.0" y2="206.0" stroke="#cbc3b5" stroke-width="1"/>
<rect x="245.0" y="28.0" width="22.0" height="22" rx="4" fill="#ffe7a8" stroke="#c18a18"/><text x="256.0" y="43.0" font-family="Segoe UI, Arial, sans-serif" font-size="13" font-weight="700" text-anchor="middle" fill="#222">A</text>
<text x="256.0" y="122.0" font-family="Segoe UI, Arial, sans-serif" font-size="10" font-weight="700" text-anchor="middle" fill="#222">4</text><line x1="246.0" y1="126.0" x2="266.0" y2="126.0" stroke="#5f512f" stroke-width="1"/><text x="256.0" y="137.0" font-family="Segoe UI, Arial, sans-serif" font-size="10" font-weight="700" text-anchor="middle" fill="#222">4</text>
<text x="256.0" y="224.0" font-family="Segoe UI, Arial, sans-serif" font-size="10" font-weight="400" text-anchor="middle" fill="#636363">27</text>
<rect x="273.0" y="160.0" width="70.0" height="46" rx="4" fill="#ece8de" stroke="#c8c0b1" stroke-dasharray="4 3"/>
<line x1="281.0" y1="183.0" x2="335.0" y2="183.0" stroke="#8f8778" stroke-width="1.4"/>
<text x="308.0" y="177.0" font-family="Segoe UI, Arial, sans-serif" font-size="11" font-weight="700" text-anchor="middle" fill="#5e594f">--11--</text>
<text x="308.0" y="223.0" font-family="Segoe UI, Arial, sans-serif" font-size="9" font-weight="400" text-anchor="middle" fill="#777066">28-38</text>
<rect x="343.0" y="160.0" width="34.0" height="46" fill="#fbfaf6" stroke="#ddd6c8" stroke-width="1"/>
<line x1="343.0" y1="26" x2="343.0" y2="206.0" stroke="#cbc3b5" stroke-width="1"/>
<line x1="375.0" y1="26.0" x2="375.0" y2="206.0" stroke="#27221b" stroke-width="1.2"/><line x1="379.0" y1="26.0" x2="379.0" y2="206.0" stroke="#27221b" stroke-width="1.2"/>
<text x="360.0" y="224.0" font-family="Segoe UI, Arial, sans-serif" font-size="10" font-weight="400" text-anchor="middle" fill="#636363">39</text>
<rect x="377.0" y="160.0" width="34.0" height="46" fill="#ffffff" stroke="#ddd6c8" stroke-width="1"/>
<line x1="377.0" y1="26" x2="377.0" y2="206.0" stroke="#cbc3b5" stroke-width="1"/>
<rect x="383.0" y="28.0" width="22.0" height="22" rx="4" fill="#ffe7a8" stroke="#c18a18"/><text x="394.0" y="43.0" font-family="Segoe UI, Arial, sans-serif" font-size="13" font-weight="700" text-anchor="middle" fill="#222">B</text>
<text x="394.0" y="224.0" font-family="Segoe UI, Arial, sans-serif" font-size="10" font-weight="400" text-anchor="middle" fill="#636363">40</text>
<rect x="411.0" y="160.0" width="70.0" height="46" rx="4" fill="#ece8de" stroke="#c8c0b1" stroke-dasharray="4 3"/>
<line x1="419.0" y1="183.0" x2="473.0" y2="183.0" stroke="#8f8778" stroke-width="1.4"/>
<text x="446.0" y="177.0" font-family="Segoe UI, Arial, sans-serif" font-size="11" font-weight="700" text-anchor="middle" fill="#5e594f">--6--</text>
<text x="446.0" y="223.0" font-family="Segoe UI, Arial, sans-serif" font-size="9" font-weight="400" text-anchor="middle" fill="#777066">41-46</text>
<rect x="481.0" y="160.0" width="34.0" height="46" fill="#ffffff" stroke="#ddd6c8" stroke-width="1"/>
<line x1="481.0" y1="26" x2="481.0" y2="206.0" stroke="#cbc3b5" stroke-width="1"/>
<line x1="513.0" y1="26.0" x2="513.0" y2="206.0" stroke="#27221b" stroke-width="1.2"/><line x1="517.0" y1="26.0" x2="517.0" y2="206.0" stroke="#27221b" stroke-width="1.2"/>
<text x="498.0" y="224.0" font-family="Segoe UI, Arial, sans-serif" font-size="10" font-weight="400" text-anchor="middle" fill="#636363">47</text>
<rect x="515.0" y="160.0" width="34.0" height="46" fill="#fbfaf6" stroke="#ddd6c8" stroke-width="1"/>
<line x1="515.0" y1="26" x2="515.0" y2="206.0" stroke="#cbc3b5" stroke-width="1"/>
<rect x="521.0" y="28.0" width="22.0" height="22" rx="4" fill="#ffe7a8" stroke="#c18a18"/><text x="532.0" y="43.0" font-family="Segoe UI, Arial, sans-serif" font-size="13" font-weight="700" text-anchor="middle" fill="#222">C</text>
<text x="532.0" y="224.0" font-family="Segoe UI, Arial, sans-serif" font-size="10" font-weight="400" text-anchor="middle" fill="#636363">48</text>
<rect x="549.0" y="160.0" width="70.0" height="46" rx="4" fill="#ece8de" stroke="#c8c0b1" stroke-dasharray="4 3"/>
<line x1="557.0" y1="183.0" x2="611.0" y2="183.0" stroke="#8f8778" stroke-width="1.4"/>
<text x="584.0" y="177.0" font-family="Segoe UI, Arial, sans-serif" font-size="11" font-weight="700" text-anchor="middle" fill="#5e594f">--12--</text>
<text x="584.0" y="223.0" font-family="Segoe UI, Arial, sans-serif" font-size="9" font-weight="400" text-anchor="middle" fill="#777066">49-60</text>
<rect x="619.0" y="160.0" width="40.0" height="46" fill="#fbfaf6" stroke="#ddd6c8" stroke-width="1"/>
<line x1="619.0" y1="26" x2="619.0" y2="206.0" stroke="#cbc3b5" stroke-width="1"/>
<text x="639.0" y="192.0" font-family="Segoe UI, Arial, sans-serif" class="music" font-size="11" font-weight="700" text-anchor="middle" fill="#1e526f">♩=72</text>
<line x1="657.0" y1="26.0" x2="657.0" y2="206.0" stroke="#27221b" stroke-width="1.2"/><line x1="661.0" y1="26.0" x2="661.0" y2="206.0" stroke="#27221b" stroke-width="1.2"/>
<text x="639.0" y="224.0" font-family="Segoe UI, Arial, sans-serif" font-size="10" font-weight="400" text-anchor="middle" fill="#636363">61</text>
<rect x="659.0" y="160.0" width="34.0" height="46" fill="#ffffff" stroke="#ddd6c8" stroke-width="1"/>
<line x1="659.0" y1="26" x2="659.0" y2="206.0" stroke="#cbc3b5" stroke-width="1"/>
<rect x="665.0" y="28.0" width="22.0" height="22" rx="4" fill="#ffe7a8" stroke="#c18a18"/><text x="676.0" y="43.0" font-family="Segoe UI, Arial, sans-serif" font-size="13" font-weight="700" text-anchor="middle" fill="#222">D</text>
<text x="676.0" y="122.0" font-family="Segoe UI, Arial, sans-serif" font-size="10" font-weight="700" text-anchor="middle" fill="#222">5</text><line x1="666.0" y1="126.0" x2="686.0" y2="126.0" stroke="#5f512f" stroke-width="1"/><text x="676.0" y="137.0" font-family="Segoe UI, Arial, sans-serif" font-size="10" font-weight="700" text-anchor="middle" fill="#222">4</text>
<text x="676.0" y="224.0" font-family="Segoe UI, Arial, sans-serif" font-size="10" font-weight="400" text-anchor="middle" fill="#636363">62</text>
<rect x="693.0" y="160.0" width="70.0" height="46" rx="4" fill="#ece8de" stroke="#c8c0b1" stroke-dasharray="4 3"/>
<line x1="701.0" y1="183.0" x2="755.0" y2="183.0" stroke="#8f8778" stroke-width="1.4"/>
<text x="728.0" y="177.0" font-family="Segoe UI, Arial, sans-serif" font-size="11" font-weight="700" text-anchor="middle" fill="#5e594f">--4--</text>
<text x="728.0" y="223.0" font-family="Segoe UI, Arial, sans-serif" font-size="9" font-weight="400" text-anchor="middle" fill="#777066">63-66</text>
<rect x="763.0" y="160.0" width="34.0" height="46" fill="#ffffff" stroke="#ddd6c8" stroke-width="1"/>
<line x1="763.0" y1="26" x2="763.0" y2="206.0" stroke="#cbc3b5" stroke-width="1"/>
<text x="780.0" y="122.0" font-family="Segoe UI, Arial, sans-serif" font-size="10" font-weight="700" text-anchor="middle" fill="#222">3</text><line x1="770.0" y1="126.0" x2="790.0" y2="126.0" stroke="#5f512f" stroke-width="1"/><text x="780.0" y="137.0" font-family="Segoe UI, Arial, sans-serif" font-size="10" font-weight="700" text-anchor="middle" fill="#222">4</text>
<text x="780.0" y="224.0" font-family="Segoe UI, Arial, sans-serif" font-size="10" font-weight="400" text-anchor="middle" fill="#636363">67</text>
<rect x="797.0" y="160.0" width="34.0" height="46" fill="#fbfaf6" stroke="#ddd6c8" stroke-width="1"/>
<line x1="797.0" y1="26" x2="797.0" y2="206.0" stroke="#cbc3b5" stroke-width="1"/>
<text x="814.0" y="122.0" font-family="Segoe UI, Arial, sans-serif" font-size="10" font-weight="700" text-anchor="middle" fill="#222">4</text><line x1="804.0" y1="126.0" x2="824.0" y2="126.0" stroke="#5f512f" stroke-width="1"/><text x="814.0" y="137.0" font-family="Segoe UI, Arial, sans-serif" font-size="10" font-weight="700" text-anchor="middle" fill="#222">4</text>
<text x="814.0" y="224.0" font-family="Segoe UI, Arial, sans-serif" font-size="10" font-weight="400" text-anchor="middle" fill="#636363">68</text>
<rect x="831.0" y="160.0" width="34.0" height="46" fill="#ffffff" stroke="#ddd6c8" stroke-width="1"/>
<line x1="831.0" y1="26" x2="831.0" y2="206.0" stroke="#cbc3b5" stroke-width="1"/>
<text x="848.0" y="224.0" font-family="Segoe UI, Arial, sans-serif" font-size="10" font-weight="400" text-anchor="middle" fill="#636363">69</text>
<rect x="865.0" y="160.0" width="47.0" height="46" fill="#fbfaf6" stroke="#ddd6c8" stroke-width="1"/>
<line x1="865.0" y1="26" x2="865.0" y2="206.0" stroke="#cbc3b5" stroke-width="1"/>
<text x="888.5" y="192.0" font-family="Segoe UI, Arial, sans-serif" class="music" font-size="11" font-weight="700" text-anchor="middle" fill="#1e526f">♩=144</text>
<text x="888.5" y="224.0" font-family="Segoe UI, Arial, sans-serif" font-size="10" font-weight="400" text-anchor="middle" fill="#636363">70</text>
<rect x="912.0" y="160.0" width="34.0" height="46" fill="#ffffff" stroke="#ddd6c8" stroke-width="1"/>
<line x1="912.0" y1="26" x2="912.0" y2="206.0" stroke="#cbc3b5" stroke-width="1"/>
<rect x="946.0" y="160.0" width="34.0" height="46" fill="#fbfaf6" stroke="#ddd6c8" stroke-width="1"/>
<line x1="946.0" y1="26" x2="946.0" y2="206.0" stroke="#cbc3b5" stroke-width="1"/>
<rect x="980.0" y="160.0" width="34.0" height="46" fill="#ffffff" stroke="#ddd6c8" stroke-width="1"/>
<line x1="980.0" y1="26" x2="980.0" y2="206.0" stroke="#cbc3b5" stroke-width="1"/>
<text x="997.0" y="122.0" font-family="Segoe UI, Arial, sans-serif" font-size="10" font-weight="700" text-anchor="middle" fill="#222">2</text><line x1="987.0" y1="126.0" x2="1007.0" y2="126.0" stroke="#5f512f" stroke-width="1"/><text x="997.0" y="137.0" font-family="Segoe UI, Arial, sans-serif" font-size="10" font-weight="700" text-anchor="middle" fill="#222">4</text>
<line x1="1012.0" y1="26.0" x2="1012.0" y2="206.0" stroke="#27221b" stroke-width="1.2"/><line x1="1016.0" y1="26.0" x2="1016.0" y2="206.0" stroke="#27221b" stroke-width="1.2"/>
<text x="997.0" y="224.0" font-family="Segoe UI, Arial, sans-serif" font-size="10" font-weight="400" text-anchor="middle" fill="#636363">73</text>
<rect x="1014.0" y="160.0" width="34.0" height="46" fill="#fbfaf6" stroke="#ddd6c8" stroke-width="1"/>
<line x1="1014.0" y1="26" x2="1014.0" y2="206.0" stroke="#cbc3b5" stroke-width="1"/>
<rect x="1020.0" y="28.0" width="22.0" height="22" rx="4" fill="#ffe7a8" stroke="#c18a18"/><text x="1031.0" y="43.0" font-family="Segoe UI, Arial, sans-serif" font-size="13" font-weight="700" text-anchor="middle" fill="#222">E</text>
<text x="1031.0" y="122.0" font-family="Segoe UI, Arial, sans-serif" font-size="10" font-weight="700" text-anchor="middle" fill="#222">4</text><line x1="1021.0" y1="126.0" x2="1041.0" y2="126.0" stroke="#5f512f" stroke-width="1"/><text x="1031.0" y="137.0" font-family="Segoe UI, Arial, sans-serif" font-size="10" font-weight="700" text-anchor="middle" fill="#222">4</text>
<text x="1031.0" y="224.0" font-family="Segoe UI, Arial, sans-serif" font-size="10" font-weight="400" text-anchor="middle" fill="#636363">74</text>
<rect x="1048.0" y="160.0" width="70.0" height="46" rx="4" fill="#ece8de" stroke="#c8c0b1" stroke-dasharray="4 3"/>
<line x1="1056.0" y1="183.0" x2="1110.0" y2="183.0" stroke="#8f8778" stroke-width="1.4"/>
<text x="1083.0" y="177.0" font-family="Segoe UI, Arial, sans-serif" font-size="11" font-weight="700" text-anchor="middle" fill="#5e594f">--11--</text>
<text x="1083.0" y="223.0" font-family="Segoe UI, Arial, sans-serif" font-size="9" font-weight="400" text-anchor="middle" fill="#777066">75-85</text>
<rect x="1118.0" y="160.0" width="34.0" height="46" fill="#fbfaf6" stroke="#ddd6c8" stroke-width="1"/>
<line x1="1118.0" y1="26" x2="1118.0" y2="206.0" stroke="#cbc3b5" stroke-width="1"/>
<text x="1135.0" y="122.0" font-family="Segoe UI, Arial, sans-serif" font-size="10" font-weight="700" text-anchor="middle" fill="#222">5</text><line x1="1125.0" y1="126.0" x2="1145.0" y2="126.0" stroke="#5f512f" stroke-width="1"/><text x="1135.0" y="137.0" font-family="Segoe UI, Arial, sans-serif" font-size="10" font-weight="700" text-anchor="middle" fill="#222">4</text>
<text x="1135.0" y="224.0" font-family="Segoe UI, Arial, sans-serif" font-size="10" font-weight="400" text-anchor="middle" fill="#636363">86</text>
<rect x="1152.0" y="160.0" width="34.0" height="46" fill="#ffffff" stroke="#ddd6c8" stroke-width="1"/>
<line x1="1152.0" y1="26" x2="1152.0" y2="206.0" stroke="#cbc3b5" stroke-width="1"/>
<rect x="1186.0" y="160.0" width="34.0" height="46" fill="#fbfaf6" stroke="#ddd6c8" stroke-width="1"/>
<line x1="1186.0" y1="26" x2="1186.0" y2="206.0" stroke="#cbc3b5" stroke-width="1"/>
<text x="1203.0" y="122.0" font-family="Segoe UI, Arial, sans-serif" font-size="10" font-weight="700" text-anchor="middle" fill="#222">3</text><line x1="1193.0" y1="126.0" x2="1213.0" y2="126.0" stroke="#5f512f" stroke-width="1"/><text x="1203.0" y="137.0" font-family="Segoe UI, Arial, sans-serif" font-size="10" font-weight="700" text-anchor="middle" fill="#222">4</text>
<text x="1203.0" y="224.0" font-family="Segoe UI, Arial, sans-serif" font-size="10" font-weight="400" text-anchor="middle" fill="#636363">88</text>
<rect x="1220.0" y="160.0" width="34.0" height="46" fill="#ffffff" stroke="#ddd6c8" stroke-width="1"/>
<line x1="1220.0" y1="26" x2="1220.0" y2="206.0" stroke="#cbc3b5" stroke-width="1"/>
<text x="1237.0" y="224.0" font-family="Segoe UI, Arial, sans-serif" font-size="10" font-weight="400" text-anchor="middle" fill="#636363">89</text>
<rect x="1254.0" y="160.0" width="34.0" height="46" fill="#fbfaf6" stroke="#ddd6c8" stroke-width="1"/>
<line x1="1254.0" y1="26" x2="1254.0" y2="206.0" stroke="#cbc3b5" stroke-width="1"/>
<rect x="1288.0" y="160.0" width="40.0" height="46" fill="#ffffff" stroke="#ddd6c8" stroke-width="1"/>
<line x1="1288.0" y1="26" x2="1288.0" y2="206.0" stroke="#cbc3b5" stroke-width="1"/>
<text x="1308.0" y="192.0" font-family="Segoe UI, Arial, sans-serif" class="music" font-size="11" font-weight="700" text-anchor="middle" fill="#1e526f">♩=80</text>
<text x="1308.0" y="224.0" font-family="Segoe UI, Arial, sans-serif" font-size="10" font-weight="400" text-anchor="middle" fill="#636363">91</text>
<rect x="1328.0" y="160.0" width="34.0" height="46" fill="#fbfaf6" stroke="#ddd6c8" stroke-width="1"/>
<line x1="1328.0" y1="26" x2="1328.0" y2="206.0" stroke="#cbc3b5" stroke-width="1"/>
<rect x="1362.0" y="160.0" width="34.0" height="46" fill="#ffffff" stroke="#ddd6c8" stroke-width="1"/>
<line x1="1362.0" y1="26" x2="1362.0" y2="206.0" stroke="#cbc3b5" stroke-width="1"/>
<rect x="1396.0" y="160.0" width="47.0" height="46" fill="#fbfaf6" stroke="#ddd6c8" stroke-width="1"/>
<line x1="1396.0" y1="26" x2="1396.0" y2="206.0" stroke="#cbc3b5" stroke-width="1"/>
<text x="1419.5" y="122.0" font-family="Segoe UI, Arial, sans-serif" font-size="10" font-weight="700" text-anchor="middle" fill="#222">2</text><line x1="1409.5" y1="126.0" x2="1429.5" y2="126.0" stroke="#5f512f" stroke-width="1"/><text x="1419.5" y="137.0" font-family="Segoe UI, Arial, sans-serif" font-size="10" font-weight="700" text-anchor="middle" fill="#222">4</text>
<text x="1419.5" y="192.0" font-family="Segoe UI, Arial, sans-serif" class="music" font-size="11" font-weight="700" text-anchor="middle" fill="#1e526f">♩=144</text>
<text x="1419.5" y="224.0" font-family="Segoe UI, Arial, sans-serif" font-size="10" font-weight="400" text-anchor="middle" fill="#636363">94</text>
<rect x="1443.0" y="160.0" width="34.0" height="46" fill="#ffffff" stroke="#ddd6c8" stroke-width="1"/>
<line x1="1443.0" y1="26" x2="1443.0" y2="206.0" stroke="#cbc3b5" stroke-width="1"/>
<line x1="1474.0" y1="26.0" x2="1474.0" y2="206.0" stroke="#27221b" stroke-width="1.2"/><line x1="1479.0" y1="26.0" x2="1479.0" y2="206.0" stroke="#27221b" stroke-width="3.6"/>
<text x="1460.0" y="224.0" font-family="Segoe UI, Arial, sans-serif" font-size="10" font-weight="400" text-anchor="middle" fill="#636363">95</text>
</svg>