<svg xmlns="http://www.w3.org/2000/svg" width="1580" height="238" viewBox="0 0 1580 238">
<style>.music{font-family:"Leland","Bravura","Segoe UI Symbol","Noto Music",sans-serif;}</style>
<rect width="100%" height="100%" fill="#f7f5ef"/>
<text x="24.0" y="44.0" font-family="Segoe UI, Arial, sans-serif" font-size="11" font-weight="700" text-anchor="start" fill="#6b4c16">Mark</text>
<text x="24.0" y="71.0" font-family="Segoe UI, Arial, sans-serif" font-size="11" font-weight="700" text-anchor="start" fill="#6d3b60">Repeat</text>
<text x="24.0" y="98.0" font-family="Segoe UI, Arial, sans-serif" font-size="11" font-weight="700" text-anchor="start" fill="#4c6232">Key</text>
<text x="24.0" y="126.0" font-family="Segoe UI, Arial, sans-serif" font-size="11" font-weight="700" text-anchor="start" fill="#6b4c16">Meter</text>
<text x="24.0" y="193.0" font-family="Segoe UI, Arial, sans-serif" font-size="11" font-weight="700" text-anchor="start" fill="#1e526f">Tempo</text>
<line x1="82.0" y1="27" x2="1542.0" y2="27" stroke="#d7d0c2" stroke-width="1"/>
<rect x="82.0" y="160.0" width="47.0" height="46" fill="#ffffff" stroke="#ddd6c8" stroke-width="1"/>
<line x1="82.0" y1="26" x2="82.0" y2="206.0" stroke="#cbc3b5" stroke-width="1"/>
<rect x="90.4" y="82.0" width="30.3" height="22" rx="4" fill="#e4eed1" stroke="#8da969"/><text x="105.5" y="97.0" font-family="Segoe UI, Arial, sans-serif" font-size="11" font-weight="700" text-anchor="middle" fill="#222">2♭</text>
<text x="105.5" y="122.0" font-family="Segoe UI, Arial, sans-serif" font-size="10" font-weight="700" text-anchor="middle" fill="#222">4</text><line x1="95.5" y1="126.0" x2="115.5" y2="126.0" stroke="#5f512f" stroke-width="1"/><text x="105.5" y="137.0" font-family="Segoe UI, Arial, sans-serif" font-size="10" font-weight="700" text-anchor="middle" fill="#222">4</text>
<text x="105.5" y="192.0" font-family="Segoe UI, Arial, sans-serif" class="music" font-size="11" font-weight="700" text-anchor="middle" fill="#1e526f">♩=112</text>
<text x="105.5" y="224.0" font-family="Segoe UI, Arial, sans-serif" font-size="10" font-weight="400" text-anchor="middle" fill="#636363">0</text>
<rect x="129.0" y="160.0" width="70.0" height="46" rx="4" fill="#ece8de" stroke="#c8c0b1" stroke-dasharray="4 3"/>
<line x1="137.0" y1="183.0" x2="191.0" y2="183.0" stroke="#8f8778" stroke-width="1.4"/>
<text x="164.0" y="177.0" font-family="Segoe UI, Arial, sans-serif" font-size="11" font-weight="700" text-anchor="middle" fill="#5e594f">--11--</text>
<text x="164.0" y="223.0" font-family="Segoe UI, Arial, sans-serif" font-size="9" font-weight="400" text-anchor="middle" fill="#777066">1-11</text>
<rect x="199.0" y="160.0" width="34.0" height="46" fill="#ffffff" stroke="#ddd6c8" stroke-width="1"/>
<line x1="199.0" y1="26" x2="199.0" y2="206.0" stroke="#cbc3b5" stroke-width="1"/>
<line x1="231.0" y1="26.0" x2="231.0" y2="206.0" stroke="#27221b" stroke-width="1.2"/><line x1="235.0" y1="26.0" x2="235.0" y2="206.0" stroke="#27221b" stroke-width="1.2"/>
<text x="216.0" y="224.0" font-family="Segoe UI, Arial, sans-serif" font-size="10" font-weight="400" text-anchor="middle" fill="#636363">12</text>
<rect x="233.0" y="160.0" width="34.0" height="46" fill="#fbfaf6" stroke="#ddd6c8" stroke-width="1"/>
<line x1="233.0" y1="26" x2="233.0" y2="206.0" stroke="#cbc3b5" stroke-width="1"/>
<rect x="239.0" y="28.0" width="22.0" height="22" rx="4" fill="#ffe7a8" stroke="#c18a18"/><text x="250.0" y="43.0" font-family="Segoe UI, Arial, sans-serif" font-size="13" font-weight="700" text-anchor="middle" fill="#222">A</text>
<text x="250.0" y="224.0" font-family="Segoe UI, Arial, sans-serif" font-size="10" font-weight="400" text-anchor="middle" fill="#636363">13</text>
<rect x="267.0" y="160.0" width="70.0" height="46" rx="4" fill="#ece8de" stroke="#c8c0b1" stroke-dasharray="4 3"/>
<line x1="275.0" y1="183.0" x2="329.0" y2="183.0" stroke="#8f8778" stroke-width="1.4"/>
<text x="302.0" y="177.0" font-family="Segoe UI, Arial, sans-serif" font-size="11" font-weight="700" text-anchor="middle" fill="#5e594f">--6--</text>
<text x="302.0" y="223.0" font-family="Segoe UI, Arial, sans-serif" font-size="9" font-weight="400" text-anchor="middle" fill="#777066">14-19</text>
<rect x="337.0" y="160.0" width="34.0" height="46" fill="#fbfaf6" stroke="#ddd6c8" stroke-width="1"/>
<line x1="337.0" y1="26" x2="337.0" y2="206.0" stroke="#cbc3b5" stroke-width="1"/>
<text x="354.0" y="122.0" font-family="Segoe UI, Arial, sans-serif" font-size="10" font-weight="700" text-anchor="middle" fill="#222">2</text><line x1="344.0" y1="126.0" x2="364.0" y2="126.0" stroke="#5f512f" stroke-width="1"/><text x="354.0" y="137.0" font-family="Segoe UI, Arial, sans-serif" font-size="10" font-weight="700" text-anchor="middle" fill="#222">4</text>
<text x="354.0" y="224.0" font-family="Segoe UI, Arial, sans-serif" font-size="10" font-weight="400" text-anchor="middle" fill="#636363">20</text>
<rect x="371.0" y="160.0" width="34.0" height="46" fill="#ffffff" stroke="#ddd6c8" stroke-width="1"/>
<line x1="371.0" y1="26" x2="371.0" y2="206.0" stroke="#cbc3b5" stroke-width="1"/>
<text x="388.0" y="122.0" font-family="Segoe UI, Arial, sans-serif" font-size="10" font-weight="700" text-anchor="middle" fill="#222">4</text><line x1="378.0" y1="126.0" x2="398.0" y2="126.0" stroke="#5f512f" stroke-width="1"/><text x="388.0" y="137.0" font-family="Segoe UI, Arial, sans-serif" font-size="10" font-weight="700" text-anchor="middle" fill="#222">4</text>
<text x="388.0" y="224.0" font-family="Segoe UI, Arial, sans-serif" font-size="10" font-weight="400" text-anchor="middle" fill="#636363">21</text>
<rect x="405.0" y="160.0" width="34.0" height="46" fill="#fbfaf6" stroke="#ddd6c8" stroke-width="1"/>
<line x1="405.0" y1="26" x2="405.0" y2="206.0" stroke="#cbc3b5" stroke-width="1"/>
<rect x="439.0" y="160.0" width="34.0" height="46" fill="#ffffff" stroke="#ddd6c8" stroke-width="1"/>
<line x1="439.0" y1="26" x2="439.0" y2="206.0" stroke="#cbc3b5" stroke-width="1"/>
<rect x="473.0" y="160.0" width="34.0" height="46" fill="#fbfaf6" stroke="#ddd6c8" stroke-width="1"/>
<line x1="473.0" y1="26" x2="473.0" y2="206.0" stroke="#cbc3b5" stroke-width="1"/>
<line x1="505.0" y1="26.0" x2="505.0" y2="206.0" stroke="#27221b" stroke-width="1.2"/><line x1="509.0" y1="26.0" x2="509.0" y2="206.0" stroke="#27221b" stroke-width="1.2"/>
<text x="490.0" y="224.0" font-family="Segoe UI, Arial, sans-serif" font-size="10" font-weight="400" text-anchor="middle" fill="#636363">24</text>
<rect x="507.0" y="160.0" width="34.0" height="46" fill="#ffffff" stroke="#ddd6c8" stroke-width="1"/>
<line x1="507.0" y1="26" x2="507.0" y2="206.0" stroke="#cbc3b5" stroke-width="1"/>
<rect x="513.0" y="28.0" width="22.0" height="22" rx="4" fill="#ffe7a8" stroke="#c18a18"/><text x="524.0" y="43.0" font-family="Segoe UI, Arial, sans-serif" font-size="13" font-weight="700" text-anchor="middle" fill="#222">B</text>
<text x="524.0" y="224.0" font-family="Segoe UI, Arial, sans-serif" font-size="10" font-weight="400" text-anchor="middle" fill="#636363">25</text>
<rect x="541.0" y="160.0" width="70.0" height="46" rx="4" fill="#ece8de" stroke="#c8c0b1" stroke-dasharray="4 3"/>
<line x1="549.0" y1="183.0" x2="603.0" y2="183.0" stroke="#8f8778" stroke-width="1.4"/>
<text x="576.0" y="177.0" font-family="Segoe UI, Arial, sans-serif" font-size="11" font-weight="700" text-anchor="middle" fill="#5e594f">--6--</text>
<text x="576.0" y="223.0" font-family="Segoe UI, Arial, sans-serif" font-size="9" font-weight="400" text-anchor="middle" fill="#777066">26-31</text>
<rect x="611.0" y="160.0" width="34.0" height="46" fill="#ffffff" stroke="#ddd6c8" stroke-width="1"/>
<line x1="611.0" y1="26" x2="611.0" y2="206.0" stroke="#cbc3b5" stroke-width="1"/>
<text x="628.0" y="122.0" font-family="Segoe UI, Arial, sans-serif" font-size="10" font-weight="700" text-anchor="middle" fill="#222">2</text><line x1="618.0" y1="126.0" x2="638.0" y2="126.0" stroke="#5f512f" stroke-width="1"/><text x="628.0" y="137.0" font-family="Segoe UI, Arial, sans-serif" font-size="10" font-weight="700" text-anchor="middle" fill="#222">4</text>
<text x="628.0" y="224.0" font-family="Segoe UI, Arial, sans-serif" font-size="10" font-weight="400" text-anchor="middle" fill="#636363">32</text>
<rect x="645.0" y="160.0" width="34.0" height="46" fill="#fbfaf6" stroke="#ddd6c8" stroke-width="1"/>
<line x1="645.0" y1="26" x2="645.0" y2="206.0" stroke="#cbc3b5" stroke-width="1"/>
<text x="662.0" y="122.0" font-family="Segoe UI, Arial, sans-serif" font-size="10" font-weight="700" text-anchor="middle" fill="#222">4</text><line x1="652.0" y1="126.0" x2="672.0" y2="126.0" stroke="#5f512f" stroke-width="1"/><text x="662.0" y="137.0" font-family="Segoe UI, Arial, sans-serif" font-size="10" font-weight="700" text-anchor="middle" fill="#222">4</text>
<text x="662.0" y="224.0" font-family="Segoe UI, Arial, sans-serif" font-size="10" font-weight="400" text-anchor="middle" fill="#636363">33</text>
<rect x="679.0" y="160.0" width="34.0" height="46" fill="#ffffff" stroke="#ddd6c8" stroke-width="1"/>
<line x1="679.0" y1="26" x2="679.0" y2="206.0" stroke="#cbc3b5" stroke-width="1"/>
<text x="696.0" y="224.0" font-family="Segoe UI, Arial, sans-serif" font-size="10" font-weight="400" text-anchor="middle" fill="#636363">34</text>
<rect x="713.0" y="160.0" width="34.0" height="46" fill="#fbfaf6" stroke="#ddd6c8" stroke-width="1"/>
<line x1="713.0" y1="26" x2="713.0" y2="206.0" stroke="#cbc3b5" stroke-width="1"/>
<rect x="747.0" y="160.0" width="34.0" height="46" fill="#ffffff" stroke="#ddd6c8" stroke-width="1"/>
<line x1="747.0" y1="26" x2="747.0" y2="206.0" stroke="#cbc3b5" stroke-width="1"/>
<line x1="779.0" y1="26.0" x2="779.0" y2="206.0" stroke="#27221b" stroke-width="1.2"/><line x1="783.0" y1="26.0" x2="783.0" y2="206.0" stroke="#27221b" stroke-width="1.2"/>
<text x="764.0" y="224.0" font-family="Segoe UI, Arial, sans-serif" font-size="10" font-weight="400" text-anchor="middle" fill="#636363">36</text>
<rect x="781.0" y="160.0" width="34.0" height="46" fill="#fbfaf6" stroke="#ddd6c8" stroke-width="1"/>
<line x1="781.0" y1="26" x2="781.0" y2="206.0" stroke="#cbc3b5" stroke-width="1"/>
<rect x="787.0" y="28.0" width="22.0" height="22" rx="4" fill="#ffe7a8" stroke="#c18a18"/><text x="798.0" y="43.0" font-family="Segoe UI, Arial, sans-serif" font-size="13" font-weight="700" text-anchor="middle" fill="#222">C</text>
<text x="798.0" y="224.0" font-family="Segoe UI, Arial, sans-serif" font-size="10" font-weight="400" text-anchor="middle" fill="#636363">37</text>
<rect x="815.0" y="160.0" width="70.0" height="46" rx="4" fill="#ece8de" stroke="#c8c0b1" stroke-dasharray="4 3"/>
<line x1="823.0" y1="183.0" x2="877.0" y2="183.0" stroke="#8f8778" stroke-width="1.4"/>
<text x="850.0" y="177.0" font-family="Segoe UI, Arial, sans-serif" font-size="11" font-weight="700" text-anchor="middle" fill="#5e594f">--8--</text>
<text x="850.0" y="223.0" font-family="Segoe UI, Arial, sans-serif" font-size="9" font-weight="400" text-anchor="middle" fill="#777066">38-45</text>
<rect x="885.0" y="160.0" width="34.0" height="46" fill="#fbfaf6" stroke="#ddd6c8" stroke-width="1"/>
<line x1="885.0" y1="26" x2="885.0" y2="206.0" stroke="#cbc3b5" stroke-width="1"/>
<line x1="917.0" y1="26.0" x2="917.0" y2="206.0" stroke="#27221b" stroke-width="1.2"/><line x1="921.0" y1="26.0" x2="921.0" y2="206.0" stroke="#27221b" stroke-width="1.2"/>
<text x="902.0" y="224.0" font-family="Segoe UI, Arial, sans-serif" font-size="10" font-weight="400" text-anchor="middle" fill="#636363">46</text>
<rect x="919.0" y="160.0" width="34.0" height="46" fill="#ffffff" stroke="#ddd6c8" stroke-width="1"/>
<line x1="919.0" y1="26" x2="919.0" y2="206.0" stroke="#cbc3b5" stroke-width="1"/>
<rect x="925.0" y="28.0" width="22.0" height="22" rx="4" fill="#ffe7a8" stroke="#c18a18"/><text x="936.0" y="43.0" font-family="Segoe UI, Arial, sans-serif" font-size="13" font-weight="700" text-anchor="middle" fill="#222">D</text>
<text x="936.0" y="224.0" font-family="Segoe UI, Arial, sans-serif" font-size="10" font-weight="400" text-anchor="middle" fill="#636363">47</text>
<rect x="953.0" y="160.0" width="70.0" height="46" rx="4" fill="#ece8de" stroke="#c8c0b1" stroke-dasharray="4 3"/>
<line x1="961.0" y1="183.0" x2="1015.0" y2="183.0" stroke="#8f8778" stroke-width="1.4"/>
<text x="988.0" y="177.0" font-family="Segoe UI, Arial, sans-serif" font-size="11" font-weight="700" text-anchor="middle" fill="#5e594f">--8--</text>
<text x="988.0" y="223.0" font-family="Segoe UI, Arial, sans-serif" font-size="9" font-weight="400" text-anchor="middle" fill="#777066">48-55</text>
<rect x="1023.0" y="160.0" width="34.0" height="46" fill="#ffffff" stroke="#ddd6c8" stroke-width="1"/>
<line x1="1023.0" y1="26" x2="1023.0" y2="206.0" stroke="#cbc3b5" stroke-width="1"/>
<line x1="1055.0" y1="26.0" x2="1055.0" y2="206.0" stroke="#27221b" stroke-width="1.2"/><line x1="1059.0" y1="26.0" x2="1059.0" y2="206.0" stroke="#27221b" stroke-width="1.2"/>
<text x="1040.0" y="224.0" font-family="Segoe UI, Arial, sans-serif" font-size="10" font-weight="400" text-anchor="middle" fill="#636363">56</text>
<rect x="1057.0" y="160.0" width="34.0" height="46" fill="#fbfaf6" stroke="#ddd6c8" stroke-width="1"/>
<line x1="1057.0" y1="26" x2="1057.0" y2="206.0" stroke="#cbc3b5" stroke-width="1"/>
<rect x="1063.0" y="28.0" width="22.0" height="22" rx="4" fill="#ffe7a8" stroke="#c18a18"/><text x="1074.0" y="43.0" font-family="Segoe UI, Arial, sans-serif" font-size="13" font-weight="700" text-anchor="middle" fill="#222">E</text>
<text x="1074.0" y="224.0" font-family="Segoe UI, Arial, sans-serif" font-size="10" font-weight="400" text-anchor="middle" fill="#636363">57</text>
<rect x="1091.0" y="160.0" width="70.0" height="46" rx="4" fill="#ece8de" stroke="#c8c0b1" stroke-dasharray="4 3"/>
<line x1="1099.0" y1="183.0" x2="1153.0" y2="183.0" stroke="#8f8778" stroke-width="1.4"/>
<text x="1126.0" y="177.0" font-family="Segoe UI, Arial, sans-serif" font-size="11" font-weight="700" text-anchor="middle" fill="#5e594f">--10--</text>
<text x="1126.0" y="223.0" font-family="Segoe UI, Arial, sans-serif" font-size="9" font-weight="400" text-anchor="middle" fill="#777066">58-67</text>
<rect x="1161.0" y="160.0" width="47.0" height="46" fill="#fbfaf6" stroke="#ddd6c8" stroke-width="1"/>
<line x1="1161.0" y1="26" x2="1161.0" y2="206.0" stroke="#cbc3b5" stroke-width="1"/>
<text x="1184.5" y="192.0" font-family="Segoe UI, Arial, sans-serif" class="music" font-size="11" font-weight="700" text-anchor="middle" fill="#1e526f">♩=100</text>
<text x="1184.5" y="224.0" font-family="Segoe UI, Arial, sans-serif" font-size="10" font-weight="400" text-anchor="middle" fill="#636363">68</text>
<rect x="1208.0" y="160.0" width="70.0" height="46" rx="4" fill="#ece8de" stroke="#c8c0b1" stroke-dasharray="4 3"/>
<line x1="1216.0" y1="183.0" x2="1270.0" y2="183.0" stroke="#8f8778" stroke-width="1.4"/>
<text x="1243.0" y="177.0" font-family="Segoe UI, Arial, sans-serif" font-size="11" font-weight="700" text-anchor="middle" fill="#5e594f">--3--</text>
<text x="1243.0" y="223.0" font-family="Segoe UI, Arial, sans-serif" font-size="9" font-weight="400" text-anchor="middle" fill="#777066">69-71</text>
<rect x="1278.0" y="160.0" width="45.0" height="46" fill="#fbfaf6" stroke="#ddd6c8" stroke-width="1"/>
<line x1="1278.0" y1="26" x2="1278.0" y2="206.0" stroke="#cbc3b5" stroke-width="1"/>
<text x="1300.5" y="184.0" font-family="Segoe UI, Arial, sans-serif" class="music" font-size="9" font-weight="700" text-anchor="middle" fill="#1e526f">tempo I</text>
<text x="1300.5" y="196.0" font-family="Segoe UI, Arial, sans-serif" class="music" font-size="10" font-weight="700" text-anchor="middle" fill="#1e526f">♩=112</text>
<line x1="1321.0" y1="26.0" x2="1321.0" y2="206.0" stroke="#27221b" stroke-width="1.2"/><line x1="1325.0" y1="26.0" x2="1325.0" y2="206.0" stroke="#27221b" stroke-width="1.2"/>
<text x="1300.5" y="224.0" font-family="Segoe UI, Arial, sans-serif" font-size="10" font-weight="400" text-anchor="middle" fill="#636363">72</text>
<rect x="1323.0" y="160.0" width="34.0" height="46" fill="#ffffff" stroke="#ddd6c8" stroke-width="1"/>
<line x1="1323.0" y1="26" x2="1323.0" y2="206.0" stroke="#cbc3b5" stroke-width="1"/>
<rect x="1329.0" y="28.0" width="22.0" height="22" rx="4" fill="#ffe7a8" stroke="#c18a18"/><text x="1340.0" y="43.0" font-family="Segoe UI, Arial, sans-serif" font-size="13" font-weight="700" text-anchor="middle" fill="#222">F</text>
<text x="1340.0" y="224.0" font-family="Segoe UI, Arial, sans-serif" font-size="10" font-weight="400" text-anchor="middle" fill="#636363">73</text>
<rect x="1357.0" y="160.0" width="70.0" height="46" rx="4" fill="#ece8de" stroke="#c8c0b1" stroke-dasharray="4 3"/>
<line x1="1365.0" y1="183.0" x2="1419.0" y2="183.0" stroke="#8f8778" stroke-width="1.4"/>
<text x="1392.0" y="177.0" font-family="Segoe UI, Arial, sans-serif" font-size="11" font-weight="700" text-anchor="middle" fill="#5e594f">--7--</text>
<text x="1392.0" y="223.0" font-family="Segoe UI, Arial, sans-serif" font-size="9" font-weight="400" text-anchor="middle" fill="#777066">74-80</text>
<rect x="1427.0" y="160.0" width="47.0" height="46" fill="#ffffff" stroke="#ddd6c8" stroke-width="1"/>
<line x1="1427.0" y1="26" x2="1427.0" y2="206.0" stroke="#cbc3b5" stroke-width="1"/>
<text x="1450.5" y="192.0" font-family="Segoe UI, Arial, sans-serif" class="music" font-size="11" font-weight="700" text-anchor="middle" fill="#1e526f">♩=100</text>
<text x="1450.5" y="224.0" font-family="Segoe UI, Arial, sans-serif" font-size="10" font-weight="400" text-anchor="middle" fill="#636363">81</text>
<rect x="1474.0" y="160.0" width="34.0" height="46" fill="#fbfaf6" stroke="#ddd6c8" stroke-width="1"/>
<line x1="1474.0" y1="26" x2="1474.0" y2="206.0" stroke="#cbc3b5" stroke-width="1"/>
<rect x="1508.0" y="160.0" width="34.0" height="46" fill="#ffffff" stroke="#ddd6c8" stroke-width="1"/>
<line x1="1508.0" y1="26" x2="1508.0" y2="206.0" stroke="#cbc3b5" stroke-width="1"/>
<line x1="1539.0" y1="26.0" x2="1539.0" y2="206.0" stroke="#27221b" stroke-width="1.2"/><line x1="1544.0" y1="26.0" x2="1544.0" y2="206.0" stroke="#27221b" stroke-width="3.6"/>
<text x="1525.0" y="224.0" font-family="Segoe UI, Arial, sans-serif" font-size="10" font-weight="400" text-anchor="middle" fill="#636363">83</text>
</svg>