<svg xmlns="http://www.w3.org/2000/svg" width="1137" height="238" viewBox="0 0 1137 238">
<style>.music{font-family:"Leland","Bravura","Segoe UI Symbol","Noto Music",sans-serif;}</style>
<rect width="100%" height="100%" fill="#f7f5ef"/>
<text x="24.0" y="44.0" font-family="Segoe UI, Arial, sans-serif" font-size="11" font-weight="700" text-anchor="start" fill="#6b4c16">Mark</text>
<text x="24.0" y="71.0" font-family="Segoe UI, Arial, sans-serif" font-size="11" font-weight="700" text-anchor="start" fill="#6d3b60">Repeat</text>
<text x="24.0" y="98.0" font-family="Segoe UI, Arial, sans-serif" font-size="11" font-weight="700" text-anchor="start" fill="#4c6232">Key</text>
<text x="24.0" y="126.0" font-family="Segoe UI, Arial, sans-serif" font-size="11" font-weight="700" text-anchor="start" fill="#6b4c16">Meter</text>
<text x="24.0" y="193.0" font-family="Segoe UI, Arial, sans-serif" font-size="11" font-weight="700" text-anchor="start" fill="#1e526f">Tempo</text>
<line x1="82.0" y1="27" x2="1099.0" y2="27" stroke="#d7d0c2" stroke-width="1"/>
<rect x="82.0" y="160.0" width="47.0" height="46" fill="#ffffff" stroke="#ddd6c8" stroke-width="1"/>
<line x1="82.0" y1="26" x2="82.0" y2="206.0" stroke="#cbc3b5" stroke-width="1"/>
<rect x="90.4" y="82.0" width="30.3" height="22" rx="4" fill="#e4eed1" stroke="#8da969"/><text x="105.5" y="97.0" font-family="Segoe UI, Arial, sans-serif" font-size="11" font-weight="700" text-anchor="middle" fill="#222">2♭</text>
<text x="105.5" y="122.0" font-family="Segoe UI, Arial, sans-serif" font-size="10" font-weight="700" text-anchor="middle" fill="#222">5</text><line x1="95.5" y1="126.0" x2="115.5" y2="126.0" stroke="#5f512f" stroke-width="1"/><text x="105.5" y="137.0" font-family="Segoe UI, Arial, sans-serif" font-size="10" font-weight="700" text-anchor="middle" fill="#222">4</text>
<text x="105.5" y="192.0" font-family="Segoe UI, Arial, sans-serif" class="music" font-size="11" font-weight="700" text-anchor="middle" fill="#1e526f">♩=216</text>
<text x="105.5" y="224.0" font-family="Segoe UI, Arial, sans-serif" font-size="10" font-weight="400" text-anchor="middle" fill="#636363">0</text>
<rect x="129.0" y="160.0" width="70.0" height="46" rx="4" fill="#ece8de" stroke="#c8c0b1" stroke-dasharray="4 3"/>
<line x1="137.0" y1="183.0" x2="191.0" y2="183.0" stroke="#8f8778" stroke-width="1.4"/>
<text x="164.0" y="177.0" font-family="Segoe UI, Arial, sans-serif" font-size="11" font-weight="700" text-anchor="middle" fill="#5e594f">--22--</text>
<text x="164.0" y="223.0" font-family="Segoe UI, Arial, sans-serif" font-size="9" font-weight="400" text-anchor="middle" fill="#777066">1-22</text>
<rect x="199.0" y="160.0" width="34.0" height="46" fill="#ffffff" stroke="#ddd6c8" stroke-width="1"/>
<line x1="199.0" y1="26" x2="199.0" y2="206.0" stroke="#cbc3b5" stroke-width="1"/>
<line x1="231.0" y1="26.0" x2="231.0" y2="206.0" stroke="#27221b" stroke-width="1.2"/><line x1="235.0" y1="26.0" x2="235.0" y2="206.0" stroke="#27221b" stroke-width="1.2"/>
<text x="216.0" y="224.0" font-family="Segoe UI, Arial, sans-serif" font-size="10" font-weight="400" text-anchor="middle" fill="#636363">23</text>
<rect x="233.0" y="160.0" width="70.0" height="46" rx="4" fill="#ece8de" stroke="#c8c0b1" stroke-dasharray="4 3"/>
<line x1="241.0" y1="183.0" x2="295.0" y2="183.0" stroke="#8f8778" stroke-width="1.4"/>
<text x="268.0" y="177.0" font-family="Segoe UI, Arial, sans-serif" font-size="11" font-weight="700" text-anchor="middle" fill="#5e594f">--15--</text>
<text x="268.0" y="223.0" font-family="Segoe UI, Arial, sans-serif" font-size="9" font-weight="400" text-anchor="middle" fill="#777066">24-38</text>
<rect x="303.0" y="160.0" width="34.0" height="46" fill="#ffffff" stroke="#ddd6c8" stroke-width="1"/>
<line x1="303.0" y1="26" x2="303.0" y2="206.0" stroke="#cbc3b5" stroke-width="1"/>
<text x="320.0" y="122.0" font-family="Segoe UI, Arial, sans-serif" font-size="10" font-weight="700" text-anchor="middle" fill="#222">6</text><line x1="310.0" y1="126.0" x2="330.0" y2="126.0" stroke="#5f512f" stroke-width="1"/><text x="320.0" y="137.0" font-family="Segoe UI, Arial, sans-serif" font-size="10" font-weight="700" text-anchor="middle" fill="#222">4</text>
<line x1="335.0" y1="26.0" x2="335.0" y2="206.0" stroke="#27221b" stroke-width="1.2"/><line x1="339.0" y1="26.0" x2="339.0" y2="206.0" stroke="#27221b" stroke-width="1.2"/>
<text x="320.0" y="224.0" font-family="Segoe UI, Arial, sans-serif" font-size="10" font-weight="400" text-anchor="middle" fill="#636363">39</text>
<rect x="337.0" y="160.0" width="34.0" height="46" fill="#fbfaf6" stroke="#ddd6c8" stroke-width="1"/>
<line x1="337.0" y1="26" x2="337.0" y2="206.0" stroke="#cbc3b5" stroke-width="1"/>
<text x="354.0" y="122.0" font-family="Segoe UI, Arial, sans-serif" font-size="10" font-weight="700" text-anchor="middle" fill="#222">5</text><line x1="344.0" y1="126.0" x2="364.0" y2="126.0" stroke="#5f512f" stroke-width="1"/><text x="354.0" y="137.0" font-family="Segoe UI, Arial, sans-serif" font-size="10" font-weight="700" text-anchor="middle" fill="#222">4</text>
<text x="354.0" y="224.0" font-family="Segoe UI, Arial, sans-serif" font-size="10" font-weight="400" text-anchor="middle" fill="#636363">40</text>
<rect x="371.0" y="160.0" width="34.0" height="46" fill="#ffffff" stroke="#ddd6c8" stroke-width="1"/>
<line x1="371.0" y1="26" x2="371.0" y2="206.0" stroke="#cbc3b5" stroke-width="1"/>
<rect x="405.0" y="160.0" width="34.0" height="46" fill="#fbfaf6" stroke="#ddd6c8" stroke-width="1"/>
<line x1="405.0" y1="26" x2="405.0" y2="206.0" stroke="#cbc3b5" stroke-width="1"/>
<rect x="439.0" y="160.0" width="34.0" height="46" fill="#ffffff" stroke="#ddd6c8" stroke-width="1"/>
<line x1="439.0" y1="26" x2="439.0" y2="206.0" stroke="#cbc3b5" stroke-width="1"/>
<line x1="471.0" y1="26.0" x2="471.0" y2="206.0" stroke="#27221b" stroke-width="1.2"/><line x1="475.0" y1="26.0" x2="475.0" y2="206.0" stroke="#27221b" stroke-width="1.2"/>
<text x="456.0" y="224.0" font-family="Segoe UI, Arial, sans-serif" font-size="10" font-weight="400" text-anchor="middle" fill="#636363">43</text>
<rect x="473.0" y="160.0" width="70.0" height="46" rx="4" fill="#ece8de" stroke="#c8c0b1" stroke-dasharray="4 3"/>
<line x1="481.0" y1="183.0" x2="535.0" y2="183.0" stroke="#8f8778" stroke-width="1.4"/>
<text x="508.0" y="177.0" font-family="Segoe UI, Arial, sans-serif" font-size="11" font-weight="700" text-anchor="middle" fill="#5e594f">--15--</text>
<text x="508.0" y="223.0" font-family="Segoe UI, Arial, sans-serif" font-size="9" font-weight="400" text-anchor="middle" fill="#777066">44-58</text>
<rect x="543.0" y="160.0" width="34.0" height="46" fill="#ffffff" stroke="#ddd6c8" stroke-width="1"/>
<line x1="543.0" y1="26" x2="543.0" y2="206.0" stroke="#cbc3b5" stroke-width="1"/>
<line x1="575.0" y1="26.0" x2="575.0" y2="206.0" stroke="#27221b" stroke-width="1.2"/><line x1="579.0" y1="26.0" x2="579.0" y2="206.0" stroke="#27221b" stroke-width="1.2"/>
<text x="560.0" y="224.0" font-family="Segoe UI, Arial, sans-serif" font-size="10" font-weight="400" text-anchor="middle" fill="#636363">59</text>
<rect x="577.0" y="160.0" width="34.0" height="46" fill="#fbfaf6" stroke="#ddd6c8" stroke-width="1"/>
<line x1="577.0" y1="26" x2="577.0" y2="206.0" stroke="#cbc3b5" stroke-width="1"/>
<text x="594.0" y="122.0" font-family="Segoe UI, Arial, sans-serif" font-size="10" font-weight="700" text-anchor="middle" fill="#222">4</text><line x1="584.0" y1="126.0" x2="604.0" y2="126.0" stroke="#5f512f" stroke-width="1"/><text x="594.0" y="137.0" font-family="Segoe UI, Arial, sans-serif" font-size="10" font-weight="700" text-anchor="middle" fill="#222">4</text>
<text x="594.0" y="224.0" font-family="Segoe UI, Arial, sans-serif" font-size="10" font-weight="400" text-anchor="middle" fill="#636363">60</text>
<rect x="611.0" y="160.0" width="70.0" height="46" rx="4" fill="#ece8de" stroke="#c8c0b1" stroke-dasharray="4 3"/>
<line x1="619.0" y1="183.0" x2="673.0" y2="183.0" stroke="#8f8778" stroke-width="1.4"/>
<text x="646.0" y="177.0" font-family="Segoe UI, Arial, sans-serif" font-size="11" font-weight="700" text-anchor="middle" fill="#5e594f">--27--</text>
<text x="646.0" y="223.0" font-family="Segoe UI, Arial, sans-serif" font-size="9" font-weight="400" text-anchor="middle" fill="#777066">61-87</text>
<rect x="681.0" y="160.0" width="34.0" height="46" fill="#fbfaf6" stroke="#ddd6c8" stroke-width="1"/>
<line x1="681.0" y1="26" x2="681.0" y2="206.0" stroke="#cbc3b5" stroke-width="1"/>
<text x="698.0" y="122.0" font-family="Segoe UI, Arial, sans-serif" font-size="10" font-weight="700" text-anchor="middle" fill="#222">5</text><line x1="688.0" y1="126.0" x2="708.0" y2="126.0" stroke="#5f512f" stroke-width="1"/><text x="698.0" y="137.0" font-family="Segoe UI, Arial, sans-serif" font-size="10" font-weight="700" text-anchor="middle" fill="#222">4</text>
<text x="698.0" y="224.0" font-family="Segoe UI, Arial, sans-serif" font-size="10" font-weight="400" text-anchor="middle" fill="#636363">88</text>
<rect x="715.0" y="160.0" width="34.0" height="46" fill="#ffffff" stroke="#ddd6c8" stroke-width="1"/>
<line x1="715.0" y1="26" x2="715.0" y2="206.0" stroke="#cbc3b5" stroke-width="1"/>
<text x="732.0" y="224.0" font-family="Segoe UI, Arial, sans-serif" font-size="10" font-weight="400" text-anchor="middle" fill="#636363">89</text>
<rect x="749.0" y="160.0" width="34.0" height="46" fill="#fbfaf6" stroke="#ddd6c8" stroke-width="1"/>
<line x1="749.0" y1="26" x2="749.0" y2="206.0" stroke="#cbc3b5" stroke-width="1"/>
<rect x="783.0" y="160.0" width="34.0" height="46" fill="#ffffff" stroke="#ddd6c8" stroke-width="1"/>
<line x1="783.0" y1="26" x2="783.0" y2="206.0" stroke="#cbc3b5" stroke-width="1"/>
<line x1="815.0" y1="26.0" x2="815.0" y2="206.0" stroke="#27221b" stroke-width="1.2"/><line x1="819.0" y1="26.0" x2="819.0" y2="206.0" stroke="#27221b" stroke-width="1.2"/>
<text x="800.0" y="224.0" font-family="Segoe UI, Arial, sans-serif" font-size="10" font-weight="400" text-anchor="middle" fill="#636363">91</text>
<rect x="817.0" y="160.0" width="40.0" height="46" fill="#fbfaf6" stroke="#ddd6c8" stroke-width="1"/>
<line x1="817.0" y1="26" x2="817.0" y2="206.0" stroke="#cbc3b5" stroke-width="1"/>
<text x="837.0" y="122.0" font-family="Segoe UI, Arial, sans-serif" font-size="10" font-weight="700" text-anchor="middle" fill="#222">4</text><line x1="827.0" y1="126.0" x2="847.0" y2="126.0" stroke="#5f512f" stroke-width="1"/><text x="837.0" y="137.0" font-family="Segoe UI, Arial, sans-serif" font-size="10" font-weight="700" text-anchor="middle" fill="#222">4</text>
<text x="837.0" y="192.0" font-family="Segoe UI, Arial, sans-serif" class="music" font-size="11" font-weight="700" text-anchor="middle" fill="#1e526f">♩=80</text>
<text x="837.0" y="224.0" font-family="Segoe UI, Arial, sans-serif" font-size="10" font-weight="400" text-anchor="middle" fill="#636363">92</text>
<rect x="857.0" y="160.0" width="70.0" height="46" rx="4" fill="#ece8de" stroke="#c8c0b1" stroke-dasharray="4 3"/>
<line x1="865.0" y1="183.0" x2="919.0" y2="183.0" stroke="#8f8778" stroke-width="1.4"/>
<text x="892.0" y="177.0" font-family="Segoe UI, Arial, sans-serif" font-size="11" font-weight="700" text-anchor="middle" fill="#5e594f">--6--</text>
<text x="892.0" y="223.0" font-family="Segoe UI, Arial, sans-serif" font-size="9" font-weight="400" text-anchor="middle" fill="#777066">93-98</text>
<rect x="927.0" y="160.0" width="34.0" height="46" fill="#fbfaf6" stroke="#ddd6c8" stroke-width="1"/>
<line x1="927.0" y1="26" x2="927.0" y2="206.0" stroke="#cbc3b5" stroke-width="1"/>
<line x1="959.0" y1="26.0" x2="959.0" y2="206.0" stroke="#27221b" stroke-width="1.2"/><line x1="963.0" y1="26.0" x2="963.0" y2="206.0" stroke="#27221b" stroke-width="1.2"/>
<text x="944.0" y="224.0" font-family="Segoe UI, Arial, sans-serif" font-size="10" font-weight="400" text-anchor="middle" fill="#636363">99</text>
<rect x="961.0" y="160.0" width="34.0" height="46" fill="#ffffff" stroke="#ddd6c8" stroke-width="1"/>
<line x1="961.0" y1="26" x2="961.0" y2="206.0" stroke="#cbc3b5" stroke-width="1"/>
<rect x="964.0" y="82.0" width="28.0" height="22" rx="4" fill="#e4eed1" stroke="#8da969"/><text x="978.0" y="97.0" font-family="Segoe UI, Arial, sans-serif" font-size="11" font-weight="700" text-anchor="middle" fill="#222">1#</text>
<text x="978.0" y="224.0" font-family="Segoe UI, Arial, sans-serif" font-size="10" font-weight="400" text-anchor="middle" fill="#636363">100</text>
<rect x="995.0" y="160.0" width="70.0" height="46" rx="4" fill="#ece8de" stroke="#c8c0b1" stroke-dasharray="4 3"/>
<line x1="1003.0" y1="183.0" x2="1057.0" y2="183.0" stroke="#8f8778" stroke-width="1.4"/>
<text x="1030.0" y="177.0" font-family="Segoe UI, Arial, sans-serif" font-size="11" font-weight="700" text-anchor="middle" fill="#5e594f">--27--</text>
<text x="1030.0" y="223.0" font-family="Segoe UI, Arial, sans-serif" font-size="9" font-weight="400" text-anchor="middle" fill="#777066">101-127</text>
<rect x="1065.0" y="160.0" width="34.0" height="46" fill="#ffffff" stroke="#ddd6c8" stroke-width="1"/>
<line x1="1065.0" y1="26" x2="1065.0" y2="206.0" stroke="#cbc3b5" stroke-width="1"/>
<line x1="1096.0" y1="26.0" x2="1096.0" y2="206.0" stroke="#27221b" stroke-width="1.2"/><line x1="1101.0" y1="26.0" x2="1101.0" y2="206.0" stroke="#27221b" stroke-width="3.6"/>
<text x="1082.0" y="224.0" font-family="Segoe UI, Arial, sans-serif" font-size="10" font-weight="400" text-anchor="middle" fill="#636363">128</text>
</svg>