<svg xmlns="http://www.w3.org/2000/svg" width="1237" height="238" viewBox="0 0 1237 238">
<style>.music{font-family:"Leland","Bravura","Segoe UI Symbol","Noto Music",sans-serif;}</style>
<rect width="100%" height="100%" fill="#f7f5ef"/>
<text x="24.0" y="44.0" font-family="Segoe UI, Arial, sans-serif" font-size="11" font-weight="700" text-anchor="start" fill="#6b4c16">Mark</text>
<text x="24.0" y="71.0" font-family="Segoe UI, Arial, sans-serif" font-size="11" font-weight="700" text-anchor="start" fill="#6d3b60">Repeat</text>
<text x="24.0" y="98.0" font-family="Segoe UI, Arial, sans-serif" font-size="11" font-weight="700" text-anchor="start" fill="#4c6232">Key</text>
<text x="24.0" y="126.0" font-family="Segoe UI, Arial, sans-serif" font-size="11" font-weight="700" text-anchor="start" fill="#6b4c16">Meter</text>
<text x="24.0" y="193.0" font-family="Segoe UI, Arial, sans-serif" font-size="11" font-weight="700" text-anchor="start" fill="#1e526f">Tempo</text>
<line x1="82.0" y1="27" x2="1199.0" y2="27" stroke="#d7d0c2" stroke-width="1"/>
<rect x="82.0" y="160.0" width="47.0" height="46" fill="#ffffff" stroke="#ddd6c8" stroke-width="1"/>
<line x1="82.0" y1="26" x2="82.0" y2="206.0" stroke="#cbc3b5" stroke-width="1"/>
<rect x="90.4" y="82.0" width="30.3" height="22" rx="4" fill="#e4eed1" stroke="#8da969"/><text x="105.5" y="97.0" font-family="Segoe UI, Arial, sans-serif" font-size="11" font-weight="700" text-anchor="middle" fill="#222">3♭</text>
<text x="105.5" y="122.0" font-family="Segoe UI, Arial, sans-serif" font-size="10" font-weight="700" text-anchor="middle" fill="#222">4</text><line x1="95.5" y1="126.0" x2="115.5" y2="126.0" stroke="#5f512f" stroke-width="1"/><text x="105.5" y="137.0" font-family="Segoe UI, Arial, sans-serif" font-size="10" font-weight="700" text-anchor="middle" fill="#222">4</text>
<text x="105.5" y="192.0" font-family="Segoe UI, Arial, sans-serif" class="music" font-size="11" font-weight="700" text-anchor="middle" fill="#1e526f">♩=216</text>
<text x="105.5" y="224.0" font-family="Segoe UI, Arial, sans-serif" font-size="10" font-weight="400" text-anchor="middle" fill="#636363">1</text>
<rect x="129.0" y="160.0" width="70.0" height="46" rx="4" fill="#ece8de" stroke="#c8c0b1" stroke-dasharray="4 3"/>
<line x1="137.0" y1="183.0" x2="191.0" y2="183.0" stroke="#8f8778" stroke-width="1.4"/>
<text x="164.0" y="177.0" font-family="Segoe UI, Arial, sans-serif" font-size="11" font-weight="700" text-anchor="middle" fill="#5e594f">--6--</text>
<text x="164.0" y="223.0" font-family="Segoe UI, Arial, sans-serif" font-size="9" font-weight="400" text-anchor="middle" fill="#777066">2-7</text>
<rect x="199.0" y="160.0" width="34.0" height="46" fill="#ffffff" stroke="#ddd6c8" stroke-width="1"/>
<line x1="199.0" y1="26" x2="199.0" y2="206.0" stroke="#cbc3b5" stroke-width="1"/>
<line x1="231.0" y1="26.0" x2="231.0" y2="206.0" stroke="#27221b" stroke-width="1.2"/><line x1="235.0" y1="26.0" x2="235.0" y2="206.0" stroke="#27221b" stroke-width="1.2"/>
<text x="216.0" y="224.0" font-family="Segoe UI, Arial, sans-serif" font-size="10" font-weight="400" text-anchor="middle" fill="#636363">8</text>
<rect x="233.0" y="160.0" width="34.0" height="46" fill="#fbfaf6" stroke="#ddd6c8" stroke-width="1"/>
<line x1="233.0" y1="26" x2="233.0" y2="206.0" stroke="#cbc3b5" stroke-width="1"/>
<rect x="239.0" y="28.0" width="22.0" height="22" rx="4" fill="#ffe7a8" stroke="#c18a18"/><text x="250.0" y="43.0" font-family="Segoe UI, Arial, sans-serif" font-size="13" font-weight="700" text-anchor="middle" fill="#222">A</text>
<text x="250.0" y="224.0" font-family="Segoe UI, Arial, sans-serif" font-size="10" font-weight="400" text-anchor="middle" fill="#636363">9</text>
<rect x="267.0" y="160.0" width="70.0" height="46" rx="4" fill="#ece8de" stroke="#c8c0b1" stroke-dasharray="4 3"/>
<line x1="275.0" y1="183.0" x2="329.0" y2="183.0" stroke="#8f8778" stroke-width="1.4"/>
<text x="302.0" y="177.0" font-family="Segoe UI, Arial, sans-serif" font-size="11" font-weight="700" text-anchor="middle" fill="#5e594f">--6--</text>
<text x="302.0" y="223.0" font-family="Segoe UI, Arial, sans-serif" font-size="9" font-weight="400" text-anchor="middle" fill="#777066">10-15</text>
<rect x="337.0" y="160.0" width="34.0" height="46" fill="#fbfaf6" stroke="#ddd6c8" stroke-width="1"/>
<line x1="337.0" y1="26" x2="337.0" y2="206.0" stroke="#cbc3b5" stroke-width="1"/>
<line x1="369.0" y1="26.0" x2="369.0" y2="206.0" stroke="#27221b" stroke-width="1.2"/><line x1="373.0" y1="26.0" x2="373.0" y2="206.0" stroke="#27221b" stroke-width="1.2"/>
<text x="354.0" y="224.0" font-family="Segoe UI, Arial, sans-serif" font-size="10" font-weight="400" text-anchor="middle" fill="#636363">16</text>
<rect x="371.0" y="160.0" width="34.0" height="46" fill="#ffffff" stroke="#ddd6c8" stroke-width="1"/>
<line x1="371.0" y1="26" x2="371.0" y2="206.0" stroke="#cbc3b5" stroke-width="1"/>
<rect x="377.0" y="28.0" width="22.0" height="22" rx="4" fill="#ffe7a8" stroke="#c18a18"/><text x="388.0" y="43.0" font-family="Segoe UI, Arial, sans-serif" font-size="13" font-weight="700" text-anchor="middle" fill="#222">B</text>
<text x="388.0" y="224.0" font-family="Segoe UI, Arial, sans-serif" font-size="10" font-weight="400" text-anchor="middle" fill="#636363">17</text>
<rect x="405.0" y="160.0" width="70.0" height="46" rx="4" fill="#ece8de" stroke="#c8c0b1" stroke-dasharray="4 3"/>
<line x1="413.0" y1="183.0" x2="467.0" y2="183.0" stroke="#8f8778" stroke-width="1.4"/>
<text x="440.0" y="177.0" font-family="Segoe UI, Arial, sans-serif" font-size="11" font-weight="700" text-anchor="middle" fill="#5e594f">--14--</text>
<text x="440.0" y="223.0" font-family="Segoe UI, Arial, sans-serif" font-size="9" font-weight="400" text-anchor="middle" fill="#777066">18-31</text>
<rect x="475.0" y="160.0" width="34.0" height="46" fill="#ffffff" stroke="#ddd6c8" stroke-width="1"/>
<line x1="475.0" y1="26" x2="475.0" y2="206.0" stroke="#cbc3b5" stroke-width="1"/>
<line x1="507.0" y1="26.0" x2="507.0" y2="206.0" stroke="#27221b" stroke-width="1.2"/><line x1="511.0" y1="26.0" x2="511.0" y2="206.0" stroke="#27221b" stroke-width="1.2"/>
<text x="492.0" y="224.0" font-family="Segoe UI, Arial, sans-serif" font-size="10" font-weight="400" text-anchor="middle" fill="#636363">32</text>
<rect x="509.0" y="160.0" width="34.0" height="46" fill="#fbfaf6" stroke="#ddd6c8" stroke-width="1"/>
<line x1="509.0" y1="26" x2="509.0" y2="206.0" stroke="#cbc3b5" stroke-width="1"/>
<rect x="515.0" y="28.0" width="22.0" height="22" rx="4" fill="#ffe7a8" stroke="#c18a18"/><text x="526.0" y="43.0" font-family="Segoe UI, Arial, sans-serif" font-size="13" font-weight="700" text-anchor="middle" fill="#222">C</text>
<text x="526.0" y="224.0" font-family="Segoe UI, Arial, sans-serif" font-size="10" font-weight="400" text-anchor="middle" fill="#636363">33</text>
<rect x="543.0" y="160.0" width="70.0" height="46" rx="4" fill="#ece8de" stroke="#c8c0b1" stroke-dasharray="4 3"/>
<line x1="551.0" y1="183.0" x2="605.0" y2="183.0" stroke="#8f8778" stroke-width="1.4"/>
<text x="578.0" y="177.0" font-family="Segoe UI, Arial, sans-serif" font-size="11" font-weight="700" text-anchor="middle" fill="#5e594f">--16--</text>
<text x="578.0" y="223.0" font-family="Segoe UI, Arial, sans-serif" font-size="9" font-weight="400" text-anchor="middle" fill="#777066">34-49</text>
<rect x="613.0" y="160.0" width="34.0" height="46" fill="#fbfaf6" stroke="#ddd6c8" stroke-width="1"/>
<line x1="613.0" y1="26" x2="613.0" y2="206.0" stroke="#cbc3b5" stroke-width="1"/>
<line x1="645.0" y1="26.0" x2="645.0" y2="206.0" stroke="#27221b" stroke-width="1.2"/><line x1="649.0" y1="26.0" x2="649.0" y2="206.0" stroke="#27221b" stroke-width="1.2"/>
<text x="630.0" y="224.0" font-family="Segoe UI, Arial, sans-serif" font-size="10" font-weight="400" text-anchor="middle" fill="#636363">50</text>
<rect x="647.0" y="160.0" width="34.0" height="46" fill="#ffffff" stroke="#ddd6c8" stroke-width="1"/>
<line x1="647.0" y1="26" x2="647.0" y2="206.0" stroke="#cbc3b5" stroke-width="1"/>
<rect x="653.0" y="28.0" width="22.0" height="22" rx="4" fill="#ffe7a8" stroke="#c18a18"/><text x="664.0" y="43.0" font-family="Segoe UI, Arial, sans-serif" font-size="13" font-weight="700" text-anchor="middle" fill="#222">D</text>
<text x="664.0" y="224.0" font-family="Segoe UI, Arial, sans-serif" font-size="10" font-weight="400" text-anchor="middle" fill="#636363">51</text>
<rect x="681.0" y="160.0" width="70.0" height="46" rx="4" fill="#ece8de" stroke="#c8c0b1" stroke-dasharray="4 3"/>
<line x1="689.0" y1="183.0" x2="743.0" y2="183.0" stroke="#8f8778" stroke-width="1.4"/>
<text x="716.0" y="177.0" font-family="Segoe UI, Arial, sans-serif" font-size="11" font-weight="700" text-anchor="middle" fill="#5e594f">--6--</text>
<text x="716.0" y="223.0" font-family="Segoe UI, Arial, sans-serif" font-size="9" font-weight="400" text-anchor="middle" fill="#777066">52-57</text>
<rect x="751.0" y="160.0" width="34.0" height="46" fill="#ffffff" stroke="#ddd6c8" stroke-width="1"/>
<line x1="751.0" y1="26" x2="751.0" y2="206.0" stroke="#cbc3b5" stroke-width="1"/>
<line x1="783.0" y1="26.0" x2="783.0" y2="206.0" stroke="#27221b" stroke-width="1.2"/><line x1="787.0" y1="26.0" x2="787.0" y2="206.0" stroke="#27221b" stroke-width="1.2"/>
<text x="768.0" y="224.0" font-family="Segoe UI, Arial, sans-serif" font-size="10" font-weight="400" text-anchor="middle" fill="#636363">58</text>
<rect x="785.0" y="160.0" width="34.0" height="46" fill="#fbfaf6" stroke="#ddd6c8" stroke-width="1"/>
<line x1="785.0" y1="26" x2="785.0" y2="206.0" stroke="#cbc3b5" stroke-width="1"/>
<rect x="791.0" y="28.0" width="22.0" height="22" rx="4" fill="#ffe7a8" stroke="#c18a18"/><text x="802.0" y="43.0" font-family="Segoe UI, Arial, sans-serif" font-size="13" font-weight="700" text-anchor="middle" fill="#222">E</text>
<text x="802.0" y="224.0" font-family="Segoe UI, Arial, sans-serif" font-size="10" font-weight="400" text-anchor="middle" fill="#636363">59</text>
<rect x="819.0" y="160.0" width="70.0" height="46" rx="4" fill="#ece8de" stroke="#c8c0b1" stroke-dasharray="4 3"/>
<line x1="827.0" y1="183.0" x2="881.0" y2="183.0" stroke="#8f8778" stroke-width="1.4"/>
<text x="854.0" y="177.0" font-family="Segoe UI, Arial, sans-serif" font-size="11" font-weight="700" text-anchor="middle" fill="#5e594f">--14--</text>
<text x="854.0" y="223.0" font-family="Segoe UI, Arial, sans-serif" font-size="9" font-weight="400" text-anchor="middle" fill="#777066">60-73</text>
<rect x="889.0" y="160.0" width="34.0" height="46" fill="#fbfaf6" stroke="#ddd6c8" stroke-width="1"/>
<line x1="889.0" y1="26" x2="889.0" y2="206.0" stroke="#cbc3b5" stroke-width="1"/>
<line x1="921.0" y1="26.0" x2="921.0" y2="206.0" stroke="#27221b" stroke-width="1.2"/><line x1="925.0" y1="26.0" x2="925.0" y2="206.0" stroke="#27221b" stroke-width="1.2"/>
<text x="906.0" y="224.0" font-family="Segoe UI, Arial, sans-serif" font-size="10" font-weight="400" text-anchor="middle" fill="#636363">74</text>
<rect x="923.0" y="160.0" width="34.0" height="46" fill="#ffffff" stroke="#ddd6c8" stroke-width="1"/>
<line x1="923.0" y1="26" x2="923.0" y2="206.0" stroke="#cbc3b5" stroke-width="1"/>
<rect x="929.0" y="28.0" width="22.0" height="22" rx="4" fill="#ffe7a8" stroke="#c18a18"/><text x="940.0" y="43.0" font-family="Segoe UI, Arial, sans-serif" font-size="13" font-weight="700" text-anchor="middle" fill="#222">F</text>
<text x="940.0" y="224.0" font-family="Segoe UI, Arial, sans-serif" font-size="10" font-weight="400" text-anchor="middle" fill="#636363">75</text>
<rect x="957.0" y="160.0" width="70.0" height="46" rx="4" fill="#ece8de" stroke="#c8c0b1" stroke-dasharray="4 3"/>
<line x1="965.0" y1="183.0" x2="1019.0" y2="183.0" stroke="#8f8778" stroke-width="1.4"/>
<text x="992.0" y="177.0" font-family="Segoe UI, Arial, sans-serif" font-size="11" font-weight="700" text-anchor="middle" fill="#5e594f">--22--</text>
<text x="992.0" y="223.0" font-family="Segoe UI, Arial, sans-serif" font-size="9" font-weight="400" text-anchor="middle" fill="#777066">76-97</text>
<rect x="1027.0" y="160.0" width="34.0" height="46" fill="#ffffff" stroke="#ddd6c8" stroke-width="1"/>
<line x1="1027.0" y1="26" x2="1027.0" y2="206.0" stroke="#cbc3b5" stroke-width="1"/>
<line x1="1059.0" y1="26.0" x2="1059.0" y2="206.0" stroke="#27221b" stroke-width="1.2"/><line x1="1063.0" y1="26.0" x2="1063.0" y2="206.0" stroke="#27221b" stroke-width="1.2"/>
<text x="1044.0" y="224.0" font-family="Segoe UI, Arial, sans-serif" font-size="10" font-weight="400" text-anchor="middle" fill="#636363">98</text>
<rect x="1061.0" y="160.0" width="34.0" height="46" fill="#fbfaf6" stroke="#ddd6c8" stroke-width="1"/>
<line x1="1061.0" y1="26" x2="1061.0" y2="206.0" stroke="#cbc3b5" stroke-width="1"/>
<rect x="1067.0" y="28.0" width="22.0" height="22" rx="4" fill="#ffe7a8" stroke="#c18a18"/><text x="1078.0" y="43.0" font-family="Segoe UI, Arial, sans-serif" font-size="13" font-weight="700" text-anchor="middle" fill="#222">G</text>
<text x="1078.0" y="224.0" font-family="Segoe UI, Arial, sans-serif" font-size="10" font-weight="400" text-anchor="middle" fill="#636363">99</text>
<rect x="1095.0" y="160.0" width="70.0" height="46" rx="4" fill="#ece8de" stroke="#c8c0b1" stroke-dasharray="4 3"/>
<line x1="1103.0" y1="183.0" x2="1157.0" y2="183.0" stroke="#8f8778" stroke-width="1.4"/>
<text x="1130.0" y="177.0" font-family="Segoe UI, Arial, sans-serif" font-size="11" font-weight="700" text-anchor="middle" fill="#5e594f">--22--</text>
<text x="1130.0" y="223.0" font-family="Segoe UI, Arial, sans-serif" font-size="9" font-weight="400" text-anchor="middle" fill="#777066">100-121</text>
<rect x="1165.0" y="160.0" width="34.0" height="46" fill="#fbfaf6" stroke="#ddd6c8" stroke-width="1"/>
<line x1="1165.0" y1="26" x2="1165.0" y2="206.0" stroke="#cbc3b5" stroke-width="1"/>
<line x1="1196.0" y1="26.0" x2="1196.0" y2="206.0" stroke="#27221b" stroke-width="1.2"/><line x1="1201.0" y1="26.0" x2="1201.0" y2="206.0" stroke="#27221b" stroke-width="3.6"/>
<text x="1182.0" y="224.0" font-family="Segoe UI, Arial, sans-serif" font-size="10" font-weight="400" text-anchor="middle" fill="#636363">122</text>
</svg>