<svg xmlns="http://www.w3.org/2000/svg" width="2601" height="238" viewBox="0 0 2601 238">
<style>.music{font-family:"Leland","Bravura","Segoe UI Symbol","Noto Music",sans-serif;}</style>
<rect width="100%" height="100%" fill="#f7f5ef"/>
<text x="24.0" y="44.0" font-family="Segoe UI, Arial, sans-serif" font-size="11" font-weight="700" text-anchor="start" fill="#6b4c16">Mark</text>
<text x="24.0" y="71.0" font-family="Segoe UI, Arial, sans-serif" font-size="11" font-weight="700" text-anchor="start" fill="#6d3b60">Repeat</text>
<text x="24.0" y="98.0" font-family="Segoe UI, Arial, sans-serif" font-size="11" font-weight="700" text-anchor="start" fill="#4c6232">Key</text>
<text x="24.0" y="126.0" font-family="Segoe UI, Arial, sans-serif" font-size="11" font-weight="700" text-anchor="start" fill="#6b4c16">Meter</text>
<text x="24.0" y="193.0" font-family="Segoe UI, Arial, sans-serif" font-size="11" font-weight="700" text-anchor="start" fill="#1e526f">Tempo</text>
<line x1="82.0" y1="27" x2="2563.0" y2="27" stroke="#d7d0c2" stroke-width="1"/>
<rect x="82.0" y="160.0" width="40.0" height="46" fill="#ffffff" stroke="#ddd6c8" stroke-width="1"/>
<line x1="82.0" y1="26" x2="82.0" y2="206.0" stroke="#cbc3b5" stroke-width="1"/>
<rect x="86.9" y="82.0" width="30.3" height="22" rx="4" fill="#e4eed1" stroke="#8da969"/><text x="102.0" y="97.0" font-family="Segoe UI, Arial, sans-serif" font-size="11" font-weight="700" text-anchor="middle" fill="#222">1♭</text>
<text x="102.0" y="122.0" font-family="Segoe UI, Arial, sans-serif" font-size="10" font-weight="700" text-anchor="middle" fill="#222">4</text><line x1="92.0" y1="126.0" x2="112.0" y2="126.0" stroke="#5f512f" stroke-width="1"/><text x="102.0" y="137.0" font-family="Segoe UI, Arial, sans-serif" font-size="10" font-weight="700" text-anchor="middle" fill="#222">4</text>
<text x="102.0" y="192.0" font-family="Segoe UI, Arial, sans-serif" class="music" font-size="11" font-weight="700" text-anchor="middle" fill="#1e526f">♩=80</text>
<text x="102.0" y="224.0" font-family="Segoe UI, Arial, sans-serif" font-size="10" font-weight="400" text-anchor="middle" fill="#636363">1</text>
<rect x="122.0" y="160.0" width="70.0" height="46" rx="4" fill="#ece8de" stroke="#c8c0b1" stroke-dasharray="4 3"/>
<line x1="130.0" y1="183.0" x2="184.0" y2="183.0" stroke="#8f8778" stroke-width="1.4"/>
<text x="157.0" y="177.0" font-family="Segoe UI, Arial, sans-serif" font-size="11" font-weight="700" text-anchor="middle" fill="#5e594f">--18--</text>
<text x="157.0" y="223.0" font-family="Segoe UI, Arial, sans-serif" font-size="9" font-weight="400" text-anchor="middle" fill="#777066">2-19</text>
<rect x="192.0" y="160.0" width="34.0" height="46" fill="#ffffff" stroke="#ddd6c8" stroke-width="1"/>
<line x1="192.0" y1="26" x2="192.0" y2="206.0" stroke="#cbc3b5" stroke-width="1"/>
<line x1="224.0" y1="26.0" x2="224.0" y2="206.0" stroke="#27221b" stroke-width="1.2"/><line x1="228.0" y1="26.0" x2="228.0" y2="206.0" stroke="#27221b" stroke-width="1.2"/>
<text x="209.0" y="224.0" font-family="Segoe UI, Arial, sans-serif" font-size="10" font-weight="400" text-anchor="middle" fill="#636363">20</text>
<rect x="226.0" y="160.0" width="47.0" height="46" fill="#fbfaf6" stroke="#ddd6c8" stroke-width="1"/>
<line x1="226.0" y1="26" x2="226.0" y2="206.0" stroke="#cbc3b5" stroke-width="1"/>
<text x="249.5" y="122.0" font-family="Segoe UI, Arial, sans-serif" font-size="10" font-weight="700" text-anchor="middle" fill="#222">3</text><line x1="239.5" y1="126.0" x2="259.5" y2="126.0" stroke="#5f512f" stroke-width="1"/><text x="249.5" y="137.0" font-family="Segoe UI, Arial, sans-serif" font-size="10" font-weight="700" text-anchor="middle" fill="#222">4</text>
<text x="249.5" y="192.0" font-family="Segoe UI, Arial, sans-serif" class="music" font-size="11" font-weight="700" text-anchor="middle" fill="#1e526f">♩=160</text>
<text x="249.5" y="224.0" font-family="Segoe UI, Arial, sans-serif" font-size="10" font-weight="400" text-anchor="middle" fill="#636363">21</text>
<rect x="273.0" y="160.0" width="34.0" height="46" fill="#ffffff" stroke="#ddd6c8" stroke-width="1"/>
<line x1="273.0" y1="26" x2="273.0" y2="206.0" stroke="#cbc3b5" stroke-width="1"/>
<rect x="307.0" y="160.0" width="34.0" height="46" fill="#fbfaf6" stroke="#ddd6c8" stroke-width="1"/>
<line x1="307.0" y1="26" x2="307.0" y2="206.0" stroke="#cbc3b5" stroke-width="1"/>
<rect x="341.0" y="160.0" width="34.0" height="46" fill="#ffffff" stroke="#ddd6c8" stroke-width="1"/>
<line x1="341.0" y1="26" x2="341.0" y2="206.0" stroke="#cbc3b5" stroke-width="1"/>
<line x1="373.0" y1="26.0" x2="373.0" y2="206.0" stroke="#27221b" stroke-width="1.2"/><line x1="377.0" y1="26.0" x2="377.0" y2="206.0" stroke="#27221b" stroke-width="1.2"/>
<text x="358.0" y="224.0" font-family="Segoe UI, Arial, sans-serif" font-size="10" font-weight="400" text-anchor="middle" fill="#636363">24</text>
<rect x="375.0" y="160.0" width="34.0" height="46" fill="#fbfaf6" stroke="#ddd6c8" stroke-width="1"/>
<line x1="375.0" y1="26" x2="375.0" y2="206.0" stroke="#cbc3b5" stroke-width="1"/>
<rect x="381.0" y="28.0" width="22.0" height="22" rx="4" fill="#ffe7a8" stroke="#c18a18"/><text x="392.0" y="43.0" font-family="Segoe UI, Arial, sans-serif" font-size="13" font-weight="700" text-anchor="middle" fill="#222">A</text>
<text x="392.0" y="224.0" font-family="Segoe UI, Arial, sans-serif" font-size="10" font-weight="400" text-anchor="middle" fill="#636363">25</text>
<rect x="409.0" y="160.0" width="70.0" height="46" rx="4" fill="#ece8de" stroke="#c8c0b1" stroke-dasharray="4 3"/>
<line x1="417.0" y1="183.0" x2="471.0" y2="183.0" stroke="#8f8778" stroke-width="1.4"/>
<text x="444.0" y="177.0" font-family="Segoe UI, Arial, sans-serif" font-size="11" font-weight="700" text-anchor="middle" fill="#5e594f">--14--</text>
<text x="444.0" y="223.0" font-family="Segoe UI, Arial, sans-serif" font-size="9" font-weight="400" text-anchor="middle" fill="#777066">26-39</text>
<rect x="479.0" y="160.0" width="34.0" height="46" fill="#fbfaf6" stroke="#ddd6c8" stroke-width="1"/>
<line x1="479.0" y1="26" x2="479.0" y2="206.0" stroke="#cbc3b5" stroke-width="1"/>
<line x1="511.0" y1="26.0" x2="511.0" y2="206.0" stroke="#27221b" stroke-width="1.2"/><line x1="515.0" y1="26.0" x2="515.0" y2="206.0" stroke="#27221b" stroke-width="1.2"/>
<text x="496.0" y="224.0" font-family="Segoe UI, Arial, sans-serif" font-size="10" font-weight="400" text-anchor="middle" fill="#636363">40</text>
<rect x="513.0" y="160.0" width="34.0" height="46" fill="#ffffff" stroke="#ddd6c8" stroke-width="1"/>
<line x1="513.0" y1="26" x2="513.0" y2="206.0" stroke="#cbc3b5" stroke-width="1"/>
<rect x="519.0" y="28.0" width="22.0" height="22" rx="4" fill="#ffe7a8" stroke="#c18a18"/><text x="530.0" y="43.0" font-family="Segoe UI, Arial, sans-serif" font-size="13" font-weight="700" text-anchor="middle" fill="#222">B</text>
<text x="530.0" y="224.0" font-family="Segoe UI, Arial, sans-serif" font-size="10" font-weight="400" text-anchor="middle" fill="#636363">41</text>
<rect x="547.0" y="160.0" width="70.0" height="46" rx="4" fill="#ece8de" stroke="#c8c0b1" stroke-dasharray="4 3"/>
<line x1="555.0" y1="183.0" x2="609.0" y2="183.0" stroke="#8f8778" stroke-width="1.4"/>
<text x="582.0" y="177.0" font-family="Segoe UI, Arial, sans-serif" font-size="11" font-weight="700" text-anchor="middle" fill="#5e594f">--14--</text>
<text x="582.0" y="223.0" font-family="Segoe UI, Arial, sans-serif" font-size="9" font-weight="400" text-anchor="middle" fill="#777066">42-55</text>
<rect x="617.0" y="160.0" width="34.0" height="46" fill="#ffffff" stroke="#ddd6c8" stroke-width="1"/>
<line x1="617.0" y1="26" x2="617.0" y2="206.0" stroke="#cbc3b5" stroke-width="1"/>
<line x1="649.0" y1="26.0" x2="649.0" y2="206.0" stroke="#27221b" stroke-width="1.2"/><line x1="653.0" y1="26.0" x2="653.0" y2="206.0" stroke="#27221b" stroke-width="1.2"/>
<text x="634.0" y="224.0" font-family="Segoe UI, Arial, sans-serif" font-size="10" font-weight="400" text-anchor="middle" fill="#636363">56</text>
<rect x="651.0" y="160.0" width="34.0" height="46" fill="#fbfaf6" stroke="#ddd6c8" stroke-width="1"/>
<line x1="651.0" y1="26" x2="651.0" y2="206.0" stroke="#cbc3b5" stroke-width="1"/>
<rect x="657.0" y="28.0" width="22.0" height="22" rx="4" fill="#ffe7a8" stroke="#c18a18"/><text x="668.0" y="43.0" font-family="Segoe UI, Arial, sans-serif" font-size="13" font-weight="700" text-anchor="middle" fill="#222">C</text>
<text x="668.0" y="224.0" font-family="Segoe UI, Arial, sans-serif" font-size="10" font-weight="400" text-anchor="middle" fill="#636363">57</text>
<rect x="685.0" y="160.0" width="70.0" height="46" rx="4" fill="#ece8de" stroke="#c8c0b1" stroke-dasharray="4 3"/>
<line x1="693.0" y1="183.0" x2="747.0" y2="183.0" stroke="#8f8778" stroke-width="1.4"/>
<text x="720.0" y="177.0" font-family="Segoe UI, Arial, sans-serif" font-size="11" font-weight="700" text-anchor="middle" fill="#5e594f">--14--</text>
<text x="720.0" y="223.0" font-family="Segoe UI, Arial, sans-serif" font-size="9" font-weight="400" text-anchor="middle" fill="#777066">58-71</text>
<rect x="755.0" y="160.0" width="34.0" height="46" fill="#fbfaf6" stroke="#ddd6c8" stroke-width="1"/>
<line x1="755.0" y1="26" x2="755.0" y2="206.0" stroke="#cbc3b5" stroke-width="1"/>
<line x1="787.0" y1="26.0" x2="787.0" y2="206.0" stroke="#27221b" stroke-width="1.2"/><line x1="791.0" y1="26.0" x2="791.0" y2="206.0" stroke="#27221b" stroke-width="1.2"/>
<text x="772.0" y="224.0" font-family="Segoe UI, Arial, sans-serif" font-size="10" font-weight="400" text-anchor="middle" fill="#636363">72</text>
<rect x="789.0" y="160.0" width="34.0" height="46" fill="#ffffff" stroke="#ddd6c8" stroke-width="1"/>
<line x1="789.0" y1="26" x2="789.0" y2="206.0" stroke="#cbc3b5" stroke-width="1"/>
<rect x="795.0" y="28.0" width="22.0" height="22" rx="4" fill="#ffe7a8" stroke="#c18a18"/><text x="806.0" y="43.0" font-family="Segoe UI, Arial, sans-serif" font-size="13" font-weight="700" text-anchor="middle" fill="#222">D</text>
<text x="806.0" y="224.0" font-family="Segoe UI, Arial, sans-serif" font-size="10" font-weight="400" text-anchor="middle" fill="#636363">73</text>
<rect x="823.0" y="160.0" width="70.0" height="46" rx="4" fill="#ece8de" stroke="#c8c0b1" stroke-dasharray="4 3"/>
<line x1="831.0" y1="183.0" x2="885.0" y2="183.0" stroke="#8f8778" stroke-width="1.4"/>
<text x="858.0" y="177.0" font-family="Segoe UI, Arial, sans-serif" font-size="11" font-weight="700" text-anchor="middle" fill="#5e594f">--18--</text>
<text x="858.0" y="223.0" font-family="Segoe UI, Arial, sans-serif" font-size="9" font-weight="400" text-anchor="middle" fill="#777066">74-91</text>
<rect x="893.0" y="160.0" width="34.0" height="46" fill="#ffffff" stroke="#ddd6c8" stroke-width="1"/>
<line x1="893.0" y1="26" x2="893.0" y2="206.0" stroke="#cbc3b5" stroke-width="1"/>
<line x1="925.0" y1="26.0" x2="925.0" y2="206.0" stroke="#27221b" stroke-width="1.2"/><line x1="929.0" y1="26.0" x2="929.0" y2="206.0" stroke="#27221b" stroke-width="1.2"/>
<text x="910.0" y="224.0" font-family="Segoe UI, Arial, sans-serif" font-size="10" font-weight="400" text-anchor="middle" fill="#636363">92</text>
<rect x="927.0" y="160.0" width="34.0" height="46" fill="#fbfaf6" stroke="#ddd6c8" stroke-width="1"/>
<line x1="927.0" y1="26" x2="927.0" y2="206.0" stroke="#cbc3b5" stroke-width="1"/>
<rect x="933.0" y="28.0" width="22.0" height="22" rx="4" fill="#ffe7a8" stroke="#c18a18"/><text x="944.0" y="43.0" font-family="Segoe UI, Arial, sans-serif" font-size="13" font-weight="700" text-anchor="middle" fill="#222">E</text>
<text x="944.0" y="224.0" font-family="Segoe UI, Arial, sans-serif" font-size="10" font-weight="400" text-anchor="middle" fill="#636363">93</text>
<rect x="961.0" y="160.0" width="70.0" height="46" rx="4" fill="#ece8de" stroke="#c8c0b1" stroke-dasharray="4 3"/>
<line x1="969.0" y1="183.0" x2="1023.0" y2="183.0" stroke="#8f8778" stroke-width="1.4"/>
<text x="996.0" y="177.0" font-family="Segoe UI, Arial, sans-serif" font-size="11" font-weight="700" text-anchor="middle" fill="#5e594f">--11--</text>
<text x="996.0" y="223.0" font-family="Segoe UI, Arial, sans-serif" font-size="9" font-weight="400" text-anchor="middle" fill="#777066">94-104</text>
<rect x="1031.0" y="160.0" width="34.0" height="46" fill="#fbfaf6" stroke="#ddd6c8" stroke-width="1"/>
<line x1="1031.0" y1="26" x2="1031.0" y2="206.0" stroke="#cbc3b5" stroke-width="1"/>
<text x="1048.0" y="192.0" font-family="Segoe UI, Arial, sans-serif" class="music" font-size="11" font-weight="700" text-anchor="middle" fill="#1e526f">rit</text>
<text x="1048.0" y="224.0" font-family="Segoe UI, Arial, sans-serif" font-size="10" font-weight="400" text-anchor="middle" fill="#636363">105</text>
<rect x="1065.0" y="160.0" width="70.0" height="46" rx="4" fill="#ece8de" stroke="#c8c0b1" stroke-dasharray="4 3"/>
<line x1="1073.0" y1="183.0" x2="1127.0" y2="183.0" stroke="#8f8778" stroke-width="1.4"/>
<text x="1100.0" y="177.0" font-family="Segoe UI, Arial, sans-serif" font-size="11" font-weight="700" text-anchor="middle" fill="#5e594f">--7--</text>
<text x="1100.0" y="223.0" font-family="Segoe UI, Arial, sans-serif" font-size="9" font-weight="400" text-anchor="middle" fill="#777066">106-112</text>
<rect x="1135.0" y="160.0" width="40.0" height="46" fill="#fbfaf6" stroke="#ddd6c8" stroke-width="1"/>
<line x1="1135.0" y1="26" x2="1135.0" y2="206.0" stroke="#cbc3b5" stroke-width="1"/>
<text x="1155.0" y="192.0" font-family="Segoe UI, Arial, sans-serif" class="music" font-size="11" font-weight="700" text-anchor="middle" fill="#1e526f">♩=80</text>
<text x="1155.0" y="224.0" font-family="Segoe UI, Arial, sans-serif" font-size="10" font-weight="400" text-anchor="middle" fill="#636363">113</text>
<rect x="1175.0" y="160.0" width="34.0" height="46" fill="#ffffff" stroke="#ddd6c8" stroke-width="1"/>
<line x1="1175.0" y1="26" x2="1175.0" y2="206.0" stroke="#cbc3b5" stroke-width="1"/>
<line x1="1207.0" y1="26.0" x2="1207.0" y2="206.0" stroke="#27221b" stroke-width="1.2"/><line x1="1211.0" y1="26.0" x2="1211.0" y2="206.0" stroke="#27221b" stroke-width="1.2"/>
<text x="1192.0" y="224.0" font-family="Segoe UI, Arial, sans-serif" font-size="10" font-weight="400" text-anchor="middle" fill="#636363">114</text>
<rect x="1209.0" y="160.0" width="35.0" height="46" fill="#fbfaf6" stroke="#ddd6c8" stroke-width="1"/>
<line x1="1209.0" y1="26" x2="1209.0" y2="206.0" stroke="#cbc3b5" stroke-width="1"/>
<rect x="1215.5" y="28.0" width="22.0" height="22" rx="4" fill="#ffe7a8" stroke="#c18a18"/><text x="1226.5" y="43.0" font-family="Segoe UI, Arial, sans-serif" font-size="13" font-weight="700" text-anchor="middle" fill="#222">F</text>
<rect x="1211.4" y="82.0" width="30.3" height="22" rx="4" fill="#e4eed1" stroke="#8da969"/><text x="1226.5" y="97.0" font-family="Segoe UI, Arial, sans-serif" font-size="11" font-weight="700" text-anchor="middle" fill="#222">4♭</text>
<text x="1226.5" y="224.0" font-family="Segoe UI, Arial, sans-serif" font-size="10" font-weight="400" text-anchor="middle" fill="#636363">115</text>
<rect x="1244.0" y="160.0" width="70.0" height="46" rx="4" fill="#ece8de" stroke="#c8c0b1" stroke-dasharray="4 3"/>
<line x1="1252.0" y1="183.0" x2="1306.0" y2="183.0" stroke="#8f8778" stroke-width="1.4"/>
<text x="1279.0" y="177.0" font-family="Segoe UI, Arial, sans-serif" font-size="11" font-weight="700" text-anchor="middle" fill="#5e594f">--6--</text>
<text x="1279.0" y="223.0" font-family="Segoe UI, Arial, sans-serif" font-size="9" font-weight="400" text-anchor="middle" fill="#777066">116-121</text>
<rect x="1314.0" y="160.0" width="34.0" height="46" fill="#fbfaf6" stroke="#ddd6c8" stroke-width="1"/>
<line x1="1314.0" y1="26" x2="1314.0" y2="206.0" stroke="#cbc3b5" stroke-width="1"/>
<line x1="1346.0" y1="26.0" x2="1346.0" y2="206.0" stroke="#27221b" stroke-width="1.2"/><line x1="1350.0" y1="26.0" x2="1350.0" y2="206.0" stroke="#27221b" stroke-width="1.2"/>
<text x="1331.0" y="224.0" font-family="Segoe UI, Arial, sans-serif" font-size="10" font-weight="400" text-anchor="middle" fill="#636363">122</text>
<rect x="1348.0" y="160.0" width="34.0" height="46" fill="#ffffff" stroke="#ddd6c8" stroke-width="1"/>
<line x1="1348.0" y1="26" x2="1348.0" y2="206.0" stroke="#cbc3b5" stroke-width="1"/>
<rect x="1354.0" y="28.0" width="22.0" height="22" rx="4" fill="#ffe7a8" stroke="#c18a18"/><text x="1365.0" y="43.0" font-family="Segoe UI, Arial, sans-serif" font-size="13" font-weight="700" text-anchor="middle" fill="#222">G</text>
<text x="1365.0" y="224.0" font-family="Segoe UI, Arial, sans-serif" font-size="10" font-weight="400" text-anchor="middle" fill="#636363">123</text>
<rect x="1382.0" y="160.0" width="70.0" height="46" rx="4" fill="#ece8de" stroke="#c8c0b1" stroke-dasharray="4 3"/>
<line x1="1390.0" y1="183.0" x2="1444.0" y2="183.0" stroke="#8f8778" stroke-width="1.4"/>
<text x="1417.0" y="177.0" font-family="Segoe UI, Arial, sans-serif" font-size="11" font-weight="700" text-anchor="middle" fill="#5e594f">--14--</text>
<text x="1417.0" y="223.0" font-family="Segoe UI, Arial, sans-serif" font-size="9" font-weight="400" text-anchor="middle" fill="#777066">124-137</text>
<rect x="1452.0" y="160.0" width="34.0" height="46" fill="#ffffff" stroke="#ddd6c8" stroke-width="1"/>
<line x1="1452.0" y1="26" x2="1452.0" y2="206.0" stroke="#cbc3b5" stroke-width="1"/>
<line x1="1484.0" y1="26.0" x2="1484.0" y2="206.0" stroke="#27221b" stroke-width="1.2"/><line x1="1488.0" y1="26.0" x2="1488.0" y2="206.0" stroke="#27221b" stroke-width="1.2"/>
<text x="1469.0" y="224.0" font-family="Segoe UI, Arial, sans-serif" font-size="10" font-weight="400" text-anchor="middle" fill="#636363">138</text>
<rect x="1486.0" y="160.0" width="34.0" height="46" fill="#fbfaf6" stroke="#ddd6c8" stroke-width="1"/>
<line x1="1486.0" y1="26" x2="1486.0" y2="206.0" stroke="#cbc3b5" stroke-width="1"/>
<rect x="1492.0" y="28.0" width="22.0" height="22" rx="4" fill="#ffe7a8" stroke="#c18a18"/><text x="1503.0" y="43.0" font-family="Segoe UI, Arial, sans-serif" font-size="13" font-weight="700" text-anchor="middle" fill="#222">H</text>
<text x="1503.0" y="224.0" font-family="Segoe UI, Arial, sans-serif" font-size="10" font-weight="400" text-anchor="middle" fill="#636363">139</text>
<rect x="1520.0" y="160.0" width="70.0" height="46" rx="4" fill="#ece8de" stroke="#c8c0b1" stroke-dasharray="4 3"/>
<line x1="1528.0" y1="183.0" x2="1582.0" y2="183.0" stroke="#8f8778" stroke-width="1.4"/>
<text x="1555.0" y="177.0" font-family="Segoe UI, Arial, sans-serif" font-size="11" font-weight="700" text-anchor="middle" fill="#5e594f">--11--</text>
<text x="1555.0" y="223.0" font-family="Segoe UI, Arial, sans-serif" font-size="9" font-weight="400" text-anchor="middle" fill="#777066">140-150</text>
<rect x="1590.0" y="160.0" width="34.0" height="46" fill="#fbfaf6" stroke="#ddd6c8" stroke-width="1"/>
<line x1="1590.0" y1="26" x2="1590.0" y2="206.0" stroke="#cbc3b5" stroke-width="1"/>
<text x="1607.0" y="192.0" font-family="Segoe UI, Arial, sans-serif" class="music" font-size="11" font-weight="700" text-anchor="middle" fill="#1e526f">rit</text>
<text x="1607.0" y="224.0" font-family="Segoe UI, Arial, sans-serif" font-size="10" font-weight="400" text-anchor="middle" fill="#636363">151</text>
<rect x="1624.0" y="160.0" width="34.0" height="46" fill="#ffffff" stroke="#ddd6c8" stroke-width="1"/>
<line x1="1624.0" y1="26" x2="1624.0" y2="206.0" stroke="#cbc3b5" stroke-width="1"/>
<rect x="1658.0" y="160.0" width="34.0" height="46" fill="#fbfaf6" stroke="#ddd6c8" stroke-width="1"/>
<line x1="1658.0" y1="26" x2="1658.0" y2="206.0" stroke="#cbc3b5" stroke-width="1"/>
<rect x="1692.0" y="160.0" width="34.0" height="46" fill="#ffffff" stroke="#ddd6c8" stroke-width="1"/>
<line x1="1692.0" y1="26" x2="1692.0" y2="206.0" stroke="#cbc3b5" stroke-width="1"/>
<line x1="1724.0" y1="26.0" x2="1724.0" y2="206.0" stroke="#27221b" stroke-width="1.2"/><line x1="1728.0" y1="26.0" x2="1728.0" y2="206.0" stroke="#27221b" stroke-width="1.2"/>
<text x="1709.0" y="224.0" font-family="Segoe UI, Arial, sans-serif" font-size="10" font-weight="400" text-anchor="middle" fill="#636363">154</text>
<rect x="1726.0" y="160.0" width="47.0" height="46" fill="#fbfaf6" stroke="#ddd6c8" stroke-width="1"/>
<line x1="1726.0" y1="26" x2="1726.0" y2="206.0" stroke="#cbc3b5" stroke-width="1"/>
<text x="1749.5" y="192.0" font-family="Segoe UI, Arial, sans-serif" class="music" font-size="11" font-weight="700" text-anchor="middle" fill="#1e526f">♩=160</text>
<text x="1749.5" y="224.0" font-family="Segoe UI, Arial, sans-serif" font-size="10" font-weight="400" text-anchor="middle" fill="#636363">155</text>
<rect x="1773.0" y="160.0" width="34.0" height="46" fill="#ffffff" stroke="#ddd6c8" stroke-width="1"/>
<line x1="1773.0" y1="26" x2="1773.0" y2="206.0" stroke="#cbc3b5" stroke-width="1"/>
<rect x="1807.0" y="160.0" width="34.0" height="46" fill="#fbfaf6" stroke="#ddd6c8" stroke-width="1"/>
<line x1="1807.0" y1="26" x2="1807.0" y2="206.0" stroke="#cbc3b5" stroke-width="1"/>
<rect x="1841.0" y="160.0" width="34.0" height="46" fill="#ffffff" stroke="#ddd6c8" stroke-width="1"/>
<line x1="1841.0" y1="26" x2="1841.0" y2="206.0" stroke="#cbc3b5" stroke-width="1"/>
<line x1="1873.0" y1="26.0" x2="1873.0" y2="206.0" stroke="#27221b" stroke-width="1.2"/><line x1="1877.0" y1="26.0" x2="1877.0" y2="206.0" stroke="#27221b" stroke-width="1.2"/>
<text x="1858.0" y="224.0" font-family="Segoe UI, Arial, sans-serif" font-size="10" font-weight="400" text-anchor="middle" fill="#636363">158</text>
<rect x="1875.0" y="160.0" width="34.0" height="46" fill="#fbfaf6" stroke="#ddd6c8" stroke-width="1"/>
<line x1="1875.0" y1="26" x2="1875.0" y2="206.0" stroke="#cbc3b5" stroke-width="1"/>
<rect x="1881.0" y="28.0" width="22.0" height="22" rx="4" fill="#ffe7a8" stroke="#c18a18"/><text x="1892.0" y="43.0" font-family="Segoe UI, Arial, sans-serif" font-size="13" font-weight="700" text-anchor="middle" fill="#222">I</text>
<text x="1892.0" y="224.0" font-family="Segoe UI, Arial, sans-serif" font-size="10" font-weight="400" text-anchor="middle" fill="#636363">159</text>
<rect x="1909.0" y="160.0" width="70.0" height="46" rx="4" fill="#ece8de" stroke="#c8c0b1" stroke-dasharray="4 3"/>
<line x1="1917.0" y1="183.0" x2="1971.0" y2="183.0" stroke="#8f8778" stroke-width="1.4"/>
<text x="1944.0" y="177.0" font-family="Segoe UI, Arial, sans-serif" font-size="11" font-weight="700" text-anchor="middle" fill="#5e594f">--14--</text>
<text x="1944.0" y="223.0" font-family="Segoe UI, Arial, sans-serif" font-size="9" font-weight="400" text-anchor="middle" fill="#777066">160-173</text>
<rect x="1979.0" y="160.0" width="34.0" height="46" fill="#fbfaf6" stroke="#ddd6c8" stroke-width="1"/>
<line x1="1979.0" y1="26" x2="1979.0" y2="206.0" stroke="#cbc3b5" stroke-width="1"/>
<line x1="2011.0" y1="26.0" x2="2011.0" y2="206.0" stroke="#27221b" stroke-width="1.2"/><line x1="2015.0" y1="26.0" x2="2015.0" y2="206.0" stroke="#27221b" stroke-width="1.2"/>
<text x="1996.0" y="224.0" font-family="Segoe UI, Arial, sans-serif" font-size="10" font-weight="400" text-anchor="middle" fill="#636363">174</text>
<rect x="2013.0" y="160.0" width="34.0" height="46" fill="#ffffff" stroke="#ddd6c8" stroke-width="1"/>
<line x1="2013.0" y1="26" x2="2013.0" y2="206.0" stroke="#cbc3b5" stroke-width="1"/>
<rect x="2019.0" y="28.0" width="22.0" height="22" rx="4" fill="#ffe7a8" stroke="#c18a18"/><text x="2030.0" y="43.0" font-family="Segoe UI, Arial, sans-serif" font-size="13" font-weight="700" text-anchor="middle" fill="#222">J</text>
<text x="2030.0" y="224.0" font-family="Segoe UI, Arial, sans-serif" font-size="10" font-weight="400" text-anchor="middle" fill="#636363">175</text>
<rect x="2047.0" y="160.0" width="70.0" height="46" rx="4" fill="#ece8de" stroke="#c8c0b1" stroke-dasharray="4 3"/>
<line x1="2055.0" y1="183.0" x2="2109.0" y2="183.0" stroke="#8f8778" stroke-width="1.4"/>
<text x="2082.0" y="177.0" font-family="Segoe UI, Arial, sans-serif" font-size="11" font-weight="700" text-anchor="middle" fill="#5e594f">--14--</text>
<text x="2082.0" y="223.0" font-family="Segoe UI, Arial, sans-serif" font-size="9" font-weight="400" text-anchor="middle" fill="#777066">176-189</text>
<rect x="2117.0" y="160.0" width="34.0" height="46" fill="#ffffff" stroke="#ddd6c8" stroke-width="1"/>
<line x1="2117.0" y1="26" x2="2117.0" y2="206.0" stroke="#cbc3b5" stroke-width="1"/>
<line x1="2149.0" y1="26.0" x2="2149.0" y2="206.0" stroke="#27221b" stroke-width="1.2"/><line x1="2153.0" y1="26.0" x2="2153.0" y2="206.0" stroke="#27221b" stroke-width="1.2"/>
<text x="2134.0" y="224.0" font-family="Segoe UI, Arial, sans-serif" font-size="10" font-weight="400" text-anchor="middle" fill="#636363">190</text>
<rect x="2151.0" y="160.0" width="61.0" height="46" fill="#fbfaf6" stroke="#ddd6c8" stroke-width="1"/>
<line x1="2151.0" y1="26" x2="2151.0" y2="206.0" stroke="#cbc3b5" stroke-width="1"/>
<rect x="2170.5" y="28.0" width="22.0" height="22" rx="4" fill="#ffe7a8" stroke="#c18a18"/><text x="2181.5" y="43.0" font-family="Segoe UI, Arial, sans-serif" font-size="13" font-weight="700" text-anchor="middle" fill="#222">K</text>
<text x="2181.5" y="184.0" font-family="Segoe UI, Arial, sans-serif" class="music" font-size="9" font-weight="700" text-anchor="middle" fill="#1e526f">meno mosso</text>
<text x="2181.5" y="196.0" font-family="Segoe UI, Arial, sans-serif" class="music" font-size="10" font-weight="700" text-anchor="middle" fill="#1e526f">♩=144</text>
<text x="2181.5" y="224.0" font-family="Segoe UI, Arial, sans-serif" font-size="10" font-weight="400" text-anchor="middle" fill="#636363">191</text>
<rect x="2212.0" y="160.0" width="70.0" height="46" rx="4" fill="#ece8de" stroke="#c8c0b1" stroke-dasharray="4 3"/>
<line x1="2220.0" y1="183.0" x2="2274.0" y2="183.0" stroke="#8f8778" stroke-width="1.4"/>
<text x="2247.0" y="177.0" font-family="Segoe UI, Arial, sans-serif" font-size="11" font-weight="700" text-anchor="middle" fill="#5e594f">--13--</text>
<text x="2247.0" y="223.0" font-family="Segoe UI, Arial, sans-serif" font-size="9" font-weight="400" text-anchor="middle" fill="#777066">192-204</text>
<rect x="2282.0" y="160.0" width="40.0" height="46" fill="#fbfaf6" stroke="#ddd6c8" stroke-width="1"/>
<line x1="2282.0" y1="26" x2="2282.0" y2="206.0" stroke="#cbc3b5" stroke-width="1"/>
<text x="2302.0" y="192.0" font-family="Segoe UI, Arial, sans-serif" class="music" font-size="11" font-weight="700" text-anchor="middle" fill="#1e526f">♩=80</text>
<line x1="2320.0" y1="26.0" x2="2320.0" y2="206.0" stroke="#27221b" stroke-width="1.2"/><line x1="2324.0" y1="26.0" x2="2324.0" y2="206.0" stroke="#27221b" stroke-width="1.2"/>
<text x="2302.0" y="224.0" font-family="Segoe UI, Arial, sans-serif" font-size="10" font-weight="400" text-anchor="middle" fill="#636363">205</text>
<rect x="2322.0" y="160.0" width="35.0" height="46" fill="#ffffff" stroke="#ddd6c8" stroke-width="1"/>
<line x1="2322.0" y1="26" x2="2322.0" y2="206.0" stroke="#cbc3b5" stroke-width="1"/>
<rect x="2328.5" y="28.0" width="22.0" height="22" rx="4" fill="#ffe7a8" stroke="#c18a18"/><text x="2339.5" y="43.0" font-family="Segoe UI, Arial, sans-serif" font-size="13" font-weight="700" text-anchor="middle" fill="#222">L</text>
<rect x="2324.4" y="82.0" width="30.3" height="22" rx="4" fill="#e4eed1" stroke="#8da969"/><text x="2339.5" y="97.0" font-family="Segoe UI, Arial, sans-serif" font-size="11" font-weight="700" text-anchor="middle" fill="#222">1♭</text>
<text x="2339.5" y="122.0" font-family="Segoe UI, Arial, sans-serif" font-size="10" font-weight="700" text-anchor="middle" fill="#222">4</text><line x1="2329.5" y1="126.0" x2="2349.5" y2="126.0" stroke="#5f512f" stroke-width="1"/><text x="2339.5" y="137.0" font-family="Segoe UI, Arial, sans-serif" font-size="10" font-weight="700" text-anchor="middle" fill="#222">4</text>
<text x="2339.5" y="224.0" font-family="Segoe UI, Arial, sans-serif" font-size="10" font-weight="400" text-anchor="middle" fill="#636363">206</text>
<rect x="2357.0" y="160.0" width="70.0" height="46" rx="4" fill="#ece8de" stroke="#c8c0b1" stroke-dasharray="4 3"/>
<line x1="2365.0" y1="183.0" x2="2419.0" y2="183.0" stroke="#8f8778" stroke-width="1.4"/>
<text x="2392.0" y="177.0" font-family="Segoe UI, Arial, sans-serif" font-size="11" font-weight="700" text-anchor="middle" fill="#5e594f">--5--</text>
<text x="2392.0" y="223.0" font-family="Segoe UI, Arial, sans-serif" font-size="9" font-weight="400" text-anchor="middle" fill="#777066">207-211</text>
<rect x="2427.0" y="160.0" width="34.0" height="46" fill="#ffffff" stroke="#ddd6c8" stroke-width="1"/>
<line x1="2427.0" y1="26" x2="2427.0" y2="206.0" stroke="#cbc3b5" stroke-width="1"/>
<text x="2444.0" y="192.0" font-family="Segoe UI, Arial, sans-serif" class="music" font-size="11" font-weight="700" text-anchor="middle" fill="#1e526f">rit</text>
<text x="2444.0" y="224.0" font-family="Segoe UI, Arial, sans-serif" font-size="10" font-weight="400" text-anchor="middle" fill="#636363">212</text>
<rect x="2461.0" y="160.0" width="34.0" height="46" fill="#fbfaf6" stroke="#ddd6c8" stroke-width="1"/>
<line x1="2461.0" y1="26" x2="2461.0" y2="206.0" stroke="#cbc3b5" stroke-width="1"/>
<rect x="2495.0" y="160.0" width="34.0" height="46" fill="#ffffff" stroke="#ddd6c8" stroke-width="1"/>
<line x1="2495.0" y1="26" x2="2495.0" y2="206.0" stroke="#cbc3b5" stroke-width="1"/>
<rect x="2529.0" y="160.0" width="34.0" height="46" fill="#fbfaf6" stroke="#ddd6c8" stroke-width="1"/>
<line x1="2529.0" y1="26" x2="2529.0" y2="206.0" stroke="#cbc3b5" stroke-width="1"/>
<line x1="2560.0" y1="26.0" x2="2560.0" y2="206.0" stroke="#27221b" stroke-width="1.2"/><line x1="2565.0" y1="26.0" x2="2565.0" y2="206.0" stroke="#27221b" stroke-width="3.6"/>
<text x="2546.0" y="224.0" font-family="Segoe UI, Arial, sans-serif" font-size="10" font-weight="400" text-anchor="middle" fill="#636363">215</text>
</svg>