<svg xmlns="http://www.w3.org/2000/svg" width="3067" height="238" viewBox="0 0 3067 238">
<style>.music{font-family:"Leland","Bravura","Segoe UI Symbol","Noto Music",sans-serif;}</style>
<rect width="100%" height="100%" fill="#f7f5ef"/>
<text x="24.0" y="44.0" font-family="Segoe UI, Arial, sans-serif" font-size="11" font-weight="700" text-anchor="start" fill="#6b4c16">Mark</text>
<text x="24.0" y="71.0" font-family="Segoe UI, Arial, sans-serif" font-size="11" font-weight="700" text-anchor="start" fill="#6d3b60">Repeat</text>
<text x="24.0" y="98.0" font-family="Segoe UI, Arial, sans-serif" font-size="11" font-weight="700" text-anchor="start" fill="#4c6232">Key</text>
<text x="24.0" y="126.0" font-family="Segoe UI, Arial, sans-serif" font-size="11" font-weight="700" text-anchor="start" fill="#6b4c16">Meter</text>
<text x="24.0" y="193.0" font-family="Segoe UI, Arial, sans-serif" font-size="11" font-weight="700" text-anchor="start" fill="#1e526f">Tempo</text>
<line x1="82.0" y1="27" x2="3029.0" y2="27" stroke="#d7d0c2" stroke-width="1"/>
<rect x="82.0" y="160.0" width="40.0" height="46" fill="#ffffff" stroke="#ddd6c8" stroke-width="1"/>
<line x1="82.0" y1="26" x2="82.0" y2="206.0" stroke="#cbc3b5" stroke-width="1"/>
<rect x="86.9" y="82.0" width="30.3" height="22" rx="4" fill="#e4eed1" stroke="#8da969"/><text x="102.0" y="97.0" font-family="Segoe UI, Arial, sans-serif" font-size="11" font-weight="700" text-anchor="middle" fill="#222">3♭</text>
<text x="102.0" y="122.0" font-family="Segoe UI, Arial, sans-serif" font-size="10" font-weight="700" text-anchor="middle" fill="#222">3</text><line x1="92.0" y1="126.0" x2="112.0" y2="126.0" stroke="#5f512f" stroke-width="1"/><text x="102.0" y="137.0" font-family="Segoe UI, Arial, sans-serif" font-size="10" font-weight="700" text-anchor="middle" fill="#222">4</text>
<text x="102.0" y="192.0" font-family="Segoe UI, Arial, sans-serif" class="music" font-size="11" font-weight="700" text-anchor="middle" fill="#1e526f">♩=60</text>
<text x="102.0" y="224.0" font-family="Segoe UI, Arial, sans-serif" font-size="10" font-weight="400" text-anchor="middle" fill="#636363">1</text>
<rect x="122.0" y="160.0" width="34.0" height="46" fill="#fbfaf6" stroke="#ddd6c8" stroke-width="1"/>
<line x1="122.0" y1="26" x2="122.0" y2="206.0" stroke="#cbc3b5" stroke-width="1"/>
<rect x="156.0" y="160.0" width="34.0" height="46" fill="#ffffff" stroke="#ddd6c8" stroke-width="1"/>
<line x1="156.0" y1="26" x2="156.0" y2="206.0" stroke="#cbc3b5" stroke-width="1"/>
<rect x="190.0" y="160.0" width="34.0" height="46" fill="#fbfaf6" stroke="#ddd6c8" stroke-width="1"/>
<line x1="190.0" y1="26" x2="190.0" y2="206.0" stroke="#cbc3b5" stroke-width="1"/>
<text x="207.0" y="192.0" font-family="Segoe UI, Arial, sans-serif" class="music" font-size="11" font-weight="700" text-anchor="middle" fill="#1e526f">rit</text>
<text x="207.0" y="224.0" font-family="Segoe UI, Arial, sans-serif" font-size="10" font-weight="400" text-anchor="middle" fill="#636363">4</text>
<rect x="224.0" y="160.0" width="34.0" height="46" fill="#ffffff" stroke="#ddd6c8" stroke-width="1"/>
<line x1="224.0" y1="26" x2="224.0" y2="206.0" stroke="#cbc3b5" stroke-width="1"/>
<line x1="256.0" y1="26.0" x2="256.0" y2="206.0" stroke="#27221b" stroke-width="1.2"/><line x1="260.0" y1="26.0" x2="260.0" y2="206.0" stroke="#27221b" stroke-width="1.2"/>
<text x="241.0" y="224.0" font-family="Segoe UI, Arial, sans-serif" font-size="10" font-weight="400" text-anchor="middle" fill="#636363">5</text>
<rect x="258.0" y="160.0" width="40.0" height="46" fill="#fbfaf6" stroke="#ddd6c8" stroke-width="1"/>
<line x1="258.0" y1="26" x2="258.0" y2="206.0" stroke="#cbc3b5" stroke-width="1"/>
<rect x="267.0" y="28.0" width="22.0" height="22" rx="4" fill="#ffe7a8" stroke="#c18a18"/><text x="278.0" y="43.0" font-family="Segoe UI, Arial, sans-serif" font-size="13" font-weight="700" text-anchor="middle" fill="#222">A</text>
<text x="278.0" y="192.0" font-family="Segoe UI, Arial, sans-serif" class="music" font-size="11" font-weight="700" text-anchor="middle" fill="#1e526f">♩=50</text>
<text x="278.0" y="224.0" font-family="Segoe UI, Arial, sans-serif" font-size="10" font-weight="400" text-anchor="middle" fill="#636363">6</text>
<rect x="298.0" y="160.0" width="70.0" height="46" rx="4" fill="#ece8de" stroke="#c8c0b1" stroke-dasharray="4 3"/>
<line x1="306.0" y1="183.0" x2="360.0" y2="183.0" stroke="#8f8778" stroke-width="1.4"/>
<text x="333.0" y="177.0" font-family="Segoe UI, Arial, sans-serif" font-size="11" font-weight="700" text-anchor="middle" fill="#5e594f">--13--</text>
<text x="333.0" y="223.0" font-family="Segoe UI, Arial, sans-serif" font-size="9" font-weight="400" text-anchor="middle" fill="#777066">7-19</text>
<rect x="368.0" y="160.0" width="42.0" height="46" fill="#fbfaf6" stroke="#ddd6c8" stroke-width="1"/>
<line x1="368.0" y1="26" x2="368.0" y2="206.0" stroke="#cbc3b5" stroke-width="1"/>
<text x="389.0" y="192.0" font-family="Segoe UI, Arial, sans-serif" class="music" font-size="11" font-weight="700" text-anchor="middle" fill="#1e526f">accel</text>
<text x="389.0" y="224.0" font-family="Segoe UI, Arial, sans-serif" font-size="10" font-weight="400" text-anchor="middle" fill="#636363">20</text>
<rect x="410.0" y="160.0" width="34.0" height="46" fill="#ffffff" stroke="#ddd6c8" stroke-width="1"/>
<line x1="410.0" y1="26" x2="410.0" y2="206.0" stroke="#cbc3b5" stroke-width="1"/>
<rect x="444.0" y="160.0" width="40.0" height="46" fill="#fbfaf6" stroke="#ddd6c8" stroke-width="1"/>
<line x1="444.0" y1="26" x2="444.0" y2="206.0" stroke="#cbc3b5" stroke-width="1"/>
<text x="464.0" y="122.0" font-family="Segoe UI, Arial, sans-serif" font-size="10" font-weight="700" text-anchor="middle" fill="#222">4</text><line x1="454.0" y1="126.0" x2="474.0" y2="126.0" stroke="#5f512f" stroke-width="1"/><text x="464.0" y="137.0" font-family="Segoe UI, Arial, sans-serif" font-size="10" font-weight="700" text-anchor="middle" fill="#222">4</text>
<text x="464.0" y="192.0" font-family="Segoe UI, Arial, sans-serif" class="music" font-size="11" font-weight="700" text-anchor="middle" fill="#1e526f">♩=66</text>
<text x="464.0" y="224.0" font-family="Segoe UI, Arial, sans-serif" font-size="10" font-weight="400" text-anchor="middle" fill="#636363">22</text>
<rect x="484.0" y="160.0" width="34.0" height="46" fill="#ffffff" stroke="#ddd6c8" stroke-width="1"/>
<line x1="484.0" y1="26" x2="484.0" y2="206.0" stroke="#cbc3b5" stroke-width="1"/>
<rect x="518.0" y="160.0" width="34.0" height="46" fill="#fbfaf6" stroke="#ddd6c8" stroke-width="1"/>
<line x1="518.0" y1="26" x2="518.0" y2="206.0" stroke="#cbc3b5" stroke-width="1"/>
<rect x="552.0" y="160.0" width="34.0" height="46" fill="#ffffff" stroke="#ddd6c8" stroke-width="1"/>
<line x1="552.0" y1="26" x2="552.0" y2="206.0" stroke="#cbc3b5" stroke-width="1"/>
<line x1="584.0" y1="26.0" x2="584.0" y2="206.0" stroke="#27221b" stroke-width="1.2"/><line x1="588.0" y1="26.0" x2="588.0" y2="206.0" stroke="#27221b" stroke-width="1.2"/>
<text x="569.0" y="224.0" font-family="Segoe UI, Arial, sans-serif" font-size="10" font-weight="400" text-anchor="middle" fill="#636363">25</text>
<rect x="586.0" y="160.0" width="47.0" height="46" fill="#fbfaf6" stroke="#ddd6c8" stroke-width="1"/>
<line x1="586.0" y1="26" x2="586.0" y2="206.0" stroke="#cbc3b5" stroke-width="1"/>
<rect x="598.5" y="28.0" width="22.0" height="22" rx="4" fill="#ffe7a8" stroke="#c18a18"/><text x="609.5" y="43.0" font-family="Segoe UI, Arial, sans-serif" font-size="13" font-weight="700" text-anchor="middle" fill="#222">B</text>
<text x="609.5" y="122.0" font-family="Segoe UI, Arial, sans-serif" font-size="10" font-weight="700" text-anchor="middle" fill="#222">5</text><line x1="599.5" y1="126.0" x2="619.5" y2="126.0" stroke="#5f512f" stroke-width="1"/><text x="609.5" y="137.0" font-family="Segoe UI, Arial, sans-serif" font-size="10" font-weight="700" text-anchor="middle" fill="#222">4</text>
<text x="609.5" y="192.0" font-family="Segoe UI, Arial, sans-serif" class="music" font-size="11" font-weight="700" text-anchor="middle" fill="#1e526f">♩=168</text>
<text x="609.5" y="224.0" font-family="Segoe UI, Arial, sans-serif" font-size="10" font-weight="400" text-anchor="middle" fill="#636363">26</text>
<rect x="633.0" y="160.0" width="70.0" height="46" rx="4" fill="#ece8de" stroke="#c8c0b1" stroke-dasharray="4 3"/>
<line x1="641.0" y1="183.0" x2="695.0" y2="183.0" stroke="#8f8778" stroke-width="1.4"/>
<text x="668.0" y="177.0" font-family="Segoe UI, Arial, sans-serif" font-size="11" font-weight="700" text-anchor="middle" fill="#5e594f">--3--</text>
<text x="668.0" y="223.0" font-family="Segoe UI, Arial, sans-serif" font-size="9" font-weight="400" text-anchor="middle" fill="#777066">27-29</text>
<rect x="703.0" y="160.0" width="34.0" height="46" fill="#fbfaf6" stroke="#ddd6c8" stroke-width="1"/>
<line x1="703.0" y1="26" x2="703.0" y2="206.0" stroke="#cbc3b5" stroke-width="1"/>
<text x="720.0" y="122.0" font-family="Segoe UI, Arial, sans-serif" font-size="10" font-weight="700" text-anchor="middle" fill="#222">3</text><line x1="710.0" y1="126.0" x2="730.0" y2="126.0" stroke="#5f512f" stroke-width="1"/><text x="720.0" y="137.0" font-family="Segoe UI, Arial, sans-serif" font-size="10" font-weight="700" text-anchor="middle" fill="#222">4</text>
<text x="720.0" y="224.0" font-family="Segoe UI, Arial, sans-serif" font-size="10" font-weight="400" text-anchor="middle" fill="#636363">30</text>
<rect x="737.0" y="160.0" width="34.0" height="46" fill="#ffffff" stroke="#ddd6c8" stroke-width="1"/>
<line x1="737.0" y1="26" x2="737.0" y2="206.0" stroke="#cbc3b5" stroke-width="1"/>
<text x="754.0" y="122.0" font-family="Segoe UI, Arial, sans-serif" font-size="10" font-weight="700" text-anchor="middle" fill="#222">5</text><line x1="744.0" y1="126.0" x2="764.0" y2="126.0" stroke="#5f512f" stroke-width="1"/><text x="754.0" y="137.0" font-family="Segoe UI, Arial, sans-serif" font-size="10" font-weight="700" text-anchor="middle" fill="#222">8</text>
<text x="754.0" y="224.0" font-family="Segoe UI, Arial, sans-serif" font-size="10" font-weight="400" text-anchor="middle" fill="#636363">31</text>
<rect x="771.0" y="160.0" width="34.0" height="46" fill="#fbfaf6" stroke="#ddd6c8" stroke-width="1"/>
<line x1="771.0" y1="26" x2="771.0" y2="206.0" stroke="#cbc3b5" stroke-width="1"/>
<rect x="805.0" y="160.0" width="34.0" height="46" fill="#ffffff" stroke="#ddd6c8" stroke-width="1"/>
<line x1="805.0" y1="26" x2="805.0" y2="206.0" stroke="#cbc3b5" stroke-width="1"/>
<text x="822.0" y="122.0" font-family="Segoe UI, Arial, sans-serif" font-size="10" font-weight="700" text-anchor="middle" fill="#222">4</text><line x1="812.0" y1="126.0" x2="832.0" y2="126.0" stroke="#5f512f" stroke-width="1"/><text x="822.0" y="137.0" font-family="Segoe UI, Arial, sans-serif" font-size="10" font-weight="700" text-anchor="middle" fill="#222">4</text>
<text x="822.0" y="224.0" font-family="Segoe UI, Arial, sans-serif" font-size="10" font-weight="400" text-anchor="middle" fill="#636363">33</text>
<rect x="839.0" y="160.0" width="70.0" height="46" rx="4" fill="#ece8de" stroke="#c8c0b1" stroke-dasharray="4 3"/>
<line x1="847.0" y1="183.0" x2="901.0" y2="183.0" stroke="#8f8778" stroke-width="1.4"/>
<text x="874.0" y="177.0" font-family="Segoe UI, Arial, sans-serif" font-size="11" font-weight="700" text-anchor="middle" fill="#5e594f">--6--</text>
<text x="874.0" y="223.0" font-family="Segoe UI, Arial, sans-serif" font-size="9" font-weight="400" text-anchor="middle" fill="#777066">34-39</text>
<rect x="909.0" y="160.0" width="34.0" height="46" fill="#ffffff" stroke="#ddd6c8" stroke-width="1"/>
<line x1="909.0" y1="26" x2="909.0" y2="206.0" stroke="#cbc3b5" stroke-width="1"/>
<line x1="941.0" y1="26.0" x2="941.0" y2="206.0" stroke="#27221b" stroke-width="1.2"/><line x1="945.0" y1="26.0" x2="945.0" y2="206.0" stroke="#27221b" stroke-width="1.2"/>
<text x="926.0" y="224.0" font-family="Segoe UI, Arial, sans-serif" font-size="10" font-weight="400" text-anchor="middle" fill="#636363">40</text>
<rect x="943.0" y="160.0" width="34.0" height="46" fill="#fbfaf6" stroke="#ddd6c8" stroke-width="1"/>
<line x1="943.0" y1="26" x2="943.0" y2="206.0" stroke="#cbc3b5" stroke-width="1"/>
<rect x="949.0" y="28.0" width="22.0" height="22" rx="4" fill="#ffe7a8" stroke="#c18a18"/><text x="960.0" y="43.0" font-family="Segoe UI, Arial, sans-serif" font-size="13" font-weight="700" text-anchor="middle" fill="#222">C</text>
<text x="960.0" y="224.0" font-family="Segoe UI, Arial, sans-serif" font-size="10" font-weight="400" text-anchor="middle" fill="#636363">41</text>
<rect x="977.0" y="160.0" width="70.0" height="46" rx="4" fill="#ece8de" stroke="#c8c0b1" stroke-dasharray="4 3"/>
<line x1="985.0" y1="183.0" x2="1039.0" y2="183.0" stroke="#8f8778" stroke-width="1.4"/>
<text x="1012.0" y="177.0" font-family="Segoe UI, Arial, sans-serif" font-size="11" font-weight="700" text-anchor="middle" fill="#5e594f">--27--</text>
<text x="1012.0" y="223.0" font-family="Segoe UI, Arial, sans-serif" font-size="9" font-weight="400" text-anchor="middle" fill="#777066">42-68</text>
<rect x="1047.0" y="160.0" width="34.0" height="46" fill="#fbfaf6" stroke="#ddd6c8" stroke-width="1"/>
<line x1="1047.0" y1="26" x2="1047.0" y2="206.0" stroke="#cbc3b5" stroke-width="1"/>
<text x="1064.0" y="122.0" font-family="Segoe UI, Arial, sans-serif" font-size="10" font-weight="700" text-anchor="middle" fill="#222">3</text><line x1="1054.0" y1="126.0" x2="1074.0" y2="126.0" stroke="#5f512f" stroke-width="1"/><text x="1064.0" y="137.0" font-family="Segoe UI, Arial, sans-serif" font-size="10" font-weight="700" text-anchor="middle" fill="#222">4</text>
<text x="1064.0" y="224.0" font-family="Segoe UI, Arial, sans-serif" font-size="10" font-weight="400" text-anchor="middle" fill="#636363">69</text>
<rect x="1081.0" y="160.0" width="34.0" height="46" fill="#ffffff" stroke="#ddd6c8" stroke-width="1"/>
<line x1="1081.0" y1="26" x2="1081.0" y2="206.0" stroke="#cbc3b5" stroke-width="1"/>
<text x="1098.0" y="122.0" font-family="Segoe UI, Arial, sans-serif" font-size="10" font-weight="700" text-anchor="middle" fill="#222">4</text><line x1="1088.0" y1="126.0" x2="1108.0" y2="126.0" stroke="#5f512f" stroke-width="1"/><text x="1098.0" y="137.0" font-family="Segoe UI, Arial, sans-serif" font-size="10" font-weight="700" text-anchor="middle" fill="#222">4</text>
<text x="1098.0" y="224.0" font-family="Segoe UI, Arial, sans-serif" font-size="10" font-weight="400" text-anchor="middle" fill="#636363">70</text>
<rect x="1115.0" y="160.0" width="34.0" height="46" fill="#fbfaf6" stroke="#ddd6c8" stroke-width="1"/>
<line x1="1115.0" y1="26" x2="1115.0" y2="206.0" stroke="#cbc3b5" stroke-width="1"/>
<rect x="1149.0" y="160.0" width="34.0" height="46" fill="#ffffff" stroke="#ddd6c8" stroke-width="1"/>
<line x1="1149.0" y1="26" x2="1149.0" y2="206.0" stroke="#cbc3b5" stroke-width="1"/>
<line x1="1181.0" y1="26.0" x2="1181.0" y2="206.0" stroke="#27221b" stroke-width="1.2"/><line x1="1185.0" y1="26.0" x2="1185.0" y2="206.0" stroke="#27221b" stroke-width="1.2"/>
<text x="1166.0" y="224.0" font-family="Segoe UI, Arial, sans-serif" font-size="10" font-weight="400" text-anchor="middle" fill="#636363">72</text>
<rect x="1183.0" y="160.0" width="35.0" height="46" fill="#fbfaf6" stroke="#ddd6c8" stroke-width="1"/>
<line x1="1183.0" y1="26" x2="1183.0" y2="206.0" stroke="#cbc3b5" stroke-width="1"/>
<rect x="1189.5" y="28.0" width="22.0" height="22" rx="4" fill="#ffe7a8" stroke="#c18a18"/><text x="1200.5" y="43.0" font-family="Segoe UI, Arial, sans-serif" font-size="13" font-weight="700" text-anchor="middle" fill="#222">D</text>
<rect x="1185.4" y="82.0" width="30.3" height="22" rx="4" fill="#e4eed1" stroke="#8da969"/><text x="1200.5" y="97.0" font-family="Segoe UI, Arial, sans-serif" font-size="11" font-weight="700" text-anchor="middle" fill="#222">6♭</text>
<text x="1200.5" y="224.0" font-family="Segoe UI, Arial, sans-serif" font-size="10" font-weight="400" text-anchor="middle" fill="#636363">73</text>
<rect x="1218.0" y="160.0" width="70.0" height="46" rx="4" fill="#ece8de" stroke="#c8c0b1" stroke-dasharray="4 3"/>
<line x1="1226.0" y1="183.0" x2="1280.0" y2="183.0" stroke="#8f8778" stroke-width="1.4"/>
<text x="1253.0" y="177.0" font-family="Segoe UI, Arial, sans-serif" font-size="11" font-weight="700" text-anchor="middle" fill="#5e594f">--14--</text>
<text x="1253.0" y="223.0" font-family="Segoe UI, Arial, sans-serif" font-size="9" font-weight="400" text-anchor="middle" fill="#777066">74-87</text>
<rect x="1288.0" y="160.0" width="34.0" height="46" fill="#fbfaf6" stroke="#ddd6c8" stroke-width="1"/>
<line x1="1288.0" y1="26" x2="1288.0" y2="206.0" stroke="#cbc3b5" stroke-width="1"/>
<line x1="1320.0" y1="26.0" x2="1320.0" y2="206.0" stroke="#27221b" stroke-width="1.2"/><line x1="1324.0" y1="26.0" x2="1324.0" y2="206.0" stroke="#27221b" stroke-width="1.2"/>
<text x="1305.0" y="224.0" font-family="Segoe UI, Arial, sans-serif" font-size="10" font-weight="400" text-anchor="middle" fill="#636363">88</text>
<rect x="1322.0" y="160.0" width="35.0" height="46" fill="#ffffff" stroke="#ddd6c8" stroke-width="1"/>
<line x1="1322.0" y1="26" x2="1322.0" y2="206.0" stroke="#cbc3b5" stroke-width="1"/>
<rect x="1324.4" y="82.0" width="30.3" height="22" rx="4" fill="#e4eed1" stroke="#8da969"/><text x="1339.5" y="97.0" font-family="Segoe UI, Arial, sans-serif" font-size="11" font-weight="700" text-anchor="middle" fill="#222">1♭</text>
<text x="1339.5" y="224.0" font-family="Segoe UI, Arial, sans-serif" font-size="10" font-weight="400" text-anchor="middle" fill="#636363">89</text>
<rect x="1357.0" y="160.0" width="70.0" height="46" rx="4" fill="#ece8de" stroke="#c8c0b1" stroke-dasharray="4 3"/>
<line x1="1365.0" y1="183.0" x2="1419.0" y2="183.0" stroke="#8f8778" stroke-width="1.4"/>
<text x="1392.0" y="177.0" font-family="Segoe UI, Arial, sans-serif" font-size="11" font-weight="700" text-anchor="middle" fill="#5e594f">--5--</text>
<text x="1392.0" y="223.0" font-family="Segoe UI, Arial, sans-serif" font-size="9" font-weight="400" text-anchor="middle" fill="#777066">90-94</text>
<rect x="1427.0" y="160.0" width="34.0" height="46" fill="#ffffff" stroke="#ddd6c8" stroke-width="1"/>
<line x1="1427.0" y1="26" x2="1427.0" y2="206.0" stroke="#cbc3b5" stroke-width="1"/>
<text x="1444.0" y="192.0" font-family="Segoe UI, Arial, sans-serif" class="music" font-size="11" font-weight="700" text-anchor="middle" fill="#1e526f">rit</text>
<text x="1444.0" y="224.0" font-family="Segoe UI, Arial, sans-serif" font-size="10" font-weight="400" text-anchor="middle" fill="#636363">95</text>
<rect x="1461.0" y="160.0" width="70.0" height="46" rx="4" fill="#ece8de" stroke="#c8c0b1" stroke-dasharray="4 3"/>
<line x1="1469.0" y1="183.0" x2="1523.0" y2="183.0" stroke="#8f8778" stroke-width="1.4"/>
<text x="1496.0" y="177.0" font-family="Segoe UI, Arial, sans-serif" font-size="11" font-weight="700" text-anchor="middle" fill="#5e594f">--6--</text>
<text x="1496.0" y="223.0" font-family="Segoe UI, Arial, sans-serif" font-size="9" font-weight="400" text-anchor="middle" fill="#777066">96-101</text>
<rect x="1531.0" y="160.0" width="34.0" height="46" fill="#ffffff" stroke="#ddd6c8" stroke-width="1"/>
<line x1="1531.0" y1="26" x2="1531.0" y2="206.0" stroke="#cbc3b5" stroke-width="1"/>
<line x1="1563.0" y1="26.0" x2="1563.0" y2="206.0" stroke="#27221b" stroke-width="1.2"/><line x1="1567.0" y1="26.0" x2="1567.0" y2="206.0" stroke="#27221b" stroke-width="1.2"/>
<text x="1548.0" y="224.0" font-family="Segoe UI, Arial, sans-serif" font-size="10" font-weight="400" text-anchor="middle" fill="#636363">102</text>
<rect x="1565.0" y="160.0" width="34.0" height="46" fill="#fbfaf6" stroke="#ddd6c8" stroke-width="1"/>
<line x1="1565.0" y1="26" x2="1565.0" y2="206.0" stroke="#cbc3b5" stroke-width="1"/>
<rect x="1571.0" y="28.0" width="22.0" height="22" rx="4" fill="#ffe7a8" stroke="#c18a18"/><text x="1582.0" y="43.0" font-family="Segoe UI, Arial, sans-serif" font-size="13" font-weight="700" text-anchor="middle" fill="#222">E</text>
<text x="1582.0" y="224.0" font-family="Segoe UI, Arial, sans-serif" font-size="10" font-weight="400" text-anchor="middle" fill="#636363">103</text>
<rect x="1599.0" y="160.0" width="70.0" height="46" rx="4" fill="#ece8de" stroke="#c8c0b1" stroke-dasharray="4 3"/>
<line x1="1607.0" y1="183.0" x2="1661.0" y2="183.0" stroke="#8f8778" stroke-width="1.4"/>
<text x="1634.0" y="177.0" font-family="Segoe UI, Arial, sans-serif" font-size="11" font-weight="700" text-anchor="middle" fill="#5e594f">--14--</text>
<text x="1634.0" y="223.0" font-family="Segoe UI, Arial, sans-serif" font-size="9" font-weight="400" text-anchor="middle" fill="#777066">104-117</text>
<rect x="1669.0" y="160.0" width="34.0" height="46" fill="#fbfaf6" stroke="#ddd6c8" stroke-width="1"/>
<line x1="1669.0" y1="26" x2="1669.0" y2="206.0" stroke="#cbc3b5" stroke-width="1"/>
<line x1="1701.0" y1="26.0" x2="1701.0" y2="206.0" stroke="#27221b" stroke-width="1.2"/><line x1="1705.0" y1="26.0" x2="1705.0" y2="206.0" stroke="#27221b" stroke-width="1.2"/>
<text x="1686.0" y="224.0" font-family="Segoe UI, Arial, sans-serif" font-size="10" font-weight="400" text-anchor="middle" fill="#636363">118</text>
<rect x="1703.0" y="160.0" width="34.0" height="46" fill="#ffffff" stroke="#ddd6c8" stroke-width="1"/>
<line x1="1703.0" y1="26" x2="1703.0" y2="206.0" stroke="#cbc3b5" stroke-width="1"/>
<rect x="1709.0" y="28.0" width="22.0" height="22" rx="4" fill="#ffe7a8" stroke="#c18a18"/><text x="1720.0" y="43.0" font-family="Segoe UI, Arial, sans-serif" font-size="13" font-weight="700" text-anchor="middle" fill="#222">F</text>
<text x="1720.0" y="224.0" font-family="Segoe UI, Arial, sans-serif" font-size="10" font-weight="400" text-anchor="middle" fill="#636363">119</text>
<rect x="1737.0" y="160.0" width="34.0" height="46" fill="#fbfaf6" stroke="#ddd6c8" stroke-width="1"/>
<line x1="1737.0" y1="26" x2="1737.0" y2="206.0" stroke="#cbc3b5" stroke-width="1"/>
<text x="1754.0" y="224.0" font-family="Segoe UI, Arial, sans-serif" font-size="10" font-weight="400" text-anchor="middle" fill="#636363">120</text>
<rect x="1771.0" y="160.0" width="34.0" height="46" fill="#ffffff" stroke="#ddd6c8" stroke-width="1"/>
<line x1="1771.0" y1="26" x2="1771.0" y2="206.0" stroke="#cbc3b5" stroke-width="1"/>
<rect x="1805.0" y="160.0" width="34.0" height="46" fill="#fbfaf6" stroke="#ddd6c8" stroke-width="1"/>
<line x1="1805.0" y1="26" x2="1805.0" y2="206.0" stroke="#cbc3b5" stroke-width="1"/>
<line x1="1837.0" y1="26.0" x2="1837.0" y2="206.0" stroke="#27221b" stroke-width="1.2"/><line x1="1841.0" y1="26.0" x2="1841.0" y2="206.0" stroke="#27221b" stroke-width="1.2"/>
<text x="1822.0" y="224.0" font-family="Segoe UI, Arial, sans-serif" font-size="10" font-weight="400" text-anchor="middle" fill="#636363">122</text>
<rect x="1839.0" y="160.0" width="35.0" height="46" fill="#ffffff" stroke="#ddd6c8" stroke-width="1"/>
<line x1="1839.0" y1="26" x2="1839.0" y2="206.0" stroke="#cbc3b5" stroke-width="1"/>
<rect x="1841.4" y="82.0" width="30.3" height="22" rx="4" fill="#e4eed1" stroke="#8da969"/><text x="1856.5" y="97.0" font-family="Segoe UI, Arial, sans-serif" font-size="11" font-weight="700" text-anchor="middle" fill="#222">4♭</text>
<text x="1856.5" y="224.0" font-family="Segoe UI, Arial, sans-serif" font-size="10" font-weight="400" text-anchor="middle" fill="#636363">123</text>
<rect x="1874.0" y="160.0" width="70.0" height="46" rx="4" fill="#ece8de" stroke="#c8c0b1" stroke-dasharray="4 3"/>
<line x1="1882.0" y1="183.0" x2="1936.0" y2="183.0" stroke="#8f8778" stroke-width="1.4"/>
<text x="1909.0" y="177.0" font-family="Segoe UI, Arial, sans-serif" font-size="11" font-weight="700" text-anchor="middle" fill="#5e594f">--3--</text>
<text x="1909.0" y="223.0" font-family="Segoe UI, Arial, sans-serif" font-size="9" font-weight="400" text-anchor="middle" fill="#777066">124-126</text>
<rect x="1944.0" y="160.0" width="34.0" height="46" fill="#ffffff" stroke="#ddd6c8" stroke-width="1"/>
<line x1="1944.0" y1="26" x2="1944.0" y2="206.0" stroke="#cbc3b5" stroke-width="1"/>
<line x1="1976.0" y1="26.0" x2="1976.0" y2="206.0" stroke="#27221b" stroke-width="1.2"/><line x1="1980.0" y1="26.0" x2="1980.0" y2="206.0" stroke="#27221b" stroke-width="1.2"/>
<text x="1961.0" y="224.0" font-family="Segoe UI, Arial, sans-serif" font-size="10" font-weight="400" text-anchor="middle" fill="#636363">127</text>
<rect x="1978.0" y="160.0" width="35.0" height="46" fill="#fbfaf6" stroke="#ddd6c8" stroke-width="1"/>
<line x1="1978.0" y1="26" x2="1978.0" y2="206.0" stroke="#cbc3b5" stroke-width="1"/>
<rect x="1980.4" y="82.0" width="30.3" height="22" rx="4" fill="#e4eed1" stroke="#8da969"/><text x="1995.5" y="97.0" font-family="Segoe UI, Arial, sans-serif" font-size="11" font-weight="700" text-anchor="middle" fill="#222">1♭</text>
<text x="1995.5" y="122.0" font-family="Segoe UI, Arial, sans-serif" font-size="10" font-weight="700" text-anchor="middle" fill="#222">7</text><line x1="1985.5" y1="126.0" x2="2005.5" y2="126.0" stroke="#5f512f" stroke-width="1"/><text x="1995.5" y="137.0" font-family="Segoe UI, Arial, sans-serif" font-size="10" font-weight="700" text-anchor="middle" fill="#222">8</text>
<text x="1995.5" y="192.0" font-family="Segoe UI, Arial, sans-serif" class="music" font-size="11" font-weight="700" text-anchor="middle" fill="#1e526f">rit</text>
<text x="1995.5" y="224.0" font-family="Segoe UI, Arial, sans-serif" font-size="10" font-weight="400" text-anchor="middle" fill="#636363">128</text>
<rect x="2013.0" y="160.0" width="34.0" height="46" fill="#ffffff" stroke="#ddd6c8" stroke-width="1"/>
<line x1="2013.0" y1="26" x2="2013.0" y2="206.0" stroke="#cbc3b5" stroke-width="1"/>
<rect x="2047.0" y="160.0" width="40.0" height="46" fill="#fbfaf6" stroke="#ddd6c8" stroke-width="1"/>
<line x1="2047.0" y1="26" x2="2047.0" y2="206.0" stroke="#cbc3b5" stroke-width="1"/>
<text x="2067.0" y="122.0" font-family="Segoe UI, Arial, sans-serif" font-size="10" font-weight="700" text-anchor="middle" fill="#222">12</text><line x1="2057.0" y1="126.0" x2="2077.0" y2="126.0" stroke="#5f512f" stroke-width="1"/><text x="2067.0" y="137.0" font-family="Segoe UI, Arial, sans-serif" font-size="10" font-weight="700" text-anchor="middle" fill="#222">16</text>
<text x="2067.0" y="192.0" font-family="Segoe UI, Arial, sans-serif" class="music" font-size="11" font-weight="700" text-anchor="middle" fill="#1e526f">♩=63</text>
<line x1="2085.0" y1="26.0" x2="2085.0" y2="206.0" stroke="#27221b" stroke-width="1.2"/><line x1="2089.0" y1="26.0" x2="2089.0" y2="206.0" stroke="#27221b" stroke-width="1.2"/>
<text x="2067.0" y="224.0" font-family="Segoe UI, Arial, sans-serif" font-size="10" font-weight="400" text-anchor="middle" fill="#636363">130</text>
<rect x="2087.0" y="160.0" width="34.0" height="46" fill="#ffffff" stroke="#ddd6c8" stroke-width="1"/>
<line x1="2087.0" y1="26" x2="2087.0" y2="206.0" stroke="#cbc3b5" stroke-width="1"/>
<rect x="2093.0" y="28.0" width="22.0" height="22" rx="4" fill="#ffe7a8" stroke="#c18a18"/><text x="2104.0" y="43.0" font-family="Segoe UI, Arial, sans-serif" font-size="13" font-weight="700" text-anchor="middle" fill="#222">G</text>
<text x="2104.0" y="122.0" font-family="Segoe UI, Arial, sans-serif" font-size="10" font-weight="700" text-anchor="middle" fill="#222">3</text><line x1="2094.0" y1="126.0" x2="2114.0" y2="126.0" stroke="#5f512f" stroke-width="1"/><text x="2104.0" y="137.0" font-family="Segoe UI, Arial, sans-serif" font-size="10" font-weight="700" text-anchor="middle" fill="#222">4</text>
<text x="2104.0" y="192.0" font-family="Segoe UI, Arial, sans-serif" class="music" font-size="11" font-weight="700" text-anchor="middle" fill="#1e526f">♩=8</text>
<text x="2104.0" y="224.0" font-family="Segoe UI, Arial, sans-serif" font-size="10" font-weight="400" text-anchor="middle" fill="#636363">131</text>
<rect x="2121.0" y="160.0" width="70.0" height="46" rx="4" fill="#ece8de" stroke="#c8c0b1" stroke-dasharray="4 3"/>
<line x1="2129.0" y1="183.0" x2="2183.0" y2="183.0" stroke="#8f8778" stroke-width="1.4"/>
<text x="2156.0" y="177.0" font-family="Segoe UI, Arial, sans-serif" font-size="11" font-weight="700" text-anchor="middle" fill="#5e594f">--14--</text>
<text x="2156.0" y="223.0" font-family="Segoe UI, Arial, sans-serif" font-size="9" font-weight="400" text-anchor="middle" fill="#777066">132-145</text>
<rect x="2191.0" y="160.0" width="34.0" height="46" fill="#ffffff" stroke="#ddd6c8" stroke-width="1"/>
<line x1="2191.0" y1="26" x2="2191.0" y2="206.0" stroke="#cbc3b5" stroke-width="1"/>
<text x="2208.0" y="122.0" font-family="Segoe UI, Arial, sans-serif" font-size="10" font-weight="700" text-anchor="middle" fill="#222">4</text><line x1="2198.0" y1="126.0" x2="2218.0" y2="126.0" stroke="#5f512f" stroke-width="1"/><text x="2208.0" y="137.0" font-family="Segoe UI, Arial, sans-serif" font-size="10" font-weight="700" text-anchor="middle" fill="#222">4</text>
<line x1="2223.0" y1="26.0" x2="2223.0" y2="206.0" stroke="#27221b" stroke-width="1.2"/><line x1="2227.0" y1="26.0" x2="2227.0" y2="206.0" stroke="#27221b" stroke-width="1.2"/>
<text x="2208.0" y="224.0" font-family="Segoe UI, Arial, sans-serif" font-size="10" font-weight="400" text-anchor="middle" fill="#636363">146</text>
<rect x="2225.0" y="160.0" width="34.0" height="46" fill="#fbfaf6" stroke="#ddd6c8" stroke-width="1"/>
<line x1="2225.0" y1="26" x2="2225.0" y2="206.0" stroke="#cbc3b5" stroke-width="1"/>
<rect x="2231.0" y="28.0" width="22.0" height="22" rx="4" fill="#ffe7a8" stroke="#c18a18"/><text x="2242.0" y="43.0" font-family="Segoe UI, Arial, sans-serif" font-size="13" font-weight="700" text-anchor="middle" fill="#222">H</text>
<text x="2242.0" y="224.0" font-family="Segoe UI, Arial, sans-serif" font-size="10" font-weight="400" text-anchor="middle" fill="#636363">147</text>
<rect x="2259.0" y="160.0" width="70.0" height="46" rx="4" fill="#ece8de" stroke="#c8c0b1" stroke-dasharray="4 3"/>
<line x1="2267.0" y1="183.0" x2="2321.0" y2="183.0" stroke="#8f8778" stroke-width="1.4"/>
<text x="2294.0" y="177.0" font-family="Segoe UI, Arial, sans-serif" font-size="11" font-weight="700" text-anchor="middle" fill="#5e594f">--11--</text>
<text x="2294.0" y="223.0" font-family="Segoe UI, Arial, sans-serif" font-size="9" font-weight="400" text-anchor="middle" fill="#777066">148-158</text>
<rect x="2329.0" y="160.0" width="34.0" height="46" fill="#fbfaf6" stroke="#ddd6c8" stroke-width="1"/>
<line x1="2329.0" y1="26" x2="2329.0" y2="206.0" stroke="#cbc3b5" stroke-width="1"/>
<text x="2346.0" y="192.0" font-family="Segoe UI, Arial, sans-serif" class="music" font-size="11" font-weight="700" text-anchor="middle" fill="#1e526f">rit</text>
<text x="2346.0" y="224.0" font-family="Segoe UI, Arial, sans-serif" font-size="10" font-weight="400" text-anchor="middle" fill="#636363">159</text>
<rect x="2363.0" y="160.0" width="34.0" height="46" fill="#ffffff" stroke="#ddd6c8" stroke-width="1"/>
<line x1="2363.0" y1="26" x2="2363.0" y2="206.0" stroke="#cbc3b5" stroke-width="1"/>
<text x="2380.0" y="224.0" font-family="Segoe UI, Arial, sans-serif" font-size="10" font-weight="400" text-anchor="middle" fill="#636363">160</text>
<rect x="2397.0" y="160.0" width="34.0" height="46" fill="#fbfaf6" stroke="#ddd6c8" stroke-width="1"/>
<line x1="2397.0" y1="26" x2="2397.0" y2="206.0" stroke="#cbc3b5" stroke-width="1"/>
<line x1="2429.0" y1="26.0" x2="2429.0" y2="206.0" stroke="#27221b" stroke-width="1.2"/><line x1="2433.0" y1="26.0" x2="2433.0" y2="206.0" stroke="#27221b" stroke-width="1.2"/>
<text x="2414.0" y="224.0" font-family="Segoe UI, Arial, sans-serif" font-size="10" font-weight="400" text-anchor="middle" fill="#636363">161</text>
<rect x="2431.0" y="160.0" width="47.0" height="46" fill="#ffffff" stroke="#ddd6c8" stroke-width="1"/>
<line x1="2431.0" y1="26" x2="2431.0" y2="206.0" stroke="#cbc3b5" stroke-width="1"/>
<text x="2454.5" y="192.0" font-family="Segoe UI, Arial, sans-serif" class="music" font-size="11" font-weight="700" text-anchor="middle" fill="#1e526f">♩=168</text>
<text x="2454.5" y="224.0" font-family="Segoe UI, Arial, sans-serif" font-size="10" font-weight="400" text-anchor="middle" fill="#636363">162</text>
<rect x="2478.0" y="160.0" width="70.0" height="46" rx="4" fill="#ece8de" stroke="#c8c0b1" stroke-dasharray="4 3"/>
<line x1="2486.0" y1="183.0" x2="2540.0" y2="183.0" stroke="#8f8778" stroke-width="1.4"/>
<text x="2513.0" y="177.0" font-family="Segoe UI, Arial, sans-serif" font-size="11" font-weight="700" text-anchor="middle" fill="#5e594f">--7--</text>
<text x="2513.0" y="223.0" font-family="Segoe UI, Arial, sans-serif" font-size="9" font-weight="400" text-anchor="middle" fill="#777066">163-169</text>
<rect x="2548.0" y="160.0" width="34.0" height="46" fill="#ffffff" stroke="#ddd6c8" stroke-width="1"/>
<line x1="2548.0" y1="26" x2="2548.0" y2="206.0" stroke="#cbc3b5" stroke-width="1"/>
<text x="2565.0" y="122.0" font-family="Segoe UI, Arial, sans-serif" font-size="10" font-weight="700" text-anchor="middle" fill="#222">2</text><line x1="2555.0" y1="126.0" x2="2575.0" y2="126.0" stroke="#5f512f" stroke-width="1"/><text x="2565.0" y="137.0" font-family="Segoe UI, Arial, sans-serif" font-size="10" font-weight="700" text-anchor="middle" fill="#222">4</text>
<line x1="2580.0" y1="26.0" x2="2580.0" y2="206.0" stroke="#27221b" stroke-width="1.2"/><line x1="2584.0" y1="26.0" x2="2584.0" y2="206.0" stroke="#27221b" stroke-width="1.2"/>
<text x="2565.0" y="224.0" font-family="Segoe UI, Arial, sans-serif" font-size="10" font-weight="400" text-anchor="middle" fill="#636363">170</text>
<rect x="2582.0" y="160.0" width="34.0" height="46" fill="#fbfaf6" stroke="#ddd6c8" stroke-width="1"/>
<line x1="2582.0" y1="26" x2="2582.0" y2="206.0" stroke="#cbc3b5" stroke-width="1"/>
<rect x="2588.0" y="28.0" width="22.0" height="22" rx="4" fill="#ffe7a8" stroke="#c18a18"/><text x="2599.0" y="43.0" font-family="Segoe UI, Arial, sans-serif" font-size="13" font-weight="700" text-anchor="middle" fill="#222">I</text>
<text x="2599.0" y="122.0" font-family="Segoe UI, Arial, sans-serif" font-size="10" font-weight="700" text-anchor="middle" fill="#222">4</text><line x1="2589.0" y1="126.0" x2="2609.0" y2="126.0" stroke="#5f512f" stroke-width="1"/><text x="2599.0" y="137.0" font-family="Segoe UI, Arial, sans-serif" font-size="10" font-weight="700" text-anchor="middle" fill="#222">4</text>
<text x="2599.0" y="224.0" font-family="Segoe UI, Arial, sans-serif" font-size="10" font-weight="400" text-anchor="middle" fill="#636363">171</text>
<rect x="2616.0" y="160.0" width="70.0" height="46" rx="4" fill="#ece8de" stroke="#c8c0b1" stroke-dasharray="4 3"/>
<line x1="2624.0" y1="183.0" x2="2678.0" y2="183.0" stroke="#8f8778" stroke-width="1.4"/>
<text x="2651.0" y="177.0" font-family="Segoe UI, Arial, sans-serif" font-size="11" font-weight="700" text-anchor="middle" fill="#5e594f">--27--</text>
<text x="2651.0" y="223.0" font-family="Segoe UI, Arial, sans-serif" font-size="9" font-weight="400" text-anchor="middle" fill="#777066">172-198</text>
<rect x="2686.0" y="160.0" width="34.0" height="46" fill="#fbfaf6" stroke="#ddd6c8" stroke-width="1"/>
<line x1="2686.0" y1="26" x2="2686.0" y2="206.0" stroke="#cbc3b5" stroke-width="1"/>
<text x="2703.0" y="122.0" font-family="Segoe UI, Arial, sans-serif" font-size="10" font-weight="700" text-anchor="middle" fill="#222">3</text><line x1="2693.0" y1="126.0" x2="2713.0" y2="126.0" stroke="#5f512f" stroke-width="1"/><text x="2703.0" y="137.0" font-family="Segoe UI, Arial, sans-serif" font-size="10" font-weight="700" text-anchor="middle" fill="#222">4</text>
<text x="2703.0" y="224.0" font-family="Segoe UI, Arial, sans-serif" font-size="10" font-weight="400" text-anchor="middle" fill="#636363">199</text>
<rect x="2720.0" y="160.0" width="34.0" height="46" fill="#ffffff" stroke="#ddd6c8" stroke-width="1"/>
<line x1="2720.0" y1="26" x2="2720.0" y2="206.0" stroke="#cbc3b5" stroke-width="1"/>
<text x="2737.0" y="224.0" font-family="Segoe UI, Arial, sans-serif" font-size="10" font-weight="400" text-anchor="middle" fill="#636363">200</text>
<rect x="2754.0" y="160.0" width="34.0" height="46" fill="#fbfaf6" stroke="#ddd6c8" stroke-width="1"/>
<line x1="2754.0" y1="26" x2="2754.0" y2="206.0" stroke="#cbc3b5" stroke-width="1"/>
<text x="2771.0" y="122.0" font-family="Segoe UI, Arial, sans-serif" font-size="10" font-weight="700" text-anchor="middle" fill="#222">7</text><line x1="2761.0" y1="126.0" x2="2781.0" y2="126.0" stroke="#5f512f" stroke-width="1"/><text x="2771.0" y="137.0" font-family="Segoe UI, Arial, sans-serif" font-size="10" font-weight="700" text-anchor="middle" fill="#222">8</text>
<text x="2771.0" y="224.0" font-family="Segoe UI, Arial, sans-serif" font-size="10" font-weight="400" text-anchor="middle" fill="#636363">201</text>
<rect x="2788.0" y="160.0" width="34.0" height="46" fill="#ffffff" stroke="#ddd6c8" stroke-width="1"/>
<line x1="2788.0" y1="26" x2="2788.0" y2="206.0" stroke="#cbc3b5" stroke-width="1"/>
<text x="2805.0" y="122.0" font-family="Segoe UI, Arial, sans-serif" font-size="10" font-weight="700" text-anchor="middle" fill="#222">4</text><line x1="2795.0" y1="126.0" x2="2815.0" y2="126.0" stroke="#5f512f" stroke-width="1"/><text x="2805.0" y="137.0" font-family="Segoe UI, Arial, sans-serif" font-size="10" font-weight="700" text-anchor="middle" fill="#222">4</text>
<line x1="2820.0" y1="26.0" x2="2820.0" y2="206.0" stroke="#27221b" stroke-width="1.2"/><line x1="2824.0" y1="26.0" x2="2824.0" y2="206.0" stroke="#27221b" stroke-width="1.2"/>
<text x="2805.0" y="224.0" font-family="Segoe UI, Arial, sans-serif" font-size="10" font-weight="400" text-anchor="middle" fill="#636363">202</text>
<rect x="2822.0" y="160.0" width="35.0" height="46" fill="#fbfaf6" stroke="#ddd6c8" stroke-width="1"/>
<line x1="2822.0" y1="26" x2="2822.0" y2="206.0" stroke="#cbc3b5" stroke-width="1"/>
<rect x="2824.4" y="82.0" width="30.3" height="22" rx="4" fill="#e4eed1" stroke="#8da969"/><text x="2839.5" y="97.0" font-family="Segoe UI, Arial, sans-serif" font-size="11" font-weight="700" text-anchor="middle" fill="#222">2♭</text>
<text x="2839.5" y="122.0" font-family="Segoe UI, Arial, sans-serif" font-size="10" font-weight="700" text-anchor="middle" fill="#222">5</text><line x1="2829.5" y1="126.0" x2="2849.5" y2="126.0" stroke="#5f512f" stroke-width="1"/><text x="2839.5" y="137.0" font-family="Segoe UI, Arial, sans-serif" font-size="10" font-weight="700" text-anchor="middle" fill="#222">4</text>
<text x="2839.5" y="224.0" font-family="Segoe UI, Arial, sans-serif" font-size="10" font-weight="400" text-anchor="middle" fill="#636363">203</text>
<rect x="2857.0" y="160.0" width="70.0" height="46" rx="4" fill="#ece8de" stroke="#c8c0b1" stroke-dasharray="4 3"/>
<line x1="2865.0" y1="183.0" x2="2919.0" y2="183.0" stroke="#8f8778" stroke-width="1.4"/>
<text x="2892.0" y="177.0" font-family="Segoe UI, Arial, sans-serif" font-size="11" font-weight="700" text-anchor="middle" fill="#5e594f">--4--</text>
<text x="2892.0" y="223.0" font-family="Segoe UI, Arial, sans-serif" font-size="9" font-weight="400" text-anchor="middle" fill="#777066">204-207</text>
<rect x="2927.0" y="160.0" width="34.0" height="46" fill="#fbfaf6" stroke="#ddd6c8" stroke-width="1"/>
<line x1="2927.0" y1="26" x2="2927.0" y2="206.0" stroke="#cbc3b5" stroke-width="1"/>
<text x="2944.0" y="122.0" font-family="Segoe UI, Arial, sans-serif" font-size="10" font-weight="700" text-anchor="middle" fill="#222">7</text><line x1="2934.0" y1="126.0" x2="2954.0" y2="126.0" stroke="#5f512f" stroke-width="1"/><text x="2944.0" y="137.0" font-family="Segoe UI, Arial, sans-serif" font-size="10" font-weight="700" text-anchor="middle" fill="#222">8</text>
<text x="2944.0" y="224.0" font-family="Segoe UI, Arial, sans-serif" font-size="10" font-weight="400" text-anchor="middle" fill="#636363">208</text>
<rect x="2961.0" y="160.0" width="34.0" height="46" fill="#ffffff" stroke="#ddd6c8" stroke-width="1"/>
<line x1="2961.0" y1="26" x2="2961.0" y2="206.0" stroke="#cbc3b5" stroke-width="1"/>
<rect x="2995.0" y="160.0" width="34.0" height="46" fill="#fbfaf6" stroke="#ddd6c8" stroke-width="1"/>
<line x1="2995.0" y1="26" x2="2995.0" y2="206.0" stroke="#cbc3b5" stroke-width="1"/>
<text x="3012.0" y="122.0" font-family="Segoe UI, Arial, sans-serif" font-size="10" font-weight="700" text-anchor="middle" fill="#222">3</text><line x1="3002.0" y1="126.0" x2="3022.0" y2="126.0" stroke="#5f512f" stroke-width="1"/><text x="3012.0" y="137.0" font-family="Segoe UI, Arial, sans-serif" font-size="10" font-weight="700" text-anchor="middle" fill="#222">4</text>
<line x1="3026.0" y1="26.0" x2="3026.0" y2="206.0" stroke="#27221b" stroke-width="1.2"/><line x1="3031.0" y1="26.0" x2="3031.0" y2="206.0" stroke="#27221b" stroke-width="3.6"/>
<text x="3012.0" y="224.0" font-family="Segoe UI, Arial, sans-serif" font-size="10" font-weight="400" text-anchor="middle" fill="#636363">210</text>
</svg>