<svg xmlns="http://www.w3.org/2000/svg" width="2700" height="238" viewBox="0 0 2700 238">
<style>.music{font-family:"Leland","Bravura","Segoe UI Symbol","Noto Music",sans-serif;}</style>
<rect width="100%" height="100%" fill="#f7f5ef"/>
<text x="24.0" y="44.0" font-family="Segoe UI, Arial, sans-serif" font-size="11" font-weight="700" text-anchor="start" fill="#6b4c16">Mark</text>
<text x="24.0" y="71.0" font-family="Segoe UI, Arial, sans-serif" font-size="11" font-weight="700" text-anchor="start" fill="#6d3b60">Repeat</text>
<text x="24.0" y="98.0" font-family="Segoe UI, Arial, sans-serif" font-size="11" font-weight="700" text-anchor="start" fill="#4c6232">Key</text>
<text x="24.0" y="126.0" font-family="Segoe UI, Arial, sans-serif" font-size="11" font-weight="700" text-anchor="start" fill="#6b4c16">Meter</text>
<text x="24.0" y="193.0" font-family="Segoe UI, Arial, sans-serif" font-size="11" font-weight="700" text-anchor="start" fill="#1e526f">Tempo</text>
<line x1="82.0" y1="27" x2="2662.0" y2="27" stroke="#d7d0c2" stroke-width="1"/>
<rect x="82.0" y="160.0" width="47.0" height="46" fill="#ffffff" stroke="#ddd6c8" stroke-width="1"/>
<line x1="82.0" y1="26" x2="82.0" y2="206.0" stroke="#cbc3b5" stroke-width="1"/>
<rect x="91.5" y="82.0" width="28.0" height="22" rx="4" fill="#e4eed1" stroke="#8da969"/><text x="105.5" y="97.0" font-family="Segoe UI, Arial, sans-serif" font-size="11" font-weight="700" text-anchor="middle" fill="#222">2#</text>
<text x="105.5" y="122.0" font-family="Segoe UI, Arial, sans-serif" font-size="10" font-weight="700" text-anchor="middle" fill="#222">3</text><line x1="95.5" y1="126.0" x2="115.5" y2="126.0" stroke="#5f512f" stroke-width="1"/><text x="105.5" y="137.0" font-family="Segoe UI, Arial, sans-serif" font-size="10" font-weight="700" text-anchor="middle" fill="#222">4</text>
<text x="105.5" y="192.0" font-family="Segoe UI, Arial, sans-serif" class="music" font-size="11" font-weight="700" text-anchor="middle" fill="#1e526f">♩=108</text>
<text x="105.5" y="224.0" font-family="Segoe UI, Arial, sans-serif" font-size="10" font-weight="400" text-anchor="middle" fill="#636363">1</text>
<rect x="129.0" y="160.0" width="34.0" height="46" fill="#fbfaf6" stroke="#ddd6c8" stroke-width="1"/>
<line x1="129.0" y1="26" x2="129.0" y2="206.0" stroke="#cbc3b5" stroke-width="1"/>
<text x="146.0" y="192.0" font-family="Segoe UI, Arial, sans-serif" class="music" font-size="11" font-weight="700" text-anchor="middle" fill="#1e526f">rit</text>
<text x="146.0" y="224.0" font-family="Segoe UI, Arial, sans-serif" font-size="10" font-weight="400" text-anchor="middle" fill="#636363">2</text>
<rect x="163.0" y="160.0" width="70.0" height="46" rx="4" fill="#ece8de" stroke="#c8c0b1" stroke-dasharray="4 3"/>
<line x1="171.0" y1="183.0" x2="225.0" y2="183.0" stroke="#8f8778" stroke-width="1.4"/>
<text x="198.0" y="177.0" font-family="Segoe UI, Arial, sans-serif" font-size="11" font-weight="700" text-anchor="middle" fill="#5e594f">--7--</text>
<text x="198.0" y="223.0" font-family="Segoe UI, Arial, sans-serif" font-size="9" font-weight="400" text-anchor="middle" fill="#777066">3-9</text>
<rect x="233.0" y="160.0" width="34.0" height="46" fill="#fbfaf6" stroke="#ddd6c8" stroke-width="1"/>
<line x1="233.0" y1="26" x2="233.0" y2="206.0" stroke="#cbc3b5" stroke-width="1"/>
<text x="250.0" y="192.0" font-family="Segoe UI, Arial, sans-serif" class="music" font-size="11" font-weight="700" text-anchor="middle" fill="#1e526f">rit</text>
<text x="250.0" y="224.0" font-family="Segoe UI, Arial, sans-serif" font-size="10" font-weight="400" text-anchor="middle" fill="#636363">10</text>
<rect x="267.0" y="160.0" width="34.0" height="46" fill="#ffffff" stroke="#ddd6c8" stroke-width="1"/>
<line x1="267.0" y1="26" x2="267.0" y2="206.0" stroke="#cbc3b5" stroke-width="1"/>
<rect x="301.0" y="160.0" width="34.0" height="46" fill="#fbfaf6" stroke="#ddd6c8" stroke-width="1"/>
<line x1="301.0" y1="26" x2="301.0" y2="206.0" stroke="#cbc3b5" stroke-width="1"/>
<rect x="335.0" y="160.0" width="47.0" height="46" fill="#ffffff" stroke="#ddd6c8" stroke-width="1"/>
<line x1="335.0" y1="26" x2="335.0" y2="206.0" stroke="#cbc3b5" stroke-width="1"/>
<text x="358.5" y="192.0" font-family="Segoe UI, Arial, sans-serif" class="music" font-size="11" font-weight="700" text-anchor="middle" fill="#1e526f">♩=144</text>
<line x1="380.0" y1="26.0" x2="380.0" y2="206.0" stroke="#27221b" stroke-width="1.2"/><line x1="384.0" y1="26.0" x2="384.0" y2="206.0" stroke="#27221b" stroke-width="1.2"/>
<text x="358.5" y="224.0" font-family="Segoe UI, Arial, sans-serif" font-size="10" font-weight="400" text-anchor="middle" fill="#636363">13</text>
<rect x="382.0" y="160.0" width="34.0" height="46" fill="#fbfaf6" stroke="#ddd6c8" stroke-width="1"/>
<line x1="382.0" y1="26" x2="382.0" y2="206.0" stroke="#cbc3b5" stroke-width="1"/>
<rect x="388.0" y="28.0" width="22.0" height="22" rx="4" fill="#ffe7a8" stroke="#c18a18"/><text x="399.0" y="43.0" font-family="Segoe UI, Arial, sans-serif" font-size="13" font-weight="700" text-anchor="middle" fill="#222">A</text>
<rect x="385.0" y="82.0" width="28.0" height="22" rx="4" fill="#e4eed1" stroke="#8da969"/><text x="399.0" y="97.0" font-family="Segoe UI, Arial, sans-serif" font-size="11" font-weight="700" text-anchor="middle" fill="#222">1#</text>
<text x="399.0" y="224.0" font-family="Segoe UI, Arial, sans-serif" font-size="10" font-weight="400" text-anchor="middle" fill="#636363">14</text>
<rect x="416.0" y="160.0" width="70.0" height="46" rx="4" fill="#ece8de" stroke="#c8c0b1" stroke-dasharray="4 3"/>
<line x1="424.0" y1="183.0" x2="478.0" y2="183.0" stroke="#8f8778" stroke-width="1.4"/>
<text x="451.0" y="177.0" font-family="Segoe UI, Arial, sans-serif" font-size="11" font-weight="700" text-anchor="middle" fill="#5e594f">--29--</text>
<text x="451.0" y="223.0" font-family="Segoe UI, Arial, sans-serif" font-size="9" font-weight="400" text-anchor="middle" fill="#777066">15-43</text>
<rect x="486.0" y="160.0" width="34.0" height="46" fill="#fbfaf6" stroke="#ddd6c8" stroke-width="1"/>
<line x1="486.0" y1="26" x2="486.0" y2="206.0" stroke="#cbc3b5" stroke-width="1"/>
<line x1="518.0" y1="26.0" x2="518.0" y2="206.0" stroke="#27221b" stroke-width="1.2"/><line x1="522.0" y1="26.0" x2="522.0" y2="206.0" stroke="#27221b" stroke-width="1.2"/>
<text x="503.0" y="224.0" font-family="Segoe UI, Arial, sans-serif" font-size="10" font-weight="400" text-anchor="middle" fill="#636363">44</text>
<rect x="520.0" y="160.0" width="34.0" height="46" fill="#ffffff" stroke="#ddd6c8" stroke-width="1"/>
<line x1="520.0" y1="26" x2="520.0" y2="206.0" stroke="#cbc3b5" stroke-width="1"/>
<rect x="526.0" y="28.0" width="22.0" height="22" rx="4" fill="#ffe7a8" stroke="#c18a18"/><text x="537.0" y="43.0" font-family="Segoe UI, Arial, sans-serif" font-size="13" font-weight="700" text-anchor="middle" fill="#222">B</text>
<text x="537.0" y="224.0" font-family="Segoe UI, Arial, sans-serif" font-size="10" font-weight="400" text-anchor="middle" fill="#636363">45</text>
<rect x="554.0" y="160.0" width="70.0" height="46" rx="4" fill="#ece8de" stroke="#c8c0b1" stroke-dasharray="4 3"/>
<line x1="562.0" y1="183.0" x2="616.0" y2="183.0" stroke="#8f8778" stroke-width="1.4"/>
<text x="589.0" y="177.0" font-family="Segoe UI, Arial, sans-serif" font-size="11" font-weight="700" text-anchor="middle" fill="#5e594f">--27--</text>
<text x="589.0" y="223.0" font-family="Segoe UI, Arial, sans-serif" font-size="9" font-weight="400" text-anchor="middle" fill="#777066">46-72</text>
<rect x="624.0" y="160.0" width="34.0" height="46" fill="#ffffff" stroke="#ddd6c8" stroke-width="1"/>
<line x1="624.0" y1="26" x2="624.0" y2="206.0" stroke="#cbc3b5" stroke-width="1"/>
<text x="641.0" y="192.0" font-family="Segoe UI, Arial, sans-serif" class="music" font-size="11" font-weight="700" text-anchor="middle" fill="#1e526f">rit</text>
<text x="641.0" y="224.0" font-family="Segoe UI, Arial, sans-serif" font-size="10" font-weight="400" text-anchor="middle" fill="#636363">73</text>
<rect x="658.0" y="160.0" width="34.0" height="46" fill="#fbfaf6" stroke="#ddd6c8" stroke-width="1"/>
<line x1="658.0" y1="26" x2="658.0" y2="206.0" stroke="#cbc3b5" stroke-width="1"/>
<rect x="692.0" y="160.0" width="34.0" height="46" fill="#ffffff" stroke="#ddd6c8" stroke-width="1"/>
<line x1="692.0" y1="26" x2="692.0" y2="206.0" stroke="#cbc3b5" stroke-width="1"/>
<text x="709.0" y="224.0" font-family="Segoe UI, Arial, sans-serif" font-size="10" font-weight="400" text-anchor="middle" fill="#636363">75</text>
<rect x="726.0" y="160.0" width="34.0" height="46" fill="#fbfaf6" stroke="#ddd6c8" stroke-width="1"/>
<line x1="726.0" y1="26" x2="726.0" y2="206.0" stroke="#cbc3b5" stroke-width="1"/>
<line x1="758.0" y1="26.0" x2="758.0" y2="206.0" stroke="#27221b" stroke-width="1.2"/><line x1="762.0" y1="26.0" x2="762.0" y2="206.0" stroke="#27221b" stroke-width="1.2"/>
<text x="743.0" y="224.0" font-family="Segoe UI, Arial, sans-serif" font-size="10" font-weight="400" text-anchor="middle" fill="#636363">76</text>
<rect x="760.0" y="160.0" width="47.0" height="46" fill="#ffffff" stroke="#ddd6c8" stroke-width="1"/>
<line x1="760.0" y1="26" x2="760.0" y2="206.0" stroke="#cbc3b5" stroke-width="1"/>
<rect x="772.5" y="28.0" width="22.0" height="22" rx="4" fill="#ffe7a8" stroke="#c18a18"/><text x="783.5" y="43.0" font-family="Segoe UI, Arial, sans-serif" font-size="13" font-weight="700" text-anchor="middle" fill="#222">C</text>
<text x="783.5" y="192.0" font-family="Segoe UI, Arial, sans-serif" class="music" font-size="11" font-weight="700" text-anchor="middle" fill="#1e526f">♩=108</text>
<text x="783.5" y="224.0" font-family="Segoe UI, Arial, sans-serif" font-size="10" font-weight="400" text-anchor="middle" fill="#636363">77</text>
<rect x="807.0" y="160.0" width="70.0" height="46" rx="4" fill="#ece8de" stroke="#c8c0b1" stroke-dasharray="4 3"/>
<line x1="815.0" y1="183.0" x2="869.0" y2="183.0" stroke="#8f8778" stroke-width="1.4"/>
<text x="842.0" y="177.0" font-family="Segoe UI, Arial, sans-serif" font-size="11" font-weight="700" text-anchor="middle" fill="#5e594f">--19--</text>
<text x="842.0" y="223.0" font-family="Segoe UI, Arial, sans-serif" font-size="9" font-weight="400" text-anchor="middle" fill="#777066">78-96</text>
<rect x="877.0" y="160.0" width="34.0" height="46" fill="#ffffff" stroke="#ddd6c8" stroke-width="1"/>
<line x1="877.0" y1="26" x2="877.0" y2="206.0" stroke="#cbc3b5" stroke-width="1"/>
<text x="894.0" y="192.0" font-family="Segoe UI, Arial, sans-serif" class="music" font-size="11" font-weight="700" text-anchor="middle" fill="#1e526f">rit</text>
<text x="894.0" y="224.0" font-family="Segoe UI, Arial, sans-serif" font-size="10" font-weight="400" text-anchor="middle" fill="#636363">97</text>
<rect x="911.0" y="160.0" width="34.0" height="46" fill="#fbfaf6" stroke="#ddd6c8" stroke-width="1"/>
<line x1="911.0" y1="26" x2="911.0" y2="206.0" stroke="#cbc3b5" stroke-width="1"/>
<rect x="945.0" y="160.0" width="34.0" height="46" fill="#ffffff" stroke="#ddd6c8" stroke-width="1"/>
<line x1="945.0" y1="26" x2="945.0" y2="206.0" stroke="#cbc3b5" stroke-width="1"/>
<rect x="979.0" y="160.0" width="34.0" height="46" fill="#fbfaf6" stroke="#ddd6c8" stroke-width="1"/>
<line x1="979.0" y1="26" x2="979.0" y2="206.0" stroke="#cbc3b5" stroke-width="1"/>
<line x1="1011.0" y1="26.0" x2="1011.0" y2="206.0" stroke="#27221b" stroke-width="1.2"/><line x1="1015.0" y1="26.0" x2="1015.0" y2="206.0" stroke="#27221b" stroke-width="1.2"/>
<text x="996.0" y="224.0" font-family="Segoe UI, Arial, sans-serif" font-size="10" font-weight="400" text-anchor="middle" fill="#636363">100</text>
<rect x="1013.0" y="160.0" width="35.0" height="46" fill="#ffffff" stroke="#ddd6c8" stroke-width="1"/>
<line x1="1013.0" y1="26" x2="1013.0" y2="206.0" stroke="#cbc3b5" stroke-width="1"/>
<rect x="1019.5" y="28.0" width="22.0" height="22" rx="4" fill="#ffe7a8" stroke="#c18a18"/><text x="1030.5" y="43.0" font-family="Segoe UI, Arial, sans-serif" font-size="13" font-weight="700" text-anchor="middle" fill="#222">D</text>
<rect x="1015.4" y="82.0" width="30.3" height="22" rx="4" fill="#e4eed1" stroke="#8da969"/><text x="1030.5" y="97.0" font-family="Segoe UI, Arial, sans-serif" font-size="11" font-weight="700" text-anchor="middle" fill="#222">2♭</text>
<text x="1030.5" y="224.0" font-family="Segoe UI, Arial, sans-serif" font-size="10" font-weight="400" text-anchor="middle" fill="#636363">101</text>
<rect x="1048.0" y="160.0" width="70.0" height="46" rx="4" fill="#ece8de" stroke="#c8c0b1" stroke-dasharray="4 3"/>
<line x1="1056.0" y1="183.0" x2="1110.0" y2="183.0" stroke="#8f8778" stroke-width="1.4"/>
<text x="1083.0" y="177.0" font-family="Segoe UI, Arial, sans-serif" font-size="11" font-weight="700" text-anchor="middle" fill="#5e594f">--3--</text>
<text x="1083.0" y="223.0" font-family="Segoe UI, Arial, sans-serif" font-size="9" font-weight="400" text-anchor="middle" fill="#777066">102-104</text>
<rect x="1118.0" y="160.0" width="34.0" height="46" fill="#ffffff" stroke="#ddd6c8" stroke-width="1"/>
<line x1="1118.0" y1="26" x2="1118.0" y2="206.0" stroke="#cbc3b5" stroke-width="1"/>
<text x="1135.0" y="122.0" font-family="Segoe UI, Arial, sans-serif" font-size="10" font-weight="700" text-anchor="middle" fill="#222">4</text><line x1="1125.0" y1="126.0" x2="1145.0" y2="126.0" stroke="#5f512f" stroke-width="1"/><text x="1135.0" y="137.0" font-family="Segoe UI, Arial, sans-serif" font-size="10" font-weight="700" text-anchor="middle" fill="#222">4</text>
<text x="1135.0" y="224.0" font-family="Segoe UI, Arial, sans-serif" font-size="10" font-weight="400" text-anchor="middle" fill="#636363">105</text>
<rect x="1152.0" y="160.0" width="42.0" height="46" fill="#fbfaf6" stroke="#ddd6c8" stroke-width="1"/>
<line x1="1152.0" y1="26" x2="1152.0" y2="206.0" stroke="#cbc3b5" stroke-width="1"/>
<text x="1173.0" y="122.0" font-family="Segoe UI, Arial, sans-serif" font-size="10" font-weight="700" text-anchor="middle" fill="#222">3</text><line x1="1163.0" y1="126.0" x2="1183.0" y2="126.0" stroke="#5f512f" stroke-width="1"/><text x="1173.0" y="137.0" font-family="Segoe UI, Arial, sans-serif" font-size="10" font-weight="700" text-anchor="middle" fill="#222">4</text>
<text x="1173.0" y="192.0" font-family="Segoe UI, Arial, sans-serif" class="music" font-size="11" font-weight="700" text-anchor="middle" fill="#1e526f">accel</text>
<text x="1173.0" y="224.0" font-family="Segoe UI, Arial, sans-serif" font-size="10" font-weight="400" text-anchor="middle" fill="#636363">106</text>
<rect x="1194.0" y="160.0" width="70.0" height="46" rx="4" fill="#ece8de" stroke="#c8c0b1" stroke-dasharray="4 3"/>
<line x1="1202.0" y1="183.0" x2="1256.0" y2="183.0" stroke="#8f8778" stroke-width="1.4"/>
<text x="1229.0" y="177.0" font-family="Segoe UI, Arial, sans-serif" font-size="11" font-weight="700" text-anchor="middle" fill="#5e594f">--4--</text>
<text x="1229.0" y="223.0" font-family="Segoe UI, Arial, sans-serif" font-size="9" font-weight="400" text-anchor="middle" fill="#777066">107-110</text>
<rect x="1264.0" y="160.0" width="34.0" height="46" fill="#fbfaf6" stroke="#ddd6c8" stroke-width="1"/>
<line x1="1264.0" y1="26" x2="1264.0" y2="206.0" stroke="#cbc3b5" stroke-width="1"/>
<text x="1281.0" y="122.0" font-family="Segoe UI, Arial, sans-serif" font-size="10" font-weight="700" text-anchor="middle" fill="#222">2</text><line x1="1271.0" y1="126.0" x2="1291.0" y2="126.0" stroke="#5f512f" stroke-width="1"/><text x="1281.0" y="137.0" font-family="Segoe UI, Arial, sans-serif" font-size="10" font-weight="700" text-anchor="middle" fill="#222">4</text>
<text x="1281.0" y="224.0" font-family="Segoe UI, Arial, sans-serif" font-size="10" font-weight="400" text-anchor="middle" fill="#636363">111</text>
<rect x="1298.0" y="160.0" width="34.0" height="46" fill="#ffffff" stroke="#ddd6c8" stroke-width="1"/>
<line x1="1298.0" y1="26" x2="1298.0" y2="206.0" stroke="#cbc3b5" stroke-width="1"/>
<text x="1315.0" y="122.0" font-family="Segoe UI, Arial, sans-serif" font-size="10" font-weight="700" text-anchor="middle" fill="#222">4</text><line x1="1305.0" y1="126.0" x2="1325.0" y2="126.0" stroke="#5f512f" stroke-width="1"/><text x="1315.0" y="137.0" font-family="Segoe UI, Arial, sans-serif" font-size="10" font-weight="700" text-anchor="middle" fill="#222">4</text>
<text x="1315.0" y="224.0" font-family="Segoe UI, Arial, sans-serif" font-size="10" font-weight="400" text-anchor="middle" fill="#636363">112</text>
<rect x="1332.0" y="160.0" width="34.0" height="46" fill="#fbfaf6" stroke="#ddd6c8" stroke-width="1"/>
<line x1="1332.0" y1="26" x2="1332.0" y2="206.0" stroke="#cbc3b5" stroke-width="1"/>
<text x="1349.0" y="122.0" font-family="Segoe UI, Arial, sans-serif" font-size="10" font-weight="700" text-anchor="middle" fill="#222">3</text><line x1="1339.0" y1="126.0" x2="1359.0" y2="126.0" stroke="#5f512f" stroke-width="1"/><text x="1349.0" y="137.0" font-family="Segoe UI, Arial, sans-serif" font-size="10" font-weight="700" text-anchor="middle" fill="#222">4</text>
<text x="1349.0" y="224.0" font-family="Segoe UI, Arial, sans-serif" font-size="10" font-weight="400" text-anchor="middle" fill="#636363">113</text>
<rect x="1366.0" y="160.0" width="70.0" height="46" rx="4" fill="#ece8de" stroke="#c8c0b1" stroke-dasharray="4 3"/>
<line x1="1374.0" y1="183.0" x2="1428.0" y2="183.0" stroke="#8f8778" stroke-width="1.4"/>
<text x="1401.0" y="177.0" font-family="Segoe UI, Arial, sans-serif" font-size="11" font-weight="700" text-anchor="middle" fill="#5e594f">--3--</text>
<text x="1401.0" y="223.0" font-family="Segoe UI, Arial, sans-serif" font-size="9" font-weight="400" text-anchor="middle" fill="#777066">114-116</text>
<rect x="1436.0" y="160.0" width="34.0" height="46" fill="#fbfaf6" stroke="#ddd6c8" stroke-width="1"/>
<line x1="1436.0" y1="26" x2="1436.0" y2="206.0" stroke="#cbc3b5" stroke-width="1"/>
<text x="1453.0" y="122.0" font-family="Segoe UI, Arial, sans-serif" font-size="10" font-weight="700" text-anchor="middle" fill="#222">2</text><line x1="1443.0" y1="126.0" x2="1463.0" y2="126.0" stroke="#5f512f" stroke-width="1"/><text x="1453.0" y="137.0" font-family="Segoe UI, Arial, sans-serif" font-size="10" font-weight="700" text-anchor="middle" fill="#222">4</text>
<text x="1453.0" y="192.0" font-family="Segoe UI, Arial, sans-serif" class="music" font-size="11" font-weight="700" text-anchor="middle" fill="#1e526f">rit</text>
<text x="1453.0" y="224.0" font-family="Segoe UI, Arial, sans-serif" font-size="10" font-weight="400" text-anchor="middle" fill="#636363">117</text>
<rect x="1470.0" y="160.0" width="34.0" height="46" fill="#ffffff" stroke="#ddd6c8" stroke-width="1"/>
<line x1="1470.0" y1="26" x2="1470.0" y2="206.0" stroke="#cbc3b5" stroke-width="1"/>
<rect x="1504.0" y="160.0" width="34.0" height="46" fill="#fbfaf6" stroke="#ddd6c8" stroke-width="1"/>
<line x1="1504.0" y1="26" x2="1504.0" y2="206.0" stroke="#cbc3b5" stroke-width="1"/>
<line x1="1536.0" y1="26.0" x2="1536.0" y2="206.0" stroke="#27221b" stroke-width="1.2"/><line x1="1540.0" y1="26.0" x2="1540.0" y2="206.0" stroke="#27221b" stroke-width="1.2"/>
<text x="1521.0" y="224.0" font-family="Segoe UI, Arial, sans-serif" font-size="10" font-weight="400" text-anchor="middle" fill="#636363">119</text>
<rect x="1538.0" y="160.0" width="42.0" height="46" fill="#ffffff" stroke="#ddd6c8" stroke-width="1"/>
<line x1="1538.0" y1="26" x2="1538.0" y2="206.0" stroke="#cbc3b5" stroke-width="1"/>
<rect x="1548.0" y="28.0" width="22.0" height="22" rx="4" fill="#ffe7a8" stroke="#c18a18"/><text x="1559.0" y="43.0" font-family="Segoe UI, Arial, sans-serif" font-size="13" font-weight="700" text-anchor="middle" fill="#222">E</text>
<rect x="1543.9" y="82.0" width="30.3" height="22" rx="4" fill="#e4eed1" stroke="#8da969"/><text x="1559.0" y="97.0" font-family="Segoe UI, Arial, sans-serif" font-size="11" font-weight="700" text-anchor="middle" fill="#222">4♭</text>
<text x="1559.0" y="122.0" font-family="Segoe UI, Arial, sans-serif" font-size="10" font-weight="700" text-anchor="middle" fill="#222">4</text><line x1="1549.0" y1="126.0" x2="1569.0" y2="126.0" stroke="#5f512f" stroke-width="1"/><text x="1559.0" y="137.0" font-family="Segoe UI, Arial, sans-serif" font-size="10" font-weight="700" text-anchor="middle" fill="#222">4</text>
<text x="1559.0" y="192.0" font-family="Segoe UI, Arial, sans-serif" class="music" font-size="11" font-weight="700" text-anchor="middle" fill="#1e526f">accel</text>
<text x="1559.0" y="224.0" font-family="Segoe UI, Arial, sans-serif" font-size="10" font-weight="400" text-anchor="middle" fill="#636363">120</text>
<rect x="1580.0" y="160.0" width="34.0" height="46" fill="#fbfaf6" stroke="#ddd6c8" stroke-width="1"/>
<line x1="1580.0" y1="26" x2="1580.0" y2="206.0" stroke="#cbc3b5" stroke-width="1"/>
<rect x="1614.0" y="160.0" width="34.0" height="46" fill="#ffffff" stroke="#ddd6c8" stroke-width="1"/>
<line x1="1614.0" y1="26" x2="1614.0" y2="206.0" stroke="#cbc3b5" stroke-width="1"/>
<rect x="1648.0" y="160.0" width="34.0" height="46" fill="#fbfaf6" stroke="#ddd6c8" stroke-width="1"/>
<line x1="1648.0" y1="26" x2="1648.0" y2="206.0" stroke="#cbc3b5" stroke-width="1"/>
<line x1="1680.0" y1="26.0" x2="1680.0" y2="206.0" stroke="#27221b" stroke-width="1.2"/><line x1="1684.0" y1="26.0" x2="1684.0" y2="206.0" stroke="#27221b" stroke-width="1.2"/>
<text x="1665.0" y="224.0" font-family="Segoe UI, Arial, sans-serif" font-size="10" font-weight="400" text-anchor="middle" fill="#636363">123</text>
<rect x="1682.0" y="160.0" width="40.0" height="46" fill="#ffffff" stroke="#ddd6c8" stroke-width="1"/>
<line x1="1682.0" y1="26" x2="1682.0" y2="206.0" stroke="#cbc3b5" stroke-width="1"/>
<rect x="1691.0" y="28.0" width="22.0" height="22" rx="4" fill="#ffe7a8" stroke="#c18a18"/><text x="1702.0" y="43.0" font-family="Segoe UI, Arial, sans-serif" font-size="13" font-weight="700" text-anchor="middle" fill="#222">F</text>
<rect x="1686.9" y="82.0" width="30.3" height="22" rx="4" fill="#e4eed1" stroke="#8da969"/><text x="1702.0" y="97.0" font-family="Segoe UI, Arial, sans-serif" font-size="11" font-weight="700" text-anchor="middle" fill="#222">1♭</text>
<text x="1702.0" y="192.0" font-family="Segoe UI, Arial, sans-serif" class="music" font-size="11" font-weight="700" text-anchor="middle" fill="#1e526f">♩=86</text>
<text x="1702.0" y="224.0" font-family="Segoe UI, Arial, sans-serif" font-size="10" font-weight="400" text-anchor="middle" fill="#636363">124</text>
<rect x="1722.0" y="160.0" width="70.0" height="46" rx="4" fill="#ece8de" stroke="#c8c0b1" stroke-dasharray="4 3"/>
<line x1="1730.0" y1="183.0" x2="1784.0" y2="183.0" stroke="#8f8778" stroke-width="1.4"/>
<text x="1757.0" y="177.0" font-family="Segoe UI, Arial, sans-serif" font-size="11" font-weight="700" text-anchor="middle" fill="#5e594f">--13--</text>
<text x="1757.0" y="223.0" font-family="Segoe UI, Arial, sans-serif" font-size="9" font-weight="400" text-anchor="middle" fill="#777066">125-137</text>
<rect x="1792.0" y="160.0" width="34.0" height="46" fill="#ffffff" stroke="#ddd6c8" stroke-width="1"/>
<line x1="1792.0" y1="26" x2="1792.0" y2="206.0" stroke="#cbc3b5" stroke-width="1"/>
<text x="1809.0" y="192.0" font-family="Segoe UI, Arial, sans-serif" class="music" font-size="11" font-weight="700" text-anchor="middle" fill="#1e526f">rit</text>
<text x="1809.0" y="224.0" font-family="Segoe UI, Arial, sans-serif" font-size="10" font-weight="400" text-anchor="middle" fill="#636363">138</text>
<rect x="1826.0" y="160.0" width="34.0" height="46" fill="#fbfaf6" stroke="#ddd6c8" stroke-width="1"/>
<line x1="1826.0" y1="26" x2="1826.0" y2="206.0" stroke="#cbc3b5" stroke-width="1"/>
<rect x="1860.0" y="160.0" width="34.0" height="46" fill="#ffffff" stroke="#ddd6c8" stroke-width="1"/>
<line x1="1860.0" y1="26" x2="1860.0" y2="206.0" stroke="#cbc3b5" stroke-width="1"/>
<text x="1877.0" y="224.0" font-family="Segoe UI, Arial, sans-serif" font-size="10" font-weight="400" text-anchor="middle" fill="#636363">140</text>
<rect x="1894.0" y="160.0" width="47.0" height="46" fill="#fbfaf6" stroke="#ddd6c8" stroke-width="1"/>
<line x1="1894.0" y1="26" x2="1894.0" y2="206.0" stroke="#cbc3b5" stroke-width="1"/>
<text x="1917.5" y="192.0" font-family="Segoe UI, Arial, sans-serif" class="music" font-size="11" font-weight="700" text-anchor="middle" fill="#1e526f">♩=144</text>
<line x1="1941.0" y1="26.0" x2="1941.0" y2="206.0" stroke="#27221b" stroke-width="1.2" stroke-dasharray="4 3"/>
<line x1="1939.0" y1="26.0" x2="1939.0" y2="206.0" stroke="#27221b" stroke-width="1.2"/><line x1="1943.0" y1="26.0" x2="1943.0" y2="206.0" stroke="#27221b" stroke-width="1.2"/>
<text x="1917.5" y="224.0" font-family="Segoe UI, Arial, sans-serif" font-size="10" font-weight="400" text-anchor="middle" fill="#636363">141</text>
<rect x="1941.0" y="160.0" width="34.0" height="46" fill="#ffffff" stroke="#ddd6c8" stroke-width="1"/>
<line x1="1941.0" y1="26" x2="1941.0" y2="206.0" stroke="#cbc3b5" stroke-width="1"/>
<rect x="1947.0" y="28.0" width="22.0" height="22" rx="4" fill="#ffe7a8" stroke="#c18a18"/><text x="1958.0" y="43.0" font-family="Segoe UI, Arial, sans-serif" font-size="13" font-weight="700" text-anchor="middle" fill="#222">G</text>
<text x="1958.0" y="122.0" font-family="Segoe UI, Arial, sans-serif" font-size="10" font-weight="700" text-anchor="middle" fill="#222">5</text><line x1="1948.0" y1="126.0" x2="1968.0" y2="126.0" stroke="#5f512f" stroke-width="1"/><text x="1958.0" y="137.0" font-family="Segoe UI, Arial, sans-serif" font-size="10" font-weight="700" text-anchor="middle" fill="#222">4</text>
<text x="1958.0" y="224.0" font-family="Segoe UI, Arial, sans-serif" font-size="10" font-weight="400" text-anchor="middle" fill="#636363">142</text>
<rect x="1975.0" y="160.0" width="34.0" height="46" fill="#fbfaf6" stroke="#ddd6c8" stroke-width="1"/>
<line x1="1975.0" y1="26" x2="1975.0" y2="206.0" stroke="#cbc3b5" stroke-width="1"/>
<rect x="2009.0" y="160.0" width="34.0" height="46" fill="#ffffff" stroke="#ddd6c8" stroke-width="1"/>
<line x1="2009.0" y1="26" x2="2009.0" y2="206.0" stroke="#cbc3b5" stroke-width="1"/>
<text x="2026.0" y="122.0" font-family="Segoe UI, Arial, sans-serif" font-size="10" font-weight="700" text-anchor="middle" fill="#222">6</text><line x1="2016.0" y1="126.0" x2="2036.0" y2="126.0" stroke="#5f512f" stroke-width="1"/><text x="2026.0" y="137.0" font-family="Segoe UI, Arial, sans-serif" font-size="10" font-weight="700" text-anchor="middle" fill="#222">8</text>
<text x="2026.0" y="224.0" font-family="Segoe UI, Arial, sans-serif" font-size="10" font-weight="400" text-anchor="middle" fill="#636363">144</text>
<rect x="2043.0" y="160.0" width="34.0" height="46" fill="#fbfaf6" stroke="#ddd6c8" stroke-width="1"/>
<line x1="2043.0" y1="26" x2="2043.0" y2="206.0" stroke="#cbc3b5" stroke-width="1"/>
<text x="2060.0" y="122.0" font-family="Segoe UI, Arial, sans-serif" font-size="10" font-weight="700" text-anchor="middle" fill="#222">4</text><line x1="2050.0" y1="126.0" x2="2070.0" y2="126.0" stroke="#5f512f" stroke-width="1"/><text x="2060.0" y="137.0" font-family="Segoe UI, Arial, sans-serif" font-size="10" font-weight="700" text-anchor="middle" fill="#222">4</text>
<text x="2060.0" y="224.0" font-family="Segoe UI, Arial, sans-serif" font-size="10" font-weight="400" text-anchor="middle" fill="#636363">145</text>
<rect x="2077.0" y="160.0" width="34.0" height="46" fill="#ffffff" stroke="#ddd6c8" stroke-width="1"/>
<line x1="2077.0" y1="26" x2="2077.0" y2="206.0" stroke="#cbc3b5" stroke-width="1"/>
<text x="2094.0" y="122.0" font-family="Segoe UI, Arial, sans-serif" font-size="10" font-weight="700" text-anchor="middle" fill="#222">3</text><line x1="2084.0" y1="126.0" x2="2104.0" y2="126.0" stroke="#5f512f" stroke-width="1"/><text x="2094.0" y="137.0" font-family="Segoe UI, Arial, sans-serif" font-size="10" font-weight="700" text-anchor="middle" fill="#222">4</text>
<text x="2094.0" y="224.0" font-family="Segoe UI, Arial, sans-serif" font-size="10" font-weight="400" text-anchor="middle" fill="#636363">146</text>
<rect x="2111.0" y="160.0" width="34.0" height="46" fill="#fbfaf6" stroke="#ddd6c8" stroke-width="1"/>
<line x1="2111.0" y1="26" x2="2111.0" y2="206.0" stroke="#cbc3b5" stroke-width="1"/>
<rect x="2145.0" y="160.0" width="34.0" height="46" fill="#ffffff" stroke="#ddd6c8" stroke-width="1"/>
<line x1="2145.0" y1="26" x2="2145.0" y2="206.0" stroke="#cbc3b5" stroke-width="1"/>
<rect x="2179.0" y="160.0" width="34.0" height="46" fill="#fbfaf6" stroke="#ddd6c8" stroke-width="1"/>
<line x1="2179.0" y1="26" x2="2179.0" y2="206.0" stroke="#cbc3b5" stroke-width="1"/>
<line x1="2211.0" y1="26.0" x2="2211.0" y2="206.0" stroke="#27221b" stroke-width="1.2"/><line x1="2215.0" y1="26.0" x2="2215.0" y2="206.0" stroke="#27221b" stroke-width="1.2"/>
<text x="2196.0" y="224.0" font-family="Segoe UI, Arial, sans-serif" font-size="10" font-weight="400" text-anchor="middle" fill="#636363">149</text>
<rect x="2213.0" y="160.0" width="35.0" height="46" fill="#ffffff" stroke="#ddd6c8" stroke-width="1"/>
<line x1="2213.0" y1="26" x2="2213.0" y2="206.0" stroke="#cbc3b5" stroke-width="1"/>
<rect x="2219.5" y="28.0" width="22.0" height="22" rx="4" fill="#ffe7a8" stroke="#c18a18"/><text x="2230.5" y="43.0" font-family="Segoe UI, Arial, sans-serif" font-size="13" font-weight="700" text-anchor="middle" fill="#222">H</text>
<rect x="2215.4" y="82.0" width="30.3" height="22" rx="4" fill="#e4eed1" stroke="#8da969"/><text x="2230.5" y="97.0" font-family="Segoe UI, Arial, sans-serif" font-size="11" font-weight="700" text-anchor="middle" fill="#222">3♭</text>
<text x="2230.5" y="224.0" font-family="Segoe UI, Arial, sans-serif" font-size="10" font-weight="400" text-anchor="middle" fill="#636363">150</text>
<rect x="2248.0" y="160.0" width="70.0" height="46" rx="4" fill="#ece8de" stroke="#c8c0b1" stroke-dasharray="4 3"/>
<line x1="2256.0" y1="183.0" x2="2310.0" y2="183.0" stroke="#8f8778" stroke-width="1.4"/>
<text x="2283.0" y="177.0" font-family="Segoe UI, Arial, sans-serif" font-size="11" font-weight="700" text-anchor="middle" fill="#5e594f">--27--</text>
<text x="2283.0" y="223.0" font-family="Segoe UI, Arial, sans-serif" font-size="9" font-weight="400" text-anchor="middle" fill="#777066">151-177</text>
<rect x="2318.0" y="160.0" width="34.0" height="46" fill="#ffffff" stroke="#ddd6c8" stroke-width="1"/>
<line x1="2318.0" y1="26" x2="2318.0" y2="206.0" stroke="#cbc3b5" stroke-width="1"/>
<text x="2335.0" y="192.0" font-family="Segoe UI, Arial, sans-serif" class="music" font-size="11" font-weight="700" text-anchor="middle" fill="#1e526f">rit</text>
<text x="2335.0" y="224.0" font-family="Segoe UI, Arial, sans-serif" font-size="10" font-weight="400" text-anchor="middle" fill="#636363">178</text>
<rect x="2352.0" y="160.0" width="34.0" height="46" fill="#fbfaf6" stroke="#ddd6c8" stroke-width="1"/>
<line x1="2352.0" y1="26" x2="2352.0" y2="206.0" stroke="#cbc3b5" stroke-width="1"/>
<rect x="2386.0" y="160.0" width="34.0" height="46" fill="#ffffff" stroke="#ddd6c8" stroke-width="1"/>
<line x1="2386.0" y1="26" x2="2386.0" y2="206.0" stroke="#cbc3b5" stroke-width="1"/>
<line x1="2418.0" y1="26.0" x2="2418.0" y2="206.0" stroke="#27221b" stroke-width="1.2"/><line x1="2422.0" y1="26.0" x2="2422.0" y2="206.0" stroke="#27221b" stroke-width="1.2"/>
<text x="2403.0" y="224.0" font-family="Segoe UI, Arial, sans-serif" font-size="10" font-weight="400" text-anchor="middle" fill="#636363">180</text>
<rect x="2420.0" y="160.0" width="34.0" height="46" fill="#fbfaf6" stroke="#ddd6c8" stroke-width="1"/>
<line x1="2420.0" y1="26" x2="2420.0" y2="206.0" stroke="#cbc3b5" stroke-width="1"/>
<rect x="2426.0" y="28.0" width="22.0" height="22" rx="4" fill="#ffe7a8" stroke="#c18a18"/><text x="2437.0" y="43.0" font-family="Segoe UI, Arial, sans-serif" font-size="13" font-weight="700" text-anchor="middle" fill="#222">I</text>
<text x="2437.0" y="224.0" font-family="Segoe UI, Arial, sans-serif" font-size="10" font-weight="400" text-anchor="middle" fill="#636363">181</text>
<rect x="2454.0" y="160.0" width="70.0" height="46" rx="4" fill="#ece8de" stroke="#c8c0b1" stroke-dasharray="4 3"/>
<line x1="2462.0" y1="183.0" x2="2516.0" y2="183.0" stroke="#8f8778" stroke-width="1.4"/>
<text x="2489.0" y="177.0" font-family="Segoe UI, Arial, sans-serif" font-size="11" font-weight="700" text-anchor="middle" fill="#5e594f">--3--</text>
<text x="2489.0" y="223.0" font-family="Segoe UI, Arial, sans-serif" font-size="9" font-weight="400" text-anchor="middle" fill="#777066">182-184</text>
<rect x="2524.0" y="160.0" width="34.0" height="46" fill="#fbfaf6" stroke="#ddd6c8" stroke-width="1"/>
<line x1="2524.0" y1="26" x2="2524.0" y2="206.0" stroke="#cbc3b5" stroke-width="1"/>
<text x="2541.0" y="192.0" font-family="Segoe UI, Arial, sans-serif" class="music" font-size="11" font-weight="700" text-anchor="middle" fill="#1e526f">rit</text>
<text x="2541.0" y="224.0" font-family="Segoe UI, Arial, sans-serif" font-size="10" font-weight="400" text-anchor="middle" fill="#636363">185</text>
<rect x="2558.0" y="160.0" width="70.0" height="46" rx="4" fill="#ece8de" stroke="#c8c0b1" stroke-dasharray="4 3"/>
<line x1="2566.0" y1="183.0" x2="2620.0" y2="183.0" stroke="#8f8778" stroke-width="1.4"/>
<text x="2593.0" y="177.0" font-family="Segoe UI, Arial, sans-serif" font-size="11" font-weight="700" text-anchor="middle" fill="#5e594f">--5--</text>
<text x="2593.0" y="223.0" font-family="Segoe UI, Arial, sans-serif" font-size="9" font-weight="400" text-anchor="middle" fill="#777066">186-190</text>
<rect x="2628.0" y="160.0" width="34.0" height="46" fill="#fbfaf6" stroke="#ddd6c8" stroke-width="1"/>
<line x1="2628.0" y1="26" x2="2628.0" y2="206.0" stroke="#cbc3b5" stroke-width="1"/>
<line x1="2659.0" y1="26.0" x2="2659.0" y2="206.0" stroke="#27221b" stroke-width="1.2"/><line x1="2664.0" y1="26.0" x2="2664.0" y2="206.0" stroke="#27221b" stroke-width="3.6"/>
<text x="2645.0" y="224.0" font-family="Segoe UI, Arial, sans-serif" font-size="10" font-weight="400" text-anchor="middle" fill="#636363">191</text>
</svg>