<svg xmlns="http://www.w3.org/2000/svg" width="3118" height="238" viewBox="0 0 3118 238">
<style>.music{font-family:"Leland","Bravura","Segoe UI Symbol","Noto Music",sans-serif;}</style>
<rect width="100%" height="100%" fill="#f7f5ef"/>
<text x="24.0" y="44.0" font-family="Segoe UI, Arial, sans-serif" font-size="11" font-weight="700" text-anchor="start" fill="#6b4c16">Mark</text>
<text x="24.0" y="71.0" font-family="Segoe UI, Arial, sans-serif" font-size="11" font-weight="700" text-anchor="start" fill="#6d3b60">Repeat</text>
<text x="24.0" y="98.0" font-family="Segoe UI, Arial, sans-serif" font-size="11" font-weight="700" text-anchor="start" fill="#4c6232">Key</text>
<text x="24.0" y="126.0" font-family="Segoe UI, Arial, sans-serif" font-size="11" font-weight="700" text-anchor="start" fill="#6b4c16">Meter</text>
<text x="24.0" y="193.0" font-family="Segoe UI, Arial, sans-serif" font-size="11" font-weight="700" text-anchor="start" fill="#1e526f">Tempo</text>
<line x1="82.0" y1="27" x2="3080.0" y2="27" stroke="#d7d0c2" stroke-width="1"/>
<rect x="82.0" y="160.0" width="47.0" height="46" fill="#ffffff" stroke="#ddd6c8" stroke-width="1"/>
<line x1="82.0" y1="26" x2="82.0" y2="206.0" stroke="#cbc3b5" stroke-width="1"/>
<rect x="91.5" y="82.0" width="28.0" height="22" rx="4" fill="#e4eed1" stroke="#8da969"/><text x="105.5" y="97.0" font-family="Segoe UI, Arial, sans-serif" font-size="11" font-weight="700" text-anchor="middle" fill="#222">0</text>
<text x="105.5" y="122.0" font-family="Segoe UI, Arial, sans-serif" font-size="10" font-weight="700" text-anchor="middle" fill="#222">6</text><line x1="95.5" y1="126.0" x2="115.5" y2="126.0" stroke="#5f512f" stroke-width="1"/><text x="105.5" y="137.0" font-family="Segoe UI, Arial, sans-serif" font-size="10" font-weight="700" text-anchor="middle" fill="#222">4</text>
<text x="105.5" y="192.0" font-family="Segoe UI, Arial, sans-serif" class="music" font-size="11" font-weight="700" text-anchor="middle" fill="#1e526f">♩=138</text>
<text x="105.5" y="224.0" font-family="Segoe UI, Arial, sans-serif" font-size="10" font-weight="400" text-anchor="middle" fill="#636363">1</text>
<rect x="129.0" y="160.0" width="70.0" height="46" rx="4" fill="#ece8de" stroke="#c8c0b1" stroke-dasharray="4 3"/>
<line x1="137.0" y1="183.0" x2="191.0" y2="183.0" stroke="#8f8778" stroke-width="1.4"/>
<text x="164.0" y="177.0" font-family="Segoe UI, Arial, sans-serif" font-size="11" font-weight="700" text-anchor="middle" fill="#5e594f">--19--</text>
<text x="164.0" y="223.0" font-family="Segoe UI, Arial, sans-serif" font-size="9" font-weight="400" text-anchor="middle" fill="#777066">2-20</text>
<rect x="199.0" y="160.0" width="34.0" height="46" fill="#ffffff" stroke="#ddd6c8" stroke-width="1"/>
<line x1="199.0" y1="26" x2="199.0" y2="206.0" stroke="#cbc3b5" stroke-width="1"/>
<line x1="231.0" y1="26.0" x2="231.0" y2="206.0" stroke="#27221b" stroke-width="1.2"/><line x1="235.0" y1="26.0" x2="235.0" y2="206.0" stroke="#27221b" stroke-width="1.2"/>
<text x="216.0" y="224.0" font-family="Segoe UI, Arial, sans-serif" font-size="10" font-weight="400" text-anchor="middle" fill="#636363">21</text>
<rect x="233.0" y="160.0" width="70.0" height="46" rx="4" fill="#ece8de" stroke="#c8c0b1" stroke-dasharray="4 3"/>
<line x1="241.0" y1="183.0" x2="295.0" y2="183.0" stroke="#8f8778" stroke-width="1.4"/>
<text x="268.0" y="177.0" font-family="Segoe UI, Arial, sans-serif" font-size="11" font-weight="700" text-anchor="middle" fill="#5e594f">--7--</text>
<text x="268.0" y="223.0" font-family="Segoe UI, Arial, sans-serif" font-size="9" font-weight="400" text-anchor="middle" fill="#777066">22-28</text>
<rect x="303.0" y="160.0" width="34.0" height="46" fill="#ffffff" stroke="#ddd6c8" stroke-width="1"/>
<line x1="303.0" y1="26" x2="303.0" y2="206.0" stroke="#cbc3b5" stroke-width="1"/>
<line x1="335.0" y1="26.0" x2="335.0" y2="206.0" stroke="#27221b" stroke-width="1.2"/><line x1="339.0" y1="26.0" x2="339.0" y2="206.0" stroke="#27221b" stroke-width="1.2"/>
<text x="320.0" y="224.0" font-family="Segoe UI, Arial, sans-serif" font-size="10" font-weight="400" text-anchor="middle" fill="#636363">29</text>
<rect x="337.0" y="160.0" width="34.0" height="46" fill="#fbfaf6" stroke="#ddd6c8" stroke-width="1"/>
<line x1="337.0" y1="26" x2="337.0" y2="206.0" stroke="#cbc3b5" stroke-width="1"/>
<text x="354.0" y="122.0" font-family="Segoe UI, Arial, sans-serif" font-size="10" font-weight="700" text-anchor="middle" fill="#222">4</text><line x1="344.0" y1="126.0" x2="364.0" y2="126.0" stroke="#5f512f" stroke-width="1"/><text x="354.0" y="137.0" font-family="Segoe UI, Arial, sans-serif" font-size="10" font-weight="700" text-anchor="middle" fill="#222">4</text>
<text x="354.0" y="224.0" font-family="Segoe UI, Arial, sans-serif" font-size="10" font-weight="400" text-anchor="middle" fill="#636363">30</text>
<rect x="371.0" y="160.0" width="70.0" height="46" rx="4" fill="#ece8de" stroke="#c8c0b1" stroke-dasharray="4 3"/>
<line x1="379.0" y1="183.0" x2="433.0" y2="183.0" stroke="#8f8778" stroke-width="1.4"/>
<text x="406.0" y="177.0" font-family="Segoe UI, Arial, sans-serif" font-size="11" font-weight="700" text-anchor="middle" fill="#5e594f">--8--</text>
<text x="406.0" y="223.0" font-family="Segoe UI, Arial, sans-serif" font-size="9" font-weight="400" text-anchor="middle" fill="#777066">31-38</text>
<rect x="441.0" y="160.0" width="40.0" height="46" fill="#fbfaf6" stroke="#ddd6c8" stroke-width="1"/>
<line x1="441.0" y1="26" x2="441.0" y2="206.0" stroke="#cbc3b5" stroke-width="1"/>
<text x="461.0" y="192.0" font-family="Segoe UI, Arial, sans-serif" class="music" font-size="11" font-weight="700" text-anchor="middle" fill="#1e526f">♩=90</text>
<line x1="479.0" y1="26.0" x2="479.0" y2="206.0" stroke="#27221b" stroke-width="1.2"/><line x1="483.0" y1="26.0" x2="483.0" y2="206.0" stroke="#27221b" stroke-width="1.2"/>
<text x="461.0" y="224.0" font-family="Segoe UI, Arial, sans-serif" font-size="10" font-weight="400" text-anchor="middle" fill="#636363">39</text>
<rect x="481.0" y="160.0" width="47.0" height="46" fill="#ffffff" stroke="#ddd6c8" stroke-width="1"/>
<line x1="481.0" y1="26" x2="481.0" y2="206.0" stroke="#cbc3b5" stroke-width="1"/>
<text x="504.5" y="122.0" font-family="Segoe UI, Arial, sans-serif" font-size="10" font-weight="700" text-anchor="middle" fill="#222">5</text><line x1="494.5" y1="126.0" x2="514.5" y2="126.0" stroke="#5f512f" stroke-width="1"/><text x="504.5" y="137.0" font-family="Segoe UI, Arial, sans-serif" font-size="10" font-weight="700" text-anchor="middle" fill="#222">8</text>
<text x="504.5" y="192.0" font-family="Segoe UI, Arial, sans-serif" class="music" font-size="11" font-weight="700" text-anchor="middle" fill="#1e526f">♩=152</text>
<text x="504.5" y="224.0" font-family="Segoe UI, Arial, sans-serif" font-size="10" font-weight="400" text-anchor="middle" fill="#636363">40</text>
<rect x="528.0" y="160.0" width="34.0" height="46" fill="#fbfaf6" stroke="#ddd6c8" stroke-width="1"/>
<line x1="528.0" y1="26" x2="528.0" y2="206.0" stroke="#cbc3b5" stroke-width="1"/>
<rect x="562.0" y="160.0" width="34.0" height="46" fill="#ffffff" stroke="#ddd6c8" stroke-width="1"/>
<line x1="562.0" y1="26" x2="562.0" y2="206.0" stroke="#cbc3b5" stroke-width="1"/>
<text x="579.0" y="122.0" font-family="Segoe UI, Arial, sans-serif" font-size="10" font-weight="700" text-anchor="middle" fill="#222">4</text><line x1="569.0" y1="126.0" x2="589.0" y2="126.0" stroke="#5f512f" stroke-width="1"/><text x="579.0" y="137.0" font-family="Segoe UI, Arial, sans-serif" font-size="10" font-weight="700" text-anchor="middle" fill="#222">8</text>
<text x="579.0" y="224.0" font-family="Segoe UI, Arial, sans-serif" font-size="10" font-weight="400" text-anchor="middle" fill="#636363">42</text>
<rect x="596.0" y="160.0" width="34.0" height="46" fill="#fbfaf6" stroke="#ddd6c8" stroke-width="1"/>
<line x1="596.0" y1="26" x2="596.0" y2="206.0" stroke="#cbc3b5" stroke-width="1"/>
<rect x="630.0" y="160.0" width="34.0" height="46" fill="#ffffff" stroke="#ddd6c8" stroke-width="1"/>
<line x1="630.0" y1="26" x2="630.0" y2="206.0" stroke="#cbc3b5" stroke-width="1"/>
<text x="647.0" y="122.0" font-family="Segoe UI, Arial, sans-serif" font-size="10" font-weight="700" text-anchor="middle" fill="#222">3</text><line x1="637.0" y1="126.0" x2="657.0" y2="126.0" stroke="#5f512f" stroke-width="1"/><text x="647.0" y="137.0" font-family="Segoe UI, Arial, sans-serif" font-size="10" font-weight="700" text-anchor="middle" fill="#222">8</text>
<text x="647.0" y="224.0" font-family="Segoe UI, Arial, sans-serif" font-size="10" font-weight="400" text-anchor="middle" fill="#636363">44</text>
<rect x="664.0" y="160.0" width="70.0" height="46" rx="4" fill="#ece8de" stroke="#c8c0b1" stroke-dasharray="4 3"/>
<line x1="672.0" y1="183.0" x2="726.0" y2="183.0" stroke="#8f8778" stroke-width="1.4"/>
<text x="699.0" y="177.0" font-family="Segoe UI, Arial, sans-serif" font-size="11" font-weight="700" text-anchor="middle" fill="#5e594f">--3--</text>
<text x="699.0" y="223.0" font-family="Segoe UI, Arial, sans-serif" font-size="9" font-weight="400" text-anchor="middle" fill="#777066">45-47</text>
<rect x="734.0" y="160.0" width="34.0" height="46" fill="#ffffff" stroke="#ddd6c8" stroke-width="1"/>
<line x1="734.0" y1="26" x2="734.0" y2="206.0" stroke="#cbc3b5" stroke-width="1"/>
<text x="751.0" y="122.0" font-family="Segoe UI, Arial, sans-serif" font-size="10" font-weight="700" text-anchor="middle" fill="#222">7</text><line x1="741.0" y1="126.0" x2="761.0" y2="126.0" stroke="#5f512f" stroke-width="1"/><text x="751.0" y="137.0" font-family="Segoe UI, Arial, sans-serif" font-size="10" font-weight="700" text-anchor="middle" fill="#222">8</text>
<text x="751.0" y="224.0" font-family="Segoe UI, Arial, sans-serif" font-size="10" font-weight="400" text-anchor="middle" fill="#636363">48</text>
<rect x="768.0" y="160.0" width="34.0" height="46" fill="#fbfaf6" stroke="#ddd6c8" stroke-width="1"/>
<line x1="768.0" y1="26" x2="768.0" y2="206.0" stroke="#cbc3b5" stroke-width="1"/>
<text x="785.0" y="122.0" font-family="Segoe UI, Arial, sans-serif" font-size="10" font-weight="700" text-anchor="middle" fill="#222">6</text><line x1="775.0" y1="126.0" x2="795.0" y2="126.0" stroke="#5f512f" stroke-width="1"/><text x="785.0" y="137.0" font-family="Segoe UI, Arial, sans-serif" font-size="10" font-weight="700" text-anchor="middle" fill="#222">8</text>
<text x="785.0" y="224.0" font-family="Segoe UI, Arial, sans-serif" font-size="10" font-weight="400" text-anchor="middle" fill="#636363">49</text>
<rect x="802.0" y="160.0" width="34.0" height="46" fill="#ffffff" stroke="#ddd6c8" stroke-width="1"/>
<line x1="802.0" y1="26" x2="802.0" y2="206.0" stroke="#cbc3b5" stroke-width="1"/>
<text x="819.0" y="122.0" font-family="Segoe UI, Arial, sans-serif" font-size="10" font-weight="700" text-anchor="middle" fill="#222">5</text><line x1="809.0" y1="126.0" x2="829.0" y2="126.0" stroke="#5f512f" stroke-width="1"/><text x="819.0" y="137.0" font-family="Segoe UI, Arial, sans-serif" font-size="10" font-weight="700" text-anchor="middle" fill="#222">8</text>
<text x="819.0" y="224.0" font-family="Segoe UI, Arial, sans-serif" font-size="10" font-weight="400" text-anchor="middle" fill="#636363">50</text>
<rect x="836.0" y="160.0" width="34.0" height="46" fill="#fbfaf6" stroke="#ddd6c8" stroke-width="1"/>
<line x1="836.0" y1="26" x2="836.0" y2="206.0" stroke="#cbc3b5" stroke-width="1"/>
<rect x="870.0" y="160.0" width="34.0" height="46" fill="#ffffff" stroke="#ddd6c8" stroke-width="1"/>
<line x1="870.0" y1="26" x2="870.0" y2="206.0" stroke="#cbc3b5" stroke-width="1"/>
<rect x="904.0" y="160.0" width="34.0" height="46" fill="#fbfaf6" stroke="#ddd6c8" stroke-width="1"/>
<line x1="904.0" y1="26" x2="904.0" y2="206.0" stroke="#cbc3b5" stroke-width="1"/>
<text x="921.0" y="122.0" font-family="Segoe UI, Arial, sans-serif" font-size="10" font-weight="700" text-anchor="middle" fill="#222">4</text><line x1="911.0" y1="126.0" x2="931.0" y2="126.0" stroke="#5f512f" stroke-width="1"/><text x="921.0" y="137.0" font-family="Segoe UI, Arial, sans-serif" font-size="10" font-weight="700" text-anchor="middle" fill="#222">8</text>
<text x="921.0" y="224.0" font-family="Segoe UI, Arial, sans-serif" font-size="10" font-weight="400" text-anchor="middle" fill="#636363">53</text>
<rect x="938.0" y="160.0" width="34.0" height="46" fill="#ffffff" stroke="#ddd6c8" stroke-width="1"/>
<line x1="938.0" y1="26" x2="938.0" y2="206.0" stroke="#cbc3b5" stroke-width="1"/>
<text x="955.0" y="122.0" font-family="Segoe UI, Arial, sans-serif" font-size="10" font-weight="700" text-anchor="middle" fill="#222">6</text><line x1="945.0" y1="126.0" x2="965.0" y2="126.0" stroke="#5f512f" stroke-width="1"/><text x="955.0" y="137.0" font-family="Segoe UI, Arial, sans-serif" font-size="10" font-weight="700" text-anchor="middle" fill="#222">8</text>
<text x="955.0" y="224.0" font-family="Segoe UI, Arial, sans-serif" font-size="10" font-weight="400" text-anchor="middle" fill="#636363">54</text>
<rect x="972.0" y="160.0" width="34.0" height="46" fill="#fbfaf6" stroke="#ddd6c8" stroke-width="1"/>
<line x1="972.0" y1="26" x2="972.0" y2="206.0" stroke="#cbc3b5" stroke-width="1"/>
<text x="989.0" y="224.0" font-family="Segoe UI, Arial, sans-serif" font-size="10" font-weight="400" text-anchor="middle" fill="#636363">55</text>
<rect x="1006.0" y="160.0" width="34.0" height="46" fill="#ffffff" stroke="#ddd6c8" stroke-width="1"/>
<line x1="1006.0" y1="26" x2="1006.0" y2="206.0" stroke="#cbc3b5" stroke-width="1"/>
<rect x="1040.0" y="160.0" width="34.0" height="46" fill="#fbfaf6" stroke="#ddd6c8" stroke-width="1"/>
<line x1="1040.0" y1="26" x2="1040.0" y2="206.0" stroke="#cbc3b5" stroke-width="1"/>
<text x="1057.0" y="122.0" font-family="Segoe UI, Arial, sans-serif" font-size="10" font-weight="700" text-anchor="middle" fill="#222">3</text><line x1="1047.0" y1="126.0" x2="1067.0" y2="126.0" stroke="#5f512f" stroke-width="1"/><text x="1057.0" y="137.0" font-family="Segoe UI, Arial, sans-serif" font-size="10" font-weight="700" text-anchor="middle" fill="#222">8</text>
<text x="1057.0" y="224.0" font-family="Segoe UI, Arial, sans-serif" font-size="10" font-weight="400" text-anchor="middle" fill="#636363">57</text>
<rect x="1074.0" y="160.0" width="47.0" height="46" fill="#ffffff" stroke="#ddd6c8" stroke-width="1"/>
<line x1="1074.0" y1="26" x2="1074.0" y2="206.0" stroke="#cbc3b5" stroke-width="1"/>
<text x="1097.5" y="192.0" font-family="Segoe UI, Arial, sans-serif" class="music" font-size="11" font-weight="700" text-anchor="middle" fill="#1e526f">♩=120</text>
<text x="1097.5" y="224.0" font-family="Segoe UI, Arial, sans-serif" font-size="10" font-weight="400" text-anchor="middle" fill="#636363">58</text>
<rect x="1121.0" y="160.0" width="34.0" height="46" fill="#fbfaf6" stroke="#ddd6c8" stroke-width="1"/>
<line x1="1121.0" y1="26" x2="1121.0" y2="206.0" stroke="#cbc3b5" stroke-width="1"/>
<text x="1138.0" y="122.0" font-family="Segoe UI, Arial, sans-serif" font-size="10" font-weight="700" text-anchor="middle" fill="#222">6</text><line x1="1128.0" y1="126.0" x2="1148.0" y2="126.0" stroke="#5f512f" stroke-width="1"/><text x="1138.0" y="137.0" font-family="Segoe UI, Arial, sans-serif" font-size="10" font-weight="700" text-anchor="middle" fill="#222">8</text>
<text x="1138.0" y="224.0" font-family="Segoe UI, Arial, sans-serif" font-size="10" font-weight="400" text-anchor="middle" fill="#636363">59</text>
<rect x="1155.0" y="160.0" width="70.0" height="46" rx="4" fill="#ece8de" stroke="#c8c0b1" stroke-dasharray="4 3"/>
<line x1="1163.0" y1="183.0" x2="1217.0" y2="183.0" stroke="#8f8778" stroke-width="1.4"/>
<text x="1190.0" y="177.0" font-family="Segoe UI, Arial, sans-serif" font-size="11" font-weight="700" text-anchor="middle" fill="#5e594f">--7--</text>
<text x="1190.0" y="223.0" font-family="Segoe UI, Arial, sans-serif" font-size="9" font-weight="400" text-anchor="middle" fill="#777066">60-66</text>
<rect x="1225.0" y="160.0" width="47.0" height="46" fill="#fbfaf6" stroke="#ddd6c8" stroke-width="1"/>
<line x1="1225.0" y1="26" x2="1225.0" y2="206.0" stroke="#cbc3b5" stroke-width="1"/>
<text x="1248.5" y="122.0" font-family="Segoe UI, Arial, sans-serif" font-size="10" font-weight="700" text-anchor="middle" fill="#222">5</text><line x1="1238.5" y1="126.0" x2="1258.5" y2="126.0" stroke="#5f512f" stroke-width="1"/><text x="1248.5" y="137.0" font-family="Segoe UI, Arial, sans-serif" font-size="10" font-weight="700" text-anchor="middle" fill="#222">8</text>
<text x="1248.5" y="192.0" font-family="Segoe UI, Arial, sans-serif" class="music" font-size="11" font-weight="700" text-anchor="middle" fill="#1e526f">♩=152</text>
<text x="1248.5" y="224.0" font-family="Segoe UI, Arial, sans-serif" font-size="10" font-weight="400" text-anchor="middle" fill="#636363">67</text>
<rect x="1272.0" y="160.0" width="34.0" height="46" fill="#ffffff" stroke="#ddd6c8" stroke-width="1"/>
<line x1="1272.0" y1="26" x2="1272.0" y2="206.0" stroke="#cbc3b5" stroke-width="1"/>
<rect x="1306.0" y="160.0" width="34.0" height="46" fill="#fbfaf6" stroke="#ddd6c8" stroke-width="1"/>
<line x1="1306.0" y1="26" x2="1306.0" y2="206.0" stroke="#cbc3b5" stroke-width="1"/>
<text x="1323.0" y="122.0" font-family="Segoe UI, Arial, sans-serif" font-size="10" font-weight="700" text-anchor="middle" fill="#222">4</text><line x1="1313.0" y1="126.0" x2="1333.0" y2="126.0" stroke="#5f512f" stroke-width="1"/><text x="1323.0" y="137.0" font-family="Segoe UI, Arial, sans-serif" font-size="10" font-weight="700" text-anchor="middle" fill="#222">8</text>
<text x="1323.0" y="224.0" font-family="Segoe UI, Arial, sans-serif" font-size="10" font-weight="400" text-anchor="middle" fill="#636363">69</text>
<rect x="1340.0" y="160.0" width="34.0" height="46" fill="#ffffff" stroke="#ddd6c8" stroke-width="1"/>
<line x1="1340.0" y1="26" x2="1340.0" y2="206.0" stroke="#cbc3b5" stroke-width="1"/>
<text x="1357.0" y="224.0" font-family="Segoe UI, Arial, sans-serif" font-size="10" font-weight="400" text-anchor="middle" fill="#636363">70</text>
<rect x="1374.0" y="160.0" width="34.0" height="46" fill="#fbfaf6" stroke="#ddd6c8" stroke-width="1"/>
<line x1="1374.0" y1="26" x2="1374.0" y2="206.0" stroke="#cbc3b5" stroke-width="1"/>
<text x="1391.0" y="122.0" font-family="Segoe UI, Arial, sans-serif" font-size="10" font-weight="700" text-anchor="middle" fill="#222">3</text><line x1="1381.0" y1="126.0" x2="1401.0" y2="126.0" stroke="#5f512f" stroke-width="1"/><text x="1391.0" y="137.0" font-family="Segoe UI, Arial, sans-serif" font-size="10" font-weight="700" text-anchor="middle" fill="#222">8</text>
<text x="1391.0" y="224.0" font-family="Segoe UI, Arial, sans-serif" font-size="10" font-weight="400" text-anchor="middle" fill="#636363">71</text>
<rect x="1408.0" y="160.0" width="70.0" height="46" rx="4" fill="#ece8de" stroke="#c8c0b1" stroke-dasharray="4 3"/>
<line x1="1416.0" y1="183.0" x2="1470.0" y2="183.0" stroke="#8f8778" stroke-width="1.4"/>
<text x="1443.0" y="177.0" font-family="Segoe UI, Arial, sans-serif" font-size="11" font-weight="700" text-anchor="middle" fill="#5e594f">--3--</text>
<text x="1443.0" y="223.0" font-family="Segoe UI, Arial, sans-serif" font-size="9" font-weight="400" text-anchor="middle" fill="#777066">72-74</text>
<rect x="1478.0" y="160.0" width="34.0" height="46" fill="#fbfaf6" stroke="#ddd6c8" stroke-width="1"/>
<line x1="1478.0" y1="26" x2="1478.0" y2="206.0" stroke="#cbc3b5" stroke-width="1"/>
<text x="1495.0" y="122.0" font-family="Segoe UI, Arial, sans-serif" font-size="10" font-weight="700" text-anchor="middle" fill="#222">7</text><line x1="1485.0" y1="126.0" x2="1505.0" y2="126.0" stroke="#5f512f" stroke-width="1"/><text x="1495.0" y="137.0" font-family="Segoe UI, Arial, sans-serif" font-size="10" font-weight="700" text-anchor="middle" fill="#222">8</text>
<text x="1495.0" y="224.0" font-family="Segoe UI, Arial, sans-serif" font-size="10" font-weight="400" text-anchor="middle" fill="#636363">75</text>
<rect x="1512.0" y="160.0" width="34.0" height="46" fill="#ffffff" stroke="#ddd6c8" stroke-width="1"/>
<line x1="1512.0" y1="26" x2="1512.0" y2="206.0" stroke="#cbc3b5" stroke-width="1"/>
<text x="1529.0" y="122.0" font-family="Segoe UI, Arial, sans-serif" font-size="10" font-weight="700" text-anchor="middle" fill="#222">6</text><line x1="1519.0" y1="126.0" x2="1539.0" y2="126.0" stroke="#5f512f" stroke-width="1"/><text x="1529.0" y="137.0" font-family="Segoe UI, Arial, sans-serif" font-size="10" font-weight="700" text-anchor="middle" fill="#222">8</text>
<text x="1529.0" y="224.0" font-family="Segoe UI, Arial, sans-serif" font-size="10" font-weight="400" text-anchor="middle" fill="#636363">76</text>
<rect x="1546.0" y="160.0" width="34.0" height="46" fill="#fbfaf6" stroke="#ddd6c8" stroke-width="1"/>
<line x1="1546.0" y1="26" x2="1546.0" y2="206.0" stroke="#cbc3b5" stroke-width="1"/>
<text x="1563.0" y="122.0" font-family="Segoe UI, Arial, sans-serif" font-size="10" font-weight="700" text-anchor="middle" fill="#222">5</text><line x1="1553.0" y1="126.0" x2="1573.0" y2="126.0" stroke="#5f512f" stroke-width="1"/><text x="1563.0" y="137.0" font-family="Segoe UI, Arial, sans-serif" font-size="10" font-weight="700" text-anchor="middle" fill="#222">8</text>
<text x="1563.0" y="224.0" font-family="Segoe UI, Arial, sans-serif" font-size="10" font-weight="400" text-anchor="middle" fill="#636363">77</text>
<rect x="1580.0" y="160.0" width="34.0" height="46" fill="#ffffff" stroke="#ddd6c8" stroke-width="1"/>
<line x1="1580.0" y1="26" x2="1580.0" y2="206.0" stroke="#cbc3b5" stroke-width="1"/>
<rect x="1614.0" y="160.0" width="34.0" height="46" fill="#fbfaf6" stroke="#ddd6c8" stroke-width="1"/>
<line x1="1614.0" y1="26" x2="1614.0" y2="206.0" stroke="#cbc3b5" stroke-width="1"/>
<rect x="1648.0" y="160.0" width="34.0" height="46" fill="#ffffff" stroke="#ddd6c8" stroke-width="1"/>
<line x1="1648.0" y1="26" x2="1648.0" y2="206.0" stroke="#cbc3b5" stroke-width="1"/>
<text x="1665.0" y="122.0" font-family="Segoe UI, Arial, sans-serif" font-size="10" font-weight="700" text-anchor="middle" fill="#222">4</text><line x1="1655.0" y1="126.0" x2="1675.0" y2="126.0" stroke="#5f512f" stroke-width="1"/><text x="1665.0" y="137.0" font-family="Segoe UI, Arial, sans-serif" font-size="10" font-weight="700" text-anchor="middle" fill="#222">8</text>
<text x="1665.0" y="224.0" font-family="Segoe UI, Arial, sans-serif" font-size="10" font-weight="400" text-anchor="middle" fill="#636363">80</text>
<rect x="1682.0" y="160.0" width="34.0" height="46" fill="#fbfaf6" stroke="#ddd6c8" stroke-width="1"/>
<line x1="1682.0" y1="26" x2="1682.0" y2="206.0" stroke="#cbc3b5" stroke-width="1"/>
<text x="1699.0" y="122.0" font-family="Segoe UI, Arial, sans-serif" font-size="10" font-weight="700" text-anchor="middle" fill="#222">6</text><line x1="1689.0" y1="126.0" x2="1709.0" y2="126.0" stroke="#5f512f" stroke-width="1"/><text x="1699.0" y="137.0" font-family="Segoe UI, Arial, sans-serif" font-size="10" font-weight="700" text-anchor="middle" fill="#222">8</text>
<text x="1699.0" y="224.0" font-family="Segoe UI, Arial, sans-serif" font-size="10" font-weight="400" text-anchor="middle" fill="#636363">81</text>
<rect x="1716.0" y="160.0" width="34.0" height="46" fill="#ffffff" stroke="#ddd6c8" stroke-width="1"/>
<line x1="1716.0" y1="26" x2="1716.0" y2="206.0" stroke="#cbc3b5" stroke-width="1"/>
<rect x="1750.0" y="160.0" width="34.0" height="46" fill="#fbfaf6" stroke="#ddd6c8" stroke-width="1"/>
<line x1="1750.0" y1="26" x2="1750.0" y2="206.0" stroke="#cbc3b5" stroke-width="1"/>
<rect x="1784.0" y="160.0" width="47.0" height="46" fill="#ffffff" stroke="#ddd6c8" stroke-width="1"/>
<line x1="1784.0" y1="26" x2="1784.0" y2="206.0" stroke="#cbc3b5" stroke-width="1"/>
<text x="1807.5" y="192.0" font-family="Segoe UI, Arial, sans-serif" class="music" font-size="11" font-weight="700" text-anchor="middle" fill="#1e526f">♩=120</text>
<text x="1807.5" y="224.0" font-family="Segoe UI, Arial, sans-serif" font-size="10" font-weight="400" text-anchor="middle" fill="#636363">84</text>
<rect x="1831.0" y="160.0" width="45.0" height="46" fill="#fbfaf6" stroke="#ddd6c8" stroke-width="1"/>
<line x1="1831.0" y1="26" x2="1831.0" y2="206.0" stroke="#cbc3b5" stroke-width="1"/>
<text x="1853.5" y="184.0" font-family="Segoe UI, Arial, sans-serif" class="music" font-size="9" font-weight="700" text-anchor="middle" fill="#1e526f">a tempo</text>
<text x="1853.5" y="196.0" font-family="Segoe UI, Arial, sans-serif" class="music" font-size="10" font-weight="700" text-anchor="middle" fill="#1e526f">♩=152</text>
<text x="1853.5" y="224.0" font-family="Segoe UI, Arial, sans-serif" font-size="10" font-weight="400" text-anchor="middle" fill="#636363">85</text>
<rect x="1876.0" y="160.0" width="40.0" height="46" fill="#ffffff" stroke="#ddd6c8" stroke-width="1"/>
<line x1="1876.0" y1="26" x2="1876.0" y2="206.0" stroke="#cbc3b5" stroke-width="1"/>
<text x="1896.0" y="122.0" font-family="Segoe UI, Arial, sans-serif" font-size="10" font-weight="700" text-anchor="middle" fill="#222">4</text><line x1="1886.0" y1="126.0" x2="1906.0" y2="126.0" stroke="#5f512f" stroke-width="1"/><text x="1896.0" y="137.0" font-family="Segoe UI, Arial, sans-serif" font-size="10" font-weight="700" text-anchor="middle" fill="#222">4</text>
<text x="1896.0" y="192.0" font-family="Segoe UI, Arial, sans-serif" class="music" font-size="11" font-weight="700" text-anchor="middle" fill="#1e526f">♩=80</text>
<text x="1896.0" y="224.0" font-family="Segoe UI, Arial, sans-serif" font-size="10" font-weight="400" text-anchor="middle" fill="#636363">86</text>
<rect x="1916.0" y="160.0" width="34.0" height="46" fill="#fbfaf6" stroke="#ddd6c8" stroke-width="1"/>
<line x1="1916.0" y1="26" x2="1916.0" y2="206.0" stroke="#cbc3b5" stroke-width="1"/>
<line x1="1948.0" y1="26.0" x2="1948.0" y2="206.0" stroke="#27221b" stroke-width="1.2"/><line x1="1952.0" y1="26.0" x2="1952.0" y2="206.0" stroke="#27221b" stroke-width="1.2"/>
<text x="1933.0" y="224.0" font-family="Segoe UI, Arial, sans-serif" font-size="10" font-weight="400" text-anchor="middle" fill="#636363">87</text>
<rect x="1950.0" y="160.0" width="40.0" height="46" fill="#ffffff" stroke="#ddd6c8" stroke-width="1"/>
<line x1="1950.0" y1="26" x2="1950.0" y2="206.0" stroke="#cbc3b5" stroke-width="1"/>
<text x="1970.0" y="192.0" font-family="Segoe UI, Arial, sans-serif" class="music" font-size="11" font-weight="700" text-anchor="middle" fill="#1e526f">♩=90</text>
<text x="1970.0" y="224.0" font-family="Segoe UI, Arial, sans-serif" font-size="10" font-weight="400" text-anchor="middle" fill="#636363">88</text>
<rect x="1990.0" y="160.0" width="70.0" height="46" rx="4" fill="#ece8de" stroke="#c8c0b1" stroke-dasharray="4 3"/>
<line x1="1998.0" y1="183.0" x2="2052.0" y2="183.0" stroke="#8f8778" stroke-width="1.4"/>
<text x="2025.0" y="177.0" font-family="Segoe UI, Arial, sans-serif" font-size="11" font-weight="700" text-anchor="middle" fill="#5e594f">--5--</text>
<text x="2025.0" y="223.0" font-family="Segoe UI, Arial, sans-serif" font-size="9" font-weight="400" text-anchor="middle" fill="#777066">89-93</text>
<rect x="2060.0" y="160.0" width="34.0" height="46" fill="#ffffff" stroke="#ddd6c8" stroke-width="1"/>
<line x1="2060.0" y1="26" x2="2060.0" y2="206.0" stroke="#cbc3b5" stroke-width="1"/>
<line x1="2092.0" y1="26.0" x2="2092.0" y2="206.0" stroke="#27221b" stroke-width="1.2"/><line x1="2096.0" y1="26.0" x2="2096.0" y2="206.0" stroke="#27221b" stroke-width="1.2"/>
<text x="2077.0" y="224.0" font-family="Segoe UI, Arial, sans-serif" font-size="10" font-weight="400" text-anchor="middle" fill="#636363">94</text>
<rect x="2094.0" y="160.0" width="34.0" height="46" fill="#fbfaf6" stroke="#ddd6c8" stroke-width="1"/>
<line x1="2094.0" y1="26" x2="2094.0" y2="206.0" stroke="#cbc3b5" stroke-width="1"/>
<line x1="2126.0" y1="26.0" x2="2126.0" y2="206.0" stroke="#27221b" stroke-width="1.2"/><line x1="2130.0" y1="26.0" x2="2130.0" y2="206.0" stroke="#27221b" stroke-width="1.2"/>
<text x="2111.0" y="224.0" font-family="Segoe UI, Arial, sans-serif" font-size="10" font-weight="400" text-anchor="middle" fill="#636363">95</text>
<rect x="2128.0" y="160.0" width="47.0" height="46" fill="#ffffff" stroke="#ddd6c8" stroke-width="1"/>
<line x1="2128.0" y1="26" x2="2128.0" y2="206.0" stroke="#cbc3b5" stroke-width="1"/>
<text x="2151.5" y="122.0" font-family="Segoe UI, Arial, sans-serif" font-size="10" font-weight="700" text-anchor="middle" fill="#222">5</text><line x1="2141.5" y1="126.0" x2="2161.5" y2="126.0" stroke="#5f512f" stroke-width="1"/><text x="2151.5" y="137.0" font-family="Segoe UI, Arial, sans-serif" font-size="10" font-weight="700" text-anchor="middle" fill="#222">8</text>
<text x="2151.5" y="192.0" font-family="Segoe UI, Arial, sans-serif" class="music" font-size="11" font-weight="700" text-anchor="middle" fill="#1e526f">♩=120</text>
<text x="2151.5" y="224.0" font-family="Segoe UI, Arial, sans-serif" font-size="10" font-weight="400" text-anchor="middle" fill="#636363">96</text>
<rect x="2175.0" y="160.0" width="70.0" height="46" rx="4" fill="#ece8de" stroke="#c8c0b1" stroke-dasharray="4 3"/>
<line x1="2183.0" y1="183.0" x2="2237.0" y2="183.0" stroke="#8f8778" stroke-width="1.4"/>
<text x="2210.0" y="177.0" font-family="Segoe UI, Arial, sans-serif" font-size="11" font-weight="700" text-anchor="middle" fill="#5e594f">--22--</text>
<text x="2210.0" y="223.0" font-family="Segoe UI, Arial, sans-serif" font-size="9" font-weight="400" text-anchor="middle" fill="#777066">97-118</text>
<rect x="2245.0" y="160.0" width="34.0" height="46" fill="#ffffff" stroke="#ddd6c8" stroke-width="1"/>
<line x1="2245.0" y1="26" x2="2245.0" y2="206.0" stroke="#cbc3b5" stroke-width="1"/>
<line x1="2277.0" y1="26.0" x2="2277.0" y2="206.0" stroke="#27221b" stroke-width="1.2"/><line x1="2281.0" y1="26.0" x2="2281.0" y2="206.0" stroke="#27221b" stroke-width="1.2"/>
<text x="2262.0" y="224.0" font-family="Segoe UI, Arial, sans-serif" font-size="10" font-weight="400" text-anchor="middle" fill="#636363">119</text>
<rect x="2279.0" y="160.0" width="70.0" height="46" rx="4" fill="#ece8de" stroke="#c8c0b1" stroke-dasharray="4 3"/>
<line x1="2287.0" y1="183.0" x2="2341.0" y2="183.0" stroke="#8f8778" stroke-width="1.4"/>
<text x="2314.0" y="177.0" font-family="Segoe UI, Arial, sans-serif" font-size="11" font-weight="700" text-anchor="middle" fill="#5e594f">--6--</text>
<text x="2314.0" y="223.0" font-family="Segoe UI, Arial, sans-serif" font-size="9" font-weight="400" text-anchor="middle" fill="#777066">120-125</text>
<rect x="2349.0" y="160.0" width="34.0" height="46" fill="#ffffff" stroke="#ddd6c8" stroke-width="1"/>
<line x1="2349.0" y1="26" x2="2349.0" y2="206.0" stroke="#cbc3b5" stroke-width="1"/>
<text x="2366.0" y="122.0" font-family="Segoe UI, Arial, sans-serif" font-size="10" font-weight="700" text-anchor="middle" fill="#222">6</text><line x1="2356.0" y1="126.0" x2="2376.0" y2="126.0" stroke="#5f512f" stroke-width="1"/><text x="2366.0" y="137.0" font-family="Segoe UI, Arial, sans-serif" font-size="10" font-weight="700" text-anchor="middle" fill="#222">8</text>
<text x="2366.0" y="224.0" font-family="Segoe UI, Arial, sans-serif" font-size="10" font-weight="400" text-anchor="middle" fill="#636363">126</text>
<rect x="2383.0" y="160.0" width="34.0" height="46" fill="#fbfaf6" stroke="#ddd6c8" stroke-width="1"/>
<line x1="2383.0" y1="26" x2="2383.0" y2="206.0" stroke="#cbc3b5" stroke-width="1"/>
<rect x="2417.0" y="160.0" width="34.0" height="46" fill="#ffffff" stroke="#ddd6c8" stroke-width="1"/>
<line x1="2417.0" y1="26" x2="2417.0" y2="206.0" stroke="#cbc3b5" stroke-width="1"/>
<text x="2434.0" y="122.0" font-family="Segoe UI, Arial, sans-serif" font-size="10" font-weight="700" text-anchor="middle" fill="#222">5</text><line x1="2424.0" y1="126.0" x2="2444.0" y2="126.0" stroke="#5f512f" stroke-width="1"/><text x="2434.0" y="137.0" font-family="Segoe UI, Arial, sans-serif" font-size="10" font-weight="700" text-anchor="middle" fill="#222">8</text>
<text x="2434.0" y="224.0" font-family="Segoe UI, Arial, sans-serif" font-size="10" font-weight="400" text-anchor="middle" fill="#636363">128</text>
<rect x="2451.0" y="160.0" width="70.0" height="46" rx="4" fill="#ece8de" stroke="#c8c0b1" stroke-dasharray="4 3"/>
<line x1="2459.0" y1="183.0" x2="2513.0" y2="183.0" stroke="#8f8778" stroke-width="1.4"/>
<text x="2486.0" y="177.0" font-family="Segoe UI, Arial, sans-serif" font-size="11" font-weight="700" text-anchor="middle" fill="#5e594f">--14--</text>
<text x="2486.0" y="223.0" font-family="Segoe UI, Arial, sans-serif" font-size="9" font-weight="400" text-anchor="middle" fill="#777066">129-142</text>
<rect x="2521.0" y="160.0" width="34.0" height="46" fill="#ffffff" stroke="#ddd6c8" stroke-width="1"/>
<line x1="2521.0" y1="26" x2="2521.0" y2="206.0" stroke="#cbc3b5" stroke-width="1"/>
<line x1="2553.0" y1="26.0" x2="2553.0" y2="206.0" stroke="#27221b" stroke-width="1.2"/><line x1="2557.0" y1="26.0" x2="2557.0" y2="206.0" stroke="#27221b" stroke-width="1.2"/>
<text x="2538.0" y="224.0" font-family="Segoe UI, Arial, sans-serif" font-size="10" font-weight="400" text-anchor="middle" fill="#636363">143</text>
<rect x="2555.0" y="160.0" width="35.0" height="46" fill="#fbfaf6" stroke="#ddd6c8" stroke-width="1"/>
<line x1="2555.0" y1="26" x2="2555.0" y2="206.0" stroke="#cbc3b5" stroke-width="1"/>
<rect x="2557.4" y="82.0" width="30.3" height="22" rx="4" fill="#e4eed1" stroke="#8da969"/><text x="2572.5" y="97.0" font-family="Segoe UI, Arial, sans-serif" font-size="11" font-weight="700" text-anchor="middle" fill="#222">1♭</text>
<text x="2572.5" y="122.0" font-family="Segoe UI, Arial, sans-serif" font-size="10" font-weight="700" text-anchor="middle" fill="#222">4</text><line x1="2562.5" y1="126.0" x2="2582.5" y2="126.0" stroke="#5f512f" stroke-width="1"/><text x="2572.5" y="137.0" font-family="Segoe UI, Arial, sans-serif" font-size="10" font-weight="700" text-anchor="middle" fill="#222">4</text>
<text x="2572.5" y="224.0" font-family="Segoe UI, Arial, sans-serif" font-size="10" font-weight="400" text-anchor="middle" fill="#636363">144</text>
<rect x="2590.0" y="160.0" width="70.0" height="46" rx="4" fill="#ece8de" stroke="#c8c0b1" stroke-dasharray="4 3"/>
<line x1="2598.0" y1="183.0" x2="2652.0" y2="183.0" stroke="#8f8778" stroke-width="1.4"/>
<text x="2625.0" y="177.0" font-family="Segoe UI, Arial, sans-serif" font-size="11" font-weight="700" text-anchor="middle" fill="#5e594f">--6--</text>
<text x="2625.0" y="223.0" font-family="Segoe UI, Arial, sans-serif" font-size="9" font-weight="400" text-anchor="middle" fill="#777066">145-150</text>
<rect x="2660.0" y="160.0" width="34.0" height="46" fill="#fbfaf6" stroke="#ddd6c8" stroke-width="1"/>
<line x1="2660.0" y1="26" x2="2660.0" y2="206.0" stroke="#cbc3b5" stroke-width="1"/>
<line x1="2692.0" y1="26.0" x2="2692.0" y2="206.0" stroke="#27221b" stroke-width="1.2"/><line x1="2696.0" y1="26.0" x2="2696.0" y2="206.0" stroke="#27221b" stroke-width="1.2"/>
<text x="2677.0" y="224.0" font-family="Segoe UI, Arial, sans-serif" font-size="10" font-weight="400" text-anchor="middle" fill="#636363">151</text>
<rect x="2694.0" y="160.0" width="35.0" height="46" fill="#ffffff" stroke="#ddd6c8" stroke-width="1"/>
<line x1="2694.0" y1="26" x2="2694.0" y2="206.0" stroke="#cbc3b5" stroke-width="1"/>
<rect x="2696.4" y="82.0" width="30.3" height="22" rx="4" fill="#e4eed1" stroke="#8da969"/><text x="2711.5" y="97.0" font-family="Segoe UI, Arial, sans-serif" font-size="11" font-weight="700" text-anchor="middle" fill="#222">3♭</text>
<text x="2711.5" y="224.0" font-family="Segoe UI, Arial, sans-serif" font-size="10" font-weight="400" text-anchor="middle" fill="#636363">152</text>
<rect x="2729.0" y="160.0" width="70.0" height="46" rx="4" fill="#ece8de" stroke="#c8c0b1" stroke-dasharray="4 3"/>
<line x1="2737.0" y1="183.0" x2="2791.0" y2="183.0" stroke="#8f8778" stroke-width="1.4"/>
<text x="2764.0" y="177.0" font-family="Segoe UI, Arial, sans-serif" font-size="11" font-weight="700" text-anchor="middle" fill="#5e594f">--6--</text>
<text x="2764.0" y="223.0" font-family="Segoe UI, Arial, sans-serif" font-size="9" font-weight="400" text-anchor="middle" fill="#777066">153-158</text>
<rect x="2799.0" y="160.0" width="34.0" height="46" fill="#ffffff" stroke="#ddd6c8" stroke-width="1"/>
<line x1="2799.0" y1="26" x2="2799.0" y2="206.0" stroke="#cbc3b5" stroke-width="1"/>
<line x1="2831.0" y1="26.0" x2="2831.0" y2="206.0" stroke="#27221b" stroke-width="1.2"/><line x1="2835.0" y1="26.0" x2="2835.0" y2="206.0" stroke="#27221b" stroke-width="1.2"/>
<text x="2816.0" y="224.0" font-family="Segoe UI, Arial, sans-serif" font-size="10" font-weight="400" text-anchor="middle" fill="#636363">159</text>
<rect x="2833.0" y="160.0" width="35.0" height="46" fill="#fbfaf6" stroke="#ddd6c8" stroke-width="1"/>
<line x1="2833.0" y1="26" x2="2833.0" y2="206.0" stroke="#cbc3b5" stroke-width="1"/>
<rect x="2835.4" y="82.0" width="30.3" height="22" rx="4" fill="#e4eed1" stroke="#8da969"/><text x="2850.5" y="97.0" font-family="Segoe UI, Arial, sans-serif" font-size="11" font-weight="700" text-anchor="middle" fill="#222">1♭</text>
<text x="2850.5" y="224.0" font-family="Segoe UI, Arial, sans-serif" font-size="10" font-weight="400" text-anchor="middle" fill="#636363">160</text>
<rect x="2868.0" y="160.0" width="70.0" height="46" rx="4" fill="#ece8de" stroke="#c8c0b1" stroke-dasharray="4 3"/>
<line x1="2876.0" y1="183.0" x2="2930.0" y2="183.0" stroke="#8f8778" stroke-width="1.4"/>
<text x="2903.0" y="177.0" font-family="Segoe UI, Arial, sans-serif" font-size="11" font-weight="700" text-anchor="middle" fill="#5e594f">--10--</text>
<text x="2903.0" y="223.0" font-family="Segoe UI, Arial, sans-serif" font-size="9" font-weight="400" text-anchor="middle" fill="#777066">161-170</text>
<rect x="2938.0" y="160.0" width="34.0" height="46" fill="#fbfaf6" stroke="#ddd6c8" stroke-width="1"/>
<line x1="2938.0" y1="26" x2="2938.0" y2="206.0" stroke="#cbc3b5" stroke-width="1"/>
<line x1="2970.0" y1="26.0" x2="2970.0" y2="206.0" stroke="#27221b" stroke-width="1.2"/><line x1="2974.0" y1="26.0" x2="2974.0" y2="206.0" stroke="#27221b" stroke-width="1.2"/>
<text x="2955.0" y="224.0" font-family="Segoe UI, Arial, sans-serif" font-size="10" font-weight="400" text-anchor="middle" fill="#636363">171</text>
<rect x="2972.0" y="160.0" width="40.0" height="46" fill="#ffffff" stroke="#ddd6c8" stroke-width="1"/>
<line x1="2972.0" y1="26" x2="2972.0" y2="206.0" stroke="#cbc3b5" stroke-width="1"/>
<text x="2992.0" y="192.0" font-family="Segoe UI, Arial, sans-serif" class="music" font-size="11" font-weight="700" text-anchor="middle" fill="#1e526f">♩=80</text>
<text x="2992.0" y="224.0" font-family="Segoe UI, Arial, sans-serif" font-size="10" font-weight="400" text-anchor="middle" fill="#636363">172</text>
<rect x="3012.0" y="160.0" width="34.0" height="46" fill="#fbfaf6" stroke="#ddd6c8" stroke-width="1"/>
<line x1="3012.0" y1="26" x2="3012.0" y2="206.0" stroke="#cbc3b5" stroke-width="1"/>
<rect x="3046.0" y="160.0" width="34.0" height="46" fill="#ffffff" stroke="#ddd6c8" stroke-width="1"/>
<line x1="3046.0" y1="26" x2="3046.0" y2="206.0" stroke="#cbc3b5" stroke-width="1"/>
<line x1="3077.0" y1="26.0" x2="3077.0" y2="206.0" stroke="#27221b" stroke-width="1.2"/><line x1="3082.0" y1="26.0" x2="3082.0" y2="206.0" stroke="#27221b" stroke-width="3.6"/>
<text x="3063.0" y="224.0" font-family="Segoe UI, Arial, sans-serif" font-size="10" font-weight="400" text-anchor="middle" fill="#636363">174</text>
</svg>