<svg xmlns="http://www.w3.org/2000/svg" width="2303" height="238" viewBox="0 0 2303 238">
<style>.music{font-family:"Leland","Bravura","Segoe UI Symbol","Noto Music",sans-serif;}</style>
<rect width="100%" height="100%" fill="#f7f5ef"/>
<text x="24.0" y="44.0" font-family="Segoe UI, Arial, sans-serif" font-size="11" font-weight="700" text-anchor="start" fill="#6b4c16">Mark</text>
<text x="24.0" y="71.0" font-family="Segoe UI, Arial, sans-serif" font-size="11" font-weight="700" text-anchor="start" fill="#6d3b60">Repeat</text>
<text x="24.0" y="98.0" font-family="Segoe UI, Arial, sans-serif" font-size="11" font-weight="700" text-anchor="start" fill="#4c6232">Key</text>
<text x="24.0" y="126.0" font-family="Segoe UI, Arial, sans-serif" font-size="11" font-weight="700" text-anchor="start" fill="#6b4c16">Meter</text>
<text x="24.0" y="193.0" font-family="Segoe UI, Arial, sans-serif" font-size="11" font-weight="700" text-anchor="start" fill="#1e526f">Tempo</text>
<line x1="82.0" y1="27" x2="2265.0" y2="27" stroke="#d7d0c2" stroke-width="1"/>
<rect x="82.0" y="160.0" width="47.0" height="46" fill="#ffffff" stroke="#ddd6c8" stroke-width="1"/>
<line x1="82.0" y1="26" x2="82.0" y2="206.0" stroke="#cbc3b5" stroke-width="1"/>
<rect x="90.4" y="82.0" width="30.3" height="22" rx="4" fill="#e4eed1" stroke="#8da969"/><text x="105.5" y="97.0" font-family="Segoe UI, Arial, sans-serif" font-size="11" font-weight="700" text-anchor="middle" fill="#222">4♭</text>
<text x="105.5" y="122.0" font-family="Segoe UI, Arial, sans-serif" font-size="10" font-weight="700" text-anchor="middle" fill="#222">3</text><line x1="95.5" y1="126.0" x2="115.5" y2="126.0" stroke="#5f512f" stroke-width="1"/><text x="105.5" y="137.0" font-family="Segoe UI, Arial, sans-serif" font-size="10" font-weight="700" text-anchor="middle" fill="#222">4</text>
<text x="105.5" y="192.0" font-family="Segoe UI, Arial, sans-serif" class="music" font-size="11" font-weight="700" text-anchor="middle" fill="#1e526f">♩=198</text>
<text x="105.5" y="224.0" font-family="Segoe UI, Arial, sans-serif" font-size="10" font-weight="400" text-anchor="middle" fill="#636363">1</text>
<rect x="129.0" y="160.0" width="70.0" height="46" rx="4" fill="#ece8de" stroke="#c8c0b1" stroke-dasharray="4 3"/>
<line x1="137.0" y1="183.0" x2="191.0" y2="183.0" stroke="#8f8778" stroke-width="1.4"/>
<text x="164.0" y="177.0" font-family="Segoe UI, Arial, sans-serif" font-size="11" font-weight="700" text-anchor="middle" fill="#5e594f">--16--</text>
<text x="164.0" y="223.0" font-family="Segoe UI, Arial, sans-serif" font-size="9" font-weight="400" text-anchor="middle" fill="#777066">2-17</text>
<rect x="199.0" y="160.0" width="34.0" height="46" fill="#ffffff" stroke="#ddd6c8" stroke-width="1"/>
<line x1="199.0" y1="26" x2="199.0" y2="206.0" stroke="#cbc3b5" stroke-width="1"/>
<line x1="231.0" y1="26.0" x2="231.0" y2="206.0" stroke="#27221b" stroke-width="1.2"/><line x1="235.0" y1="26.0" x2="235.0" y2="206.0" stroke="#27221b" stroke-width="1.2"/>
<text x="216.0" y="224.0" font-family="Segoe UI, Arial, sans-serif" font-size="10" font-weight="400" text-anchor="middle" fill="#636363">18</text>
<rect x="233.0" y="160.0" width="34.0" height="46" fill="#fbfaf6" stroke="#ddd6c8" stroke-width="1"/>
<line x1="233.0" y1="26" x2="233.0" y2="206.0" stroke="#cbc3b5" stroke-width="1"/>
<text x="250.0" y="122.0" font-family="Segoe UI, Arial, sans-serif" font-size="10" font-weight="700" text-anchor="middle" fill="#222">5</text><line x1="240.0" y1="126.0" x2="260.0" y2="126.0" stroke="#5f512f" stroke-width="1"/><text x="250.0" y="137.0" font-family="Segoe UI, Arial, sans-serif" font-size="10" font-weight="700" text-anchor="middle" fill="#222">4</text>
<text x="250.0" y="224.0" font-family="Segoe UI, Arial, sans-serif" font-size="10" font-weight="400" text-anchor="middle" fill="#636363">19</text>
<rect x="267.0" y="160.0" width="70.0" height="46" rx="4" fill="#ece8de" stroke="#c8c0b1" stroke-dasharray="4 3"/>
<line x1="275.0" y1="183.0" x2="329.0" y2="183.0" stroke="#8f8778" stroke-width="1.4"/>
<text x="302.0" y="177.0" font-family="Segoe UI, Arial, sans-serif" font-size="11" font-weight="700" text-anchor="middle" fill="#5e594f">--10--</text>
<text x="302.0" y="223.0" font-family="Segoe UI, Arial, sans-serif" font-size="9" font-weight="400" text-anchor="middle" fill="#777066">20-29</text>
<rect x="337.0" y="160.0" width="34.0" height="46" fill="#fbfaf6" stroke="#ddd6c8" stroke-width="1"/>
<line x1="337.0" y1="26" x2="337.0" y2="206.0" stroke="#cbc3b5" stroke-width="1"/>
<text x="354.0" y="122.0" font-family="Segoe UI, Arial, sans-serif" font-size="10" font-weight="700" text-anchor="middle" fill="#222">6</text><line x1="344.0" y1="126.0" x2="364.0" y2="126.0" stroke="#5f512f" stroke-width="1"/><text x="354.0" y="137.0" font-family="Segoe UI, Arial, sans-serif" font-size="10" font-weight="700" text-anchor="middle" fill="#222">4</text>
<text x="354.0" y="224.0" font-family="Segoe UI, Arial, sans-serif" font-size="10" font-weight="400" text-anchor="middle" fill="#636363">30</text>
<rect x="371.0" y="160.0" width="34.0" height="46" fill="#ffffff" stroke="#ddd6c8" stroke-width="1"/>
<line x1="371.0" y1="26" x2="371.0" y2="206.0" stroke="#cbc3b5" stroke-width="1"/>
<rect x="405.0" y="160.0" width="34.0" height="46" fill="#fbfaf6" stroke="#ddd6c8" stroke-width="1"/>
<line x1="405.0" y1="26" x2="405.0" y2="206.0" stroke="#cbc3b5" stroke-width="1"/>
<rect x="439.0" y="160.0" width="34.0" height="46" fill="#ffffff" stroke="#ddd6c8" stroke-width="1"/>
<line x1="439.0" y1="26" x2="439.0" y2="206.0" stroke="#cbc3b5" stroke-width="1"/>
<text x="456.0" y="122.0" font-family="Segoe UI, Arial, sans-serif" font-size="10" font-weight="700" text-anchor="middle" fill="#222">5</text><line x1="446.0" y1="126.0" x2="466.0" y2="126.0" stroke="#5f512f" stroke-width="1"/><text x="456.0" y="137.0" font-family="Segoe UI, Arial, sans-serif" font-size="10" font-weight="700" text-anchor="middle" fill="#222">4</text>
<text x="456.0" y="224.0" font-family="Segoe UI, Arial, sans-serif" font-size="10" font-weight="400" text-anchor="middle" fill="#636363">33</text>
<rect x="473.0" y="160.0" width="34.0" height="46" fill="#fbfaf6" stroke="#ddd6c8" stroke-width="1"/>
<line x1="473.0" y1="26" x2="473.0" y2="206.0" stroke="#cbc3b5" stroke-width="1"/>
<text x="490.0" y="122.0" font-family="Segoe UI, Arial, sans-serif" font-size="10" font-weight="700" text-anchor="middle" fill="#222">7</text><line x1="480.0" y1="126.0" x2="500.0" y2="126.0" stroke="#5f512f" stroke-width="1"/><text x="490.0" y="137.0" font-family="Segoe UI, Arial, sans-serif" font-size="10" font-weight="700" text-anchor="middle" fill="#222">8</text>
<text x="490.0" y="224.0" font-family="Segoe UI, Arial, sans-serif" font-size="10" font-weight="400" text-anchor="middle" fill="#636363">34</text>
<rect x="507.0" y="160.0" width="34.0" height="46" fill="#ffffff" stroke="#ddd6c8" stroke-width="1"/>
<line x1="507.0" y1="26" x2="507.0" y2="206.0" stroke="#cbc3b5" stroke-width="1"/>
<text x="524.0" y="224.0" font-family="Segoe UI, Arial, sans-serif" font-size="10" font-weight="400" text-anchor="middle" fill="#636363">35</text>
<rect x="541.0" y="160.0" width="34.0" height="46" fill="#fbfaf6" stroke="#ddd6c8" stroke-width="1"/>
<line x1="541.0" y1="26" x2="541.0" y2="206.0" stroke="#cbc3b5" stroke-width="1"/>
<rect x="575.0" y="160.0" width="34.0" height="46" fill="#ffffff" stroke="#ddd6c8" stroke-width="1"/>
<line x1="575.0" y1="26" x2="575.0" y2="206.0" stroke="#cbc3b5" stroke-width="1"/>
<text x="592.0" y="122.0" font-family="Segoe UI, Arial, sans-serif" font-size="10" font-weight="700" text-anchor="middle" fill="#222">3</text><line x1="582.0" y1="126.0" x2="602.0" y2="126.0" stroke="#5f512f" stroke-width="1"/><text x="592.0" y="137.0" font-family="Segoe UI, Arial, sans-serif" font-size="10" font-weight="700" text-anchor="middle" fill="#222">4</text>
<text x="592.0" y="224.0" font-family="Segoe UI, Arial, sans-serif" font-size="10" font-weight="400" text-anchor="middle" fill="#636363">37</text>
<rect x="609.0" y="160.0" width="70.0" height="46" rx="4" fill="#ece8de" stroke="#c8c0b1" stroke-dasharray="4 3"/>
<line x1="617.0" y1="183.0" x2="671.0" y2="183.0" stroke="#8f8778" stroke-width="1.4"/>
<text x="644.0" y="177.0" font-family="Segoe UI, Arial, sans-serif" font-size="11" font-weight="700" text-anchor="middle" fill="#5e594f">--4--</text>
<text x="644.0" y="223.0" font-family="Segoe UI, Arial, sans-serif" font-size="9" font-weight="400" text-anchor="middle" fill="#777066">38-41</text>
<rect x="679.0" y="160.0" width="34.0" height="46" fill="#ffffff" stroke="#ddd6c8" stroke-width="1"/>
<line x1="679.0" y1="26" x2="679.0" y2="206.0" stroke="#cbc3b5" stroke-width="1"/>
<line x1="711.0" y1="26.0" x2="711.0" y2="206.0" stroke="#27221b" stroke-width="1.2"/><line x1="715.0" y1="26.0" x2="715.0" y2="206.0" stroke="#27221b" stroke-width="1.2"/>
<text x="696.0" y="224.0" font-family="Segoe UI, Arial, sans-serif" font-size="10" font-weight="400" text-anchor="middle" fill="#636363">42</text>
<rect x="713.0" y="160.0" width="70.0" height="46" rx="4" fill="#ece8de" stroke="#c8c0b1" stroke-dasharray="4 3"/>
<line x1="721.0" y1="183.0" x2="775.0" y2="183.0" stroke="#8f8778" stroke-width="1.4"/>
<text x="748.0" y="177.0" font-family="Segoe UI, Arial, sans-serif" font-size="11" font-weight="700" text-anchor="middle" fill="#5e594f">--15--</text>
<text x="748.0" y="223.0" font-family="Segoe UI, Arial, sans-serif" font-size="9" font-weight="400" text-anchor="middle" fill="#777066">43-57</text>
<rect x="783.0" y="160.0" width="34.0" height="46" fill="#ffffff" stroke="#ddd6c8" stroke-width="1"/>
<line x1="783.0" y1="26" x2="783.0" y2="206.0" stroke="#cbc3b5" stroke-width="1"/>
<line x1="815.0" y1="26.0" x2="815.0" y2="206.0" stroke="#27221b" stroke-width="1.2"/><line x1="819.0" y1="26.0" x2="819.0" y2="206.0" stroke="#27221b" stroke-width="1.2"/>
<text x="800.0" y="224.0" font-family="Segoe UI, Arial, sans-serif" font-size="10" font-weight="400" text-anchor="middle" fill="#636363">58</text>
<rect x="817.0" y="160.0" width="70.0" height="46" rx="4" fill="#ece8de" stroke="#c8c0b1" stroke-dasharray="4 3"/>
<line x1="825.0" y1="183.0" x2="879.0" y2="183.0" stroke="#8f8778" stroke-width="1.4"/>
<text x="852.0" y="177.0" font-family="Segoe UI, Arial, sans-serif" font-size="11" font-weight="700" text-anchor="middle" fill="#5e594f">--8--</text>
<text x="852.0" y="223.0" font-family="Segoe UI, Arial, sans-serif" font-size="9" font-weight="400" text-anchor="middle" fill="#777066">59-66</text>
<rect x="887.0" y="160.0" width="34.0" height="46" fill="#ffffff" stroke="#ddd6c8" stroke-width="1"/>
<line x1="887.0" y1="26" x2="887.0" y2="206.0" stroke="#cbc3b5" stroke-width="1"/>
<text x="904.0" y="122.0" font-family="Segoe UI, Arial, sans-serif" font-size="10" font-weight="700" text-anchor="middle" fill="#222">5</text><line x1="894.0" y1="126.0" x2="914.0" y2="126.0" stroke="#5f512f" stroke-width="1"/><text x="904.0" y="137.0" font-family="Segoe UI, Arial, sans-serif" font-size="10" font-weight="700" text-anchor="middle" fill="#222">4</text>
<text x="904.0" y="224.0" font-family="Segoe UI, Arial, sans-serif" font-size="10" font-weight="400" text-anchor="middle" fill="#636363">67</text>
<rect x="921.0" y="160.0" width="70.0" height="46" rx="4" fill="#ece8de" stroke="#c8c0b1" stroke-dasharray="4 3"/>
<line x1="929.0" y1="183.0" x2="983.0" y2="183.0" stroke="#8f8778" stroke-width="1.4"/>
<text x="956.0" y="177.0" font-family="Segoe UI, Arial, sans-serif" font-size="11" font-weight="700" text-anchor="middle" fill="#5e594f">--4--</text>
<text x="956.0" y="223.0" font-family="Segoe UI, Arial, sans-serif" font-size="9" font-weight="400" text-anchor="middle" fill="#777066">68-71</text>
<rect x="991.0" y="160.0" width="34.0" height="46" fill="#ffffff" stroke="#ddd6c8" stroke-width="1"/>
<line x1="991.0" y1="26" x2="991.0" y2="206.0" stroke="#cbc3b5" stroke-width="1"/>
<text x="1008.0" y="122.0" font-family="Segoe UI, Arial, sans-serif" font-size="10" font-weight="700" text-anchor="middle" fill="#222">3</text><line x1="998.0" y1="126.0" x2="1018.0" y2="126.0" stroke="#5f512f" stroke-width="1"/><text x="1008.0" y="137.0" font-family="Segoe UI, Arial, sans-serif" font-size="10" font-weight="700" text-anchor="middle" fill="#222">4</text>
<text x="1008.0" y="224.0" font-family="Segoe UI, Arial, sans-serif" font-size="10" font-weight="400" text-anchor="middle" fill="#636363">72</text>
<rect x="1025.0" y="160.0" width="70.0" height="46" rx="4" fill="#ece8de" stroke="#c8c0b1" stroke-dasharray="4 3"/>
<line x1="1033.0" y1="183.0" x2="1087.0" y2="183.0" stroke="#8f8778" stroke-width="1.4"/>
<text x="1060.0" y="177.0" font-family="Segoe UI, Arial, sans-serif" font-size="11" font-weight="700" text-anchor="middle" fill="#5e594f">--16--</text>
<text x="1060.0" y="223.0" font-family="Segoe UI, Arial, sans-serif" font-size="9" font-weight="400" text-anchor="middle" fill="#777066">73-88</text>
<rect x="1095.0" y="160.0" width="34.0" height="46" fill="#ffffff" stroke="#ddd6c8" stroke-width="1"/>
<line x1="1095.0" y1="26" x2="1095.0" y2="206.0" stroke="#cbc3b5" stroke-width="1"/>
<text x="1112.0" y="122.0" font-family="Segoe UI, Arial, sans-serif" font-size="10" font-weight="700" text-anchor="middle" fill="#222">2</text><line x1="1102.0" y1="126.0" x2="1122.0" y2="126.0" stroke="#5f512f" stroke-width="1"/><text x="1112.0" y="137.0" font-family="Segoe UI, Arial, sans-serif" font-size="10" font-weight="700" text-anchor="middle" fill="#222">4</text>
<line x1="1127.0" y1="26.0" x2="1127.0" y2="206.0" stroke="#27221b" stroke-width="1.2"/><line x1="1131.0" y1="26.0" x2="1131.0" y2="206.0" stroke="#27221b" stroke-width="1.2"/>
<text x="1112.0" y="224.0" font-family="Segoe UI, Arial, sans-serif" font-size="10" font-weight="400" text-anchor="middle" fill="#636363">89</text>
<rect x="1129.0" y="160.0" width="34.0" height="46" fill="#fbfaf6" stroke="#ddd6c8" stroke-width="1"/>
<line x1="1129.0" y1="26" x2="1129.0" y2="206.0" stroke="#cbc3b5" stroke-width="1"/>
<text x="1146.0" y="122.0" font-family="Segoe UI, Arial, sans-serif" font-size="10" font-weight="700" text-anchor="middle" fill="#222">5</text><line x1="1136.0" y1="126.0" x2="1156.0" y2="126.0" stroke="#5f512f" stroke-width="1"/><text x="1146.0" y="137.0" font-family="Segoe UI, Arial, sans-serif" font-size="10" font-weight="700" text-anchor="middle" fill="#222">4</text>
<text x="1146.0" y="224.0" font-family="Segoe UI, Arial, sans-serif" font-size="10" font-weight="400" text-anchor="middle" fill="#636363">90</text>
<rect x="1163.0" y="160.0" width="34.0" height="46" fill="#ffffff" stroke="#ddd6c8" stroke-width="1"/>
<line x1="1163.0" y1="26" x2="1163.0" y2="206.0" stroke="#cbc3b5" stroke-width="1"/>
<text x="1180.0" y="122.0" font-family="Segoe UI, Arial, sans-serif" font-size="10" font-weight="700" text-anchor="middle" fill="#222">6</text><line x1="1170.0" y1="126.0" x2="1190.0" y2="126.0" stroke="#5f512f" stroke-width="1"/><text x="1180.0" y="137.0" font-family="Segoe UI, Arial, sans-serif" font-size="10" font-weight="700" text-anchor="middle" fill="#222">4</text>
<line x1="1195.0" y1="26.0" x2="1195.0" y2="206.0" stroke="#27221b" stroke-width="1.2"/><line x1="1199.0" y1="26.0" x2="1199.0" y2="206.0" stroke="#27221b" stroke-width="1.2"/>
<text x="1180.0" y="224.0" font-family="Segoe UI, Arial, sans-serif" font-size="10" font-weight="400" text-anchor="middle" fill="#636363">91</text>
<rect x="1197.0" y="160.0" width="35.0" height="46" fill="#fbfaf6" stroke="#ddd6c8" stroke-width="1"/>
<line x1="1197.0" y1="26" x2="1197.0" y2="206.0" stroke="#cbc3b5" stroke-width="1"/>
<rect x="1199.4" y="82.0" width="30.3" height="22" rx="4" fill="#e4eed1" stroke="#8da969"/><text x="1214.5" y="97.0" font-family="Segoe UI, Arial, sans-serif" font-size="11" font-weight="700" text-anchor="middle" fill="#222">1♭</text>
<text x="1214.5" y="224.0" font-family="Segoe UI, Arial, sans-serif" font-size="10" font-weight="400" text-anchor="middle" fill="#636363">92</text>
<rect x="1232.0" y="160.0" width="70.0" height="46" rx="4" fill="#ece8de" stroke="#c8c0b1" stroke-dasharray="4 3"/>
<line x1="1240.0" y1="183.0" x2="1294.0" y2="183.0" stroke="#8f8778" stroke-width="1.4"/>
<text x="1267.0" y="177.0" font-family="Segoe UI, Arial, sans-serif" font-size="11" font-weight="700" text-anchor="middle" fill="#5e594f">--3--</text>
<text x="1267.0" y="223.0" font-family="Segoe UI, Arial, sans-serif" font-size="9" font-weight="400" text-anchor="middle" fill="#777066">93-95</text>
<rect x="1302.0" y="160.0" width="34.0" height="46" fill="#fbfaf6" stroke="#ddd6c8" stroke-width="1"/>
<line x1="1302.0" y1="26" x2="1302.0" y2="206.0" stroke="#cbc3b5" stroke-width="1"/>
<text x="1319.0" y="122.0" font-family="Segoe UI, Arial, sans-serif" font-size="10" font-weight="700" text-anchor="middle" fill="#222">5</text><line x1="1309.0" y1="126.0" x2="1329.0" y2="126.0" stroke="#5f512f" stroke-width="1"/><text x="1319.0" y="137.0" font-family="Segoe UI, Arial, sans-serif" font-size="10" font-weight="700" text-anchor="middle" fill="#222">4</text>
<text x="1319.0" y="224.0" font-family="Segoe UI, Arial, sans-serif" font-size="10" font-weight="400" text-anchor="middle" fill="#636363">96</text>
<rect x="1336.0" y="160.0" width="34.0" height="46" fill="#ffffff" stroke="#ddd6c8" stroke-width="1"/>
<line x1="1336.0" y1="26" x2="1336.0" y2="206.0" stroke="#cbc3b5" stroke-width="1"/>
<rect x="1370.0" y="160.0" width="34.0" height="46" fill="#fbfaf6" stroke="#ddd6c8" stroke-width="1"/>
<line x1="1370.0" y1="26" x2="1370.0" y2="206.0" stroke="#cbc3b5" stroke-width="1"/>
<text x="1387.0" y="122.0" font-family="Segoe UI, Arial, sans-serif" font-size="10" font-weight="700" text-anchor="middle" fill="#222">6</text><line x1="1377.0" y1="126.0" x2="1397.0" y2="126.0" stroke="#5f512f" stroke-width="1"/><text x="1387.0" y="137.0" font-family="Segoe UI, Arial, sans-serif" font-size="10" font-weight="700" text-anchor="middle" fill="#222">4</text>
<text x="1387.0" y="224.0" font-family="Segoe UI, Arial, sans-serif" font-size="10" font-weight="400" text-anchor="middle" fill="#636363">98</text>
<rect x="1404.0" y="160.0" width="34.0" height="46" fill="#ffffff" stroke="#ddd6c8" stroke-width="1"/>
<line x1="1404.0" y1="26" x2="1404.0" y2="206.0" stroke="#cbc3b5" stroke-width="1"/>
<line x1="1436.0" y1="26.0" x2="1436.0" y2="206.0" stroke="#27221b" stroke-width="1.2"/><line x1="1440.0" y1="26.0" x2="1440.0" y2="206.0" stroke="#27221b" stroke-width="1.2"/>
<text x="1421.0" y="224.0" font-family="Segoe UI, Arial, sans-serif" font-size="10" font-weight="400" text-anchor="middle" fill="#636363">99</text>
<rect x="1438.0" y="160.0" width="35.0" height="46" fill="#fbfaf6" stroke="#ddd6c8" stroke-width="1"/>
<line x1="1438.0" y1="26" x2="1438.0" y2="206.0" stroke="#cbc3b5" stroke-width="1"/>
<rect x="1440.4" y="82.0" width="30.3" height="22" rx="4" fill="#e4eed1" stroke="#8da969"/><text x="1455.5" y="97.0" font-family="Segoe UI, Arial, sans-serif" font-size="11" font-weight="700" text-anchor="middle" fill="#222">4♭</text>
<text x="1455.5" y="224.0" font-family="Segoe UI, Arial, sans-serif" font-size="10" font-weight="400" text-anchor="middle" fill="#636363">100</text>
<rect x="1473.0" y="160.0" width="70.0" height="46" rx="4" fill="#ece8de" stroke="#c8c0b1" stroke-dasharray="4 3"/>
<line x1="1481.0" y1="183.0" x2="1535.0" y2="183.0" stroke="#8f8778" stroke-width="1.4"/>
<text x="1508.0" y="177.0" font-family="Segoe UI, Arial, sans-serif" font-size="11" font-weight="700" text-anchor="middle" fill="#5e594f">--7--</text>
<text x="1508.0" y="223.0" font-family="Segoe UI, Arial, sans-serif" font-size="9" font-weight="400" text-anchor="middle" fill="#777066">101-107</text>
<rect x="1543.0" y="160.0" width="34.0" height="46" fill="#fbfaf6" stroke="#ddd6c8" stroke-width="1"/>
<line x1="1543.0" y1="26" x2="1543.0" y2="206.0" stroke="#cbc3b5" stroke-width="1"/>
<text x="1560.0" y="122.0" font-family="Segoe UI, Arial, sans-serif" font-size="10" font-weight="700" text-anchor="middle" fill="#222">5</text><line x1="1550.0" y1="126.0" x2="1570.0" y2="126.0" stroke="#5f512f" stroke-width="1"/><text x="1560.0" y="137.0" font-family="Segoe UI, Arial, sans-serif" font-size="10" font-weight="700" text-anchor="middle" fill="#222">4</text>
<line x1="1575.0" y1="26.0" x2="1575.0" y2="206.0" stroke="#27221b" stroke-width="1.2"/><line x1="1579.0" y1="26.0" x2="1579.0" y2="206.0" stroke="#27221b" stroke-width="1.2"/>
<text x="1560.0" y="224.0" font-family="Segoe UI, Arial, sans-serif" font-size="10" font-weight="400" text-anchor="middle" fill="#636363">108</text>
<rect x="1577.0" y="160.0" width="34.0" height="46" fill="#ffffff" stroke="#ddd6c8" stroke-width="1"/>
<line x1="1577.0" y1="26" x2="1577.0" y2="206.0" stroke="#cbc3b5" stroke-width="1"/>
<text x="1594.0" y="122.0" font-family="Segoe UI, Arial, sans-serif" font-size="10" font-weight="700" text-anchor="middle" fill="#222">3</text><line x1="1584.0" y1="126.0" x2="1604.0" y2="126.0" stroke="#5f512f" stroke-width="1"/><text x="1594.0" y="137.0" font-family="Segoe UI, Arial, sans-serif" font-size="10" font-weight="700" text-anchor="middle" fill="#222">4</text>
<text x="1594.0" y="224.0" font-family="Segoe UI, Arial, sans-serif" font-size="10" font-weight="400" text-anchor="middle" fill="#636363">109</text>
<rect x="1611.0" y="160.0" width="70.0" height="46" rx="4" fill="#ece8de" stroke="#c8c0b1" stroke-dasharray="4 3"/>
<line x1="1619.0" y1="183.0" x2="1673.0" y2="183.0" stroke="#8f8778" stroke-width="1.4"/>
<text x="1646.0" y="177.0" font-family="Segoe UI, Arial, sans-serif" font-size="11" font-weight="700" text-anchor="middle" fill="#5e594f">--16--</text>
<text x="1646.0" y="223.0" font-family="Segoe UI, Arial, sans-serif" font-size="9" font-weight="400" text-anchor="middle" fill="#777066">110-125</text>
<rect x="1681.0" y="160.0" width="34.0" height="46" fill="#ffffff" stroke="#ddd6c8" stroke-width="1"/>
<line x1="1681.0" y1="26" x2="1681.0" y2="206.0" stroke="#cbc3b5" stroke-width="1"/>
<line x1="1713.0" y1="26.0" x2="1713.0" y2="206.0" stroke="#27221b" stroke-width="1.2"/><line x1="1717.0" y1="26.0" x2="1717.0" y2="206.0" stroke="#27221b" stroke-width="1.2"/>
<text x="1698.0" y="224.0" font-family="Segoe UI, Arial, sans-serif" font-size="10" font-weight="400" text-anchor="middle" fill="#636363">126</text>
<rect x="1715.0" y="160.0" width="34.0" height="46" fill="#fbfaf6" stroke="#ddd6c8" stroke-width="1"/>
<line x1="1715.0" y1="26" x2="1715.0" y2="206.0" stroke="#cbc3b5" stroke-width="1"/>
<text x="1732.0" y="122.0" font-family="Segoe UI, Arial, sans-serif" font-size="10" font-weight="700" text-anchor="middle" fill="#222">5</text><line x1="1722.0" y1="126.0" x2="1742.0" y2="126.0" stroke="#5f512f" stroke-width="1"/><text x="1732.0" y="137.0" font-family="Segoe UI, Arial, sans-serif" font-size="10" font-weight="700" text-anchor="middle" fill="#222">4</text>
<text x="1732.0" y="224.0" font-family="Segoe UI, Arial, sans-serif" font-size="10" font-weight="400" text-anchor="middle" fill="#636363">127</text>
<rect x="1749.0" y="160.0" width="34.0" height="46" fill="#ffffff" stroke="#ddd6c8" stroke-width="1"/>
<line x1="1749.0" y1="26" x2="1749.0" y2="206.0" stroke="#cbc3b5" stroke-width="1"/>
<rect x="1783.0" y="160.0" width="34.0" height="46" fill="#fbfaf6" stroke="#ddd6c8" stroke-width="1"/>
<line x1="1783.0" y1="26" x2="1783.0" y2="206.0" stroke="#cbc3b5" stroke-width="1"/>
<text x="1800.0" y="122.0" font-family="Segoe UI, Arial, sans-serif" font-size="10" font-weight="700" text-anchor="middle" fill="#222">6</text><line x1="1790.0" y1="126.0" x2="1810.0" y2="126.0" stroke="#5f512f" stroke-width="1"/><text x="1800.0" y="137.0" font-family="Segoe UI, Arial, sans-serif" font-size="10" font-weight="700" text-anchor="middle" fill="#222">4</text>
<text x="1800.0" y="224.0" font-family="Segoe UI, Arial, sans-serif" font-size="10" font-weight="400" text-anchor="middle" fill="#636363">129</text>
<rect x="1817.0" y="160.0" width="34.0" height="46" fill="#ffffff" stroke="#ddd6c8" stroke-width="1"/>
<line x1="1817.0" y1="26" x2="1817.0" y2="206.0" stroke="#cbc3b5" stroke-width="1"/>
<line x1="1849.0" y1="26.0" x2="1849.0" y2="206.0" stroke="#27221b" stroke-width="1.2"/><line x1="1853.0" y1="26.0" x2="1853.0" y2="206.0" stroke="#27221b" stroke-width="1.2"/>
<text x="1834.0" y="224.0" font-family="Segoe UI, Arial, sans-serif" font-size="10" font-weight="400" text-anchor="middle" fill="#636363">130</text>
<rect x="1851.0" y="160.0" width="34.0" height="46" fill="#fbfaf6" stroke="#ddd6c8" stroke-width="1"/>
<line x1="1851.0" y1="26" x2="1851.0" y2="206.0" stroke="#cbc3b5" stroke-width="1"/>
<text x="1868.0" y="122.0" font-family="Segoe UI, Arial, sans-serif" font-size="10" font-weight="700" text-anchor="middle" fill="#222">5</text><line x1="1858.0" y1="126.0" x2="1878.0" y2="126.0" stroke="#5f512f" stroke-width="1"/><text x="1868.0" y="137.0" font-family="Segoe UI, Arial, sans-serif" font-size="10" font-weight="700" text-anchor="middle" fill="#222">4</text>
<text x="1868.0" y="224.0" font-family="Segoe UI, Arial, sans-serif" font-size="10" font-weight="400" text-anchor="middle" fill="#636363">131</text>
<rect x="1885.0" y="160.0" width="70.0" height="46" rx="4" fill="#ece8de" stroke="#c8c0b1" stroke-dasharray="4 3"/>
<line x1="1893.0" y1="183.0" x2="1947.0" y2="183.0" stroke="#8f8778" stroke-width="1.4"/>
<text x="1920.0" y="177.0" font-family="Segoe UI, Arial, sans-serif" font-size="11" font-weight="700" text-anchor="middle" fill="#5e594f">--9--</text>
<text x="1920.0" y="223.0" font-family="Segoe UI, Arial, sans-serif" font-size="9" font-weight="400" text-anchor="middle" fill="#777066">132-140</text>
<rect x="1955.0" y="160.0" width="34.0" height="46" fill="#fbfaf6" stroke="#ddd6c8" stroke-width="1"/>
<line x1="1955.0" y1="26" x2="1955.0" y2="206.0" stroke="#cbc3b5" stroke-width="1"/>
<text x="1972.0" y="122.0" font-family="Segoe UI, Arial, sans-serif" font-size="10" font-weight="700" text-anchor="middle" fill="#222">6</text><line x1="1962.0" y1="126.0" x2="1982.0" y2="126.0" stroke="#5f512f" stroke-width="1"/><text x="1972.0" y="137.0" font-family="Segoe UI, Arial, sans-serif" font-size="10" font-weight="700" text-anchor="middle" fill="#222">4</text>
<text x="1972.0" y="224.0" font-family="Segoe UI, Arial, sans-serif" font-size="10" font-weight="400" text-anchor="middle" fill="#636363">141</text>
<rect x="1989.0" y="160.0" width="70.0" height="46" rx="4" fill="#ece8de" stroke="#c8c0b1" stroke-dasharray="4 3"/>
<line x1="1997.0" y1="183.0" x2="2051.0" y2="183.0" stroke="#8f8778" stroke-width="1.4"/>
<text x="2024.0" y="177.0" font-family="Segoe UI, Arial, sans-serif" font-size="11" font-weight="700" text-anchor="middle" fill="#5e594f">--5--</text>
<text x="2024.0" y="223.0" font-family="Segoe UI, Arial, sans-serif" font-size="9" font-weight="400" text-anchor="middle" fill="#777066">142-146</text>
<rect x="2059.0" y="160.0" width="34.0" height="46" fill="#fbfaf6" stroke="#ddd6c8" stroke-width="1"/>
<line x1="2059.0" y1="26" x2="2059.0" y2="206.0" stroke="#cbc3b5" stroke-width="1"/>
<text x="2076.0" y="122.0" font-family="Segoe UI, Arial, sans-serif" font-size="10" font-weight="700" text-anchor="middle" fill="#222">3</text><line x1="2066.0" y1="126.0" x2="2086.0" y2="126.0" stroke="#5f512f" stroke-width="1"/><text x="2076.0" y="137.0" font-family="Segoe UI, Arial, sans-serif" font-size="10" font-weight="700" text-anchor="middle" fill="#222">4</text>
<text x="2076.0" y="224.0" font-family="Segoe UI, Arial, sans-serif" font-size="10" font-weight="400" text-anchor="middle" fill="#636363">147</text>
<rect x="2093.0" y="160.0" width="70.0" height="46" rx="4" fill="#ece8de" stroke="#c8c0b1" stroke-dasharray="4 3"/>
<line x1="2101.0" y1="183.0" x2="2155.0" y2="183.0" stroke="#8f8778" stroke-width="1.4"/>
<text x="2128.0" y="177.0" font-family="Segoe UI, Arial, sans-serif" font-size="11" font-weight="700" text-anchor="middle" fill="#5e594f">--3--</text>
<text x="2128.0" y="223.0" font-family="Segoe UI, Arial, sans-serif" font-size="9" font-weight="400" text-anchor="middle" fill="#777066">148-150</text>
<rect x="2163.0" y="160.0" width="34.0" height="46" fill="#fbfaf6" stroke="#ddd6c8" stroke-width="1"/>
<line x1="2163.0" y1="26" x2="2163.0" y2="206.0" stroke="#cbc3b5" stroke-width="1"/>
<text x="2180.0" y="122.0" font-family="Segoe UI, Arial, sans-serif" font-size="10" font-weight="700" text-anchor="middle" fill="#222">7</text><line x1="2170.0" y1="126.0" x2="2190.0" y2="126.0" stroke="#5f512f" stroke-width="1"/><text x="2180.0" y="137.0" font-family="Segoe UI, Arial, sans-serif" font-size="10" font-weight="700" text-anchor="middle" fill="#222">8</text>
<text x="2180.0" y="224.0" font-family="Segoe UI, Arial, sans-serif" font-size="10" font-weight="400" text-anchor="middle" fill="#636363">151</text>
<rect x="2197.0" y="160.0" width="34.0" height="46" fill="#ffffff" stroke="#ddd6c8" stroke-width="1"/>
<line x1="2197.0" y1="26" x2="2197.0" y2="206.0" stroke="#cbc3b5" stroke-width="1"/>
<rect x="2231.0" y="160.0" width="34.0" height="46" fill="#fbfaf6" stroke="#ddd6c8" stroke-width="1"/>
<line x1="2231.0" y1="26" x2="2231.0" y2="206.0" stroke="#cbc3b5" stroke-width="1"/>
<text x="2248.0" y="122.0" font-family="Segoe UI, Arial, sans-serif" font-size="10" font-weight="700" text-anchor="middle" fill="#222">4</text><line x1="2238.0" y1="126.0" x2="2258.0" y2="126.0" stroke="#5f512f" stroke-width="1"/><text x="2248.0" y="137.0" font-family="Segoe UI, Arial, sans-serif" font-size="10" font-weight="700" text-anchor="middle" fill="#222">4</text>
<line x1="2262.0" y1="26.0" x2="2262.0" y2="206.0" stroke="#27221b" stroke-width="1.2"/><line x1="2267.0" y1="26.0" x2="2267.0" y2="206.0" stroke="#27221b" stroke-width="3.6"/>
<text x="2248.0" y="224.0" font-family="Segoe UI, Arial, sans-serif" font-size="10" font-weight="400" text-anchor="middle" fill="#636363">153</text>
</svg>