<svg xmlns="http://www.w3.org/2000/svg" width="2134" height="238" viewBox="0 0 2134 238">
<style>.music{font-family:"Leland","Bravura","Segoe UI Symbol","Noto Music",sans-serif;}</style>
<rect width="100%" height="100%" fill="#f7f5ef"/>
<text x="24.0" y="44.0" font-family="Segoe UI, Arial, sans-serif" font-size="11" font-weight="700" text-anchor="start" fill="#6b4c16">Mark</text>
<text x="24.0" y="71.0" font-family="Segoe UI, Arial, sans-serif" font-size="11" font-weight="700" text-anchor="start" fill="#6d3b60">Repeat</text>
<text x="24.0" y="98.0" font-family="Segoe UI, Arial, sans-serif" font-size="11" font-weight="700" text-anchor="start" fill="#4c6232">Key</text>
<text x="24.0" y="126.0" font-family="Segoe UI, Arial, sans-serif" font-size="11" font-weight="700" text-anchor="start" fill="#6b4c16">Meter</text>
<text x="24.0" y="193.0" font-family="Segoe UI, Arial, sans-serif" font-size="11" font-weight="700" text-anchor="start" fill="#1e526f">Tempo</text>
<line x1="82.0" y1="27" x2="2096.0" y2="27" stroke="#d7d0c2" stroke-width="1"/>
<rect x="82.0" y="160.0" width="40.0" height="46" fill="#ffffff" stroke="#ddd6c8" stroke-width="1"/>
<line x1="82.0" y1="26" x2="82.0" y2="206.0" stroke="#cbc3b5" stroke-width="1"/>
<rect x="86.9" y="82.0" width="30.3" height="22" rx="4" fill="#e4eed1" stroke="#8da969"/><text x="102.0" y="97.0" font-family="Segoe UI, Arial, sans-serif" font-size="11" font-weight="700" text-anchor="middle" fill="#222">4♭</text>
<text x="102.0" y="122.0" font-family="Segoe UI, Arial, sans-serif" font-size="10" font-weight="700" text-anchor="middle" fill="#222">4</text><line x1="92.0" y1="126.0" x2="112.0" y2="126.0" stroke="#5f512f" stroke-width="1"/><text x="102.0" y="137.0" font-family="Segoe UI, Arial, sans-serif" font-size="10" font-weight="700" text-anchor="middle" fill="#222">4</text>
<text x="102.0" y="192.0" font-family="Segoe UI, Arial, sans-serif" class="music" font-size="11" font-weight="700" text-anchor="middle" fill="#1e526f">♩=92</text>
<text x="102.0" y="224.0" font-family="Segoe UI, Arial, sans-serif" font-size="10" font-weight="400" text-anchor="middle" fill="#636363">1</text>
<rect x="122.0" y="160.0" width="70.0" height="46" rx="4" fill="#ece8de" stroke="#c8c0b1" stroke-dasharray="4 3"/>
<line x1="130.0" y1="183.0" x2="184.0" y2="183.0" stroke="#8f8778" stroke-width="1.4"/>
<text x="157.0" y="177.0" font-family="Segoe UI, Arial, sans-serif" font-size="11" font-weight="700" text-anchor="middle" fill="#5e594f">--8--</text>
<text x="157.0" y="223.0" font-family="Segoe UI, Arial, sans-serif" font-size="9" font-weight="400" text-anchor="middle" fill="#777066">2-9</text>
<rect x="192.0" y="160.0" width="34.0" height="46" fill="#ffffff" stroke="#ddd6c8" stroke-width="1"/>
<line x1="192.0" y1="26" x2="192.0" y2="206.0" stroke="#cbc3b5" stroke-width="1"/>
<text x="209.0" y="192.0" font-family="Segoe UI, Arial, sans-serif" class="music" font-size="11" font-weight="700" text-anchor="middle" fill="#1e526f">rit</text>
<text x="209.0" y="224.0" font-family="Segoe UI, Arial, sans-serif" font-size="10" font-weight="400" text-anchor="middle" fill="#636363">10</text>
<rect x="226.0" y="160.0" width="34.0" height="46" fill="#fbfaf6" stroke="#ddd6c8" stroke-width="1"/>
<line x1="226.0" y1="26" x2="226.0" y2="206.0" stroke="#cbc3b5" stroke-width="1"/>
<line x1="258.0" y1="26.0" x2="258.0" y2="206.0" stroke="#27221b" stroke-width="1.2"/><line x1="262.0" y1="26.0" x2="262.0" y2="206.0" stroke="#27221b" stroke-width="1.2"/>
<text x="243.0" y="224.0" font-family="Segoe UI, Arial, sans-serif" font-size="10" font-weight="400" text-anchor="middle" fill="#636363">11</text>
<rect x="260.0" y="160.0" width="40.0" height="46" fill="#ffffff" stroke="#ddd6c8" stroke-width="1"/>
<line x1="260.0" y1="26" x2="260.0" y2="206.0" stroke="#cbc3b5" stroke-width="1"/>
<rect x="269.0" y="28.0" width="22.0" height="22" rx="4" fill="#ffe7a8" stroke="#c18a18"/><text x="280.0" y="43.0" font-family="Segoe UI, Arial, sans-serif" font-size="13" font-weight="700" text-anchor="middle" fill="#222">A</text>
<text x="280.0" y="192.0" font-family="Segoe UI, Arial, sans-serif" class="music" font-size="11" font-weight="700" text-anchor="middle" fill="#1e526f">♩=72</text>
<text x="280.0" y="224.0" font-family="Segoe UI, Arial, sans-serif" font-size="10" font-weight="400" text-anchor="middle" fill="#636363">12</text>
<rect x="300.0" y="160.0" width="34.0" height="46" fill="#fbfaf6" stroke="#ddd6c8" stroke-width="1"/>
<line x1="300.0" y1="26" x2="300.0" y2="206.0" stroke="#cbc3b5" stroke-width="1"/>
<rect x="334.0" y="160.0" width="42.0" height="46" fill="#ffffff" stroke="#ddd6c8" stroke-width="1"/>
<line x1="334.0" y1="26" x2="334.0" y2="206.0" stroke="#cbc3b5" stroke-width="1"/>
<text x="355.0" y="192.0" font-family="Segoe UI, Arial, sans-serif" class="music" font-size="11" font-weight="700" text-anchor="middle" fill="#1e526f">accel</text>
<text x="355.0" y="224.0" font-family="Segoe UI, Arial, sans-serif" font-size="10" font-weight="400" text-anchor="middle" fill="#636363">14</text>
<rect x="376.0" y="160.0" width="70.0" height="46" rx="4" fill="#ece8de" stroke="#c8c0b1" stroke-dasharray="4 3"/>
<line x1="384.0" y1="183.0" x2="438.0" y2="183.0" stroke="#8f8778" stroke-width="1.4"/>
<text x="411.0" y="177.0" font-family="Segoe UI, Arial, sans-serif" font-size="11" font-weight="700" text-anchor="middle" fill="#5e594f">--8--</text>
<text x="411.0" y="223.0" font-family="Segoe UI, Arial, sans-serif" font-size="9" font-weight="400" text-anchor="middle" fill="#777066">15-22</text>
<rect x="446.0" y="160.0" width="34.0" height="46" fill="#ffffff" stroke="#ddd6c8" stroke-width="1"/>
<line x1="446.0" y1="26" x2="446.0" y2="206.0" stroke="#cbc3b5" stroke-width="1"/>
<line x1="478.0" y1="26.0" x2="478.0" y2="206.0" stroke="#27221b" stroke-width="1.2"/><line x1="482.0" y1="26.0" x2="482.0" y2="206.0" stroke="#27221b" stroke-width="1.2"/>
<text x="463.0" y="224.0" font-family="Segoe UI, Arial, sans-serif" font-size="10" font-weight="400" text-anchor="middle" fill="#636363">23</text>
<rect x="480.0" y="160.0" width="47.0" height="46" fill="#fbfaf6" stroke="#ddd6c8" stroke-width="1"/>
<line x1="480.0" y1="26" x2="480.0" y2="206.0" stroke="#cbc3b5" stroke-width="1"/>
<rect x="492.5" y="28.0" width="22.0" height="22" rx="4" fill="#ffe7a8" stroke="#c18a18"/><text x="503.5" y="43.0" font-family="Segoe UI, Arial, sans-serif" font-size="13" font-weight="700" text-anchor="middle" fill="#222">B</text>
<text x="503.5" y="122.0" font-family="Segoe UI, Arial, sans-serif" font-size="10" font-weight="700" text-anchor="middle" fill="#222">6+4</text><line x1="493.5" y1="126.0" x2="513.5" y2="126.0" stroke="#5f512f" stroke-width="1"/><text x="503.5" y="137.0" font-family="Segoe UI, Arial, sans-serif" font-size="10" font-weight="700" text-anchor="middle" fill="#222">8</text>
<text x="503.5" y="192.0" font-family="Segoe UI, Arial, sans-serif" class="music" font-size="11" font-weight="700" text-anchor="middle" fill="#1e526f">♩=168</text>
<text x="503.5" y="224.0" font-family="Segoe UI, Arial, sans-serif" font-size="10" font-weight="400" text-anchor="middle" fill="#636363">24</text>
<rect x="527.0" y="160.0" width="70.0" height="46" rx="4" fill="#ece8de" stroke="#c8c0b1" stroke-dasharray="4 3"/>
<line x1="535.0" y1="183.0" x2="589.0" y2="183.0" stroke="#8f8778" stroke-width="1.4"/>
<text x="562.0" y="177.0" font-family="Segoe UI, Arial, sans-serif" font-size="11" font-weight="700" text-anchor="middle" fill="#5e594f">--4--</text>
<text x="562.0" y="223.0" font-family="Segoe UI, Arial, sans-serif" font-size="9" font-weight="400" text-anchor="middle" fill="#777066">25-28</text>
<rect x="597.0" y="160.0" width="34.0" height="46" fill="#fbfaf6" stroke="#ddd6c8" stroke-width="1"/>
<line x1="597.0" y1="26" x2="597.0" y2="206.0" stroke="#cbc3b5" stroke-width="1"/>
<line x1="629.0" y1="26.0" x2="629.0" y2="206.0" stroke="#27221b" stroke-width="1.2"/><line x1="633.0" y1="26.0" x2="633.0" y2="206.0" stroke="#27221b" stroke-width="1.2"/>
<text x="614.0" y="224.0" font-family="Segoe UI, Arial, sans-serif" font-size="10" font-weight="400" text-anchor="middle" fill="#636363">29</text>
<rect x="631.0" y="160.0" width="34.0" height="46" fill="#ffffff" stroke="#ddd6c8" stroke-width="1"/>
<line x1="631.0" y1="26" x2="631.0" y2="206.0" stroke="#cbc3b5" stroke-width="1"/>
<rect x="637.0" y="28.0" width="22.0" height="22" rx="4" fill="#ffe7a8" stroke="#c18a18"/><text x="648.0" y="43.0" font-family="Segoe UI, Arial, sans-serif" font-size="13" font-weight="700" text-anchor="middle" fill="#222">C</text>
<text x="648.0" y="224.0" font-family="Segoe UI, Arial, sans-serif" font-size="10" font-weight="400" text-anchor="middle" fill="#636363">30</text>
<rect x="665.0" y="160.0" width="70.0" height="46" rx="4" fill="#ece8de" stroke="#c8c0b1" stroke-dasharray="4 3"/>
<line x1="673.0" y1="183.0" x2="727.0" y2="183.0" stroke="#8f8778" stroke-width="1.4"/>
<text x="700.0" y="177.0" font-family="Segoe UI, Arial, sans-serif" font-size="11" font-weight="700" text-anchor="middle" fill="#5e594f">--10--</text>
<text x="700.0" y="223.0" font-family="Segoe UI, Arial, sans-serif" font-size="9" font-weight="400" text-anchor="middle" fill="#777066">31-40</text>
<rect x="735.0" y="160.0" width="34.0" height="46" fill="#ffffff" stroke="#ddd6c8" stroke-width="1"/>
<line x1="735.0" y1="26" x2="735.0" y2="206.0" stroke="#cbc3b5" stroke-width="1"/>
<line x1="767.0" y1="26.0" x2="767.0" y2="206.0" stroke="#27221b" stroke-width="1.2"/><line x1="771.0" y1="26.0" x2="771.0" y2="206.0" stroke="#27221b" stroke-width="1.2"/>
<text x="752.0" y="224.0" font-family="Segoe UI, Arial, sans-serif" font-size="10" font-weight="400" text-anchor="middle" fill="#636363">41</text>
<rect x="769.0" y="160.0" width="34.0" height="46" fill="#fbfaf6" stroke="#ddd6c8" stroke-width="1"/>
<line x1="769.0" y1="26" x2="769.0" y2="206.0" stroke="#cbc3b5" stroke-width="1"/>
<rect x="775.0" y="28.0" width="22.0" height="22" rx="4" fill="#ffe7a8" stroke="#c18a18"/><text x="786.0" y="43.0" font-family="Segoe UI, Arial, sans-serif" font-size="13" font-weight="700" text-anchor="middle" fill="#222">D</text>
<text x="786.0" y="224.0" font-family="Segoe UI, Arial, sans-serif" font-size="10" font-weight="400" text-anchor="middle" fill="#636363">42</text>
<rect x="803.0" y="160.0" width="70.0" height="46" rx="4" fill="#ece8de" stroke="#c8c0b1" stroke-dasharray="4 3"/>
<line x1="811.0" y1="183.0" x2="865.0" y2="183.0" stroke="#8f8778" stroke-width="1.4"/>
<text x="838.0" y="177.0" font-family="Segoe UI, Arial, sans-serif" font-size="11" font-weight="700" text-anchor="middle" fill="#5e594f">--6--</text>
<text x="838.0" y="223.0" font-family="Segoe UI, Arial, sans-serif" font-size="9" font-weight="400" text-anchor="middle" fill="#777066">43-48</text>
<rect x="873.0" y="160.0" width="34.0" height="46" fill="#fbfaf6" stroke="#ddd6c8" stroke-width="1"/>
<line x1="873.0" y1="26" x2="873.0" y2="206.0" stroke="#cbc3b5" stroke-width="1"/>
<line x1="905.0" y1="26.0" x2="905.0" y2="206.0" stroke="#27221b" stroke-width="1.2"/><line x1="909.0" y1="26.0" x2="909.0" y2="206.0" stroke="#27221b" stroke-width="1.2"/>
<text x="890.0" y="224.0" font-family="Segoe UI, Arial, sans-serif" font-size="10" font-weight="400" text-anchor="middle" fill="#636363">49</text>
<rect x="907.0" y="160.0" width="34.0" height="46" fill="#ffffff" stroke="#ddd6c8" stroke-width="1"/>
<line x1="907.0" y1="26" x2="907.0" y2="206.0" stroke="#cbc3b5" stroke-width="1"/>
<rect x="913.0" y="28.0" width="22.0" height="22" rx="4" fill="#ffe7a8" stroke="#c18a18"/><text x="924.0" y="43.0" font-family="Segoe UI, Arial, sans-serif" font-size="13" font-weight="700" text-anchor="middle" fill="#222">E</text>
<text x="924.0" y="122.0" font-family="Segoe UI, Arial, sans-serif" font-size="10" font-weight="700" text-anchor="middle" fill="#222">5</text><line x1="914.0" y1="126.0" x2="934.0" y2="126.0" stroke="#5f512f" stroke-width="1"/><text x="924.0" y="137.0" font-family="Segoe UI, Arial, sans-serif" font-size="10" font-weight="700" text-anchor="middle" fill="#222">4</text>
<text x="924.0" y="224.0" font-family="Segoe UI, Arial, sans-serif" font-size="10" font-weight="400" text-anchor="middle" fill="#636363">50</text>
<rect x="941.0" y="160.0" width="34.0" height="46" fill="#fbfaf6" stroke="#ddd6c8" stroke-width="1"/>
<line x1="941.0" y1="26" x2="941.0" y2="206.0" stroke="#cbc3b5" stroke-width="1"/>
<text x="958.0" y="122.0" font-family="Segoe UI, Arial, sans-serif" font-size="10" font-weight="700" text-anchor="middle" fill="#222">6</text><line x1="948.0" y1="126.0" x2="968.0" y2="126.0" stroke="#5f512f" stroke-width="1"/><text x="958.0" y="137.0" font-family="Segoe UI, Arial, sans-serif" font-size="10" font-weight="700" text-anchor="middle" fill="#222">4</text>
<text x="958.0" y="224.0" font-family="Segoe UI, Arial, sans-serif" font-size="10" font-weight="400" text-anchor="middle" fill="#636363">51</text>
<rect x="975.0" y="160.0" width="34.0" height="46" fill="#ffffff" stroke="#ddd6c8" stroke-width="1"/>
<line x1="975.0" y1="26" x2="975.0" y2="206.0" stroke="#cbc3b5" stroke-width="1"/>
<text x="992.0" y="122.0" font-family="Segoe UI, Arial, sans-serif" font-size="10" font-weight="700" text-anchor="middle" fill="#222">5</text><line x1="982.0" y1="126.0" x2="1002.0" y2="126.0" stroke="#5f512f" stroke-width="1"/><text x="992.0" y="137.0" font-family="Segoe UI, Arial, sans-serif" font-size="10" font-weight="700" text-anchor="middle" fill="#222">4</text>
<text x="992.0" y="224.0" font-family="Segoe UI, Arial, sans-serif" font-size="10" font-weight="400" text-anchor="middle" fill="#636363">52</text>
<rect x="1009.0" y="160.0" width="70.0" height="46" rx="4" fill="#ece8de" stroke="#c8c0b1" stroke-dasharray="4 3"/>
<line x1="1017.0" y1="183.0" x2="1071.0" y2="183.0" stroke="#8f8778" stroke-width="1.4"/>
<text x="1044.0" y="177.0" font-family="Segoe UI, Arial, sans-serif" font-size="11" font-weight="700" text-anchor="middle" fill="#5e594f">--4--</text>
<text x="1044.0" y="223.0" font-family="Segoe UI, Arial, sans-serif" font-size="9" font-weight="400" text-anchor="middle" fill="#777066">53-56</text>
<rect x="1079.0" y="160.0" width="34.0" height="46" fill="#ffffff" stroke="#ddd6c8" stroke-width="1"/>
<line x1="1079.0" y1="26" x2="1079.0" y2="206.0" stroke="#cbc3b5" stroke-width="1"/>
<text x="1096.0" y="122.0" font-family="Segoe UI, Arial, sans-serif" font-size="10" font-weight="700" text-anchor="middle" fill="#222">6</text><line x1="1086.0" y1="126.0" x2="1106.0" y2="126.0" stroke="#5f512f" stroke-width="1"/><text x="1096.0" y="137.0" font-family="Segoe UI, Arial, sans-serif" font-size="10" font-weight="700" text-anchor="middle" fill="#222">4</text>
<text x="1096.0" y="224.0" font-family="Segoe UI, Arial, sans-serif" font-size="10" font-weight="400" text-anchor="middle" fill="#636363">57</text>
<rect x="1113.0" y="160.0" width="34.0" height="46" fill="#fbfaf6" stroke="#ddd6c8" stroke-width="1"/>
<line x1="1113.0" y1="26" x2="1113.0" y2="206.0" stroke="#cbc3b5" stroke-width="1"/>
<line x1="1145.0" y1="26.0" x2="1145.0" y2="206.0" stroke="#27221b" stroke-width="1.2"/><line x1="1149.0" y1="26.0" x2="1149.0" y2="206.0" stroke="#27221b" stroke-width="1.2"/>
<text x="1130.0" y="224.0" font-family="Segoe UI, Arial, sans-serif" font-size="10" font-weight="400" text-anchor="middle" fill="#636363">58</text>
<rect x="1147.0" y="160.0" width="34.0" height="46" fill="#ffffff" stroke="#ddd6c8" stroke-width="1"/>
<line x1="1147.0" y1="26" x2="1147.0" y2="206.0" stroke="#cbc3b5" stroke-width="1"/>
<rect x="1153.0" y="28.0" width="22.0" height="22" rx="4" fill="#ffe7a8" stroke="#c18a18"/><text x="1164.0" y="43.0" font-family="Segoe UI, Arial, sans-serif" font-size="13" font-weight="700" text-anchor="middle" fill="#222">F</text>
<text x="1164.0" y="224.0" font-family="Segoe UI, Arial, sans-serif" font-size="10" font-weight="400" text-anchor="middle" fill="#636363">59</text>
<rect x="1181.0" y="160.0" width="70.0" height="46" rx="4" fill="#ece8de" stroke="#c8c0b1" stroke-dasharray="4 3"/>
<line x1="1189.0" y1="183.0" x2="1243.0" y2="183.0" stroke="#8f8778" stroke-width="1.4"/>
<text x="1216.0" y="177.0" font-family="Segoe UI, Arial, sans-serif" font-size="11" font-weight="700" text-anchor="middle" fill="#5e594f">--11--</text>
<text x="1216.0" y="223.0" font-family="Segoe UI, Arial, sans-serif" font-size="9" font-weight="400" text-anchor="middle" fill="#777066">60-70</text>
<rect x="1251.0" y="160.0" width="34.0" height="46" fill="#ffffff" stroke="#ddd6c8" stroke-width="1"/>
<line x1="1251.0" y1="26" x2="1251.0" y2="206.0" stroke="#cbc3b5" stroke-width="1"/>
<text x="1268.0" y="192.0" font-family="Segoe UI, Arial, sans-serif" class="music" font-size="11" font-weight="700" text-anchor="middle" fill="#1e526f">rit</text>
<text x="1268.0" y="224.0" font-family="Segoe UI, Arial, sans-serif" font-size="10" font-weight="400" text-anchor="middle" fill="#636363">71</text>
<rect x="1285.0" y="160.0" width="70.0" height="46" rx="4" fill="#ece8de" stroke="#c8c0b1" stroke-dasharray="4 3"/>
<line x1="1293.0" y1="183.0" x2="1347.0" y2="183.0" stroke="#8f8778" stroke-width="1.4"/>
<text x="1320.0" y="177.0" font-family="Segoe UI, Arial, sans-serif" font-size="11" font-weight="700" text-anchor="middle" fill="#5e594f">--5--</text>
<text x="1320.0" y="223.0" font-family="Segoe UI, Arial, sans-serif" font-size="9" font-weight="400" text-anchor="middle" fill="#777066">72-76</text>
<rect x="1355.0" y="160.0" width="34.0" height="46" fill="#ffffff" stroke="#ddd6c8" stroke-width="1"/>
<line x1="1355.0" y1="26" x2="1355.0" y2="206.0" stroke="#cbc3b5" stroke-width="1"/>
<text x="1372.0" y="122.0" font-family="Segoe UI, Arial, sans-serif" font-size="10" font-weight="700" text-anchor="middle" fill="#222">4</text><line x1="1362.0" y1="126.0" x2="1382.0" y2="126.0" stroke="#5f512f" stroke-width="1"/><text x="1372.0" y="137.0" font-family="Segoe UI, Arial, sans-serif" font-size="10" font-weight="700" text-anchor="middle" fill="#222">4</text>
<line x1="1387.0" y1="26.0" x2="1387.0" y2="206.0" stroke="#27221b" stroke-width="1.2"/><line x1="1391.0" y1="26.0" x2="1391.0" y2="206.0" stroke="#27221b" stroke-width="1.2"/>
<text x="1372.0" y="224.0" font-family="Segoe UI, Arial, sans-serif" font-size="10" font-weight="400" text-anchor="middle" fill="#636363">77</text>
<rect x="1389.0" y="160.0" width="40.0" height="46" fill="#fbfaf6" stroke="#ddd6c8" stroke-width="1"/>
<line x1="1389.0" y1="26" x2="1389.0" y2="206.0" stroke="#cbc3b5" stroke-width="1"/>
<rect x="1398.0" y="28.0" width="22.0" height="22" rx="4" fill="#ffe7a8" stroke="#c18a18"/><text x="1409.0" y="43.0" font-family="Segoe UI, Arial, sans-serif" font-size="13" font-weight="700" text-anchor="middle" fill="#222">G</text>
<text x="1409.0" y="192.0" font-family="Segoe UI, Arial, sans-serif" class="music" font-size="11" font-weight="700" text-anchor="middle" fill="#1e526f">♩=80</text>
<text x="1409.0" y="224.0" font-family="Segoe UI, Arial, sans-serif" font-size="10" font-weight="400" text-anchor="middle" fill="#636363">78</text>
<rect x="1429.0" y="160.0" width="70.0" height="46" rx="4" fill="#ece8de" stroke="#c8c0b1" stroke-dasharray="4 3"/>
<line x1="1437.0" y1="183.0" x2="1491.0" y2="183.0" stroke="#8f8778" stroke-width="1.4"/>
<text x="1464.0" y="177.0" font-family="Segoe UI, Arial, sans-serif" font-size="11" font-weight="700" text-anchor="middle" fill="#5e594f">--15--</text>
<text x="1464.0" y="223.0" font-family="Segoe UI, Arial, sans-serif" font-size="9" font-weight="400" text-anchor="middle" fill="#777066">79-93</text>
<rect x="1499.0" y="160.0" width="34.0" height="46" fill="#fbfaf6" stroke="#ddd6c8" stroke-width="1"/>
<line x1="1499.0" y1="26" x2="1499.0" y2="206.0" stroke="#cbc3b5" stroke-width="1"/>
<line x1="1531.0" y1="26.0" x2="1531.0" y2="206.0" stroke="#27221b" stroke-width="1.2"/><line x1="1535.0" y1="26.0" x2="1535.0" y2="206.0" stroke="#27221b" stroke-width="1.2"/>
<text x="1516.0" y="224.0" font-family="Segoe UI, Arial, sans-serif" font-size="10" font-weight="400" text-anchor="middle" fill="#636363">94</text>
<rect x="1533.0" y="160.0" width="47.0" height="46" fill="#ffffff" stroke="#ddd6c8" stroke-width="1"/>
<line x1="1533.0" y1="26" x2="1533.0" y2="206.0" stroke="#cbc3b5" stroke-width="1"/>
<rect x="1545.5" y="28.0" width="22.0" height="22" rx="4" fill="#ffe7a8" stroke="#c18a18"/><text x="1556.5" y="43.0" font-family="Segoe UI, Arial, sans-serif" font-size="13" font-weight="700" text-anchor="middle" fill="#222">H</text>
<text x="1556.5" y="122.0" font-family="Segoe UI, Arial, sans-serif" font-size="10" font-weight="700" text-anchor="middle" fill="#222">6+4</text><line x1="1546.5" y1="126.0" x2="1566.5" y2="126.0" stroke="#5f512f" stroke-width="1"/><text x="1556.5" y="137.0" font-family="Segoe UI, Arial, sans-serif" font-size="10" font-weight="700" text-anchor="middle" fill="#222">8</text>
<text x="1556.5" y="192.0" font-family="Segoe UI, Arial, sans-serif" class="music" font-size="11" font-weight="700" text-anchor="middle" fill="#1e526f">♩=168</text>
<text x="1556.5" y="224.0" font-family="Segoe UI, Arial, sans-serif" font-size="10" font-weight="400" text-anchor="middle" fill="#636363">95</text>
<rect x="1580.0" y="160.0" width="70.0" height="46" rx="4" fill="#ece8de" stroke="#c8c0b1" stroke-dasharray="4 3"/>
<line x1="1588.0" y1="183.0" x2="1642.0" y2="183.0" stroke="#8f8778" stroke-width="1.4"/>
<text x="1615.0" y="177.0" font-family="Segoe UI, Arial, sans-serif" font-size="11" font-weight="700" text-anchor="middle" fill="#5e594f">--7--</text>
<text x="1615.0" y="223.0" font-family="Segoe UI, Arial, sans-serif" font-size="9" font-weight="400" text-anchor="middle" fill="#777066">96-102</text>
<rect x="1650.0" y="160.0" width="34.0" height="46" fill="#ffffff" stroke="#ddd6c8" stroke-width="1"/>
<line x1="1650.0" y1="26" x2="1650.0" y2="206.0" stroke="#cbc3b5" stroke-width="1"/>
<text x="1667.0" y="122.0" font-family="Segoe UI, Arial, sans-serif" font-size="10" font-weight="700" text-anchor="middle" fill="#222">6</text><line x1="1657.0" y1="126.0" x2="1677.0" y2="126.0" stroke="#5f512f" stroke-width="1"/><text x="1667.0" y="137.0" font-family="Segoe UI, Arial, sans-serif" font-size="10" font-weight="700" text-anchor="middle" fill="#222">4</text>
<text x="1667.0" y="224.0" font-family="Segoe UI, Arial, sans-serif" font-size="10" font-weight="400" text-anchor="middle" fill="#636363">103</text>
<rect x="1684.0" y="160.0" width="34.0" height="46" fill="#fbfaf6" stroke="#ddd6c8" stroke-width="1"/>
<line x1="1684.0" y1="26" x2="1684.0" y2="206.0" stroke="#cbc3b5" stroke-width="1"/>
<text x="1701.0" y="122.0" font-family="Segoe UI, Arial, sans-serif" font-size="10" font-weight="700" text-anchor="middle" fill="#222">3</text><line x1="1691.0" y1="126.0" x2="1711.0" y2="126.0" stroke="#5f512f" stroke-width="1"/><text x="1701.0" y="137.0" font-family="Segoe UI, Arial, sans-serif" font-size="10" font-weight="700" text-anchor="middle" fill="#222">4</text>
<line x1="1716.0" y1="26.0" x2="1716.0" y2="206.0" stroke="#27221b" stroke-width="1.2"/><line x1="1720.0" y1="26.0" x2="1720.0" y2="206.0" stroke="#27221b" stroke-width="1.2"/>
<text x="1701.0" y="224.0" font-family="Segoe UI, Arial, sans-serif" font-size="10" font-weight="400" text-anchor="middle" fill="#636363">104</text>
<rect x="1718.0" y="160.0" width="34.0" height="46" fill="#ffffff" stroke="#ddd6c8" stroke-width="1"/>
<line x1="1718.0" y1="26" x2="1718.0" y2="206.0" stroke="#cbc3b5" stroke-width="1"/>
<rect x="1724.0" y="28.0" width="22.0" height="22" rx="4" fill="#ffe7a8" stroke="#c18a18"/><text x="1735.0" y="43.0" font-family="Segoe UI, Arial, sans-serif" font-size="13" font-weight="700" text-anchor="middle" fill="#222">I</text>
<text x="1735.0" y="122.0" font-family="Segoe UI, Arial, sans-serif" font-size="10" font-weight="700" text-anchor="middle" fill="#222">6+4</text><line x1="1725.0" y1="126.0" x2="1745.0" y2="126.0" stroke="#5f512f" stroke-width="1"/><text x="1735.0" y="137.0" font-family="Segoe UI, Arial, sans-serif" font-size="10" font-weight="700" text-anchor="middle" fill="#222">8</text>
<text x="1735.0" y="224.0" font-family="Segoe UI, Arial, sans-serif" font-size="10" font-weight="400" text-anchor="middle" fill="#636363">105</text>
<rect x="1752.0" y="160.0" width="70.0" height="46" rx="4" fill="#ece8de" stroke="#c8c0b1" stroke-dasharray="4 3"/>
<line x1="1760.0" y1="183.0" x2="1814.0" y2="183.0" stroke="#8f8778" stroke-width="1.4"/>
<text x="1787.0" y="177.0" font-family="Segoe UI, Arial, sans-serif" font-size="11" font-weight="700" text-anchor="middle" fill="#5e594f">--9--</text>
<text x="1787.0" y="223.0" font-family="Segoe UI, Arial, sans-serif" font-size="9" font-weight="400" text-anchor="middle" fill="#777066">106-114</text>
<rect x="1822.0" y="160.0" width="34.0" height="46" fill="#ffffff" stroke="#ddd6c8" stroke-width="1"/>
<line x1="1822.0" y1="26" x2="1822.0" y2="206.0" stroke="#cbc3b5" stroke-width="1"/>
<text x="1839.0" y="122.0" font-family="Segoe UI, Arial, sans-serif" font-size="10" font-weight="700" text-anchor="middle" fill="#222">6</text><line x1="1829.0" y1="126.0" x2="1849.0" y2="126.0" stroke="#5f512f" stroke-width="1"/><text x="1839.0" y="137.0" font-family="Segoe UI, Arial, sans-serif" font-size="10" font-weight="700" text-anchor="middle" fill="#222">4</text>
<text x="1839.0" y="224.0" font-family="Segoe UI, Arial, sans-serif" font-size="10" font-weight="400" text-anchor="middle" fill="#636363">115</text>
<rect x="1856.0" y="160.0" width="34.0" height="46" fill="#fbfaf6" stroke="#ddd6c8" stroke-width="1"/>
<line x1="1856.0" y1="26" x2="1856.0" y2="206.0" stroke="#cbc3b5" stroke-width="1"/>
<line x1="1888.0" y1="26.0" x2="1888.0" y2="206.0" stroke="#27221b" stroke-width="1.2"/><line x1="1892.0" y1="26.0" x2="1892.0" y2="206.0" stroke="#27221b" stroke-width="1.2"/>
<text x="1873.0" y="224.0" font-family="Segoe UI, Arial, sans-serif" font-size="10" font-weight="400" text-anchor="middle" fill="#636363">116</text>
<rect x="1890.0" y="160.0" width="34.0" height="46" fill="#ffffff" stroke="#ddd6c8" stroke-width="1"/>
<line x1="1890.0" y1="26" x2="1890.0" y2="206.0" stroke="#cbc3b5" stroke-width="1"/>
<rect x="1896.0" y="28.0" width="22.0" height="22" rx="4" fill="#ffe7a8" stroke="#c18a18"/><text x="1907.0" y="43.0" font-family="Segoe UI, Arial, sans-serif" font-size="13" font-weight="700" text-anchor="middle" fill="#222">J</text>
<text x="1907.0" y="122.0" font-family="Segoe UI, Arial, sans-serif" font-size="10" font-weight="700" text-anchor="middle" fill="#222">6+4</text><line x1="1897.0" y1="126.0" x2="1917.0" y2="126.0" stroke="#5f512f" stroke-width="1"/><text x="1907.0" y="137.0" font-family="Segoe UI, Arial, sans-serif" font-size="10" font-weight="700" text-anchor="middle" fill="#222">8</text>
<text x="1907.0" y="224.0" font-family="Segoe UI, Arial, sans-serif" font-size="10" font-weight="400" text-anchor="middle" fill="#636363">117</text>
<rect x="1924.0" y="160.0" width="70.0" height="46" rx="4" fill="#ece8de" stroke="#c8c0b1" stroke-dasharray="4 3"/>
<line x1="1932.0" y1="183.0" x2="1986.0" y2="183.0" stroke="#8f8778" stroke-width="1.4"/>
<text x="1959.0" y="177.0" font-family="Segoe UI, Arial, sans-serif" font-size="11" font-weight="700" text-anchor="middle" fill="#5e594f">--16--</text>
<text x="1959.0" y="223.0" font-family="Segoe UI, Arial, sans-serif" font-size="9" font-weight="400" text-anchor="middle" fill="#777066">118-133</text>
<rect x="1994.0" y="160.0" width="34.0" height="46" fill="#ffffff" stroke="#ddd6c8" stroke-width="1"/>
<line x1="1994.0" y1="26" x2="1994.0" y2="206.0" stroke="#cbc3b5" stroke-width="1"/>
<text x="2011.0" y="122.0" font-family="Segoe UI, Arial, sans-serif" font-size="10" font-weight="700" text-anchor="middle" fill="#222">6</text><line x1="2001.0" y1="126.0" x2="2021.0" y2="126.0" stroke="#5f512f" stroke-width="1"/><text x="2011.0" y="137.0" font-family="Segoe UI, Arial, sans-serif" font-size="10" font-weight="700" text-anchor="middle" fill="#222">4</text>
<text x="2011.0" y="224.0" font-family="Segoe UI, Arial, sans-serif" font-size="10" font-weight="400" text-anchor="middle" fill="#636363">134</text>
<rect x="2028.0" y="160.0" width="34.0" height="46" fill="#fbfaf6" stroke="#ddd6c8" stroke-width="1"/>
<line x1="2028.0" y1="26" x2="2028.0" y2="206.0" stroke="#cbc3b5" stroke-width="1"/>
<text x="2045.0" y="224.0" font-family="Segoe UI, Arial, sans-serif" font-size="10" font-weight="400" text-anchor="middle" fill="#636363">135</text>
<rect x="2062.0" y="160.0" width="34.0" height="46" fill="#ffffff" stroke="#ddd6c8" stroke-width="1"/>
<line x1="2062.0" y1="26" x2="2062.0" y2="206.0" stroke="#cbc3b5" stroke-width="1"/>
<line x1="2093.0" y1="26.0" x2="2093.0" y2="206.0" stroke="#27221b" stroke-width="1.2"/><line x1="2098.0" y1="26.0" x2="2098.0" y2="206.0" stroke="#27221b" stroke-width="3.6"/>
<text x="2079.0" y="224.0" font-family="Segoe UI, Arial, sans-serif" font-size="10" font-weight="400" text-anchor="middle" fill="#636363">136</text>
</svg>