<svg xmlns="http://www.w3.org/2000/svg" width="675" height="238" viewBox="0 0 675 238">
<style>.music{font-family:"Leland","Bravura","Segoe UI Symbol","Noto Music",sans-serif;}</style>
<rect width="100%" height="100%" fill="#f7f5ef"/>
<text x="24.0" y="44.0" font-family="Segoe UI, Arial, sans-serif" font-size="11" font-weight="700" text-anchor="start" fill="#6b4c16">Mark</text>
<text x="24.0" y="71.0" font-family="Segoe UI, Arial, sans-serif" font-size="11" font-weight="700" text-anchor="start" fill="#6d3b60">Repeat</text>
<text x="24.0" y="98.0" font-family="Segoe UI, Arial, sans-serif" font-size="11" font-weight="700" text-anchor="start" fill="#4c6232">Key</text>
<text x="24.0" y="126.0" font-family="Segoe UI, Arial, sans-serif" font-size="11" font-weight="700" text-anchor="start" fill="#6b4c16">Meter</text>
<text x="24.0" y="193.0" font-family="Segoe UI, Arial, sans-serif" font-size="11" font-weight="700" text-anchor="start" fill="#1e526f">Tempo</text>
<line x1="82.0" y1="27" x2="637.0" y2="27" stroke="#d7d0c2" stroke-width="1"/>
<rect x="82.0" y="160.0" width="47.0" height="46" fill="#ffffff" stroke="#ddd6c8" stroke-width="1"/>
<line x1="82.0" y1="26" x2="82.0" y2="206.0" stroke="#cbc3b5" stroke-width="1"/>
<rect x="90.4" y="82.0" width="30.3" height="22" rx="4" fill="#e4eed1" stroke="#8da969"/><text x="105.5" y="97.0" font-family="Segoe UI, Arial, sans-serif" font-size="11" font-weight="700" text-anchor="middle" fill="#222">2♭</text>
<text x="105.5" y="122.0" font-family="Segoe UI, Arial, sans-serif" font-size="10" font-weight="700" text-anchor="middle" fill="#222">7</text><line x1="95.5" y1="126.0" x2="115.5" y2="126.0" stroke="#5f512f" stroke-width="1"/><text x="105.5" y="137.0" font-family="Segoe UI, Arial, sans-serif" font-size="10" font-weight="700" text-anchor="middle" fill="#222">8</text>
<text x="105.5" y="192.0" font-family="Segoe UI, Arial, sans-serif" class="music" font-size="11" font-weight="700" text-anchor="middle" fill="#1e526f">♩=120</text>
<text x="105.5" y="224.0" font-family="Segoe UI, Arial, sans-serif" font-size="10" font-weight="400" text-anchor="middle" fill="#636363">1</text>
<rect x="129.0" y="160.0" width="70.0" height="46" rx="4" fill="#ece8de" stroke="#c8c0b1" stroke-dasharray="4 3"/>
<line x1="137.0" y1="183.0" x2="191.0" y2="183.0" stroke="#8f8778" stroke-width="1.4"/>
<text x="164.0" y="177.0" font-family="Segoe UI, Arial, sans-serif" font-size="11" font-weight="700" text-anchor="middle" fill="#5e594f">--8--</text>
<text x="164.0" y="223.0" font-family="Segoe UI, Arial, sans-serif" font-size="9" font-weight="400" text-anchor="middle" fill="#777066">2-9</text>
<rect x="199.0" y="160.0" width="34.0" height="46" fill="#ffffff" stroke="#ddd6c8" stroke-width="1"/>
<line x1="199.0" y1="26" x2="199.0" y2="206.0" stroke="#cbc3b5" stroke-width="1"/>
<line x1="231.0" y1="26.0" x2="231.0" y2="206.0" stroke="#27221b" stroke-width="1.2"/><line x1="235.0" y1="26.0" x2="235.0" y2="206.0" stroke="#27221b" stroke-width="1.2"/>
<text x="216.0" y="224.0" font-family="Segoe UI, Arial, sans-serif" font-size="10" font-weight="400" text-anchor="middle" fill="#636363">10</text>
<rect x="233.0" y="160.0" width="34.0" height="46" fill="#fbfaf6" stroke="#ddd6c8" stroke-width="1"/>
<line x1="233.0" y1="26" x2="233.0" y2="206.0" stroke="#cbc3b5" stroke-width="1"/>
<line x1="265.0" y1="26.0" x2="265.0" y2="206.0" stroke="#27221b" stroke-width="1.2"/><line x1="269.0" y1="26.0" x2="269.0" y2="206.0" stroke="#27221b" stroke-width="1.2"/>
<text x="250.0" y="224.0" font-family="Segoe UI, Arial, sans-serif" font-size="10" font-weight="400" text-anchor="middle" fill="#636363">11</text>
<rect x="267.0" y="160.0" width="70.0" height="46" rx="4" fill="#ece8de" stroke="#c8c0b1" stroke-dasharray="4 3"/>
<line x1="275.0" y1="183.0" x2="329.0" y2="183.0" stroke="#8f8778" stroke-width="1.4"/>
<text x="302.0" y="177.0" font-family="Segoe UI, Arial, sans-serif" font-size="11" font-weight="700" text-anchor="middle" fill="#5e594f">--78--</text>
<text x="302.0" y="223.0" font-family="Segoe UI, Arial, sans-serif" font-size="9" font-weight="400" text-anchor="middle" fill="#777066">12-89</text>
<rect x="337.0" y="160.0" width="34.0" height="46" fill="#fbfaf6" stroke="#ddd6c8" stroke-width="1"/>
<line x1="337.0" y1="26" x2="337.0" y2="206.0" stroke="#cbc3b5" stroke-width="1"/>
<line x1="369.0" y1="26.0" x2="369.0" y2="206.0" stroke="#27221b" stroke-width="1.2"/><line x1="373.0" y1="26.0" x2="373.0" y2="206.0" stroke="#27221b" stroke-width="1.2"/>
<text x="354.0" y="224.0" font-family="Segoe UI, Arial, sans-serif" font-size="10" font-weight="400" text-anchor="middle" fill="#636363">90</text>
<rect x="371.0" y="160.0" width="34.0" height="46" fill="#ffffff" stroke="#ddd6c8" stroke-width="1"/>
<line x1="371.0" y1="26" x2="371.0" y2="206.0" stroke="#cbc3b5" stroke-width="1"/>
<rect x="405.0" y="160.0" width="34.0" height="46" fill="#fbfaf6" stroke="#ddd6c8" stroke-width="1"/>
<line x1="405.0" y1="26" x2="405.0" y2="206.0" stroke="#cbc3b5" stroke-width="1"/>
<line x1="437.0" y1="26.0" x2="437.0" y2="206.0" stroke="#27221b" stroke-width="1.2"/><line x1="441.0" y1="26.0" x2="441.0" y2="206.0" stroke="#27221b" stroke-width="1.2"/>
<text x="422.0" y="224.0" font-family="Segoe UI, Arial, sans-serif" font-size="10" font-weight="400" text-anchor="middle" fill="#636363">92</text>
<rect x="439.0" y="160.0" width="70.0" height="46" rx="4" fill="#ece8de" stroke="#c8c0b1" stroke-dasharray="4 3"/>
<line x1="447.0" y1="183.0" x2="501.0" y2="183.0" stroke="#8f8778" stroke-width="1.4"/>
<text x="474.0" y="177.0" font-family="Segoe UI, Arial, sans-serif" font-size="11" font-weight="700" text-anchor="middle" fill="#5e594f">--40--</text>
<text x="474.0" y="223.0" font-family="Segoe UI, Arial, sans-serif" font-size="9" font-weight="400" text-anchor="middle" fill="#777066">93-132</text>
<rect x="509.0" y="160.0" width="47.0" height="46" fill="#fbfaf6" stroke="#ddd6c8" stroke-width="1"/>
<line x1="509.0" y1="26" x2="509.0" y2="206.0" stroke="#cbc3b5" stroke-width="1"/>
<text x="532.5" y="192.0" font-family="Segoe UI, Arial, sans-serif" class="music" font-size="11" font-weight="700" text-anchor="middle" fill="#1e526f">♩=108</text>
<text x="532.5" y="224.0" font-family="Segoe UI, Arial, sans-serif" font-size="10" font-weight="400" text-anchor="middle" fill="#636363">133</text>
<rect x="556.0" y="160.0" width="47.0" height="46" fill="#ffffff" stroke="#ddd6c8" stroke-width="1"/>
<line x1="556.0" y1="26" x2="556.0" y2="206.0" stroke="#cbc3b5" stroke-width="1"/>
<text x="579.5" y="192.0" font-family="Segoe UI, Arial, sans-serif" class="music" font-size="11" font-weight="700" text-anchor="middle" fill="#1e526f">♩=120</text>
<text x="579.5" y="224.0" font-family="Segoe UI, Arial, sans-serif" font-size="10" font-weight="400" text-anchor="middle" fill="#636363">134</text>
<rect x="603.0" y="160.0" width="34.0" height="46" fill="#fbfaf6" stroke="#ddd6c8" stroke-width="1"/>
<line x1="603.0" y1="26" x2="603.0" y2="206.0" stroke="#cbc3b5" stroke-width="1"/>
<line x1="634.0" y1="26.0" x2="634.0" y2="206.0" stroke="#27221b" stroke-width="1.2"/><line x1="639.0" y1="26.0" x2="639.0" y2="206.0" stroke="#27221b" stroke-width="3.6"/>
<text x="620.0" y="224.0" font-family="Segoe UI, Arial, sans-serif" font-size="10" font-weight="400" text-anchor="middle" fill="#636363">135</text>
</svg>