<svg xmlns="http://www.w3.org/2000/svg" width="1604" height="238" viewBox="0 0 1604 238">
<style>.music{font-family:"Leland","Bravura","Segoe UI Symbol","Noto Music",sans-serif;}</style>
<rect width="100%" height="100%" fill="#f7f5ef"/>
<text x="24.0" y="44.0" font-family="Segoe UI, Arial, sans-serif" font-size="11" font-weight="700" text-anchor="start" fill="#6b4c16">Mark</text>
<text x="24.0" y="71.0" font-family="Segoe UI, Arial, sans-serif" font-size="11" font-weight="700" text-anchor="start" fill="#6d3b60">Repeat</text>
<text x="24.0" y="98.0" font-family="Segoe UI, Arial, sans-serif" font-size="11" font-weight="700" text-anchor="start" fill="#4c6232">Key</text>
<text x="24.0" y="126.0" font-family="Segoe UI, Arial, sans-serif" font-size="11" font-weight="700" text-anchor="start" fill="#6b4c16">Meter</text>
<text x="24.0" y="193.0" font-family="Segoe UI, Arial, sans-serif" font-size="11" font-weight="700" text-anchor="start" fill="#1e526f">Tempo</text>
<line x1="82.0" y1="27" x2="1566.0" y2="27" stroke="#d7d0c2" stroke-width="1"/>
<rect x="82.0" y="160.0" width="47.0" height="46" fill="#ffffff" stroke="#ddd6c8" stroke-width="1"/>
<line x1="82.0" y1="26" x2="82.0" y2="206.0" stroke="#cbc3b5" stroke-width="1"/>
<rect x="90.4" y="82.0" width="30.3" height="22" rx="4" fill="#e4eed1" stroke="#8da969"/><text x="105.5" y="97.0" font-family="Segoe UI, Arial, sans-serif" font-size="11" font-weight="700" text-anchor="middle" fill="#222">2♭</text>
<text x="105.5" y="122.0" font-family="Segoe UI, Arial, sans-serif" font-size="10" font-weight="700" text-anchor="middle" fill="#222">4</text><line x1="95.5" y1="126.0" x2="115.5" y2="126.0" stroke="#5f512f" stroke-width="1"/><text x="105.5" y="137.0" font-family="Segoe UI, Arial, sans-serif" font-size="10" font-weight="700" text-anchor="middle" fill="#222">4</text>
<text x="105.5" y="192.0" font-family="Segoe UI, Arial, sans-serif" class="music" font-size="11" font-weight="700" text-anchor="middle" fill="#1e526f">♩=126</text>
<text x="105.5" y="224.0" font-family="Segoe UI, Arial, sans-serif" font-size="10" font-weight="400" text-anchor="middle" fill="#636363">1</text>
<rect x="129.0" y="160.0" width="70.0" height="46" rx="4" fill="#ece8de" stroke="#c8c0b1" stroke-dasharray="4 3"/>
<line x1="137.0" y1="183.0" x2="191.0" y2="183.0" stroke="#8f8778" stroke-width="1.4"/>
<text x="164.0" y="177.0" font-family="Segoe UI, Arial, sans-serif" font-size="11" font-weight="700" text-anchor="middle" fill="#5e594f">--6--</text>
<text x="164.0" y="223.0" font-family="Segoe UI, Arial, sans-serif" font-size="9" font-weight="400" text-anchor="middle" fill="#777066">2-7</text>
<rect x="199.0" y="160.0" width="34.0" height="46" fill="#ffffff" stroke="#ddd6c8" stroke-width="1"/>
<line x1="199.0" y1="26" x2="199.0" y2="206.0" stroke="#cbc3b5" stroke-width="1"/>
<line x1="231.0" y1="26.0" x2="231.0" y2="206.0" stroke="#27221b" stroke-width="1.2"/><line x1="235.0" y1="26.0" x2="235.0" y2="206.0" stroke="#27221b" stroke-width="1.2"/>
<text x="216.0" y="224.0" font-family="Segoe UI, Arial, sans-serif" font-size="10" font-weight="400" text-anchor="middle" fill="#636363">8</text>
<rect x="233.0" y="160.0" width="34.0" height="46" fill="#fbfaf6" stroke="#ddd6c8" stroke-width="1"/>
<line x1="233.0" y1="26" x2="233.0" y2="206.0" stroke="#cbc3b5" stroke-width="1"/>
<rect x="239.0" y="28.0" width="22.0" height="22" rx="4" fill="#ffe7a8" stroke="#c18a18"/><text x="250.0" y="43.0" font-family="Segoe UI, Arial, sans-serif" font-size="13" font-weight="700" text-anchor="middle" fill="#222">A</text>
<text x="250.0" y="224.0" font-family="Segoe UI, Arial, sans-serif" font-size="10" font-weight="400" text-anchor="middle" fill="#636363">9</text>
<rect x="267.0" y="160.0" width="70.0" height="46" rx="4" fill="#ece8de" stroke="#c8c0b1" stroke-dasharray="4 3"/>
<line x1="275.0" y1="183.0" x2="329.0" y2="183.0" stroke="#8f8778" stroke-width="1.4"/>
<text x="302.0" y="177.0" font-family="Segoe UI, Arial, sans-serif" font-size="11" font-weight="700" text-anchor="middle" fill="#5e594f">--14--</text>
<text x="302.0" y="223.0" font-family="Segoe UI, Arial, sans-serif" font-size="9" font-weight="400" text-anchor="middle" fill="#777066">10-23</text>
<rect x="337.0" y="160.0" width="34.0" height="46" fill="#fbfaf6" stroke="#ddd6c8" stroke-width="1"/>
<line x1="337.0" y1="26" x2="337.0" y2="206.0" stroke="#cbc3b5" stroke-width="1"/>
<line x1="369.0" y1="26.0" x2="369.0" y2="206.0" stroke="#27221b" stroke-width="1.2"/><line x1="373.0" y1="26.0" x2="373.0" y2="206.0" stroke="#27221b" stroke-width="1.2"/>
<text x="354.0" y="224.0" font-family="Segoe UI, Arial, sans-serif" font-size="10" font-weight="400" text-anchor="middle" fill="#636363">24</text>
<rect x="371.0" y="160.0" width="34.0" height="46" fill="#ffffff" stroke="#ddd6c8" stroke-width="1"/>
<line x1="371.0" y1="26" x2="371.0" y2="206.0" stroke="#cbc3b5" stroke-width="1"/>
<rect x="377.0" y="28.0" width="22.0" height="22" rx="4" fill="#ffe7a8" stroke="#c18a18"/><text x="388.0" y="43.0" font-family="Segoe UI, Arial, sans-serif" font-size="13" font-weight="700" text-anchor="middle" fill="#222">B</text>
<text x="388.0" y="224.0" font-family="Segoe UI, Arial, sans-serif" font-size="10" font-weight="400" text-anchor="middle" fill="#636363">25</text>
<rect x="405.0" y="160.0" width="70.0" height="46" rx="4" fill="#ece8de" stroke="#c8c0b1" stroke-dasharray="4 3"/>
<line x1="413.0" y1="183.0" x2="467.0" y2="183.0" stroke="#8f8778" stroke-width="1.4"/>
<text x="440.0" y="177.0" font-family="Segoe UI, Arial, sans-serif" font-size="11" font-weight="700" text-anchor="middle" fill="#5e594f">--15--</text>
<text x="440.0" y="223.0" font-family="Segoe UI, Arial, sans-serif" font-size="9" font-weight="400" text-anchor="middle" fill="#777066">26-40</text>
<rect x="475.0" y="160.0" width="34.0" height="46" fill="#ffffff" stroke="#ddd6c8" stroke-width="1"/>
<line x1="475.0" y1="26" x2="475.0" y2="206.0" stroke="#cbc3b5" stroke-width="1"/>
<line x1="507.0" y1="26.0" x2="507.0" y2="206.0" stroke="#27221b" stroke-width="1.2"/><line x1="511.0" y1="26.0" x2="511.0" y2="206.0" stroke="#27221b" stroke-width="1.2"/>
<text x="492.0" y="224.0" font-family="Segoe UI, Arial, sans-serif" font-size="10" font-weight="400" text-anchor="middle" fill="#636363">41</text>
<rect x="509.0" y="160.0" width="34.0" height="46" fill="#fbfaf6" stroke="#ddd6c8" stroke-width="1"/>
<line x1="509.0" y1="26" x2="509.0" y2="206.0" stroke="#cbc3b5" stroke-width="1"/>
<rect x="515.0" y="28.0" width="22.0" height="22" rx="4" fill="#ffe7a8" stroke="#c18a18"/><text x="526.0" y="43.0" font-family="Segoe UI, Arial, sans-serif" font-size="13" font-weight="700" text-anchor="middle" fill="#222">C</text>
<text x="526.0" y="224.0" font-family="Segoe UI, Arial, sans-serif" font-size="10" font-weight="400" text-anchor="middle" fill="#636363">42</text>
<rect x="543.0" y="160.0" width="70.0" height="46" rx="4" fill="#ece8de" stroke="#c8c0b1" stroke-dasharray="4 3"/>
<line x1="551.0" y1="183.0" x2="605.0" y2="183.0" stroke="#8f8778" stroke-width="1.4"/>
<text x="578.0" y="177.0" font-family="Segoe UI, Arial, sans-serif" font-size="11" font-weight="700" text-anchor="middle" fill="#5e594f">--6--</text>
<text x="578.0" y="223.0" font-family="Segoe UI, Arial, sans-serif" font-size="9" font-weight="400" text-anchor="middle" fill="#777066">43-48</text>
<rect x="613.0" y="160.0" width="34.0" height="46" fill="#fbfaf6" stroke="#ddd6c8" stroke-width="1"/>
<line x1="613.0" y1="26" x2="613.0" y2="206.0" stroke="#cbc3b5" stroke-width="1"/>
<line x1="645.0" y1="26.0" x2="645.0" y2="206.0" stroke="#27221b" stroke-width="1.2"/><line x1="649.0" y1="26.0" x2="649.0" y2="206.0" stroke="#27221b" stroke-width="1.2"/>
<text x="630.0" y="224.0" font-family="Segoe UI, Arial, sans-serif" font-size="10" font-weight="400" text-anchor="middle" fill="#636363">49</text>
<rect x="647.0" y="160.0" width="34.0" height="46" fill="#ffffff" stroke="#ddd6c8" stroke-width="1"/>
<line x1="647.0" y1="26" x2="647.0" y2="206.0" stroke="#cbc3b5" stroke-width="1"/>
<rect x="653.0" y="28.0" width="22.0" height="22" rx="4" fill="#ffe7a8" stroke="#c18a18"/><text x="664.0" y="43.0" font-family="Segoe UI, Arial, sans-serif" font-size="13" font-weight="700" text-anchor="middle" fill="#222">D</text>
<text x="664.0" y="224.0" font-family="Segoe UI, Arial, sans-serif" font-size="10" font-weight="400" text-anchor="middle" fill="#636363">50</text>
<rect x="681.0" y="160.0" width="70.0" height="46" rx="4" fill="#ece8de" stroke="#c8c0b1" stroke-dasharray="4 3"/>
<line x1="689.0" y1="183.0" x2="743.0" y2="183.0" stroke="#8f8778" stroke-width="1.4"/>
<text x="716.0" y="177.0" font-family="Segoe UI, Arial, sans-serif" font-size="11" font-weight="700" text-anchor="middle" fill="#5e594f">--13--</text>
<text x="716.0" y="223.0" font-family="Segoe UI, Arial, sans-serif" font-size="9" font-weight="400" text-anchor="middle" fill="#777066">51-63</text>
<rect x="751.0" y="160.0" width="34.0" height="46" fill="#ffffff" stroke="#ddd6c8" stroke-width="1"/>
<line x1="751.0" y1="26" x2="751.0" y2="206.0" stroke="#cbc3b5" stroke-width="1"/>
<text x="768.0" y="192.0" font-family="Segoe UI, Arial, sans-serif" class="music" font-size="11" font-weight="700" text-anchor="middle" fill="#1e526f">rit</text>
<text x="768.0" y="224.0" font-family="Segoe UI, Arial, sans-serif" font-size="10" font-weight="400" text-anchor="middle" fill="#636363">64</text>
<rect x="785.0" y="160.0" width="34.0" height="46" fill="#fbfaf6" stroke="#ddd6c8" stroke-width="1"/>
<line x1="785.0" y1="26" x2="785.0" y2="206.0" stroke="#cbc3b5" stroke-width="1"/>
<line x1="817.0" y1="26.0" x2="817.0" y2="206.0" stroke="#27221b" stroke-width="1.2"/><line x1="821.0" y1="26.0" x2="821.0" y2="206.0" stroke="#27221b" stroke-width="1.2"/>
<text x="802.0" y="224.0" font-family="Segoe UI, Arial, sans-serif" font-size="10" font-weight="400" text-anchor="middle" fill="#636363">65</text>
<rect x="819.0" y="160.0" width="40.0" height="46" fill="#ffffff" stroke="#ddd6c8" stroke-width="1"/>
<line x1="819.0" y1="26" x2="819.0" y2="206.0" stroke="#cbc3b5" stroke-width="1"/>
<rect x="828.0" y="28.0" width="22.0" height="22" rx="4" fill="#ffe7a8" stroke="#c18a18"/><text x="839.0" y="43.0" font-family="Segoe UI, Arial, sans-serif" font-size="13" font-weight="700" text-anchor="middle" fill="#222">E</text>
<text x="839.0" y="122.0" font-family="Segoe UI, Arial, sans-serif" font-size="10" font-weight="700" text-anchor="middle" fill="#222">3</text><line x1="829.0" y1="126.0" x2="849.0" y2="126.0" stroke="#5f512f" stroke-width="1"/><text x="839.0" y="137.0" font-family="Segoe UI, Arial, sans-serif" font-size="10" font-weight="700" text-anchor="middle" fill="#222">4</text>
<text x="839.0" y="192.0" font-family="Segoe UI, Arial, sans-serif" class="music" font-size="11" font-weight="700" text-anchor="middle" fill="#1e526f">♩=88</text>
<text x="839.0" y="224.0" font-family="Segoe UI, Arial, sans-serif" font-size="10" font-weight="400" text-anchor="middle" fill="#636363">66</text>
<rect x="859.0" y="160.0" width="70.0" height="46" rx="4" fill="#ece8de" stroke="#c8c0b1" stroke-dasharray="4 3"/>
<line x1="867.0" y1="183.0" x2="921.0" y2="183.0" stroke="#8f8778" stroke-width="1.4"/>
<text x="894.0" y="177.0" font-family="Segoe UI, Arial, sans-serif" font-size="11" font-weight="700" text-anchor="middle" fill="#5e594f">--3--</text>
<text x="894.0" y="223.0" font-family="Segoe UI, Arial, sans-serif" font-size="9" font-weight="400" text-anchor="middle" fill="#777066">67-69</text>
<rect x="929.0" y="160.0" width="42.0" height="46" fill="#ffffff" stroke="#ddd6c8" stroke-width="1"/>
<line x1="929.0" y1="26" x2="929.0" y2="206.0" stroke="#cbc3b5" stroke-width="1"/>
<text x="950.0" y="192.0" font-family="Segoe UI, Arial, sans-serif" class="music" font-size="11" font-weight="700" text-anchor="middle" fill="#1e526f">accel</text>
<text x="950.0" y="224.0" font-family="Segoe UI, Arial, sans-serif" font-size="10" font-weight="400" text-anchor="middle" fill="#636363">70</text>
<rect x="971.0" y="160.0" width="34.0" height="46" fill="#fbfaf6" stroke="#ddd6c8" stroke-width="1"/>
<line x1="971.0" y1="26" x2="971.0" y2="206.0" stroke="#cbc3b5" stroke-width="1"/>
<rect x="1005.0" y="160.0" width="34.0" height="46" fill="#ffffff" stroke="#ddd6c8" stroke-width="1"/>
<line x1="1005.0" y1="26" x2="1005.0" y2="206.0" stroke="#cbc3b5" stroke-width="1"/>
<rect x="1039.0" y="160.0" width="34.0" height="46" fill="#fbfaf6" stroke="#ddd6c8" stroke-width="1"/>
<line x1="1039.0" y1="26" x2="1039.0" y2="206.0" stroke="#cbc3b5" stroke-width="1"/>
<line x1="1071.0" y1="26.0" x2="1071.0" y2="206.0" stroke="#27221b" stroke-width="1.2"/><line x1="1075.0" y1="26.0" x2="1075.0" y2="206.0" stroke="#27221b" stroke-width="1.2"/>
<text x="1056.0" y="224.0" font-family="Segoe UI, Arial, sans-serif" font-size="10" font-weight="400" text-anchor="middle" fill="#636363">73</text>
<rect x="1073.0" y="160.0" width="43.0" height="46" fill="#ffffff" stroke="#ddd6c8" stroke-width="1"/>
<line x1="1073.0" y1="26" x2="1073.0" y2="206.0" stroke="#cbc3b5" stroke-width="1"/>
<rect x="1083.5" y="28.0" width="22.0" height="22" rx="4" fill="#ffe7a8" stroke="#c18a18"/><text x="1094.5" y="43.0" font-family="Segoe UI, Arial, sans-serif" font-size="13" font-weight="700" text-anchor="middle" fill="#222">F</text>
<text x="1094.5" y="122.0" font-family="Segoe UI, Arial, sans-serif" font-size="10" font-weight="700" text-anchor="middle" fill="#222">4</text><line x1="1084.5" y1="126.0" x2="1104.5" y2="126.0" stroke="#5f512f" stroke-width="1"/><text x="1094.5" y="137.0" font-family="Segoe UI, Arial, sans-serif" font-size="10" font-weight="700" text-anchor="middle" fill="#222">4</text>
<text x="1094.5" y="184.0" font-family="Segoe UI, Arial, sans-serif" class="music" font-size="9" font-weight="700" text-anchor="middle" fill="#1e526f">T.I</text>
<text x="1094.5" y="196.0" font-family="Segoe UI, Arial, sans-serif" class="music" font-size="10" font-weight="700" text-anchor="middle" fill="#1e526f">♩=126</text>
<text x="1094.5" y="224.0" font-family="Segoe UI, Arial, sans-serif" font-size="10" font-weight="400" text-anchor="middle" fill="#636363">74</text>
<rect x="1116.0" y="160.0" width="70.0" height="46" rx="4" fill="#ece8de" stroke="#c8c0b1" stroke-dasharray="4 3"/>
<line x1="1124.0" y1="183.0" x2="1178.0" y2="183.0" stroke="#8f8778" stroke-width="1.4"/>
<text x="1151.0" y="177.0" font-family="Segoe UI, Arial, sans-serif" font-size="11" font-weight="700" text-anchor="middle" fill="#5e594f">--10--</text>
<text x="1151.0" y="223.0" font-family="Segoe UI, Arial, sans-serif" font-size="9" font-weight="400" text-anchor="middle" fill="#777066">75-84</text>
<rect x="1186.0" y="160.0" width="34.0" height="46" fill="#ffffff" stroke="#ddd6c8" stroke-width="1"/>
<line x1="1186.0" y1="26" x2="1186.0" y2="206.0" stroke="#cbc3b5" stroke-width="1"/>
<line x1="1218.0" y1="26.0" x2="1218.0" y2="206.0" stroke="#27221b" stroke-width="1.2"/><line x1="1222.0" y1="26.0" x2="1222.0" y2="206.0" stroke="#27221b" stroke-width="1.2"/>
<text x="1203.0" y="224.0" font-family="Segoe UI, Arial, sans-serif" font-size="10" font-weight="400" text-anchor="middle" fill="#636363">85</text>
<rect x="1220.0" y="160.0" width="34.0" height="46" fill="#fbfaf6" stroke="#ddd6c8" stroke-width="1"/>
<line x1="1220.0" y1="26" x2="1220.0" y2="206.0" stroke="#cbc3b5" stroke-width="1"/>
<rect x="1226.0" y="28.0" width="22.0" height="22" rx="4" fill="#ffe7a8" stroke="#c18a18"/><text x="1237.0" y="43.0" font-family="Segoe UI, Arial, sans-serif" font-size="13" font-weight="700" text-anchor="middle" fill="#222">G</text>
<text x="1237.0" y="224.0" font-family="Segoe UI, Arial, sans-serif" font-size="10" font-weight="400" text-anchor="middle" fill="#636363">86</text>
<rect x="1254.0" y="160.0" width="70.0" height="46" rx="4" fill="#ece8de" stroke="#c8c0b1" stroke-dasharray="4 3"/>
<line x1="1262.0" y1="183.0" x2="1316.0" y2="183.0" stroke="#8f8778" stroke-width="1.4"/>
<text x="1289.0" y="177.0" font-family="Segoe UI, Arial, sans-serif" font-size="11" font-weight="700" text-anchor="middle" fill="#5e594f">--14--</text>
<text x="1289.0" y="223.0" font-family="Segoe UI, Arial, sans-serif" font-size="9" font-weight="400" text-anchor="middle" fill="#777066">87-100</text>
<rect x="1324.0" y="160.0" width="34.0" height="46" fill="#fbfaf6" stroke="#ddd6c8" stroke-width="1"/>
<line x1="1324.0" y1="26" x2="1324.0" y2="206.0" stroke="#cbc3b5" stroke-width="1"/>
<line x1="1356.0" y1="26.0" x2="1356.0" y2="206.0" stroke="#27221b" stroke-width="1.2"/><line x1="1360.0" y1="26.0" x2="1360.0" y2="206.0" stroke="#27221b" stroke-width="1.2"/>
<text x="1341.0" y="224.0" font-family="Segoe UI, Arial, sans-serif" font-size="10" font-weight="400" text-anchor="middle" fill="#636363">101</text>
<rect x="1358.0" y="160.0" width="34.0" height="46" fill="#ffffff" stroke="#ddd6c8" stroke-width="1"/>
<line x1="1358.0" y1="26" x2="1358.0" y2="206.0" stroke="#cbc3b5" stroke-width="1"/>
<rect x="1364.0" y="28.0" width="22.0" height="22" rx="4" fill="#ffe7a8" stroke="#c18a18"/><text x="1375.0" y="43.0" font-family="Segoe UI, Arial, sans-serif" font-size="13" font-weight="700" text-anchor="middle" fill="#222">H</text>
<text x="1375.0" y="224.0" font-family="Segoe UI, Arial, sans-serif" font-size="10" font-weight="400" text-anchor="middle" fill="#636363">102</text>
<rect x="1392.0" y="160.0" width="70.0" height="46" rx="4" fill="#ece8de" stroke="#c8c0b1" stroke-dasharray="4 3"/>
<line x1="1400.0" y1="183.0" x2="1454.0" y2="183.0" stroke="#8f8778" stroke-width="1.4"/>
<text x="1427.0" y="177.0" font-family="Segoe UI, Arial, sans-serif" font-size="11" font-weight="700" text-anchor="middle" fill="#5e594f">--3--</text>
<text x="1427.0" y="223.0" font-family="Segoe UI, Arial, sans-serif" font-size="9" font-weight="400" text-anchor="middle" fill="#777066">103-105</text>
<rect x="1462.0" y="160.0" width="36.0" height="46" fill="#ffffff" stroke="#ddd6c8" stroke-width="1"/>
<line x1="1462.0" y1="26" x2="1462.0" y2="206.0" stroke="#cbc3b5" stroke-width="1"/>
<text x="1480.0" y="192.0" font-family="Segoe UI, Arial, sans-serif" class="music" font-size="11" font-weight="700" text-anchor="middle" fill="#1e526f">rall</text>
<text x="1480.0" y="224.0" font-family="Segoe UI, Arial, sans-serif" font-size="10" font-weight="400" text-anchor="middle" fill="#636363">106</text>
<rect x="1498.0" y="160.0" width="34.0" height="46" fill="#fbfaf6" stroke="#ddd6c8" stroke-width="1"/>
<line x1="1498.0" y1="26" x2="1498.0" y2="206.0" stroke="#cbc3b5" stroke-width="1"/>
<rect x="1532.0" y="160.0" width="34.0" height="46" fill="#ffffff" stroke="#ddd6c8" stroke-width="1"/>
<line x1="1532.0" y1="26" x2="1532.0" y2="206.0" stroke="#cbc3b5" stroke-width="1"/>
<line x1="1563.0" y1="26.0" x2="1563.0" y2="206.0" stroke="#27221b" stroke-width="1.2"/><line x1="1568.0" y1="26.0" x2="1568.0" y2="206.0" stroke="#27221b" stroke-width="3.6"/>
<text x="1549.0" y="224.0" font-family="Segoe UI, Arial, sans-serif" font-size="10" font-weight="400" text-anchor="middle" fill="#636363">108</text>
</svg>