<svg xmlns="http://www.w3.org/2000/svg" width="2029" height="238" viewBox="0 0 2029 238">
<style>.music{font-family:"Leland","Bravura","Segoe UI Symbol","Noto Music",sans-serif;}</style>
<rect width="100%" height="100%" fill="#f7f5ef"/>
<text x="24.0" y="44.0" font-family="Segoe UI, Arial, sans-serif" font-size="11" font-weight="700" text-anchor="start" fill="#6b4c16">Mark</text>
<text x="24.0" y="71.0" font-family="Segoe UI, Arial, sans-serif" font-size="11" font-weight="700" text-anchor="start" fill="#6d3b60">Repeat</text>
<text x="24.0" y="98.0" font-family="Segoe UI, Arial, sans-serif" font-size="11" font-weight="700" text-anchor="start" fill="#4c6232">Key</text>
<text x="24.0" y="126.0" font-family="Segoe UI, Arial, sans-serif" font-size="11" font-weight="700" text-anchor="start" fill="#6b4c16">Meter</text>
<text x="24.0" y="193.0" font-family="Segoe UI, Arial, sans-serif" font-size="11" font-weight="700" text-anchor="start" fill="#1e526f">Tempo</text>
<line x1="82.0" y1="27" x2="1991.0" y2="27" stroke="#d7d0c2" stroke-width="1"/>
<rect x="82.0" y="160.0" width="47.0" height="46" fill="#ffffff" stroke="#ddd6c8" stroke-width="1"/>
<line x1="82.0" y1="26" x2="82.0" y2="206.0" stroke="#cbc3b5" stroke-width="1"/>
<rect x="91.5" y="82.0" width="28.0" height="22" rx="4" fill="#e4eed1" stroke="#8da969"/><text x="105.5" y="97.0" font-family="Segoe UI, Arial, sans-serif" font-size="11" font-weight="700" text-anchor="middle" fill="#222">2#</text>
<text x="105.5" y="122.0" font-family="Segoe UI, Arial, sans-serif" font-size="10" font-weight="700" text-anchor="middle" fill="#222">5</text><line x1="95.5" y1="126.0" x2="115.5" y2="126.0" stroke="#5f512f" stroke-width="1"/><text x="105.5" y="137.0" font-family="Segoe UI, Arial, sans-serif" font-size="10" font-weight="700" text-anchor="middle" fill="#222">4</text>
<text x="105.5" y="192.0" font-family="Segoe UI, Arial, sans-serif" class="music" font-size="11" font-weight="700" text-anchor="middle" fill="#1e526f">♩=220</text>
<text x="105.5" y="224.0" font-family="Segoe UI, Arial, sans-serif" font-size="10" font-weight="400" text-anchor="middle" fill="#636363">1</text>
<rect x="129.0" y="160.0" width="34.0" height="46" fill="#fbfaf6" stroke="#ddd6c8" stroke-width="1"/>
<line x1="129.0" y1="26" x2="129.0" y2="206.0" stroke="#cbc3b5" stroke-width="1"/>
<rect x="163.0" y="160.0" width="34.0" height="46" fill="#ffffff" stroke="#ddd6c8" stroke-width="1"/>
<line x1="163.0" y1="26" x2="163.0" y2="206.0" stroke="#cbc3b5" stroke-width="1"/>
<rect x="197.0" y="160.0" width="34.0" height="46" fill="#fbfaf6" stroke="#ddd6c8" stroke-width="1"/>
<line x1="197.0" y1="26" x2="197.0" y2="206.0" stroke="#cbc3b5" stroke-width="1"/>
<text x="214.0" y="122.0" font-family="Segoe UI, Arial, sans-serif" font-size="10" font-weight="700" text-anchor="middle" fill="#222">4</text><line x1="204.0" y1="126.0" x2="224.0" y2="126.0" stroke="#5f512f" stroke-width="1"/><text x="214.0" y="137.0" font-family="Segoe UI, Arial, sans-serif" font-size="10" font-weight="700" text-anchor="middle" fill="#222">4</text>
<text x="214.0" y="224.0" font-family="Segoe UI, Arial, sans-serif" font-size="10" font-weight="400" text-anchor="middle" fill="#636363">4</text>
<rect x="231.0" y="160.0" width="34.0" height="46" fill="#ffffff" stroke="#ddd6c8" stroke-width="1"/>
<line x1="231.0" y1="26" x2="231.0" y2="206.0" stroke="#cbc3b5" stroke-width="1"/>
<line x1="263.0" y1="26.0" x2="263.0" y2="206.0" stroke="#27221b" stroke-width="1.2"/><line x1="267.0" y1="26.0" x2="267.0" y2="206.0" stroke="#27221b" stroke-width="1.2"/>
<text x="248.0" y="224.0" font-family="Segoe UI, Arial, sans-serif" font-size="10" font-weight="400" text-anchor="middle" fill="#636363">5</text>
<rect x="265.0" y="160.0" width="34.0" height="46" fill="#fbfaf6" stroke="#ddd6c8" stroke-width="1"/>
<line x1="265.0" y1="26" x2="265.0" y2="206.0" stroke="#cbc3b5" stroke-width="1"/>
<rect x="271.0" y="28.0" width="22.0" height="22" rx="4" fill="#ffe7a8" stroke="#c18a18"/><text x="282.0" y="43.0" font-family="Segoe UI, Arial, sans-serif" font-size="13" font-weight="700" text-anchor="middle" fill="#222">A</text>
<text x="282.0" y="122.0" font-family="Segoe UI, Arial, sans-serif" font-size="10" font-weight="700" text-anchor="middle" fill="#222">3</text><line x1="272.0" y1="126.0" x2="292.0" y2="126.0" stroke="#5f512f" stroke-width="1"/><text x="282.0" y="137.0" font-family="Segoe UI, Arial, sans-serif" font-size="10" font-weight="700" text-anchor="middle" fill="#222">2</text>
<text x="282.0" y="224.0" font-family="Segoe UI, Arial, sans-serif" font-size="10" font-weight="400" text-anchor="middle" fill="#636363">6</text>
<rect x="299.0" y="160.0" width="70.0" height="46" rx="4" fill="#ece8de" stroke="#c8c0b1" stroke-dasharray="4 3"/>
<line x1="307.0" y1="183.0" x2="361.0" y2="183.0" stroke="#8f8778" stroke-width="1.4"/>
<text x="334.0" y="177.0" font-family="Segoe UI, Arial, sans-serif" font-size="11" font-weight="700" text-anchor="middle" fill="#5e594f">--7--</text>
<text x="334.0" y="223.0" font-family="Segoe UI, Arial, sans-serif" font-size="9" font-weight="400" text-anchor="middle" fill="#777066">7-13</text>
<rect x="369.0" y="160.0" width="34.0" height="46" fill="#fbfaf6" stroke="#ddd6c8" stroke-width="1"/>
<line x1="369.0" y1="26" x2="369.0" y2="206.0" stroke="#cbc3b5" stroke-width="1"/>
<text x="386.0" y="122.0" font-family="Segoe UI, Arial, sans-serif" font-size="10" font-weight="700" text-anchor="middle" fill="#222">5</text><line x1="376.0" y1="126.0" x2="396.0" y2="126.0" stroke="#5f512f" stroke-width="1"/><text x="386.0" y="137.0" font-family="Segoe UI, Arial, sans-serif" font-size="10" font-weight="700" text-anchor="middle" fill="#222">4</text>
<text x="386.0" y="224.0" font-family="Segoe UI, Arial, sans-serif" font-size="10" font-weight="400" text-anchor="middle" fill="#636363">14</text>
<rect x="403.0" y="160.0" width="34.0" height="46" fill="#ffffff" stroke="#ddd6c8" stroke-width="1"/>
<line x1="403.0" y1="26" x2="403.0" y2="206.0" stroke="#cbc3b5" stroke-width="1"/>
<text x="420.0" y="224.0" font-family="Segoe UI, Arial, sans-serif" font-size="10" font-weight="400" text-anchor="middle" fill="#636363">15</text>
<rect x="437.0" y="160.0" width="34.0" height="46" fill="#fbfaf6" stroke="#ddd6c8" stroke-width="1"/>
<line x1="437.0" y1="26" x2="437.0" y2="206.0" stroke="#cbc3b5" stroke-width="1"/>
<text x="454.0" y="122.0" font-family="Segoe UI, Arial, sans-serif" font-size="10" font-weight="700" text-anchor="middle" fill="#222">3</text><line x1="444.0" y1="126.0" x2="464.0" y2="126.0" stroke="#5f512f" stroke-width="1"/><text x="454.0" y="137.0" font-family="Segoe UI, Arial, sans-serif" font-size="10" font-weight="700" text-anchor="middle" fill="#222">2</text>
<text x="454.0" y="224.0" font-family="Segoe UI, Arial, sans-serif" font-size="10" font-weight="400" text-anchor="middle" fill="#636363">16</text>
<rect x="471.0" y="160.0" width="34.0" height="46" fill="#ffffff" stroke="#ddd6c8" stroke-width="1"/>
<line x1="471.0" y1="26" x2="471.0" y2="206.0" stroke="#cbc3b5" stroke-width="1"/>
<text x="488.0" y="122.0" font-family="Segoe UI, Arial, sans-serif" font-size="10" font-weight="700" text-anchor="middle" fill="#222">5</text><line x1="478.0" y1="126.0" x2="498.0" y2="126.0" stroke="#5f512f" stroke-width="1"/><text x="488.0" y="137.0" font-family="Segoe UI, Arial, sans-serif" font-size="10" font-weight="700" text-anchor="middle" fill="#222">4</text>
<text x="488.0" y="224.0" font-family="Segoe UI, Arial, sans-serif" font-size="10" font-weight="400" text-anchor="middle" fill="#636363">17</text>
<rect x="505.0" y="160.0" width="34.0" height="46" fill="#fbfaf6" stroke="#ddd6c8" stroke-width="1"/>
<line x1="505.0" y1="26" x2="505.0" y2="206.0" stroke="#cbc3b5" stroke-width="1"/>
<rect x="539.0" y="160.0" width="34.0" height="46" fill="#ffffff" stroke="#ddd6c8" stroke-width="1"/>
<line x1="539.0" y1="26" x2="539.0" y2="206.0" stroke="#cbc3b5" stroke-width="1"/>
<rect x="573.0" y="160.0" width="34.0" height="46" fill="#fbfaf6" stroke="#ddd6c8" stroke-width="1"/>
<line x1="573.0" y1="26" x2="573.0" y2="206.0" stroke="#cbc3b5" stroke-width="1"/>
<text x="590.0" y="122.0" font-family="Segoe UI, Arial, sans-serif" font-size="10" font-weight="700" text-anchor="middle" fill="#222">3</text><line x1="580.0" y1="126.0" x2="600.0" y2="126.0" stroke="#5f512f" stroke-width="1"/><text x="590.0" y="137.0" font-family="Segoe UI, Arial, sans-serif" font-size="10" font-weight="700" text-anchor="middle" fill="#222">2</text>
<text x="590.0" y="224.0" font-family="Segoe UI, Arial, sans-serif" font-size="10" font-weight="400" text-anchor="middle" fill="#636363">20</text>
<rect x="607.0" y="160.0" width="34.0" height="46" fill="#ffffff" stroke="#ddd6c8" stroke-width="1"/>
<line x1="607.0" y1="26" x2="607.0" y2="206.0" stroke="#cbc3b5" stroke-width="1"/>
<line x1="639.0" y1="26.0" x2="639.0" y2="206.0" stroke="#27221b" stroke-width="1.2"/><line x1="643.0" y1="26.0" x2="643.0" y2="206.0" stroke="#27221b" stroke-width="1.2"/>
<text x="624.0" y="224.0" font-family="Segoe UI, Arial, sans-serif" font-size="10" font-weight="400" text-anchor="middle" fill="#636363">21</text>
<rect x="641.0" y="160.0" width="34.0" height="46" fill="#fbfaf6" stroke="#ddd6c8" stroke-width="1"/>
<line x1="641.0" y1="26" x2="641.0" y2="206.0" stroke="#cbc3b5" stroke-width="1"/>
<rect x="647.0" y="28.0" width="22.0" height="22" rx="4" fill="#ffe7a8" stroke="#c18a18"/><text x="658.0" y="43.0" font-family="Segoe UI, Arial, sans-serif" font-size="13" font-weight="700" text-anchor="middle" fill="#222">B</text>
<text x="658.0" y="224.0" font-family="Segoe UI, Arial, sans-serif" font-size="10" font-weight="400" text-anchor="middle" fill="#636363">22</text>
<rect x="675.0" y="160.0" width="70.0" height="46" rx="4" fill="#ece8de" stroke="#c8c0b1" stroke-dasharray="4 3"/>
<line x1="683.0" y1="183.0" x2="737.0" y2="183.0" stroke="#8f8778" stroke-width="1.4"/>
<text x="710.0" y="177.0" font-family="Segoe UI, Arial, sans-serif" font-size="11" font-weight="700" text-anchor="middle" fill="#5e594f">--20--</text>
<text x="710.0" y="223.0" font-family="Segoe UI, Arial, sans-serif" font-size="9" font-weight="400" text-anchor="middle" fill="#777066">23-42</text>
<rect x="745.0" y="160.0" width="34.0" height="46" fill="#fbfaf6" stroke="#ddd6c8" stroke-width="1"/>
<line x1="745.0" y1="26" x2="745.0" y2="206.0" stroke="#cbc3b5" stroke-width="1"/>
<line x1="777.0" y1="26.0" x2="777.0" y2="206.0" stroke="#27221b" stroke-width="1.2"/><line x1="781.0" y1="26.0" x2="781.0" y2="206.0" stroke="#27221b" stroke-width="1.2"/>
<text x="762.0" y="224.0" font-family="Segoe UI, Arial, sans-serif" font-size="10" font-weight="400" text-anchor="middle" fill="#636363">43</text>
<rect x="779.0" y="160.0" width="43.0" height="46" fill="#ffffff" stroke="#ddd6c8" stroke-width="1"/>
<line x1="779.0" y1="26" x2="779.0" y2="206.0" stroke="#cbc3b5" stroke-width="1"/>
<rect x="789.5" y="28.0" width="22.0" height="22" rx="4" fill="#ffe7a8" stroke="#c18a18"/><text x="800.5" y="43.0" font-family="Segoe UI, Arial, sans-serif" font-size="13" font-weight="700" text-anchor="middle" fill="#222">C</text>
<text x="800.5" y="122.0" font-family="Segoe UI, Arial, sans-serif" font-size="10" font-weight="700" text-anchor="middle" fill="#222">3</text><line x1="790.5" y1="126.0" x2="810.5" y2="126.0" stroke="#5f512f" stroke-width="1"/><text x="800.5" y="137.0" font-family="Segoe UI, Arial, sans-serif" font-size="10" font-weight="700" text-anchor="middle" fill="#222">4</text>
<text x="800.5" y="192.0" font-family="Segoe UI, Arial, sans-serif" class="music" font-size="11" font-weight="700" text-anchor="middle" fill="#1e526f">h=100</text>
<text x="800.5" y="224.0" font-family="Segoe UI, Arial, sans-serif" font-size="10" font-weight="400" text-anchor="middle" fill="#636363">44</text>
<rect x="822.0" y="160.0" width="70.0" height="46" rx="4" fill="#ece8de" stroke="#c8c0b1" stroke-dasharray="4 3"/>
<line x1="830.0" y1="183.0" x2="884.0" y2="183.0" stroke="#8f8778" stroke-width="1.4"/>
<text x="857.0" y="177.0" font-family="Segoe UI, Arial, sans-serif" font-size="11" font-weight="700" text-anchor="middle" fill="#5e594f">--30--</text>
<text x="857.0" y="223.0" font-family="Segoe UI, Arial, sans-serif" font-size="9" font-weight="400" text-anchor="middle" fill="#777066">45-74</text>
<rect x="892.0" y="160.0" width="34.0" height="46" fill="#ffffff" stroke="#ddd6c8" stroke-width="1"/>
<line x1="892.0" y1="26" x2="892.0" y2="206.0" stroke="#cbc3b5" stroke-width="1"/>
<text x="909.0" y="122.0" font-family="Segoe UI, Arial, sans-serif" font-size="10" font-weight="700" text-anchor="middle" fill="#222">5</text><line x1="899.0" y1="126.0" x2="919.0" y2="126.0" stroke="#5f512f" stroke-width="1"/><text x="909.0" y="137.0" font-family="Segoe UI, Arial, sans-serif" font-size="10" font-weight="700" text-anchor="middle" fill="#222">4</text>
<line x1="924.0" y1="26.0" x2="924.0" y2="206.0" stroke="#27221b" stroke-width="1.2"/><line x1="928.0" y1="26.0" x2="928.0" y2="206.0" stroke="#27221b" stroke-width="1.2"/>
<text x="909.0" y="224.0" font-family="Segoe UI, Arial, sans-serif" font-size="10" font-weight="400" text-anchor="middle" fill="#636363">75</text>
<rect x="926.0" y="160.0" width="34.0" height="46" fill="#fbfaf6" stroke="#ddd6c8" stroke-width="1"/>
<line x1="926.0" y1="26" x2="926.0" y2="206.0" stroke="#cbc3b5" stroke-width="1"/>
<rect x="932.0" y="28.0" width="22.0" height="22" rx="4" fill="#ffe7a8" stroke="#c18a18"/><text x="943.0" y="43.0" font-family="Segoe UI, Arial, sans-serif" font-size="13" font-weight="700" text-anchor="middle" fill="#222">D</text>
<text x="943.0" y="122.0" font-family="Segoe UI, Arial, sans-serif" font-size="10" font-weight="700" text-anchor="middle" fill="#222">3</text><line x1="933.0" y1="126.0" x2="953.0" y2="126.0" stroke="#5f512f" stroke-width="1"/><text x="943.0" y="137.0" font-family="Segoe UI, Arial, sans-serif" font-size="10" font-weight="700" text-anchor="middle" fill="#222">4</text>
<text x="943.0" y="224.0" font-family="Segoe UI, Arial, sans-serif" font-size="10" font-weight="400" text-anchor="middle" fill="#636363">76</text>
<rect x="960.0" y="160.0" width="70.0" height="46" rx="4" fill="#ece8de" stroke="#c8c0b1" stroke-dasharray="4 3"/>
<line x1="968.0" y1="183.0" x2="1022.0" y2="183.0" stroke="#8f8778" stroke-width="1.4"/>
<text x="995.0" y="177.0" font-family="Segoe UI, Arial, sans-serif" font-size="11" font-weight="700" text-anchor="middle" fill="#5e594f">--16--</text>
<text x="995.0" y="223.0" font-family="Segoe UI, Arial, sans-serif" font-size="9" font-weight="400" text-anchor="middle" fill="#777066">77-92</text>
<rect x="1030.0" y="160.0" width="43.0" height="46" fill="#fbfaf6" stroke="#ddd6c8" stroke-width="1"/>
<line x1="1030.0" y1="26" x2="1030.0" y2="206.0" stroke="#cbc3b5" stroke-width="1"/>
<text x="1051.5" y="184.0" font-family="Segoe UI, Arial, sans-serif" class="music" font-size="9" font-weight="700" text-anchor="middle" fill="#1e526f">rit</text>
<text x="1051.5" y="196.0" font-family="Segoe UI, Arial, sans-serif" class="music" font-size="10" font-weight="700" text-anchor="middle" fill="#1e526f">♩=275</text>
<text x="1051.5" y="224.0" font-family="Segoe UI, Arial, sans-serif" font-size="10" font-weight="400" text-anchor="middle" fill="#636363">93</text>
<rect x="1073.0" y="160.0" width="70.0" height="46" rx="4" fill="#ece8de" stroke="#c8c0b1" stroke-dasharray="4 3"/>
<line x1="1081.0" y1="183.0" x2="1135.0" y2="183.0" stroke="#8f8778" stroke-width="1.4"/>
<text x="1108.0" y="177.0" font-family="Segoe UI, Arial, sans-serif" font-size="11" font-weight="700" text-anchor="middle" fill="#5e594f">--5--</text>
<text x="1108.0" y="223.0" font-family="Segoe UI, Arial, sans-serif" font-size="9" font-weight="400" text-anchor="middle" fill="#777066">94-98</text>
<rect x="1143.0" y="160.0" width="34.0" height="46" fill="#fbfaf6" stroke="#ddd6c8" stroke-width="1"/>
<line x1="1143.0" y1="26" x2="1143.0" y2="206.0" stroke="#cbc3b5" stroke-width="1"/>
<line x1="1175.0" y1="26.0" x2="1175.0" y2="206.0" stroke="#27221b" stroke-width="1.2"/><line x1="1179.0" y1="26.0" x2="1179.0" y2="206.0" stroke="#27221b" stroke-width="1.2"/>
<text x="1160.0" y="224.0" font-family="Segoe UI, Arial, sans-serif" font-size="10" font-weight="400" text-anchor="middle" fill="#636363">99</text>
<rect x="1177.0" y="160.0" width="40.0" height="46" fill="#ffffff" stroke="#ddd6c8" stroke-width="1"/>
<line x1="1177.0" y1="26" x2="1177.0" y2="206.0" stroke="#cbc3b5" stroke-width="1"/>
<rect x="1186.0" y="28.0" width="22.0" height="22" rx="4" fill="#ffe7a8" stroke="#c18a18"/><text x="1197.0" y="43.0" font-family="Segoe UI, Arial, sans-serif" font-size="13" font-weight="700" text-anchor="middle" fill="#222">E</text>
<text x="1197.0" y="122.0" font-family="Segoe UI, Arial, sans-serif" font-size="10" font-weight="700" text-anchor="middle" fill="#222">4</text><line x1="1187.0" y1="126.0" x2="1207.0" y2="126.0" stroke="#5f512f" stroke-width="1"/><text x="1197.0" y="137.0" font-family="Segoe UI, Arial, sans-serif" font-size="10" font-weight="700" text-anchor="middle" fill="#222">4</text>
<text x="1197.0" y="192.0" font-family="Segoe UI, Arial, sans-serif" class="music" font-size="11" font-weight="700" text-anchor="middle" fill="#1e526f">♩=80</text>
<text x="1197.0" y="224.0" font-family="Segoe UI, Arial, sans-serif" font-size="10" font-weight="400" text-anchor="middle" fill="#636363">100</text>
<rect x="1217.0" y="160.0" width="70.0" height="46" rx="4" fill="#ece8de" stroke="#c8c0b1" stroke-dasharray="4 3"/>
<line x1="1225.0" y1="183.0" x2="1279.0" y2="183.0" stroke="#8f8778" stroke-width="1.4"/>
<text x="1252.0" y="177.0" font-family="Segoe UI, Arial, sans-serif" font-size="11" font-weight="700" text-anchor="middle" fill="#5e594f">--3--</text>
<text x="1252.0" y="223.0" font-family="Segoe UI, Arial, sans-serif" font-size="9" font-weight="400" text-anchor="middle" fill="#777066">101-103</text>
<rect x="1287.0" y="160.0" width="34.0" height="46" fill="#ffffff" stroke="#ddd6c8" stroke-width="1"/>
<line x1="1287.0" y1="26" x2="1287.0" y2="206.0" stroke="#cbc3b5" stroke-width="1"/>
<line x1="1319.0" y1="26.0" x2="1319.0" y2="206.0" stroke="#27221b" stroke-width="1.2"/><line x1="1323.0" y1="26.0" x2="1323.0" y2="206.0" stroke="#27221b" stroke-width="1.2"/>
<text x="1304.0" y="224.0" font-family="Segoe UI, Arial, sans-serif" font-size="10" font-weight="400" text-anchor="middle" fill="#636363">104</text>
<rect x="1321.0" y="160.0" width="34.0" height="46" fill="#fbfaf6" stroke="#ddd6c8" stroke-width="1"/>
<line x1="1321.0" y1="26" x2="1321.0" y2="206.0" stroke="#cbc3b5" stroke-width="1"/>
<rect x="1327.0" y="28.0" width="22.0" height="22" rx="4" fill="#ffe7a8" stroke="#c18a18"/><text x="1338.0" y="43.0" font-family="Segoe UI, Arial, sans-serif" font-size="13" font-weight="700" text-anchor="middle" fill="#222">F</text>
<text x="1338.0" y="224.0" font-family="Segoe UI, Arial, sans-serif" font-size="10" font-weight="400" text-anchor="middle" fill="#636363">105</text>
<rect x="1355.0" y="160.0" width="70.0" height="46" rx="4" fill="#ece8de" stroke="#c8c0b1" stroke-dasharray="4 3"/>
<line x1="1363.0" y1="183.0" x2="1417.0" y2="183.0" stroke="#8f8778" stroke-width="1.4"/>
<text x="1390.0" y="177.0" font-family="Segoe UI, Arial, sans-serif" font-size="11" font-weight="700" text-anchor="middle" fill="#5e594f">--11--</text>
<text x="1390.0" y="223.0" font-family="Segoe UI, Arial, sans-serif" font-size="9" font-weight="400" text-anchor="middle" fill="#777066">106-116</text>
<rect x="1425.0" y="160.0" width="34.0" height="46" fill="#fbfaf6" stroke="#ddd6c8" stroke-width="1"/>
<line x1="1425.0" y1="26" x2="1425.0" y2="206.0" stroke="#cbc3b5" stroke-width="1"/>
<line x1="1457.0" y1="26.0" x2="1457.0" y2="206.0" stroke="#27221b" stroke-width="1.2"/><line x1="1461.0" y1="26.0" x2="1461.0" y2="206.0" stroke="#27221b" stroke-width="1.2"/>
<text x="1442.0" y="224.0" font-family="Segoe UI, Arial, sans-serif" font-size="10" font-weight="400" text-anchor="middle" fill="#636363">117</text>
<rect x="1459.0" y="160.0" width="34.0" height="46" fill="#ffffff" stroke="#ddd6c8" stroke-width="1"/>
<line x1="1459.0" y1="26" x2="1459.0" y2="206.0" stroke="#cbc3b5" stroke-width="1"/>
<rect x="1465.0" y="28.0" width="22.0" height="22" rx="4" fill="#ffe7a8" stroke="#c18a18"/><text x="1476.0" y="43.0" font-family="Segoe UI, Arial, sans-serif" font-size="13" font-weight="700" text-anchor="middle" fill="#222">G</text>
<text x="1476.0" y="122.0" font-family="Segoe UI, Arial, sans-serif" font-size="10" font-weight="700" text-anchor="middle" fill="#222">3</text><line x1="1466.0" y1="126.0" x2="1486.0" y2="126.0" stroke="#5f512f" stroke-width="1"/><text x="1476.0" y="137.0" font-family="Segoe UI, Arial, sans-serif" font-size="10" font-weight="700" text-anchor="middle" fill="#222">4</text>
<text x="1476.0" y="224.0" font-family="Segoe UI, Arial, sans-serif" font-size="10" font-weight="400" text-anchor="middle" fill="#636363">118</text>
<rect x="1493.0" y="160.0" width="70.0" height="46" rx="4" fill="#ece8de" stroke="#c8c0b1" stroke-dasharray="4 3"/>
<line x1="1501.0" y1="183.0" x2="1555.0" y2="183.0" stroke="#8f8778" stroke-width="1.4"/>
<text x="1528.0" y="177.0" font-family="Segoe UI, Arial, sans-serif" font-size="11" font-weight="700" text-anchor="middle" fill="#5e594f">--3--</text>
<text x="1528.0" y="223.0" font-family="Segoe UI, Arial, sans-serif" font-size="9" font-weight="400" text-anchor="middle" fill="#777066">119-121</text>
<rect x="1563.0" y="160.0" width="34.0" height="46" fill="#ffffff" stroke="#ddd6c8" stroke-width="1"/>
<line x1="1563.0" y1="26" x2="1563.0" y2="206.0" stroke="#cbc3b5" stroke-width="1"/>
<text x="1580.0" y="122.0" font-family="Segoe UI, Arial, sans-serif" font-size="10" font-weight="700" text-anchor="middle" fill="#222">4</text><line x1="1570.0" y1="126.0" x2="1590.0" y2="126.0" stroke="#5f512f" stroke-width="1"/><text x="1580.0" y="137.0" font-family="Segoe UI, Arial, sans-serif" font-size="10" font-weight="700" text-anchor="middle" fill="#222">4</text>
<text x="1580.0" y="224.0" font-family="Segoe UI, Arial, sans-serif" font-size="10" font-weight="400" text-anchor="middle" fill="#636363">122</text>
<rect x="1597.0" y="160.0" width="34.0" height="46" fill="#fbfaf6" stroke="#ddd6c8" stroke-width="1"/>
<line x1="1597.0" y1="26" x2="1597.0" y2="206.0" stroke="#cbc3b5" stroke-width="1"/>
<line x1="1629.0" y1="26.0" x2="1629.0" y2="206.0" stroke="#27221b" stroke-width="1.2"/><line x1="1633.0" y1="26.0" x2="1633.0" y2="206.0" stroke="#27221b" stroke-width="1.2"/>
<text x="1614.0" y="224.0" font-family="Segoe UI, Arial, sans-serif" font-size="10" font-weight="400" text-anchor="middle" fill="#636363">123</text>
<rect x="1631.0" y="160.0" width="37.0" height="46" fill="#ffffff" stroke="#ddd6c8" stroke-width="1"/>
<line x1="1631.0" y1="26" x2="1631.0" y2="206.0" stroke="#cbc3b5" stroke-width="1"/>
<rect x="1638.5" y="28.0" width="22.0" height="22" rx="4" fill="#ffe7a8" stroke="#c18a18"/><text x="1649.5" y="43.0" font-family="Segoe UI, Arial, sans-serif" font-size="13" font-weight="700" text-anchor="middle" fill="#222">H</text>
<text x="1649.5" y="122.0" font-family="Segoe UI, Arial, sans-serif" font-size="10" font-weight="700" text-anchor="middle" fill="#222">3</text><line x1="1639.5" y1="126.0" x2="1659.5" y2="126.0" stroke="#5f512f" stroke-width="1"/><text x="1649.5" y="137.0" font-family="Segoe UI, Arial, sans-serif" font-size="10" font-weight="700" text-anchor="middle" fill="#222">4</text>
<text x="1649.5" y="192.0" font-family="Segoe UI, Arial, sans-serif" class="music" font-size="11" font-weight="700" text-anchor="middle" fill="#1e526f">h=92</text>
<text x="1649.5" y="224.0" font-family="Segoe UI, Arial, sans-serif" font-size="10" font-weight="400" text-anchor="middle" fill="#636363">124</text>
<rect x="1668.0" y="160.0" width="70.0" height="46" rx="4" fill="#ece8de" stroke="#c8c0b1" stroke-dasharray="4 3"/>
<line x1="1676.0" y1="183.0" x2="1730.0" y2="183.0" stroke="#8f8778" stroke-width="1.4"/>
<text x="1703.0" y="177.0" font-family="Segoe UI, Arial, sans-serif" font-size="11" font-weight="700" text-anchor="middle" fill="#5e594f">--35--</text>
<text x="1703.0" y="223.0" font-family="Segoe UI, Arial, sans-serif" font-size="9" font-weight="400" text-anchor="middle" fill="#777066">125-159</text>
<rect x="1738.0" y="160.0" width="34.0" height="46" fill="#ffffff" stroke="#ddd6c8" stroke-width="1"/>
<line x1="1738.0" y1="26" x2="1738.0" y2="206.0" stroke="#cbc3b5" stroke-width="1"/>
<text x="1755.0" y="122.0" font-family="Segoe UI, Arial, sans-serif" font-size="10" font-weight="700" text-anchor="middle" fill="#222">4</text><line x1="1745.0" y1="126.0" x2="1765.0" y2="126.0" stroke="#5f512f" stroke-width="1"/><text x="1755.0" y="137.0" font-family="Segoe UI, Arial, sans-serif" font-size="10" font-weight="700" text-anchor="middle" fill="#222">4</text>
<text x="1755.0" y="224.0" font-family="Segoe UI, Arial, sans-serif" font-size="10" font-weight="400" text-anchor="middle" fill="#636363">160</text>
<rect x="1772.0" y="160.0" width="34.0" height="46" fill="#fbfaf6" stroke="#ddd6c8" stroke-width="1"/>
<line x1="1772.0" y1="26" x2="1772.0" y2="206.0" stroke="#cbc3b5" stroke-width="1"/>
<rect x="1806.0" y="160.0" width="34.0" height="46" fill="#ffffff" stroke="#ddd6c8" stroke-width="1"/>
<line x1="1806.0" y1="26" x2="1806.0" y2="206.0" stroke="#cbc3b5" stroke-width="1"/>
<line x1="1838.0" y1="26.0" x2="1838.0" y2="206.0" stroke="#27221b" stroke-width="1.2"/><line x1="1842.0" y1="26.0" x2="1842.0" y2="206.0" stroke="#27221b" stroke-width="1.2"/>
<text x="1823.0" y="224.0" font-family="Segoe UI, Arial, sans-serif" font-size="10" font-weight="400" text-anchor="middle" fill="#636363">162</text>
<rect x="1840.0" y="160.0" width="47.0" height="46" fill="#fbfaf6" stroke="#ddd6c8" stroke-width="1"/>
<line x1="1840.0" y1="26" x2="1840.0" y2="206.0" stroke="#cbc3b5" stroke-width="1"/>
<text x="1863.5" y="192.0" font-family="Segoe UI, Arial, sans-serif" class="music" font-size="11" font-weight="700" text-anchor="middle" fill="#1e526f">♩=144</text>
<text x="1863.5" y="224.0" font-family="Segoe UI, Arial, sans-serif" font-size="10" font-weight="400" text-anchor="middle" fill="#636363">163</text>
<rect x="1887.0" y="160.0" width="70.0" height="46" rx="4" fill="#ece8de" stroke="#c8c0b1" stroke-dasharray="4 3"/>
<line x1="1895.0" y1="183.0" x2="1949.0" y2="183.0" stroke="#8f8778" stroke-width="1.4"/>
<text x="1922.0" y="177.0" font-family="Segoe UI, Arial, sans-serif" font-size="11" font-weight="700" text-anchor="middle" fill="#5e594f">--3--</text>
<text x="1922.0" y="223.0" font-family="Segoe UI, Arial, sans-serif" font-size="9" font-weight="400" text-anchor="middle" fill="#777066">164-166</text>
<rect x="1957.0" y="160.0" width="34.0" height="46" fill="#fbfaf6" stroke="#ddd6c8" stroke-width="1"/>
<line x1="1957.0" y1="26" x2="1957.0" y2="206.0" stroke="#cbc3b5" stroke-width="1"/>
<line x1="1988.0" y1="26.0" x2="1988.0" y2="206.0" stroke="#27221b" stroke-width="1.2"/><line x1="1993.0" y1="26.0" x2="1993.0" y2="206.0" stroke="#27221b" stroke-width="3.6"/>
<text x="1974.0" y="224.0" font-family="Segoe UI, Arial, sans-serif" font-size="10" font-weight="400" text-anchor="middle" fill="#636363">167</text>
</svg>