<svg xmlns="http://www.w3.org/2000/svg" width="2190" height="238" viewBox="0 0 2190 238">
<style>.music{font-family:"Leland","Bravura","Segoe UI Symbol","Noto Music",sans-serif;}</style>
<rect width="100%" height="100%" fill="#f7f5ef"/>
<text x="24.0" y="44.0" font-family="Segoe UI, Arial, sans-serif" font-size="11" font-weight="700" text-anchor="start" fill="#6b4c16">Mark</text>
<text x="24.0" y="71.0" font-family="Segoe UI, Arial, sans-serif" font-size="11" font-weight="700" text-anchor="start" fill="#6d3b60">Repeat</text>
<text x="24.0" y="98.0" font-family="Segoe UI, Arial, sans-serif" font-size="11" font-weight="700" text-anchor="start" fill="#4c6232">Key</text>
<text x="24.0" y="126.0" font-family="Segoe UI, Arial, sans-serif" font-size="11" font-weight="700" text-anchor="start" fill="#6b4c16">Meter</text>
<text x="24.0" y="193.0" font-family="Segoe UI, Arial, sans-serif" font-size="11" font-weight="700" text-anchor="start" fill="#1e526f">Tempo</text>
<line x1="82.0" y1="27" x2="2152.0" y2="27" stroke="#d7d0c2" stroke-width="1"/>
<rect x="82.0" y="160.0" width="47.0" height="46" fill="#ffffff" stroke="#ddd6c8" stroke-width="1"/>
<line x1="82.0" y1="26" x2="82.0" y2="206.0" stroke="#cbc3b5" stroke-width="1"/>
<rect x="91.5" y="82.0" width="28.0" height="22" rx="4" fill="#e4eed1" stroke="#8da969"/><text x="105.5" y="97.0" font-family="Segoe UI, Arial, sans-serif" font-size="11" font-weight="700" text-anchor="middle" fill="#222">1#</text>
<text x="105.5" y="122.0" font-family="Segoe UI, Arial, sans-serif" font-size="10" font-weight="700" text-anchor="middle" fill="#222">3</text><line x1="95.5" y1="126.0" x2="115.5" y2="126.0" stroke="#5f512f" stroke-width="1"/><text x="105.5" y="137.0" font-family="Segoe UI, Arial, sans-serif" font-size="10" font-weight="700" text-anchor="middle" fill="#222">4</text>
<text x="105.5" y="192.0" font-family="Segoe UI, Arial, sans-serif" class="music" font-size="11" font-weight="700" text-anchor="middle" fill="#1e526f">♩=180</text>
<text x="105.5" y="224.0" font-family="Segoe UI, Arial, sans-serif" font-size="10" font-weight="400" text-anchor="middle" fill="#636363">1</text>
<rect x="129.0" y="160.0" width="70.0" height="46" rx="4" fill="#ece8de" stroke="#c8c0b1" stroke-dasharray="4 3"/>
<line x1="137.0" y1="183.0" x2="191.0" y2="183.0" stroke="#8f8778" stroke-width="1.4"/>
<text x="164.0" y="177.0" font-family="Segoe UI, Arial, sans-serif" font-size="11" font-weight="700" text-anchor="middle" fill="#5e594f">--14--</text>
<text x="164.0" y="223.0" font-family="Segoe UI, Arial, sans-serif" font-size="9" font-weight="400" text-anchor="middle" fill="#777066">2-15</text>
<rect x="199.0" y="160.0" width="34.0" height="46" fill="#ffffff" stroke="#ddd6c8" stroke-width="1"/>
<line x1="199.0" y1="26" x2="199.0" y2="206.0" stroke="#cbc3b5" stroke-width="1"/>
<line x1="231.0" y1="26.0" x2="231.0" y2="206.0" stroke="#27221b" stroke-width="1.2"/><line x1="235.0" y1="26.0" x2="235.0" y2="206.0" stroke="#27221b" stroke-width="1.2"/>
<text x="216.0" y="224.0" font-family="Segoe UI, Arial, sans-serif" font-size="10" font-weight="400" text-anchor="middle" fill="#636363">16</text>
<rect x="233.0" y="160.0" width="47.0" height="46" fill="#fbfaf6" stroke="#ddd6c8" stroke-width="1"/>
<line x1="233.0" y1="26" x2="233.0" y2="206.0" stroke="#cbc3b5" stroke-width="1"/>
<rect x="245.5" y="28.0" width="22.0" height="22" rx="4" fill="#ffe7a8" stroke="#c18a18"/><text x="256.5" y="43.0" font-family="Segoe UI, Arial, sans-serif" font-size="13" font-weight="700" text-anchor="middle" fill="#222">A</text>
<text x="256.5" y="192.0" font-family="Segoe UI, Arial, sans-serif" class="music" font-size="11" font-weight="700" text-anchor="middle" fill="#1e526f">♩=238</text>
<text x="256.5" y="224.0" font-family="Segoe UI, Arial, sans-serif" font-size="10" font-weight="400" text-anchor="middle" fill="#636363">17</text>
<rect x="280.0" y="160.0" width="70.0" height="46" rx="4" fill="#ece8de" stroke="#c8c0b1" stroke-dasharray="4 3"/>
<line x1="288.0" y1="183.0" x2="342.0" y2="183.0" stroke="#8f8778" stroke-width="1.4"/>
<text x="315.0" y="177.0" font-family="Segoe UI, Arial, sans-serif" font-size="11" font-weight="700" text-anchor="middle" fill="#5e594f">--31--</text>
<text x="315.0" y="223.0" font-family="Segoe UI, Arial, sans-serif" font-size="9" font-weight="400" text-anchor="middle" fill="#777066">18-48</text>
<rect x="350.0" y="160.0" width="34.0" height="46" fill="#fbfaf6" stroke="#ddd6c8" stroke-width="1"/>
<line x1="350.0" y1="26" x2="350.0" y2="206.0" stroke="#cbc3b5" stroke-width="1"/>
<line x1="382.0" y1="26.0" x2="382.0" y2="206.0" stroke="#27221b" stroke-width="1.2"/><line x1="386.0" y1="26.0" x2="386.0" y2="206.0" stroke="#27221b" stroke-width="1.2"/>
<text x="367.0" y="224.0" font-family="Segoe UI, Arial, sans-serif" font-size="10" font-weight="400" text-anchor="middle" fill="#636363">49</text>
<rect x="384.0" y="160.0" width="34.0" height="46" fill="#ffffff" stroke="#ddd6c8" stroke-width="1"/>
<line x1="384.0" y1="26" x2="384.0" y2="206.0" stroke="#cbc3b5" stroke-width="1"/>
<rect x="390.0" y="28.0" width="22.0" height="22" rx="4" fill="#ffe7a8" stroke="#c18a18"/><text x="401.0" y="43.0" font-family="Segoe UI, Arial, sans-serif" font-size="13" font-weight="700" text-anchor="middle" fill="#222">B</text>
<text x="401.0" y="224.0" font-family="Segoe UI, Arial, sans-serif" font-size="10" font-weight="400" text-anchor="middle" fill="#636363">50</text>
<rect x="418.0" y="160.0" width="70.0" height="46" rx="4" fill="#ece8de" stroke="#c8c0b1" stroke-dasharray="4 3"/>
<line x1="426.0" y1="183.0" x2="480.0" y2="183.0" stroke="#8f8778" stroke-width="1.4"/>
<text x="453.0" y="177.0" font-family="Segoe UI, Arial, sans-serif" font-size="11" font-weight="700" text-anchor="middle" fill="#5e594f">--30--</text>
<text x="453.0" y="223.0" font-family="Segoe UI, Arial, sans-serif" font-size="9" font-weight="400" text-anchor="middle" fill="#777066">51-80</text>
<rect x="488.0" y="160.0" width="34.0" height="46" fill="#ffffff" stroke="#ddd6c8" stroke-width="1"/>
<line x1="488.0" y1="26" x2="488.0" y2="206.0" stroke="#cbc3b5" stroke-width="1"/>
<line x1="520.0" y1="26.0" x2="520.0" y2="206.0" stroke="#27221b" stroke-width="1.2"/><line x1="524.0" y1="26.0" x2="524.0" y2="206.0" stroke="#27221b" stroke-width="1.2"/>
<text x="505.0" y="224.0" font-family="Segoe UI, Arial, sans-serif" font-size="10" font-weight="400" text-anchor="middle" fill="#636363">81</text>
<rect x="522.0" y="160.0" width="34.0" height="46" fill="#fbfaf6" stroke="#ddd6c8" stroke-width="1"/>
<line x1="522.0" y1="26" x2="522.0" y2="206.0" stroke="#cbc3b5" stroke-width="1"/>
<rect x="528.0" y="28.0" width="22.0" height="22" rx="4" fill="#ffe7a8" stroke="#c18a18"/><text x="539.0" y="43.0" font-family="Segoe UI, Arial, sans-serif" font-size="13" font-weight="700" text-anchor="middle" fill="#222">C</text>
<text x="539.0" y="224.0" font-family="Segoe UI, Arial, sans-serif" font-size="10" font-weight="400" text-anchor="middle" fill="#636363">82</text>
<rect x="556.0" y="160.0" width="70.0" height="46" rx="4" fill="#ece8de" stroke="#c8c0b1" stroke-dasharray="4 3"/>
<line x1="564.0" y1="183.0" x2="618.0" y2="183.0" stroke="#8f8778" stroke-width="1.4"/>
<text x="591.0" y="177.0" font-family="Segoe UI, Arial, sans-serif" font-size="11" font-weight="700" text-anchor="middle" fill="#5e594f">--18--</text>
<text x="591.0" y="223.0" font-family="Segoe UI, Arial, sans-serif" font-size="9" font-weight="400" text-anchor="middle" fill="#777066">83-100</text>
<rect x="626.0" y="160.0" width="34.0" height="46" fill="#fbfaf6" stroke="#ddd6c8" stroke-width="1"/>
<line x1="626.0" y1="26" x2="626.0" y2="206.0" stroke="#cbc3b5" stroke-width="1"/>
<line x1="658.0" y1="26.0" x2="658.0" y2="206.0" stroke="#27221b" stroke-width="1.2"/><line x1="662.0" y1="26.0" x2="662.0" y2="206.0" stroke="#27221b" stroke-width="1.2"/>
<text x="643.0" y="224.0" font-family="Segoe UI, Arial, sans-serif" font-size="10" font-weight="400" text-anchor="middle" fill="#636363">101</text>
<rect x="660.0" y="160.0" width="34.0" height="46" fill="#ffffff" stroke="#ddd6c8" stroke-width="1"/>
<line x1="660.0" y1="26" x2="660.0" y2="206.0" stroke="#cbc3b5" stroke-width="1"/>
<rect x="666.0" y="28.0" width="22.0" height="22" rx="4" fill="#ffe7a8" stroke="#c18a18"/><text x="677.0" y="43.0" font-family="Segoe UI, Arial, sans-serif" font-size="13" font-weight="700" text-anchor="middle" fill="#222">D</text>
<text x="677.0" y="224.0" font-family="Segoe UI, Arial, sans-serif" font-size="10" font-weight="400" text-anchor="middle" fill="#636363">102</text>
<rect x="694.0" y="160.0" width="70.0" height="46" rx="4" fill="#ece8de" stroke="#c8c0b1" stroke-dasharray="4 3"/>
<line x1="702.0" y1="183.0" x2="756.0" y2="183.0" stroke="#8f8778" stroke-width="1.4"/>
<text x="729.0" y="177.0" font-family="Segoe UI, Arial, sans-serif" font-size="11" font-weight="700" text-anchor="middle" fill="#5e594f">--27--</text>
<text x="729.0" y="223.0" font-family="Segoe UI, Arial, sans-serif" font-size="9" font-weight="400" text-anchor="middle" fill="#777066">103-129</text>
<rect x="764.0" y="160.0" width="61.0" height="46" fill="#ffffff" stroke="#ddd6c8" stroke-width="1"/>
<line x1="764.0" y1="26" x2="764.0" y2="206.0" stroke="#cbc3b5" stroke-width="1"/>
<text x="794.5" y="184.0" font-family="Segoe UI, Arial, sans-serif" class="music" font-size="9" font-weight="700" text-anchor="middle" fill="#1e526f">meno mosso</text>
<text x="794.5" y="196.0" font-family="Segoe UI, Arial, sans-serif" class="music" font-size="10" font-weight="700" text-anchor="middle" fill="#1e526f">♩=180</text>
<text x="794.5" y="224.0" font-family="Segoe UI, Arial, sans-serif" font-size="10" font-weight="400" text-anchor="middle" fill="#636363">130</text>
<rect x="825.0" y="160.0" width="34.0" height="46" fill="#fbfaf6" stroke="#ddd6c8" stroke-width="1"/>
<line x1="825.0" y1="26" x2="825.0" y2="206.0" stroke="#cbc3b5" stroke-width="1"/>
<rect x="859.0" y="160.0" width="43.0" height="46" fill="#ffffff" stroke="#ddd6c8" stroke-width="1"/>
<line x1="859.0" y1="26" x2="859.0" y2="206.0" stroke="#cbc3b5" stroke-width="1"/>
<text x="880.5" y="184.0" font-family="Segoe UI, Arial, sans-serif" class="music" font-size="9" font-weight="700" text-anchor="middle" fill="#1e526f">rit</text>
<text x="880.5" y="196.0" font-family="Segoe UI, Arial, sans-serif" class="music" font-size="10" font-weight="700" text-anchor="middle" fill="#1e526f">♩=170</text>
<text x="880.5" y="224.0" font-family="Segoe UI, Arial, sans-serif" font-size="10" font-weight="400" text-anchor="middle" fill="#636363">132</text>
<rect x="902.0" y="160.0" width="47.0" height="46" fill="#fbfaf6" stroke="#ddd6c8" stroke-width="1"/>
<line x1="902.0" y1="26" x2="902.0" y2="206.0" stroke="#cbc3b5" stroke-width="1"/>
<text x="925.5" y="192.0" font-family="Segoe UI, Arial, sans-serif" class="music" font-size="11" font-weight="700" text-anchor="middle" fill="#1e526f">♩=160</text>
<text x="925.5" y="224.0" font-family="Segoe UI, Arial, sans-serif" font-size="10" font-weight="400" text-anchor="middle" fill="#636363">133</text>
<rect x="949.0" y="160.0" width="34.0" height="46" fill="#ffffff" stroke="#ddd6c8" stroke-width="1"/>
<line x1="949.0" y1="26" x2="949.0" y2="206.0" stroke="#cbc3b5" stroke-width="1"/>
<rect x="983.0" y="160.0" width="34.0" height="46" fill="#fbfaf6" stroke="#ddd6c8" stroke-width="1"/>
<line x1="983.0" y1="26" x2="983.0" y2="206.0" stroke="#cbc3b5" stroke-width="1"/>
<line x1="1015.0" y1="26.0" x2="1015.0" y2="206.0" stroke="#27221b" stroke-width="1.2"/><line x1="1019.0" y1="26.0" x2="1019.0" y2="206.0" stroke="#27221b" stroke-width="1.2"/>
<text x="1000.0" y="224.0" font-family="Segoe UI, Arial, sans-serif" font-size="10" font-weight="400" text-anchor="middle" fill="#636363">135</text>
<rect x="1017.0" y="160.0" width="34.0" height="46" fill="#ffffff" stroke="#ddd6c8" stroke-width="1"/>
<line x1="1017.0" y1="26" x2="1017.0" y2="206.0" stroke="#cbc3b5" stroke-width="1"/>
<rect x="1023.0" y="28.0" width="22.0" height="22" rx="4" fill="#ffe7a8" stroke="#c18a18"/><text x="1034.0" y="43.0" font-family="Segoe UI, Arial, sans-serif" font-size="13" font-weight="700" text-anchor="middle" fill="#222">E</text>
<text x="1034.0" y="224.0" font-family="Segoe UI, Arial, sans-serif" font-size="10" font-weight="400" text-anchor="middle" fill="#636363">136</text>
<rect x="1051.0" y="160.0" width="70.0" height="46" rx="4" fill="#ece8de" stroke="#c8c0b1" stroke-dasharray="4 3"/>
<line x1="1059.0" y1="183.0" x2="1113.0" y2="183.0" stroke="#8f8778" stroke-width="1.4"/>
<text x="1086.0" y="177.0" font-family="Segoe UI, Arial, sans-serif" font-size="11" font-weight="700" text-anchor="middle" fill="#5e594f">--16--</text>
<text x="1086.0" y="223.0" font-family="Segoe UI, Arial, sans-serif" font-size="9" font-weight="400" text-anchor="middle" fill="#777066">137-152</text>
<rect x="1121.0" y="160.0" width="34.0" height="46" fill="#ffffff" stroke="#ddd6c8" stroke-width="1"/>
<line x1="1121.0" y1="26" x2="1121.0" y2="206.0" stroke="#cbc3b5" stroke-width="1"/>
<line x1="1153.0" y1="26.0" x2="1153.0" y2="206.0" stroke="#27221b" stroke-width="1.2"/><line x1="1157.0" y1="26.0" x2="1157.0" y2="206.0" stroke="#27221b" stroke-width="1.2"/>
<text x="1138.0" y="224.0" font-family="Segoe UI, Arial, sans-serif" font-size="10" font-weight="400" text-anchor="middle" fill="#636363">153</text>
<rect x="1155.0" y="160.0" width="34.0" height="46" fill="#fbfaf6" stroke="#ddd6c8" stroke-width="1"/>
<line x1="1155.0" y1="26" x2="1155.0" y2="206.0" stroke="#cbc3b5" stroke-width="1"/>
<rect x="1161.0" y="28.0" width="22.0" height="22" rx="4" fill="#ffe7a8" stroke="#c18a18"/><text x="1172.0" y="43.0" font-family="Segoe UI, Arial, sans-serif" font-size="13" font-weight="700" text-anchor="middle" fill="#222">F</text>
<text x="1172.0" y="224.0" font-family="Segoe UI, Arial, sans-serif" font-size="10" font-weight="400" text-anchor="middle" fill="#636363">154</text>
<rect x="1189.0" y="160.0" width="70.0" height="46" rx="4" fill="#ece8de" stroke="#c8c0b1" stroke-dasharray="4 3"/>
<line x1="1197.0" y1="183.0" x2="1251.0" y2="183.0" stroke="#8f8778" stroke-width="1.4"/>
<text x="1224.0" y="177.0" font-family="Segoe UI, Arial, sans-serif" font-size="11" font-weight="700" text-anchor="middle" fill="#5e594f">--19--</text>
<text x="1224.0" y="223.0" font-family="Segoe UI, Arial, sans-serif" font-size="9" font-weight="400" text-anchor="middle" fill="#777066">155-173</text>
<rect x="1259.0" y="160.0" width="34.0" height="46" fill="#fbfaf6" stroke="#ddd6c8" stroke-width="1"/>
<line x1="1259.0" y1="26" x2="1259.0" y2="206.0" stroke="#cbc3b5" stroke-width="1"/>
<line x1="1291.0" y1="26.0" x2="1291.0" y2="206.0" stroke="#27221b" stroke-width="1.2"/><line x1="1295.0" y1="26.0" x2="1295.0" y2="206.0" stroke="#27221b" stroke-width="1.2"/>
<text x="1276.0" y="224.0" font-family="Segoe UI, Arial, sans-serif" font-size="10" font-weight="400" text-anchor="middle" fill="#636363">174</text>
<rect x="1293.0" y="160.0" width="47.0" height="46" fill="#ffffff" stroke="#ddd6c8" stroke-width="1"/>
<line x1="1293.0" y1="26" x2="1293.0" y2="206.0" stroke="#cbc3b5" stroke-width="1"/>
<rect x="1305.5" y="28.0" width="22.0" height="22" rx="4" fill="#ffe7a8" stroke="#c18a18"/><text x="1316.5" y="43.0" font-family="Segoe UI, Arial, sans-serif" font-size="13" font-weight="700" text-anchor="middle" fill="#222">G</text>
<text x="1316.5" y="192.0" font-family="Segoe UI, Arial, sans-serif" class="music" font-size="11" font-weight="700" text-anchor="middle" fill="#1e526f">♩=238</text>
<text x="1316.5" y="224.0" font-family="Segoe UI, Arial, sans-serif" font-size="10" font-weight="400" text-anchor="middle" fill="#636363">175</text>
<rect x="1340.0" y="160.0" width="70.0" height="46" rx="4" fill="#ece8de" stroke="#c8c0b1" stroke-dasharray="4 3"/>
<line x1="1348.0" y1="183.0" x2="1402.0" y2="183.0" stroke="#8f8778" stroke-width="1.4"/>
<text x="1375.0" y="177.0" font-family="Segoe UI, Arial, sans-serif" font-size="11" font-weight="700" text-anchor="middle" fill="#5e594f">--10--</text>
<text x="1375.0" y="223.0" font-family="Segoe UI, Arial, sans-serif" font-size="9" font-weight="400" text-anchor="middle" fill="#777066">176-185</text>
<rect x="1410.0" y="160.0" width="34.0" height="46" fill="#ffffff" stroke="#ddd6c8" stroke-width="1"/>
<line x1="1410.0" y1="26" x2="1410.0" y2="206.0" stroke="#cbc3b5" stroke-width="1"/>
<line x1="1442.0" y1="26.0" x2="1442.0" y2="206.0" stroke="#27221b" stroke-width="1.2"/><line x1="1446.0" y1="26.0" x2="1446.0" y2="206.0" stroke="#27221b" stroke-width="1.2"/>
<text x="1427.0" y="224.0" font-family="Segoe UI, Arial, sans-serif" font-size="10" font-weight="400" text-anchor="middle" fill="#636363">186</text>
<rect x="1444.0" y="160.0" width="34.0" height="46" fill="#fbfaf6" stroke="#ddd6c8" stroke-width="1"/>
<line x1="1444.0" y1="26" x2="1444.0" y2="206.0" stroke="#cbc3b5" stroke-width="1"/>
<rect x="1450.0" y="28.0" width="22.0" height="22" rx="4" fill="#ffe7a8" stroke="#c18a18"/><text x="1461.0" y="43.0" font-family="Segoe UI, Arial, sans-serif" font-size="13" font-weight="700" text-anchor="middle" fill="#222">H</text>
<rect x="1447.0" y="82.0" width="28.0" height="22" rx="4" fill="#e4eed1" stroke="#8da969"/><text x="1461.0" y="97.0" font-family="Segoe UI, Arial, sans-serif" font-size="11" font-weight="700" text-anchor="middle" fill="#222">0</text>
<text x="1461.0" y="224.0" font-family="Segoe UI, Arial, sans-serif" font-size="10" font-weight="400" text-anchor="middle" fill="#636363">187</text>
<rect x="1478.0" y="160.0" width="70.0" height="46" rx="4" fill="#ece8de" stroke="#c8c0b1" stroke-dasharray="4 3"/>
<line x1="1486.0" y1="183.0" x2="1540.0" y2="183.0" stroke="#8f8778" stroke-width="1.4"/>
<text x="1513.0" y="177.0" font-family="Segoe UI, Arial, sans-serif" font-size="11" font-weight="700" text-anchor="middle" fill="#5e594f">--31--</text>
<text x="1513.0" y="223.0" font-family="Segoe UI, Arial, sans-serif" font-size="9" font-weight="400" text-anchor="middle" fill="#777066">188-218</text>
<rect x="1548.0" y="160.0" width="43.0" height="46" fill="#fbfaf6" stroke="#ddd6c8" stroke-width="1"/>
<line x1="1548.0" y1="26" x2="1548.0" y2="206.0" stroke="#cbc3b5" stroke-width="1"/>
<text x="1569.5" y="184.0" font-family="Segoe UI, Arial, sans-serif" class="music" font-size="9" font-weight="700" text-anchor="middle" fill="#1e526f">accel</text>
<text x="1569.5" y="196.0" font-family="Segoe UI, Arial, sans-serif" class="music" font-size="10" font-weight="700" text-anchor="middle" fill="#1e526f">♩=240</text>
<text x="1569.5" y="224.0" font-family="Segoe UI, Arial, sans-serif" font-size="10" font-weight="400" text-anchor="middle" fill="#636363">219</text>
<rect x="1591.0" y="160.0" width="34.0" height="46" fill="#ffffff" stroke="#ddd6c8" stroke-width="1"/>
<line x1="1591.0" y1="26" x2="1591.0" y2="206.0" stroke="#cbc3b5" stroke-width="1"/>
<text x="1608.0" y="224.0" font-family="Segoe UI, Arial, sans-serif" font-size="10" font-weight="400" text-anchor="middle" fill="#636363">220</text>
<rect x="1625.0" y="160.0" width="47.0" height="46" fill="#fbfaf6" stroke="#ddd6c8" stroke-width="1"/>
<line x1="1625.0" y1="26" x2="1625.0" y2="206.0" stroke="#cbc3b5" stroke-width="1"/>
<text x="1648.5" y="192.0" font-family="Segoe UI, Arial, sans-serif" class="music" font-size="11" font-weight="700" text-anchor="middle" fill="#1e526f">♩=250</text>
<text x="1648.5" y="224.0" font-family="Segoe UI, Arial, sans-serif" font-size="10" font-weight="400" text-anchor="middle" fill="#636363">221</text>
<rect x="1672.0" y="160.0" width="34.0" height="46" fill="#ffffff" stroke="#ddd6c8" stroke-width="1"/>
<line x1="1672.0" y1="26" x2="1672.0" y2="206.0" stroke="#cbc3b5" stroke-width="1"/>
<rect x="1706.0" y="160.0" width="47.0" height="46" fill="#fbfaf6" stroke="#ddd6c8" stroke-width="1"/>
<line x1="1706.0" y1="26" x2="1706.0" y2="206.0" stroke="#cbc3b5" stroke-width="1"/>
<text x="1729.5" y="192.0" font-family="Segoe UI, Arial, sans-serif" class="music" font-size="11" font-weight="700" text-anchor="middle" fill="#1e526f">♩=260</text>
<text x="1729.5" y="224.0" font-family="Segoe UI, Arial, sans-serif" font-size="10" font-weight="400" text-anchor="middle" fill="#636363">223</text>
<rect x="1753.0" y="160.0" width="47.0" height="46" fill="#ffffff" stroke="#ddd6c8" stroke-width="1"/>
<line x1="1753.0" y1="26" x2="1753.0" y2="206.0" stroke="#cbc3b5" stroke-width="1"/>
<text x="1776.5" y="192.0" font-family="Segoe UI, Arial, sans-serif" class="music" font-size="11" font-weight="700" text-anchor="middle" fill="#1e526f">♩=274</text>
<text x="1776.5" y="224.0" font-family="Segoe UI, Arial, sans-serif" font-size="10" font-weight="400" text-anchor="middle" fill="#636363">224</text>
<rect x="1800.0" y="160.0" width="47.0" height="46" fill="#fbfaf6" stroke="#ddd6c8" stroke-width="1"/>
<line x1="1800.0" y1="26" x2="1800.0" y2="206.0" stroke="#cbc3b5" stroke-width="1"/>
<text x="1823.5" y="192.0" font-family="Segoe UI, Arial, sans-serif" class="music" font-size="11" font-weight="700" text-anchor="middle" fill="#1e526f">♩=282</text>
<text x="1823.5" y="224.0" font-family="Segoe UI, Arial, sans-serif" font-size="10" font-weight="400" text-anchor="middle" fill="#636363">225</text>
<rect x="1847.0" y="160.0" width="47.0" height="46" fill="#ffffff" stroke="#ddd6c8" stroke-width="1"/>
<line x1="1847.0" y1="26" x2="1847.0" y2="206.0" stroke="#cbc3b5" stroke-width="1"/>
<text x="1870.5" y="192.0" font-family="Segoe UI, Arial, sans-serif" class="music" font-size="11" font-weight="700" text-anchor="middle" fill="#1e526f">♩=290</text>
<text x="1870.5" y="224.0" font-family="Segoe UI, Arial, sans-serif" font-size="10" font-weight="400" text-anchor="middle" fill="#636363">226</text>
<rect x="1894.0" y="160.0" width="34.0" height="46" fill="#fbfaf6" stroke="#ddd6c8" stroke-width="1"/>
<line x1="1894.0" y1="26" x2="1894.0" y2="206.0" stroke="#cbc3b5" stroke-width="1"/>
<rect x="1928.0" y="160.0" width="34.0" height="46" fill="#ffffff" stroke="#ddd6c8" stroke-width="1"/>
<line x1="1928.0" y1="26" x2="1928.0" y2="206.0" stroke="#cbc3b5" stroke-width="1"/>
<rect x="1962.0" y="160.0" width="43.0" height="46" fill="#fbfaf6" stroke="#ddd6c8" stroke-width="1"/>
<line x1="1962.0" y1="26" x2="1962.0" y2="206.0" stroke="#cbc3b5" stroke-width="1"/>
<text x="1983.5" y="184.0" font-family="Segoe UI, Arial, sans-serif" class="music" font-size="9" font-weight="700" text-anchor="middle" fill="#1e526f">rall</text>
<text x="1983.5" y="196.0" font-family="Segoe UI, Arial, sans-serif" class="music" font-size="10" font-weight="700" text-anchor="middle" fill="#1e526f">♩=220</text>
<text x="1983.5" y="224.0" font-family="Segoe UI, Arial, sans-serif" font-size="10" font-weight="400" text-anchor="middle" fill="#636363">229</text>
<rect x="2005.0" y="160.0" width="34.0" height="46" fill="#ffffff" stroke="#ddd6c8" stroke-width="1"/>
<line x1="2005.0" y1="26" x2="2005.0" y2="206.0" stroke="#cbc3b5" stroke-width="1"/>
<text x="2022.0" y="224.0" font-family="Segoe UI, Arial, sans-serif" font-size="10" font-weight="400" text-anchor="middle" fill="#636363">230</text>
<rect x="2039.0" y="160.0" width="45.0" height="46" fill="#fbfaf6" stroke="#ddd6c8" stroke-width="1"/>
<line x1="2039.0" y1="26" x2="2039.0" y2="206.0" stroke="#cbc3b5" stroke-width="1"/>
<text x="2061.5" y="184.0" font-family="Segoe UI, Arial, sans-serif" class="music" font-size="9" font-weight="700" text-anchor="middle" fill="#1e526f">a tempo</text>
<text x="2061.5" y="196.0" font-family="Segoe UI, Arial, sans-serif" class="music" font-size="10" font-weight="700" text-anchor="middle" fill="#1e526f">♩=238</text>
<text x="2061.5" y="224.0" font-family="Segoe UI, Arial, sans-serif" font-size="10" font-weight="400" text-anchor="middle" fill="#636363">231</text>
<rect x="2084.0" y="160.0" width="34.0" height="46" fill="#ffffff" stroke="#ddd6c8" stroke-width="1"/>
<line x1="2084.0" y1="26" x2="2084.0" y2="206.0" stroke="#cbc3b5" stroke-width="1"/>
<rect x="2118.0" y="160.0" width="34.0" height="46" fill="#fbfaf6" stroke="#ddd6c8" stroke-width="1"/>
<line x1="2118.0" y1="26" x2="2118.0" y2="206.0" stroke="#cbc3b5" stroke-width="1"/>
<line x1="2149.0" y1="26.0" x2="2149.0" y2="206.0" stroke="#27221b" stroke-width="1.2"/><line x1="2154.0" y1="26.0" x2="2154.0" y2="206.0" stroke="#27221b" stroke-width="3.6"/>
<text x="2135.0" y="224.0" font-family="Segoe UI, Arial, sans-serif" font-size="10" font-weight="400" text-anchor="middle" fill="#636363">233</text>
</svg>