<svg xmlns="http://www.w3.org/2000/svg" width="1390" height="238" viewBox="0 0 1390 238">
<style>.music{font-family:"Leland","Bravura","Segoe UI Symbol","Noto Music",sans-serif;}</style>
<rect width="100%" height="100%" fill="#f7f5ef"/>
<text x="24.0" y="44.0" font-family="Segoe UI, Arial, sans-serif" font-size="11" font-weight="700" text-anchor="start" fill="#6b4c16">Mark</text>
<text x="24.0" y="71.0" font-family="Segoe UI, Arial, sans-serif" font-size="11" font-weight="700" text-anchor="start" fill="#6d3b60">Repeat</text>
<text x="24.0" y="98.0" font-family="Segoe UI, Arial, sans-serif" font-size="11" font-weight="700" text-anchor="start" fill="#4c6232">Key</text>
<text x="24.0" y="126.0" font-family="Segoe UI, Arial, sans-serif" font-size="11" font-weight="700" text-anchor="start" fill="#6b4c16">Meter</text>
<text x="24.0" y="193.0" font-family="Segoe UI, Arial, sans-serif" font-size="11" font-weight="700" text-anchor="start" fill="#1e526f">Tempo</text>
<line x1="82.0" y1="27" x2="1352.0" y2="27" stroke="#d7d0c2" stroke-width="1"/>
<rect x="82.0" y="160.0" width="40.0" height="46" fill="#ffffff" stroke="#ddd6c8" stroke-width="1"/>
<line x1="82.0" y1="26" x2="82.0" y2="206.0" stroke="#cbc3b5" stroke-width="1"/>
<rect x="88.0" y="82.0" width="28.0" height="22" rx="4" fill="#e4eed1" stroke="#8da969"/><text x="102.0" y="97.0" font-family="Segoe UI, Arial, sans-serif" font-size="11" font-weight="700" text-anchor="middle" fill="#222">1#</text>
<text x="102.0" y="122.0" font-family="Segoe UI, Arial, sans-serif" font-size="10" font-weight="700" text-anchor="middle" fill="#222">4</text><line x1="92.0" y1="126.0" x2="112.0" y2="126.0" stroke="#5f512f" stroke-width="1"/><text x="102.0" y="137.0" font-family="Segoe UI, Arial, sans-serif" font-size="10" font-weight="700" text-anchor="middle" fill="#222">4</text>
<text x="102.0" y="192.0" font-family="Segoe UI, Arial, sans-serif" class="music" font-size="11" font-weight="700" text-anchor="middle" fill="#1e526f">♩=66</text>
<text x="102.0" y="224.0" font-family="Segoe UI, Arial, sans-serif" font-size="10" font-weight="400" text-anchor="middle" fill="#636363">0</text>
<rect x="122.0" y="160.0" width="70.0" height="46" rx="4" fill="#ece8de" stroke="#c8c0b1" stroke-dasharray="4 3"/>
<line x1="130.0" y1="183.0" x2="184.0" y2="183.0" stroke="#8f8778" stroke-width="1.4"/>
<text x="157.0" y="177.0" font-family="Segoe UI, Arial, sans-serif" font-size="11" font-weight="700" text-anchor="middle" fill="#5e594f">--14--</text>
<text x="157.0" y="223.0" font-family="Segoe UI, Arial, sans-serif" font-size="9" font-weight="400" text-anchor="middle" fill="#777066">1-14</text>
<rect x="192.0" y="160.0" width="34.0" height="46" fill="#ffffff" stroke="#ddd6c8" stroke-width="1"/>
<line x1="192.0" y1="26" x2="192.0" y2="206.0" stroke="#cbc3b5" stroke-width="1"/>
<line x1="224.0" y1="26.0" x2="224.0" y2="206.0" stroke="#27221b" stroke-width="1.2"/><line x1="228.0" y1="26.0" x2="228.0" y2="206.0" stroke="#27221b" stroke-width="1.2"/>
<text x="209.0" y="224.0" font-family="Segoe UI, Arial, sans-serif" font-size="10" font-weight="400" text-anchor="middle" fill="#636363">15</text>
<rect x="226.0" y="160.0" width="42.0" height="46" fill="#fbfaf6" stroke="#ddd6c8" stroke-width="1"/>
<line x1="226.0" y1="26" x2="226.0" y2="206.0" stroke="#cbc3b5" stroke-width="1"/>
<rect x="236.0" y="28.0" width="22.0" height="22" rx="4" fill="#ffe7a8" stroke="#c18a18"/><text x="247.0" y="43.0" font-family="Segoe UI, Arial, sans-serif" font-size="13" font-weight="700" text-anchor="middle" fill="#222">A</text>
<text x="247.0" y="192.0" font-family="Segoe UI, Arial, sans-serif" class="music" font-size="11" font-weight="700" text-anchor="middle" fill="#1e526f">accel</text>
<text x="247.0" y="224.0" font-family="Segoe UI, Arial, sans-serif" font-size="10" font-weight="400" text-anchor="middle" fill="#636363">16</text>
<rect x="268.0" y="160.0" width="70.0" height="46" rx="4" fill="#ece8de" stroke="#c8c0b1" stroke-dasharray="4 3"/>
<line x1="276.0" y1="183.0" x2="330.0" y2="183.0" stroke="#8f8778" stroke-width="1.4"/>
<text x="303.0" y="177.0" font-family="Segoe UI, Arial, sans-serif" font-size="11" font-weight="700" text-anchor="middle" fill="#5e594f">--7--</text>
<text x="303.0" y="223.0" font-family="Segoe UI, Arial, sans-serif" font-size="9" font-weight="400" text-anchor="middle" fill="#777066">17-23</text>
<rect x="338.0" y="160.0" width="34.0" height="46" fill="#fbfaf6" stroke="#ddd6c8" stroke-width="1"/>
<line x1="338.0" y1="26" x2="338.0" y2="206.0" stroke="#cbc3b5" stroke-width="1"/>
<line x1="370.0" y1="26.0" x2="370.0" y2="206.0" stroke="#27221b" stroke-width="1.2"/><line x1="374.0" y1="26.0" x2="374.0" y2="206.0" stroke="#27221b" stroke-width="1.2"/>
<text x="355.0" y="224.0" font-family="Segoe UI, Arial, sans-serif" font-size="10" font-weight="400" text-anchor="middle" fill="#636363">24</text>
<rect x="372.0" y="160.0" width="47.0" height="46" fill="#ffffff" stroke="#ddd6c8" stroke-width="1"/>
<line x1="372.0" y1="26" x2="372.0" y2="206.0" stroke="#cbc3b5" stroke-width="1"/>
<text x="395.5" y="122.0" font-family="Segoe UI, Arial, sans-serif" font-size="10" font-weight="700" text-anchor="middle" fill="#222">3</text><line x1="385.5" y1="126.0" x2="405.5" y2="126.0" stroke="#5f512f" stroke-width="1"/><text x="395.5" y="137.0" font-family="Segoe UI, Arial, sans-serif" font-size="10" font-weight="700" text-anchor="middle" fill="#222">4</text>
<text x="395.5" y="192.0" font-family="Segoe UI, Arial, sans-serif" class="music" font-size="11" font-weight="700" text-anchor="middle" fill="#1e526f">♩=168</text>
<text x="395.5" y="224.0" font-family="Segoe UI, Arial, sans-serif" font-size="10" font-weight="400" text-anchor="middle" fill="#636363">25</text>
<rect x="419.0" y="160.0" width="70.0" height="46" rx="4" fill="#ece8de" stroke="#c8c0b1" stroke-dasharray="4 3"/>
<line x1="427.0" y1="183.0" x2="481.0" y2="183.0" stroke="#8f8778" stroke-width="1.4"/>
<text x="454.0" y="177.0" font-family="Segoe UI, Arial, sans-serif" font-size="11" font-weight="700" text-anchor="middle" fill="#5e594f">--4--</text>
<text x="454.0" y="223.0" font-family="Segoe UI, Arial, sans-serif" font-size="9" font-weight="400" text-anchor="middle" fill="#777066">26-29</text>
<rect x="489.0" y="160.0" width="34.0" height="46" fill="#ffffff" stroke="#ddd6c8" stroke-width="1"/>
<line x1="489.0" y1="26" x2="489.0" y2="206.0" stroke="#cbc3b5" stroke-width="1"/>
<line x1="521.0" y1="26.0" x2="521.0" y2="206.0" stroke="#27221b" stroke-width="1.2"/><line x1="525.0" y1="26.0" x2="525.0" y2="206.0" stroke="#27221b" stroke-width="1.2"/>
<text x="506.0" y="224.0" font-family="Segoe UI, Arial, sans-serif" font-size="10" font-weight="400" text-anchor="middle" fill="#636363">30</text>
<rect x="523.0" y="160.0" width="34.0" height="46" fill="#fbfaf6" stroke="#ddd6c8" stroke-width="1"/>
<line x1="523.0" y1="26" x2="523.0" y2="206.0" stroke="#cbc3b5" stroke-width="1"/>
<rect x="529.0" y="28.0" width="22.0" height="22" rx="4" fill="#ffe7a8" stroke="#c18a18"/><text x="540.0" y="43.0" font-family="Segoe UI, Arial, sans-serif" font-size="13" font-weight="700" text-anchor="middle" fill="#222">B</text>
<text x="540.0" y="224.0" font-family="Segoe UI, Arial, sans-serif" font-size="10" font-weight="400" text-anchor="middle" fill="#636363">31</text>
<rect x="557.0" y="160.0" width="70.0" height="46" rx="4" fill="#ece8de" stroke="#c8c0b1" stroke-dasharray="4 3"/>
<line x1="565.0" y1="183.0" x2="619.0" y2="183.0" stroke="#8f8778" stroke-width="1.4"/>
<text x="592.0" y="177.0" font-family="Segoe UI, Arial, sans-serif" font-size="11" font-weight="700" text-anchor="middle" fill="#5e594f">--14--</text>
<text x="592.0" y="223.0" font-family="Segoe UI, Arial, sans-serif" font-size="9" font-weight="400" text-anchor="middle" fill="#777066">32-45</text>
<rect x="627.0" y="160.0" width="34.0" height="46" fill="#fbfaf6" stroke="#ddd6c8" stroke-width="1"/>
<line x1="627.0" y1="26" x2="627.0" y2="206.0" stroke="#cbc3b5" stroke-width="1"/>
<line x1="659.0" y1="26.0" x2="659.0" y2="206.0" stroke="#27221b" stroke-width="1.2"/><line x1="663.0" y1="26.0" x2="663.0" y2="206.0" stroke="#27221b" stroke-width="1.2"/>
<text x="644.0" y="224.0" font-family="Segoe UI, Arial, sans-serif" font-size="10" font-weight="400" text-anchor="middle" fill="#636363">46</text>
<rect x="661.0" y="160.0" width="35.0" height="46" fill="#ffffff" stroke="#ddd6c8" stroke-width="1"/>
<line x1="661.0" y1="26" x2="661.0" y2="206.0" stroke="#cbc3b5" stroke-width="1"/>
<rect x="667.5" y="28.0" width="22.0" height="22" rx="4" fill="#ffe7a8" stroke="#c18a18"/><text x="678.5" y="43.0" font-family="Segoe UI, Arial, sans-serif" font-size="13" font-weight="700" text-anchor="middle" fill="#222">C</text>
<rect x="663.4" y="82.0" width="30.3" height="22" rx="4" fill="#e4eed1" stroke="#8da969"/><text x="678.5" y="97.0" font-family="Segoe UI, Arial, sans-serif" font-size="11" font-weight="700" text-anchor="middle" fill="#222">2♭</text>
<text x="678.5" y="224.0" font-family="Segoe UI, Arial, sans-serif" font-size="10" font-weight="400" text-anchor="middle" fill="#636363">47</text>
<rect x="696.0" y="160.0" width="70.0" height="46" rx="4" fill="#ece8de" stroke="#c8c0b1" stroke-dasharray="4 3"/>
<line x1="704.0" y1="183.0" x2="758.0" y2="183.0" stroke="#8f8778" stroke-width="1.4"/>
<text x="731.0" y="177.0" font-family="Segoe UI, Arial, sans-serif" font-size="11" font-weight="700" text-anchor="middle" fill="#5e594f">--14--</text>
<text x="731.0" y="223.0" font-family="Segoe UI, Arial, sans-serif" font-size="9" font-weight="400" text-anchor="middle" fill="#777066">48-61</text>
<rect x="766.0" y="160.0" width="34.0" height="46" fill="#ffffff" stroke="#ddd6c8" stroke-width="1"/>
<line x1="766.0" y1="26" x2="766.0" y2="206.0" stroke="#cbc3b5" stroke-width="1"/>
<line x1="798.0" y1="26.0" x2="798.0" y2="206.0" stroke="#27221b" stroke-width="1.2"/><line x1="802.0" y1="26.0" x2="802.0" y2="206.0" stroke="#27221b" stroke-width="1.2"/>
<text x="783.0" y="224.0" font-family="Segoe UI, Arial, sans-serif" font-size="10" font-weight="400" text-anchor="middle" fill="#636363">62</text>
<rect x="800.0" y="160.0" width="34.0" height="46" fill="#fbfaf6" stroke="#ddd6c8" stroke-width="1"/>
<line x1="800.0" y1="26" x2="800.0" y2="206.0" stroke="#cbc3b5" stroke-width="1"/>
<rect x="806.0" y="28.0" width="22.0" height="22" rx="4" fill="#ffe7a8" stroke="#c18a18"/><text x="817.0" y="43.0" font-family="Segoe UI, Arial, sans-serif" font-size="13" font-weight="700" text-anchor="middle" fill="#222">D</text>
<rect x="803.0" y="82.0" width="28.0" height="22" rx="4" fill="#e4eed1" stroke="#8da969"/><text x="817.0" y="97.0" font-family="Segoe UI, Arial, sans-serif" font-size="11" font-weight="700" text-anchor="middle" fill="#222">1#</text>
<text x="817.0" y="224.0" font-family="Segoe UI, Arial, sans-serif" font-size="10" font-weight="400" text-anchor="middle" fill="#636363">63</text>
<rect x="834.0" y="160.0" width="70.0" height="46" rx="4" fill="#ece8de" stroke="#c8c0b1" stroke-dasharray="4 3"/>
<line x1="842.0" y1="183.0" x2="896.0" y2="183.0" stroke="#8f8778" stroke-width="1.4"/>
<text x="869.0" y="177.0" font-family="Segoe UI, Arial, sans-serif" font-size="11" font-weight="700" text-anchor="middle" fill="#5e594f">--14--</text>
<text x="869.0" y="223.0" font-family="Segoe UI, Arial, sans-serif" font-size="9" font-weight="400" text-anchor="middle" fill="#777066">64-77</text>
<rect x="904.0" y="160.0" width="34.0" height="46" fill="#fbfaf6" stroke="#ddd6c8" stroke-width="1"/>
<line x1="904.0" y1="26" x2="904.0" y2="206.0" stroke="#cbc3b5" stroke-width="1"/>
<line x1="936.0" y1="26.0" x2="936.0" y2="206.0" stroke="#27221b" stroke-width="1.2"/><line x1="940.0" y1="26.0" x2="940.0" y2="206.0" stroke="#27221b" stroke-width="1.2"/>
<text x="921.0" y="224.0" font-family="Segoe UI, Arial, sans-serif" font-size="10" font-weight="400" text-anchor="middle" fill="#636363">78</text>
<rect x="938.0" y="160.0" width="34.0" height="46" fill="#ffffff" stroke="#ddd6c8" stroke-width="1"/>
<line x1="938.0" y1="26" x2="938.0" y2="206.0" stroke="#cbc3b5" stroke-width="1"/>
<rect x="944.0" y="28.0" width="22.0" height="22" rx="4" fill="#ffe7a8" stroke="#c18a18"/><text x="955.0" y="43.0" font-family="Segoe UI, Arial, sans-serif" font-size="13" font-weight="700" text-anchor="middle" fill="#222">E</text>
<text x="955.0" y="224.0" font-family="Segoe UI, Arial, sans-serif" font-size="10" font-weight="400" text-anchor="middle" fill="#636363">79</text>
<rect x="972.0" y="160.0" width="70.0" height="46" rx="4" fill="#ece8de" stroke="#c8c0b1" stroke-dasharray="4 3"/>
<line x1="980.0" y1="183.0" x2="1034.0" y2="183.0" stroke="#8f8778" stroke-width="1.4"/>
<text x="1007.0" y="177.0" font-family="Segoe UI, Arial, sans-serif" font-size="11" font-weight="700" text-anchor="middle" fill="#5e594f">--14--</text>
<text x="1007.0" y="223.0" font-family="Segoe UI, Arial, sans-serif" font-size="9" font-weight="400" text-anchor="middle" fill="#777066">80-93</text>
<rect x="1042.0" y="160.0" width="34.0" height="46" fill="#ffffff" stroke="#ddd6c8" stroke-width="1"/>
<line x1="1042.0" y1="26" x2="1042.0" y2="206.0" stroke="#cbc3b5" stroke-width="1"/>
<line x1="1074.0" y1="26.0" x2="1074.0" y2="206.0" stroke="#27221b" stroke-width="1.2"/><line x1="1078.0" y1="26.0" x2="1078.0" y2="206.0" stroke="#27221b" stroke-width="1.2"/>
<text x="1059.0" y="224.0" font-family="Segoe UI, Arial, sans-serif" font-size="10" font-weight="400" text-anchor="middle" fill="#636363">94</text>
<rect x="1076.0" y="160.0" width="34.0" height="46" fill="#fbfaf6" stroke="#ddd6c8" stroke-width="1"/>
<line x1="1076.0" y1="26" x2="1076.0" y2="206.0" stroke="#cbc3b5" stroke-width="1"/>
<rect x="1082.0" y="28.0" width="22.0" height="22" rx="4" fill="#ffe7a8" stroke="#c18a18"/><text x="1093.0" y="43.0" font-family="Segoe UI, Arial, sans-serif" font-size="13" font-weight="700" text-anchor="middle" fill="#222">F</text>
<text x="1093.0" y="224.0" font-family="Segoe UI, Arial, sans-serif" font-size="10" font-weight="400" text-anchor="middle" fill="#636363">95</text>
<rect x="1110.0" y="160.0" width="70.0" height="46" rx="4" fill="#ece8de" stroke="#c8c0b1" stroke-dasharray="4 3"/>
<line x1="1118.0" y1="183.0" x2="1172.0" y2="183.0" stroke="#8f8778" stroke-width="1.4"/>
<text x="1145.0" y="177.0" font-family="Segoe UI, Arial, sans-serif" font-size="11" font-weight="700" text-anchor="middle" fill="#5e594f">--22--</text>
<text x="1145.0" y="223.0" font-family="Segoe UI, Arial, sans-serif" font-size="9" font-weight="400" text-anchor="middle" fill="#777066">96-117</text>
<rect x="1180.0" y="160.0" width="34.0" height="46" fill="#fbfaf6" stroke="#ddd6c8" stroke-width="1"/>
<line x1="1180.0" y1="26" x2="1180.0" y2="206.0" stroke="#cbc3b5" stroke-width="1"/>
<line x1="1212.0" y1="26.0" x2="1212.0" y2="206.0" stroke="#27221b" stroke-width="1.2"/><line x1="1216.0" y1="26.0" x2="1216.0" y2="206.0" stroke="#27221b" stroke-width="1.2"/>
<text x="1197.0" y="224.0" font-family="Segoe UI, Arial, sans-serif" font-size="10" font-weight="400" text-anchor="middle" fill="#636363">118</text>
<rect x="1214.0" y="160.0" width="34.0" height="46" fill="#ffffff" stroke="#ddd6c8" stroke-width="1"/>
<line x1="1214.0" y1="26" x2="1214.0" y2="206.0" stroke="#cbc3b5" stroke-width="1"/>
<rect x="1220.0" y="28.0" width="22.0" height="22" rx="4" fill="#ffe7a8" stroke="#c18a18"/><text x="1231.0" y="43.0" font-family="Segoe UI, Arial, sans-serif" font-size="13" font-weight="700" text-anchor="middle" fill="#222">G</text>
<text x="1231.0" y="224.0" font-family="Segoe UI, Arial, sans-serif" font-size="10" font-weight="400" text-anchor="middle" fill="#636363">119</text>
<rect x="1248.0" y="160.0" width="70.0" height="46" rx="4" fill="#ece8de" stroke="#c8c0b1" stroke-dasharray="4 3"/>
<line x1="1256.0" y1="183.0" x2="1310.0" y2="183.0" stroke="#8f8778" stroke-width="1.4"/>
<text x="1283.0" y="177.0" font-family="Segoe UI, Arial, sans-serif" font-size="11" font-weight="700" text-anchor="middle" fill="#5e594f">--18--</text>
<text x="1283.0" y="223.0" font-family="Segoe UI, Arial, sans-serif" font-size="9" font-weight="400" text-anchor="middle" fill="#777066">120-137</text>
<rect x="1318.0" y="160.0" width="34.0" height="46" fill="#ffffff" stroke="#ddd6c8" stroke-width="1"/>
<line x1="1318.0" y1="26" x2="1318.0" y2="206.0" stroke="#cbc3b5" stroke-width="1"/>
<line x1="1349.0" y1="26.0" x2="1349.0" y2="206.0" stroke="#27221b" stroke-width="1.2"/><line x1="1354.0" y1="26.0" x2="1354.0" y2="206.0" stroke="#27221b" stroke-width="3.6"/>
<text x="1335.0" y="224.0" font-family="Segoe UI, Arial, sans-serif" font-size="10" font-weight="400" text-anchor="middle" fill="#636363">138</text>
</svg>