<svg xmlns="http://www.w3.org/2000/svg" width="1235" height="238" viewBox="0 0 1235 238">
<style>.music{font-family:"Leland","Bravura","Segoe UI Symbol","Noto Music",sans-serif;}</style>
<rect width="100%" height="100%" fill="#f7f5ef"/>
<text x="24.0" y="44.0" font-family="Segoe UI, Arial, sans-serif" font-size="11" font-weight="700" text-anchor="start" fill="#6b4c16">Mark</text>
<text x="24.0" y="71.0" font-family="Segoe UI, Arial, sans-serif" font-size="11" font-weight="700" text-anchor="start" fill="#6d3b60">Repeat</text>
<text x="24.0" y="98.0" font-family="Segoe UI, Arial, sans-serif" font-size="11" font-weight="700" text-anchor="start" fill="#4c6232">Key</text>
<text x="24.0" y="126.0" font-family="Segoe UI, Arial, sans-serif" font-size="11" font-weight="700" text-anchor="start" fill="#6b4c16">Meter</text>
<text x="24.0" y="193.0" font-family="Segoe UI, Arial, sans-serif" font-size="11" font-weight="700" text-anchor="start" fill="#1e526f">Tempo</text>
<line x1="82.0" y1="27" x2="1197.0" y2="27" stroke="#d7d0c2" stroke-width="1"/>
<rect x="82.0" y="160.0" width="43.0" height="46" fill="#ffffff" stroke="#ddd6c8" stroke-width="1"/>
<line x1="82.0" y1="26" x2="82.0" y2="206.0" stroke="#cbc3b5" stroke-width="1"/>
<rect x="88.4" y="82.0" width="30.3" height="22" rx="4" fill="#e4eed1" stroke="#8da969"/><text x="103.5" y="97.0" font-family="Segoe UI, Arial, sans-serif" font-size="11" font-weight="700" text-anchor="middle" fill="#222">1♭</text>
<text x="103.5" y="122.0" font-family="Segoe UI, Arial, sans-serif" font-size="10" font-weight="700" text-anchor="middle" fill="#222">4</text><line x1="93.5" y1="126.0" x2="113.5" y2="126.0" stroke="#5f512f" stroke-width="1"/><text x="103.5" y="137.0" font-family="Segoe UI, Arial, sans-serif" font-size="10" font-weight="700" text-anchor="middle" fill="#222">4</text>
<text x="103.5" y="192.0" font-family="Segoe UI, Arial, sans-serif" class="music" font-size="11" font-weight="700" text-anchor="middle" fill="#1e526f">h=116</text>
<text x="103.5" y="224.0" font-family="Segoe UI, Arial, sans-serif" font-size="10" font-weight="400" text-anchor="middle" fill="#636363">1</text>
<rect x="125.0" y="160.0" width="70.0" height="46" rx="4" fill="#ece8de" stroke="#c8c0b1" stroke-dasharray="4 3"/>
<line x1="133.0" y1="183.0" x2="187.0" y2="183.0" stroke="#8f8778" stroke-width="1.4"/>
<text x="160.0" y="177.0" font-family="Segoe UI, Arial, sans-serif" font-size="11" font-weight="700" text-anchor="middle" fill="#5e594f">--12--</text>
<text x="160.0" y="223.0" font-family="Segoe UI, Arial, sans-serif" font-size="9" font-weight="400" text-anchor="middle" fill="#777066">2-13</text>
<rect x="195.0" y="160.0" width="34.0" height="46" fill="#ffffff" stroke="#ddd6c8" stroke-width="1"/>
<line x1="195.0" y1="26" x2="195.0" y2="206.0" stroke="#cbc3b5" stroke-width="1"/>
<line x1="227.0" y1="26.0" x2="227.0" y2="206.0" stroke="#27221b" stroke-width="1.2"/><line x1="231.0" y1="26.0" x2="231.0" y2="206.0" stroke="#27221b" stroke-width="1.2"/>
<text x="212.0" y="224.0" font-family="Segoe UI, Arial, sans-serif" font-size="10" font-weight="400" text-anchor="middle" fill="#636363">14</text>
<rect x="229.0" y="160.0" width="34.0" height="46" fill="#fbfaf6" stroke="#ddd6c8" stroke-width="1"/>
<line x1="229.0" y1="26" x2="229.0" y2="206.0" stroke="#cbc3b5" stroke-width="1"/>
<rect x="235.0" y="28.0" width="22.0" height="22" rx="4" fill="#ffe7a8" stroke="#c18a18"/><text x="246.0" y="43.0" font-family="Segoe UI, Arial, sans-serif" font-size="13" font-weight="700" text-anchor="middle" fill="#222">A</text>
<text x="246.0" y="224.0" font-family="Segoe UI, Arial, sans-serif" font-size="10" font-weight="400" text-anchor="middle" fill="#636363">15</text>
<rect x="263.0" y="160.0" width="70.0" height="46" rx="4" fill="#ece8de" stroke="#c8c0b1" stroke-dasharray="4 3"/>
<line x1="271.0" y1="183.0" x2="325.0" y2="183.0" stroke="#8f8778" stroke-width="1.4"/>
<text x="298.0" y="177.0" font-family="Segoe UI, Arial, sans-serif" font-size="11" font-weight="700" text-anchor="middle" fill="#5e594f">--28--</text>
<text x="298.0" y="223.0" font-family="Segoe UI, Arial, sans-serif" font-size="9" font-weight="400" text-anchor="middle" fill="#777066">16-43</text>
<rect x="333.0" y="160.0" width="34.0" height="46" fill="#fbfaf6" stroke="#ddd6c8" stroke-width="1"/>
<line x1="333.0" y1="26" x2="333.0" y2="206.0" stroke="#cbc3b5" stroke-width="1"/>
<line x1="365.0" y1="26.0" x2="365.0" y2="206.0" stroke="#27221b" stroke-width="1.2"/><line x1="369.0" y1="26.0" x2="369.0" y2="206.0" stroke="#27221b" stroke-width="1.2"/>
<text x="350.0" y="224.0" font-family="Segoe UI, Arial, sans-serif" font-size="10" font-weight="400" text-anchor="middle" fill="#636363">44</text>
<rect x="367.0" y="160.0" width="34.0" height="46" fill="#ffffff" stroke="#ddd6c8" stroke-width="1"/>
<line x1="367.0" y1="26" x2="367.0" y2="206.0" stroke="#cbc3b5" stroke-width="1"/>
<rect x="373.0" y="28.0" width="22.0" height="22" rx="4" fill="#ffe7a8" stroke="#c18a18"/><text x="384.0" y="43.0" font-family="Segoe UI, Arial, sans-serif" font-size="13" font-weight="700" text-anchor="middle" fill="#222">B</text>
<text x="384.0" y="224.0" font-family="Segoe UI, Arial, sans-serif" font-size="10" font-weight="400" text-anchor="middle" fill="#636363">45</text>
<rect x="401.0" y="160.0" width="70.0" height="46" rx="4" fill="#ece8de" stroke="#c8c0b1" stroke-dasharray="4 3"/>
<line x1="409.0" y1="183.0" x2="463.0" y2="183.0" stroke="#8f8778" stroke-width="1.4"/>
<text x="436.0" y="177.0" font-family="Segoe UI, Arial, sans-serif" font-size="11" font-weight="700" text-anchor="middle" fill="#5e594f">--12--</text>
<text x="436.0" y="223.0" font-family="Segoe UI, Arial, sans-serif" font-size="9" font-weight="400" text-anchor="middle" fill="#777066">46-57</text>
<rect x="471.0" y="160.0" width="34.0" height="46" fill="#ffffff" stroke="#ddd6c8" stroke-width="1"/>
<line x1="471.0" y1="26" x2="471.0" y2="206.0" stroke="#cbc3b5" stroke-width="1"/>
<line x1="503.0" y1="26.0" x2="503.0" y2="206.0" stroke="#27221b" stroke-width="1.2"/><line x1="507.0" y1="26.0" x2="507.0" y2="206.0" stroke="#27221b" stroke-width="1.2"/>
<text x="488.0" y="224.0" font-family="Segoe UI, Arial, sans-serif" font-size="10" font-weight="400" text-anchor="middle" fill="#636363">58</text>
<rect x="505.0" y="160.0" width="34.0" height="46" fill="#fbfaf6" stroke="#ddd6c8" stroke-width="1"/>
<line x1="505.0" y1="26" x2="505.0" y2="206.0" stroke="#cbc3b5" stroke-width="1"/>
<rect x="511.0" y="28.0" width="22.0" height="22" rx="4" fill="#ffe7a8" stroke="#c18a18"/><text x="522.0" y="43.0" font-family="Segoe UI, Arial, sans-serif" font-size="13" font-weight="700" text-anchor="middle" fill="#222">C</text>
<text x="522.0" y="224.0" font-family="Segoe UI, Arial, sans-serif" font-size="10" font-weight="400" text-anchor="middle" fill="#636363">59</text>
<rect x="539.0" y="160.0" width="70.0" height="46" rx="4" fill="#ece8de" stroke="#c8c0b1" stroke-dasharray="4 3"/>
<line x1="547.0" y1="183.0" x2="601.0" y2="183.0" stroke="#8f8778" stroke-width="1.4"/>
<text x="574.0" y="177.0" font-family="Segoe UI, Arial, sans-serif" font-size="11" font-weight="700" text-anchor="middle" fill="#5e594f">--23--</text>
<text x="574.0" y="223.0" font-family="Segoe UI, Arial, sans-serif" font-size="9" font-weight="400" text-anchor="middle" fill="#777066">60-82</text>
<rect x="609.0" y="160.0" width="34.0" height="46" fill="#fbfaf6" stroke="#ddd6c8" stroke-width="1"/>
<line x1="609.0" y1="26" x2="609.0" y2="206.0" stroke="#cbc3b5" stroke-width="1"/>
<line x1="641.0" y1="26.0" x2="641.0" y2="206.0" stroke="#27221b" stroke-width="1.2"/><line x1="645.0" y1="26.0" x2="645.0" y2="206.0" stroke="#27221b" stroke-width="1.2"/>
<text x="626.0" y="224.0" font-family="Segoe UI, Arial, sans-serif" font-size="10" font-weight="400" text-anchor="middle" fill="#636363">83</text>
<rect x="643.0" y="160.0" width="35.0" height="46" fill="#ffffff" stroke="#ddd6c8" stroke-width="1"/>
<line x1="643.0" y1="26" x2="643.0" y2="206.0" stroke="#cbc3b5" stroke-width="1"/>
<rect x="649.5" y="28.0" width="22.0" height="22" rx="4" fill="#ffe7a8" stroke="#c18a18"/><text x="660.5" y="43.0" font-family="Segoe UI, Arial, sans-serif" font-size="13" font-weight="700" text-anchor="middle" fill="#222">D</text>
<rect x="645.4" y="82.0" width="30.3" height="22" rx="4" fill="#e4eed1" stroke="#8da969"/><text x="660.5" y="97.0" font-family="Segoe UI, Arial, sans-serif" font-size="11" font-weight="700" text-anchor="middle" fill="#222">4♭</text>
<text x="660.5" y="224.0" font-family="Segoe UI, Arial, sans-serif" font-size="10" font-weight="400" text-anchor="middle" fill="#636363">84</text>
<rect x="678.0" y="160.0" width="70.0" height="46" rx="4" fill="#ece8de" stroke="#c8c0b1" stroke-dasharray="4 3"/>
<line x1="686.0" y1="183.0" x2="740.0" y2="183.0" stroke="#8f8778" stroke-width="1.4"/>
<text x="713.0" y="177.0" font-family="Segoe UI, Arial, sans-serif" font-size="11" font-weight="700" text-anchor="middle" fill="#5e594f">--18--</text>
<text x="713.0" y="223.0" font-family="Segoe UI, Arial, sans-serif" font-size="9" font-weight="400" text-anchor="middle" fill="#777066">85-102</text>
<rect x="748.0" y="160.0" width="34.0" height="46" fill="#ffffff" stroke="#ddd6c8" stroke-width="1"/>
<line x1="748.0" y1="26" x2="748.0" y2="206.0" stroke="#cbc3b5" stroke-width="1"/>
<line x1="780.0" y1="26.0" x2="780.0" y2="206.0" stroke="#27221b" stroke-width="1.2"/><line x1="784.0" y1="26.0" x2="784.0" y2="206.0" stroke="#27221b" stroke-width="1.2"/>
<text x="765.0" y="224.0" font-family="Segoe UI, Arial, sans-serif" font-size="10" font-weight="400" text-anchor="middle" fill="#636363">103</text>
<rect x="782.0" y="160.0" width="34.0" height="46" fill="#fbfaf6" stroke="#ddd6c8" stroke-width="1"/>
<line x1="782.0" y1="26" x2="782.0" y2="206.0" stroke="#cbc3b5" stroke-width="1"/>
<rect x="788.0" y="28.0" width="22.0" height="22" rx="4" fill="#ffe7a8" stroke="#c18a18"/><text x="799.0" y="43.0" font-family="Segoe UI, Arial, sans-serif" font-size="13" font-weight="700" text-anchor="middle" fill="#222">E</text>
<text x="799.0" y="224.0" font-family="Segoe UI, Arial, sans-serif" font-size="10" font-weight="400" text-anchor="middle" fill="#636363">104</text>
<rect x="816.0" y="160.0" width="70.0" height="46" rx="4" fill="#ece8de" stroke="#c8c0b1" stroke-dasharray="4 3"/>
<line x1="824.0" y1="183.0" x2="878.0" y2="183.0" stroke="#8f8778" stroke-width="1.4"/>
<text x="851.0" y="177.0" font-family="Segoe UI, Arial, sans-serif" font-size="11" font-weight="700" text-anchor="middle" fill="#5e594f">--14--</text>
<text x="851.0" y="223.0" font-family="Segoe UI, Arial, sans-serif" font-size="9" font-weight="400" text-anchor="middle" fill="#777066">105-118</text>
<rect x="886.0" y="160.0" width="34.0" height="46" fill="#fbfaf6" stroke="#ddd6c8" stroke-width="1"/>
<line x1="886.0" y1="26" x2="886.0" y2="206.0" stroke="#cbc3b5" stroke-width="1"/>
<line x1="918.0" y1="26.0" x2="918.0" y2="206.0" stroke="#27221b" stroke-width="1.2"/><line x1="922.0" y1="26.0" x2="922.0" y2="206.0" stroke="#27221b" stroke-width="1.2"/>
<text x="903.0" y="224.0" font-family="Segoe UI, Arial, sans-serif" font-size="10" font-weight="400" text-anchor="middle" fill="#636363">119</text>
<rect x="920.0" y="160.0" width="35.0" height="46" fill="#ffffff" stroke="#ddd6c8" stroke-width="1"/>
<line x1="920.0" y1="26" x2="920.0" y2="206.0" stroke="#cbc3b5" stroke-width="1"/>
<rect x="926.5" y="28.0" width="22.0" height="22" rx="4" fill="#ffe7a8" stroke="#c18a18"/><text x="937.5" y="43.0" font-family="Segoe UI, Arial, sans-serif" font-size="13" font-weight="700" text-anchor="middle" fill="#222">F</text>
<rect x="922.4" y="82.0" width="30.3" height="22" rx="4" fill="#e4eed1" stroke="#8da969"/><text x="937.5" y="97.0" font-family="Segoe UI, Arial, sans-serif" font-size="11" font-weight="700" text-anchor="middle" fill="#222">1♭</text>
<text x="937.5" y="224.0" font-family="Segoe UI, Arial, sans-serif" font-size="10" font-weight="400" text-anchor="middle" fill="#636363">120</text>
<rect x="955.0" y="160.0" width="70.0" height="46" rx="4" fill="#ece8de" stroke="#c8c0b1" stroke-dasharray="4 3"/>
<line x1="963.0" y1="183.0" x2="1017.0" y2="183.0" stroke="#8f8778" stroke-width="1.4"/>
<text x="990.0" y="177.0" font-family="Segoe UI, Arial, sans-serif" font-size="11" font-weight="700" text-anchor="middle" fill="#5e594f">--10--</text>
<text x="990.0" y="223.0" font-family="Segoe UI, Arial, sans-serif" font-size="9" font-weight="400" text-anchor="middle" fill="#777066">121-130</text>
<rect x="1025.0" y="160.0" width="34.0" height="46" fill="#ffffff" stroke="#ddd6c8" stroke-width="1"/>
<line x1="1025.0" y1="26" x2="1025.0" y2="206.0" stroke="#cbc3b5" stroke-width="1"/>
<line x1="1057.0" y1="26.0" x2="1057.0" y2="206.0" stroke="#27221b" stroke-width="1.2"/><line x1="1061.0" y1="26.0" x2="1061.0" y2="206.0" stroke="#27221b" stroke-width="1.2"/>
<text x="1042.0" y="224.0" font-family="Segoe UI, Arial, sans-serif" font-size="10" font-weight="400" text-anchor="middle" fill="#636363">131</text>
<rect x="1059.0" y="160.0" width="34.0" height="46" fill="#fbfaf6" stroke="#ddd6c8" stroke-width="1"/>
<line x1="1059.0" y1="26" x2="1059.0" y2="206.0" stroke="#cbc3b5" stroke-width="1"/>
<rect x="1065.0" y="28.0" width="22.0" height="22" rx="4" fill="#ffe7a8" stroke="#c18a18"/><text x="1076.0" y="43.0" font-family="Segoe UI, Arial, sans-serif" font-size="13" font-weight="700" text-anchor="middle" fill="#222">G</text>
<rect x="1062.0" y="82.0" width="28.0" height="22" rx="4" fill="#e4eed1" stroke="#8da969"/><text x="1076.0" y="97.0" font-family="Segoe UI, Arial, sans-serif" font-size="11" font-weight="700" text-anchor="middle" fill="#222">1#</text>
<text x="1076.0" y="224.0" font-family="Segoe UI, Arial, sans-serif" font-size="10" font-weight="400" text-anchor="middle" fill="#636363">132</text>
<rect x="1093.0" y="160.0" width="70.0" height="46" rx="4" fill="#ece8de" stroke="#c8c0b1" stroke-dasharray="4 3"/>
<line x1="1101.0" y1="183.0" x2="1155.0" y2="183.0" stroke="#8f8778" stroke-width="1.4"/>
<text x="1128.0" y="177.0" font-family="Segoe UI, Arial, sans-serif" font-size="11" font-weight="700" text-anchor="middle" fill="#5e594f">--26--</text>
<text x="1128.0" y="223.0" font-family="Segoe UI, Arial, sans-serif" font-size="9" font-weight="400" text-anchor="middle" fill="#777066">133-158</text>
<rect x="1163.0" y="160.0" width="34.0" height="46" fill="#fbfaf6" stroke="#ddd6c8" stroke-width="1"/>
<line x1="1163.0" y1="26" x2="1163.0" y2="206.0" stroke="#cbc3b5" stroke-width="1"/>
<line x1="1194.0" y1="26.0" x2="1194.0" y2="206.0" stroke="#27221b" stroke-width="1.2"/><line x1="1199.0" y1="26.0" x2="1199.0" y2="206.0" stroke="#27221b" stroke-width="3.6"/>
<text x="1180.0" y="224.0" font-family="Segoe UI, Arial, sans-serif" font-size="10" font-weight="400" text-anchor="middle" fill="#636363">159</text>
</svg>