<svg xmlns="http://www.w3.org/2000/svg" width="2827" height="238" viewBox="0 0 2827 238">
<style>.music{font-family:"Leland","Bravura","Segoe UI Symbol","Noto Music",sans-serif;}</style>
<rect width="100%" height="100%" fill="#f7f5ef"/>
<text x="24.0" y="44.0" font-family="Segoe UI, Arial, sans-serif" font-size="11" font-weight="700" text-anchor="start" fill="#6b4c16">Mark</text>
<text x="24.0" y="71.0" font-family="Segoe UI, Arial, sans-serif" font-size="11" font-weight="700" text-anchor="start" fill="#6d3b60">Repeat</text>
<text x="24.0" y="98.0" font-family="Segoe UI, Arial, sans-serif" font-size="11" font-weight="700" text-anchor="start" fill="#4c6232">Key</text>
<text x="24.0" y="126.0" font-family="Segoe UI, Arial, sans-serif" font-size="11" font-weight="700" text-anchor="start" fill="#6b4c16">Meter</text>
<text x="24.0" y="193.0" font-family="Segoe UI, Arial, sans-serif" font-size="11" font-weight="700" text-anchor="start" fill="#1e526f">Tempo</text>
<line x1="82.0" y1="27" x2="2789.0" y2="27" stroke="#d7d0c2" stroke-width="1"/>
<rect x="82.0" y="160.0" width="56.0" height="46" fill="#ffffff" stroke="#ddd6c8" stroke-width="1"/>
<line x1="82.0" y1="26" x2="82.0" y2="206.0" stroke="#cbc3b5" stroke-width="1"/>
<rect x="84.2" y="28.0" width="51.7" height="22" rx="4" fill="#ffe7a8" stroke="#c18a18"/><text x="110.0" y="43.0" font-family="Segoe UI, Arial, sans-serif" font-size="13" font-weight="700" text-anchor="middle" fill="#222">Intro</text>
<rect x="94.9" y="82.0" width="30.3" height="22" rx="4" fill="#e4eed1" stroke="#8da969"/><text x="110.0" y="97.0" font-family="Segoe UI, Arial, sans-serif" font-size="11" font-weight="700" text-anchor="middle" fill="#222">1♭</text>
<text x="110.0" y="122.0" font-family="Segoe UI, Arial, sans-serif" font-size="10" font-weight="700" text-anchor="middle" fill="#222">4</text><line x1="100.0" y1="126.0" x2="120.0" y2="126.0" stroke="#5f512f" stroke-width="1"/><text x="110.0" y="137.0" font-family="Segoe UI, Arial, sans-serif" font-size="10" font-weight="700" text-anchor="middle" fill="#222">4</text>
<text x="110.0" y="192.0" font-family="Segoe UI, Arial, sans-serif" class="music" font-size="11" font-weight="700" text-anchor="middle" fill="#1e526f">♩=96</text>
<text x="110.0" y="224.0" font-family="Segoe UI, Arial, sans-serif" font-size="10" font-weight="400" text-anchor="middle" fill="#636363">0</text>
<rect x="138.0" y="160.0" width="34.0" height="46" fill="#fbfaf6" stroke="#ddd6c8" stroke-width="1"/>
<line x1="138.0" y1="26" x2="138.0" y2="206.0" stroke="#cbc3b5" stroke-width="1"/>
<rect x="172.0" y="160.0" width="34.0" height="46" fill="#ffffff" stroke="#ddd6c8" stroke-width="1"/>
<line x1="172.0" y1="26" x2="172.0" y2="206.0" stroke="#cbc3b5" stroke-width="1"/>
<rect x="206.0" y="160.0" width="34.0" height="46" fill="#fbfaf6" stroke="#ddd6c8" stroke-width="1"/>
<line x1="206.0" y1="26" x2="206.0" y2="206.0" stroke="#cbc3b5" stroke-width="1"/>
<text x="223.0" y="192.0" font-family="Segoe UI, Arial, sans-serif" class="music" font-size="11" font-weight="700" text-anchor="middle" fill="#1e526f">rit</text>
<text x="223.0" y="224.0" font-family="Segoe UI, Arial, sans-serif" font-size="10" font-weight="400" text-anchor="middle" fill="#636363">3</text>
<rect x="240.0" y="160.0" width="34.0" height="46" fill="#ffffff" stroke="#ddd6c8" stroke-width="1"/>
<line x1="240.0" y1="26" x2="240.0" y2="206.0" stroke="#cbc3b5" stroke-width="1"/>
<line x1="272.0" y1="26.0" x2="272.0" y2="206.0" stroke="#27221b" stroke-width="1.2"/><line x1="276.0" y1="26.0" x2="276.0" y2="206.0" stroke="#27221b" stroke-width="1.2"/>
<text x="257.0" y="224.0" font-family="Segoe UI, Arial, sans-serif" font-size="10" font-weight="400" text-anchor="middle" fill="#636363">4</text>
<rect x="274.0" y="160.0" width="53.0" height="46" fill="#fbfaf6" stroke="#ddd6c8" stroke-width="1"/>
<line x1="274.0" y1="26" x2="274.0" y2="206.0" stroke="#cbc3b5" stroke-width="1"/>
<text x="300.5" y="192.0" font-family="Segoe UI, Arial, sans-serif" class="music" font-size="11" font-weight="700" text-anchor="middle" fill="#1e526f">a tempo</text>
<text x="300.5" y="224.0" font-family="Segoe UI, Arial, sans-serif" font-size="10" font-weight="400" text-anchor="middle" fill="#636363">5</text>
<rect x="327.0" y="160.0" width="34.0" height="46" fill="#ffffff" stroke="#ddd6c8" stroke-width="1"/>
<line x1="327.0" y1="26" x2="327.0" y2="206.0" stroke="#cbc3b5" stroke-width="1"/>
<line x1="359.0" y1="26.0" x2="359.0" y2="206.0" stroke="#27221b" stroke-width="1.2"/><line x1="363.0" y1="26.0" x2="363.0" y2="206.0" stroke="#27221b" stroke-width="1.2"/>
<text x="344.0" y="224.0" font-family="Segoe UI, Arial, sans-serif" font-size="10" font-weight="400" text-anchor="middle" fill="#636363">6</text>
<rect x="361.0" y="160.0" width="49.0" height="46" fill="#fbfaf6" stroke="#ddd6c8" stroke-width="1"/>
<line x1="361.0" y1="26" x2="361.0" y2="206.0" stroke="#cbc3b5" stroke-width="1"/>
<rect x="363.4" y="28.0" width="44.2" height="22" rx="4" fill="#ffe7a8" stroke="#c18a18"/><text x="385.5" y="43.0" font-family="Segoe UI, Arial, sans-serif" font-size="13" font-weight="700" text-anchor="middle" fill="#222">Tema</text>
<text x="385.5" y="224.0" font-family="Segoe UI, Arial, sans-serif" font-size="10" font-weight="400" text-anchor="middle" fill="#636363">7</text>
<rect x="410.0" y="160.0" width="70.0" height="46" rx="4" fill="#ece8de" stroke="#c8c0b1" stroke-dasharray="4 3"/>
<line x1="418.0" y1="183.0" x2="472.0" y2="183.0" stroke="#8f8778" stroke-width="1.4"/>
<text x="445.0" y="177.0" font-family="Segoe UI, Arial, sans-serif" font-size="11" font-weight="700" text-anchor="middle" fill="#5e594f">--7--</text>
<text x="445.0" y="223.0" font-family="Segoe UI, Arial, sans-serif" font-size="9" font-weight="400" text-anchor="middle" fill="#777066">8-14</text>
<rect x="480.0" y="160.0" width="34.0" height="46" fill="#fbfaf6" stroke="#ddd6c8" stroke-width="1"/>
<line x1="480.0" y1="26" x2="480.0" y2="206.0" stroke="#cbc3b5" stroke-width="1"/>
<line x1="512.0" y1="26.0" x2="512.0" y2="206.0" stroke="#27221b" stroke-width="1.2"/><line x1="516.0" y1="26.0" x2="516.0" y2="206.0" stroke="#27221b" stroke-width="1.2"/>
<text x="497.0" y="224.0" font-family="Segoe UI, Arial, sans-serif" font-size="10" font-weight="400" text-anchor="middle" fill="#636363">15</text>
<rect x="514.0" y="160.0" width="58.0" height="46" fill="#ffffff" stroke="#ddd6c8" stroke-width="1"/>
<line x1="514.0" y1="26" x2="514.0" y2="206.0" stroke="#cbc3b5" stroke-width="1"/>
<rect x="516.4" y="28.0" width="53.3" height="22" rx="4" fill="#ffe7a8" stroke="#c18a18"/><text x="543.0" y="43.0" font-family="Segoe UI, Arial, sans-serif" font-size="13" font-weight="700" text-anchor="middle" fill="#222">Var. I</text>
<text x="543.0" y="224.0" font-family="Segoe UI, Arial, sans-serif" font-size="10" font-weight="400" text-anchor="middle" fill="#636363">16</text>
<rect x="572.0" y="160.0" width="70.0" height="46" rx="4" fill="#ece8de" stroke="#c8c0b1" stroke-dasharray="4 3"/>
<line x1="580.0" y1="183.0" x2="634.0" y2="183.0" stroke="#8f8778" stroke-width="1.4"/>
<text x="607.0" y="177.0" font-family="Segoe UI, Arial, sans-serif" font-size="11" font-weight="700" text-anchor="middle" fill="#5e594f">--6--</text>
<text x="607.0" y="223.0" font-family="Segoe UI, Arial, sans-serif" font-size="9" font-weight="400" text-anchor="middle" fill="#777066">17-22</text>
<rect x="642.0" y="160.0" width="34.0" height="46" fill="#ffffff" stroke="#ddd6c8" stroke-width="1"/>
<line x1="642.0" y1="26" x2="642.0" y2="206.0" stroke="#cbc3b5" stroke-width="1"/>
<line x1="674.0" y1="26.0" x2="674.0" y2="206.0" stroke="#27221b" stroke-width="1.2"/><line x1="678.0" y1="26.0" x2="678.0" y2="206.0" stroke="#27221b" stroke-width="1.2"/>
<text x="659.0" y="224.0" font-family="Segoe UI, Arial, sans-serif" font-size="10" font-weight="400" text-anchor="middle" fill="#636363">23</text>
<rect x="676.0" y="160.0" width="65.0" height="46" fill="#fbfaf6" stroke="#ddd6c8" stroke-width="1"/>
<line x1="676.0" y1="26" x2="676.0" y2="206.0" stroke="#cbc3b5" stroke-width="1"/>
<rect x="678.1" y="28.0" width="60.8" height="22" rx="4" fill="#ffe7a8" stroke="#c18a18"/><text x="708.5" y="43.0" font-family="Segoe UI, Arial, sans-serif" font-size="13" font-weight="700" text-anchor="middle" fill="#222">Var. II</text>
<text x="708.5" y="224.0" font-family="Segoe UI, Arial, sans-serif" font-size="10" font-weight="400" text-anchor="middle" fill="#636363">24</text>
<rect x="741.0" y="160.0" width="70.0" height="46" rx="4" fill="#ece8de" stroke="#c8c0b1" stroke-dasharray="4 3"/>
<line x1="749.0" y1="183.0" x2="803.0" y2="183.0" stroke="#8f8778" stroke-width="1.4"/>
<text x="776.0" y="177.0" font-family="Segoe UI, Arial, sans-serif" font-size="11" font-weight="700" text-anchor="middle" fill="#5e594f">--6--</text>
<text x="776.0" y="223.0" font-family="Segoe UI, Arial, sans-serif" font-size="9" font-weight="400" text-anchor="middle" fill="#777066">25-30</text>
<rect x="811.0" y="160.0" width="34.0" height="46" fill="#fbfaf6" stroke="#ddd6c8" stroke-width="1"/>
<line x1="811.0" y1="26" x2="811.0" y2="206.0" stroke="#cbc3b5" stroke-width="1"/>
<line x1="843.0" y1="26.0" x2="843.0" y2="206.0" stroke="#27221b" stroke-width="1.2"/><line x1="847.0" y1="26.0" x2="847.0" y2="206.0" stroke="#27221b" stroke-width="1.2"/>
<text x="828.0" y="224.0" font-family="Segoe UI, Arial, sans-serif" font-size="10" font-weight="400" text-anchor="middle" fill="#636363">31</text>
<rect x="845.0" y="160.0" width="73.0" height="46" fill="#ffffff" stroke="#ddd6c8" stroke-width="1"/>
<line x1="845.0" y1="26" x2="845.0" y2="206.0" stroke="#cbc3b5" stroke-width="1"/>
<rect x="847.3" y="28.0" width="68.3" height="22" rx="4" fill="#ffe7a8" stroke="#c18a18"/><text x="881.5" y="43.0" font-family="Segoe UI, Arial, sans-serif" font-size="13" font-weight="700" text-anchor="middle" fill="#222">Var. III</text>
<text x="881.5" y="224.0" font-family="Segoe UI, Arial, sans-serif" font-size="10" font-weight="400" text-anchor="middle" fill="#636363">32</text>
<rect x="918.0" y="160.0" width="70.0" height="46" rx="4" fill="#ece8de" stroke="#c8c0b1" stroke-dasharray="4 3"/>
<line x1="926.0" y1="183.0" x2="980.0" y2="183.0" stroke="#8f8778" stroke-width="1.4"/>
<text x="953.0" y="177.0" font-family="Segoe UI, Arial, sans-serif" font-size="11" font-weight="700" text-anchor="middle" fill="#5e594f">--6--</text>
<text x="953.0" y="223.0" font-family="Segoe UI, Arial, sans-serif" font-size="9" font-weight="400" text-anchor="middle" fill="#777066">33-38</text>
<rect x="988.0" y="160.0" width="34.0" height="46" fill="#ffffff" stroke="#ddd6c8" stroke-width="1"/>
<line x1="988.0" y1="26" x2="988.0" y2="206.0" stroke="#cbc3b5" stroke-width="1"/>
<line x1="1020.0" y1="26.0" x2="1020.0" y2="206.0" stroke="#27221b" stroke-width="1.2"/><line x1="1024.0" y1="26.0" x2="1024.0" y2="206.0" stroke="#27221b" stroke-width="1.2"/>
<text x="1005.0" y="224.0" font-family="Segoe UI, Arial, sans-serif" font-size="10" font-weight="400" text-anchor="middle" fill="#636363">39</text>
<rect x="1022.0" y="160.0" width="65.0" height="46" fill="#fbfaf6" stroke="#ddd6c8" stroke-width="1"/>
<line x1="1022.0" y1="26" x2="1022.0" y2="206.0" stroke="#cbc3b5" stroke-width="1"/>
<rect x="1024.1" y="28.0" width="60.8" height="22" rx="4" fill="#ffe7a8" stroke="#c18a18"/><text x="1054.5" y="43.0" font-family="Segoe UI, Arial, sans-serif" font-size="13" font-weight="700" text-anchor="middle" fill="#222">Var. IV</text>
<text x="1054.5" y="122.0" font-family="Segoe UI, Arial, sans-serif" font-size="10" font-weight="700" text-anchor="middle" fill="#222">6</text><line x1="1044.5" y1="126.0" x2="1064.5" y2="126.0" stroke="#5f512f" stroke-width="1"/><text x="1054.5" y="137.0" font-family="Segoe UI, Arial, sans-serif" font-size="10" font-weight="700" text-anchor="middle" fill="#222">8</text>
<text x="1054.5" y="224.0" font-family="Segoe UI, Arial, sans-serif" font-size="10" font-weight="400" text-anchor="middle" fill="#636363">40</text>
<rect x="1087.0" y="160.0" width="70.0" height="46" rx="4" fill="#ece8de" stroke="#c8c0b1" stroke-dasharray="4 3"/>
<line x1="1095.0" y1="183.0" x2="1149.0" y2="183.0" stroke="#8f8778" stroke-width="1.4"/>
<text x="1122.0" y="177.0" font-family="Segoe UI, Arial, sans-serif" font-size="11" font-weight="700" text-anchor="middle" fill="#5e594f">--6--</text>
<text x="1122.0" y="223.0" font-family="Segoe UI, Arial, sans-serif" font-size="9" font-weight="400" text-anchor="middle" fill="#777066">41-46</text>
<rect x="1157.0" y="160.0" width="34.0" height="46" fill="#fbfaf6" stroke="#ddd6c8" stroke-width="1"/>
<line x1="1157.0" y1="26" x2="1157.0" y2="206.0" stroke="#cbc3b5" stroke-width="1"/>
<line x1="1189.0" y1="26.0" x2="1189.0" y2="206.0" stroke="#27221b" stroke-width="1.2"/><line x1="1193.0" y1="26.0" x2="1193.0" y2="206.0" stroke="#27221b" stroke-width="1.2"/>
<text x="1174.0" y="224.0" font-family="Segoe UI, Arial, sans-serif" font-size="10" font-weight="400" text-anchor="middle" fill="#636363">47</text>
<rect x="1191.0" y="160.0" width="58.0" height="46" fill="#ffffff" stroke="#ddd6c8" stroke-width="1"/>
<line x1="1191.0" y1="26" x2="1191.0" y2="206.0" stroke="#cbc3b5" stroke-width="1"/>
<rect x="1193.4" y="28.0" width="53.3" height="22" rx="4" fill="#ffe7a8" stroke="#c18a18"/><text x="1220.0" y="43.0" font-family="Segoe UI, Arial, sans-serif" font-size="13" font-weight="700" text-anchor="middle" fill="#222">Var. V</text>
<text x="1220.0" y="224.0" font-family="Segoe UI, Arial, sans-serif" font-size="10" font-weight="400" text-anchor="middle" fill="#636363">48</text>
<rect x="1249.0" y="160.0" width="70.0" height="46" rx="4" fill="#ece8de" stroke="#c8c0b1" stroke-dasharray="4 3"/>
<line x1="1257.0" y1="183.0" x2="1311.0" y2="183.0" stroke="#8f8778" stroke-width="1.4"/>
<text x="1284.0" y="177.0" font-family="Segoe UI, Arial, sans-serif" font-size="11" font-weight="700" text-anchor="middle" fill="#5e594f">--6--</text>
<text x="1284.0" y="223.0" font-family="Segoe UI, Arial, sans-serif" font-size="9" font-weight="400" text-anchor="middle" fill="#777066">49-54</text>
<rect x="1319.0" y="160.0" width="34.0" height="46" fill="#ffffff" stroke="#ddd6c8" stroke-width="1"/>
<line x1="1319.0" y1="26" x2="1319.0" y2="206.0" stroke="#cbc3b5" stroke-width="1"/>
<line x1="1351.0" y1="26.0" x2="1351.0" y2="206.0" stroke="#27221b" stroke-width="1.2"/><line x1="1355.0" y1="26.0" x2="1355.0" y2="206.0" stroke="#27221b" stroke-width="1.2"/>
<text x="1336.0" y="224.0" font-family="Segoe UI, Arial, sans-serif" font-size="10" font-weight="400" text-anchor="middle" fill="#636363">55</text>
<rect x="1353.0" y="160.0" width="65.0" height="46" fill="#fbfaf6" stroke="#ddd6c8" stroke-width="1"/>
<line x1="1353.0" y1="26" x2="1353.0" y2="206.0" stroke="#cbc3b5" stroke-width="1"/>
<rect x="1355.1" y="28.0" width="60.8" height="22" rx="4" fill="#ffe7a8" stroke="#c18a18"/><text x="1385.5" y="43.0" font-family="Segoe UI, Arial, sans-serif" font-size="13" font-weight="700" text-anchor="middle" fill="#222">Var. VI</text>
<text x="1385.5" y="224.0" font-family="Segoe UI, Arial, sans-serif" font-size="10" font-weight="400" text-anchor="middle" fill="#636363">56</text>
<rect x="1418.0" y="160.0" width="70.0" height="46" rx="4" fill="#ece8de" stroke="#c8c0b1" stroke-dasharray="4 3"/>
<line x1="1426.0" y1="183.0" x2="1480.0" y2="183.0" stroke="#8f8778" stroke-width="1.4"/>
<text x="1453.0" y="177.0" font-family="Segoe UI, Arial, sans-serif" font-size="11" font-weight="700" text-anchor="middle" fill="#5e594f">--8--</text>
<text x="1453.0" y="223.0" font-family="Segoe UI, Arial, sans-serif" font-size="9" font-weight="400" text-anchor="middle" fill="#777066">57-64</text>
<rect x="1488.0" y="160.0" width="34.0" height="46" fill="#fbfaf6" stroke="#ddd6c8" stroke-width="1"/>
<line x1="1488.0" y1="26" x2="1488.0" y2="206.0" stroke="#cbc3b5" stroke-width="1"/>
<line x1="1520.0" y1="26.0" x2="1520.0" y2="206.0" stroke="#27221b" stroke-width="1.2"/><line x1="1524.0" y1="26.0" x2="1524.0" y2="206.0" stroke="#27221b" stroke-width="1.2"/>
<text x="1505.0" y="224.0" font-family="Segoe UI, Arial, sans-serif" font-size="10" font-weight="400" text-anchor="middle" fill="#636363">65</text>
<rect x="1522.0" y="160.0" width="73.0" height="46" fill="#ffffff" stroke="#ddd6c8" stroke-width="1"/>
<line x1="1522.0" y1="26" x2="1522.0" y2="206.0" stroke="#cbc3b5" stroke-width="1"/>
<rect x="1524.3" y="28.0" width="68.3" height="22" rx="4" fill="#ffe7a8" stroke="#c18a18"/><text x="1558.5" y="43.0" font-family="Segoe UI, Arial, sans-serif" font-size="13" font-weight="700" text-anchor="middle" fill="#222">Var. VII</text>
<text x="1558.5" y="122.0" font-family="Segoe UI, Arial, sans-serif" font-size="10" font-weight="700" text-anchor="middle" fill="#222">4</text><line x1="1548.5" y1="126.0" x2="1568.5" y2="126.0" stroke="#5f512f" stroke-width="1"/><text x="1558.5" y="137.0" font-family="Segoe UI, Arial, sans-serif" font-size="10" font-weight="700" text-anchor="middle" fill="#222">4</text>
<text x="1558.5" y="224.0" font-family="Segoe UI, Arial, sans-serif" font-size="10" font-weight="400" text-anchor="middle" fill="#636363">66</text>
<rect x="1595.0" y="160.0" width="70.0" height="46" rx="4" fill="#ece8de" stroke="#c8c0b1" stroke-dasharray="4 3"/>
<line x1="1603.0" y1="183.0" x2="1657.0" y2="183.0" stroke="#8f8778" stroke-width="1.4"/>
<text x="1630.0" y="177.0" font-family="Segoe UI, Arial, sans-serif" font-size="11" font-weight="700" text-anchor="middle" fill="#5e594f">--7--</text>
<text x="1630.0" y="223.0" font-family="Segoe UI, Arial, sans-serif" font-size="9" font-weight="400" text-anchor="middle" fill="#777066">67-73</text>
<rect x="1665.0" y="160.0" width="34.0" height="46" fill="#ffffff" stroke="#ddd6c8" stroke-width="1"/>
<line x1="1665.0" y1="26" x2="1665.0" y2="206.0" stroke="#cbc3b5" stroke-width="1"/>
<line x1="1697.0" y1="26.0" x2="1697.0" y2="206.0" stroke="#27221b" stroke-width="1.2"/><line x1="1701.0" y1="26.0" x2="1701.0" y2="206.0" stroke="#27221b" stroke-width="1.2"/>
<text x="1682.0" y="224.0" font-family="Segoe UI, Arial, sans-serif" font-size="10" font-weight="400" text-anchor="middle" fill="#636363">74</text>
<rect x="1699.0" y="160.0" width="80.0" height="46" fill="#fbfaf6" stroke="#ddd6c8" stroke-width="1"/>
<line x1="1699.0" y1="26" x2="1699.0" y2="206.0" stroke="#cbc3b5" stroke-width="1"/>
<rect x="1701.1" y="28.0" width="75.9" height="22" rx="4" fill="#ffe7a8" stroke="#c18a18"/><text x="1739.0" y="43.0" font-family="Segoe UI, Arial, sans-serif" font-size="13" font-weight="700" text-anchor="middle" fill="#222">Var. VIII</text>
<text x="1739.0" y="224.0" font-family="Segoe UI, Arial, sans-serif" font-size="10" font-weight="400" text-anchor="middle" fill="#636363">75</text>
<rect x="1779.0" y="160.0" width="70.0" height="46" rx="4" fill="#ece8de" stroke="#c8c0b1" stroke-dasharray="4 3"/>
<line x1="1787.0" y1="183.0" x2="1841.0" y2="183.0" stroke="#8f8778" stroke-width="1.4"/>
<text x="1814.0" y="177.0" font-family="Segoe UI, Arial, sans-serif" font-size="11" font-weight="700" text-anchor="middle" fill="#5e594f">--14--</text>
<text x="1814.0" y="223.0" font-family="Segoe UI, Arial, sans-serif" font-size="9" font-weight="400" text-anchor="middle" fill="#777066">76-89</text>
<rect x="1849.0" y="160.0" width="34.0" height="46" fill="#fbfaf6" stroke="#ddd6c8" stroke-width="1"/>
<line x1="1849.0" y1="26" x2="1849.0" y2="206.0" stroke="#cbc3b5" stroke-width="1"/>
<line x1="1881.0" y1="26.0" x2="1881.0" y2="206.0" stroke="#27221b" stroke-width="1.2"/><line x1="1885.0" y1="26.0" x2="1885.0" y2="206.0" stroke="#27221b" stroke-width="1.2"/>
<text x="1866.0" y="224.0" font-family="Segoe UI, Arial, sans-serif" font-size="10" font-weight="400" text-anchor="middle" fill="#636363">90</text>
<rect x="1883.0" y="160.0" width="47.0" height="46" fill="#ffffff" stroke="#ddd6c8" stroke-width="1"/>
<line x1="1883.0" y1="26" x2="1883.0" y2="206.0" stroke="#cbc3b5" stroke-width="1"/>
<text x="1906.5" y="122.0" font-family="Segoe UI, Arial, sans-serif" font-size="10" font-weight="700" text-anchor="middle" fill="#222">2</text><line x1="1896.5" y1="126.0" x2="1916.5" y2="126.0" stroke="#5f512f" stroke-width="1"/><text x="1906.5" y="137.0" font-family="Segoe UI, Arial, sans-serif" font-size="10" font-weight="700" text-anchor="middle" fill="#222">4</text>
<text x="1906.5" y="192.0" font-family="Segoe UI, Arial, sans-serif" class="music" font-size="11" font-weight="700" text-anchor="middle" fill="#1e526f">♩=138</text>
<text x="1906.5" y="224.0" font-family="Segoe UI, Arial, sans-serif" font-size="10" font-weight="400" text-anchor="middle" fill="#636363">91</text>
<rect x="1930.0" y="160.0" width="34.0" height="46" fill="#fbfaf6" stroke="#ddd6c8" stroke-width="1"/>
<line x1="1930.0" y1="26" x2="1930.0" y2="206.0" stroke="#cbc3b5" stroke-width="1"/>
<rect x="1964.0" y="160.0" width="34.0" height="46" fill="#ffffff" stroke="#ddd6c8" stroke-width="1"/>
<line x1="1964.0" y1="26" x2="1964.0" y2="206.0" stroke="#cbc3b5" stroke-width="1"/>
<rect x="1998.0" y="160.0" width="34.0" height="46" fill="#fbfaf6" stroke="#ddd6c8" stroke-width="1"/>
<line x1="1998.0" y1="26" x2="1998.0" y2="206.0" stroke="#cbc3b5" stroke-width="1"/>
<line x1="2030.0" y1="26.0" x2="2030.0" y2="206.0" stroke="#27221b" stroke-width="1.2"/><line x1="2034.0" y1="26.0" x2="2034.0" y2="206.0" stroke="#27221b" stroke-width="1.2"/>
<text x="2015.0" y="224.0" font-family="Segoe UI, Arial, sans-serif" font-size="10" font-weight="400" text-anchor="middle" fill="#636363">94</text>
<rect x="2032.0" y="160.0" width="65.0" height="46" fill="#ffffff" stroke="#ddd6c8" stroke-width="1"/>
<line x1="2032.0" y1="26" x2="2032.0" y2="206.0" stroke="#cbc3b5" stroke-width="1"/>
<rect x="2034.1" y="28.0" width="60.8" height="22" rx="4" fill="#ffe7a8" stroke="#c18a18"/><text x="2064.5" y="43.0" font-family="Segoe UI, Arial, sans-serif" font-size="13" font-weight="700" text-anchor="middle" fill="#222">Var. IX</text>
<text x="2064.5" y="224.0" font-family="Segoe UI, Arial, sans-serif" font-size="10" font-weight="400" text-anchor="middle" fill="#636363">95</text>
<rect x="2097.0" y="160.0" width="70.0" height="46" rx="4" fill="#ece8de" stroke="#c8c0b1" stroke-dasharray="4 3"/>
<line x1="2105.0" y1="183.0" x2="2159.0" y2="183.0" stroke="#8f8778" stroke-width="1.4"/>
<text x="2132.0" y="177.0" font-family="Segoe UI, Arial, sans-serif" font-size="11" font-weight="700" text-anchor="middle" fill="#5e594f">--14--</text>
<text x="2132.0" y="223.0" font-family="Segoe UI, Arial, sans-serif" font-size="9" font-weight="400" text-anchor="middle" fill="#777066">96-109</text>
<rect x="2167.0" y="160.0" width="34.0" height="46" fill="#ffffff" stroke="#ddd6c8" stroke-width="1"/>
<line x1="2167.0" y1="26" x2="2167.0" y2="206.0" stroke="#cbc3b5" stroke-width="1"/>
<line x1="2199.0" y1="26.0" x2="2199.0" y2="206.0" stroke="#27221b" stroke-width="1.2"/><line x1="2203.0" y1="26.0" x2="2203.0" y2="206.0" stroke="#27221b" stroke-width="1.2"/>
<text x="2184.0" y="224.0" font-family="Segoe UI, Arial, sans-serif" font-size="10" font-weight="400" text-anchor="middle" fill="#636363">110</text>
<rect x="2201.0" y="160.0" width="58.0" height="46" fill="#fbfaf6" stroke="#ddd6c8" stroke-width="1"/>
<line x1="2201.0" y1="26" x2="2201.0" y2="206.0" stroke="#cbc3b5" stroke-width="1"/>
<rect x="2203.4" y="28.0" width="53.3" height="22" rx="4" fill="#ffe7a8" stroke="#c18a18"/><text x="2230.0" y="43.0" font-family="Segoe UI, Arial, sans-serif" font-size="13" font-weight="700" text-anchor="middle" fill="#222">Var. X</text>
<text x="2230.0" y="224.0" font-family="Segoe UI, Arial, sans-serif" font-size="10" font-weight="400" text-anchor="middle" fill="#636363">111</text>
<rect x="2259.0" y="160.0" width="70.0" height="46" rx="4" fill="#ece8de" stroke="#c8c0b1" stroke-dasharray="4 3"/>
<line x1="2267.0" y1="183.0" x2="2321.0" y2="183.0" stroke="#8f8778" stroke-width="1.4"/>
<text x="2294.0" y="177.0" font-family="Segoe UI, Arial, sans-serif" font-size="11" font-weight="700" text-anchor="middle" fill="#5e594f">--14--</text>
<text x="2294.0" y="223.0" font-family="Segoe UI, Arial, sans-serif" font-size="9" font-weight="400" text-anchor="middle" fill="#777066">112-125</text>
<rect x="2329.0" y="160.0" width="34.0" height="46" fill="#fbfaf6" stroke="#ddd6c8" stroke-width="1"/>
<line x1="2329.0" y1="26" x2="2329.0" y2="206.0" stroke="#cbc3b5" stroke-width="1"/>
<line x1="2361.0" y1="26.0" x2="2361.0" y2="206.0" stroke="#27221b" stroke-width="1.2"/><line x1="2365.0" y1="26.0" x2="2365.0" y2="206.0" stroke="#27221b" stroke-width="1.2"/>
<text x="2346.0" y="224.0" font-family="Segoe UI, Arial, sans-serif" font-size="10" font-weight="400" text-anchor="middle" fill="#636363">126</text>
<rect x="2363.0" y="160.0" width="65.0" height="46" fill="#ffffff" stroke="#ddd6c8" stroke-width="1"/>
<line x1="2363.0" y1="26" x2="2363.0" y2="206.0" stroke="#cbc3b5" stroke-width="1"/>
<rect x="2365.1" y="28.0" width="60.8" height="22" rx="4" fill="#ffe7a8" stroke="#c18a18"/><text x="2395.5" y="43.0" font-family="Segoe UI, Arial, sans-serif" font-size="13" font-weight="700" text-anchor="middle" fill="#222">Var. XI</text>
<text x="2395.5" y="224.0" font-family="Segoe UI, Arial, sans-serif" font-size="10" font-weight="400" text-anchor="middle" fill="#636363">127</text>
<rect x="2428.0" y="160.0" width="70.0" height="46" rx="4" fill="#ece8de" stroke="#c8c0b1" stroke-dasharray="4 3"/>
<line x1="2436.0" y1="183.0" x2="2490.0" y2="183.0" stroke="#8f8778" stroke-width="1.4"/>
<text x="2463.0" y="177.0" font-family="Segoe UI, Arial, sans-serif" font-size="11" font-weight="700" text-anchor="middle" fill="#5e594f">--17--</text>
<text x="2463.0" y="223.0" font-family="Segoe UI, Arial, sans-serif" font-size="9" font-weight="400" text-anchor="middle" fill="#777066">128-144</text>
<rect x="2498.0" y="160.0" width="34.0" height="46" fill="#ffffff" stroke="#ddd6c8" stroke-width="1"/>
<line x1="2498.0" y1="26" x2="2498.0" y2="206.0" stroke="#cbc3b5" stroke-width="1"/>
<line x1="2530.0" y1="26.0" x2="2530.0" y2="206.0" stroke="#27221b" stroke-width="1.2"/><line x1="2534.0" y1="26.0" x2="2534.0" y2="206.0" stroke="#27221b" stroke-width="1.2"/>
<text x="2515.0" y="224.0" font-family="Segoe UI, Arial, sans-serif" font-size="10" font-weight="400" text-anchor="middle" fill="#636363">145</text>
<rect x="2532.0" y="160.0" width="49.0" height="46" fill="#fbfaf6" stroke="#ddd6c8" stroke-width="1"/>
<line x1="2532.0" y1="26" x2="2532.0" y2="206.0" stroke="#cbc3b5" stroke-width="1"/>
<rect x="2534.4" y="28.0" width="44.2" height="22" rx="4" fill="#ffe7a8" stroke="#c18a18"/><text x="2556.5" y="43.0" font-family="Segoe UI, Arial, sans-serif" font-size="13" font-weight="700" text-anchor="middle" fill="#222">Coda</text>
<text x="2556.5" y="224.0" font-family="Segoe UI, Arial, sans-serif" font-size="10" font-weight="400" text-anchor="middle" fill="#636363">146</text>
<rect x="2581.0" y="160.0" width="70.0" height="46" rx="4" fill="#ece8de" stroke="#c8c0b1" stroke-dasharray="4 3"/>
<line x1="2589.0" y1="183.0" x2="2643.0" y2="183.0" stroke="#8f8778" stroke-width="1.4"/>
<text x="2616.0" y="177.0" font-family="Segoe UI, Arial, sans-serif" font-size="11" font-weight="700" text-anchor="middle" fill="#5e594f">--15--</text>
<text x="2616.0" y="223.0" font-family="Segoe UI, Arial, sans-serif" font-size="9" font-weight="400" text-anchor="middle" fill="#777066">147-161</text>
<rect x="2651.0" y="160.0" width="34.0" height="46" fill="#fbfaf6" stroke="#ddd6c8" stroke-width="1"/>
<line x1="2651.0" y1="26" x2="2651.0" y2="206.0" stroke="#cbc3b5" stroke-width="1"/>
<text x="2668.0" y="192.0" font-family="Segoe UI, Arial, sans-serif" class="music" font-size="11" font-weight="700" text-anchor="middle" fill="#1e526f">rit</text>
<text x="2668.0" y="224.0" font-family="Segoe UI, Arial, sans-serif" font-size="10" font-weight="400" text-anchor="middle" fill="#636363">162</text>
<rect x="2685.0" y="160.0" width="70.0" height="46" rx="4" fill="#ece8de" stroke="#c8c0b1" stroke-dasharray="4 3"/>
<line x1="2693.0" y1="183.0" x2="2747.0" y2="183.0" stroke="#8f8778" stroke-width="1.4"/>
<text x="2720.0" y="177.0" font-family="Segoe UI, Arial, sans-serif" font-size="11" font-weight="700" text-anchor="middle" fill="#5e594f">--3--</text>
<text x="2720.0" y="223.0" font-family="Segoe UI, Arial, sans-serif" font-size="9" font-weight="400" text-anchor="middle" fill="#777066">163-165</text>
<rect x="2755.0" y="160.0" width="34.0" height="46" fill="#fbfaf6" stroke="#ddd6c8" stroke-width="1"/>
<line x1="2755.0" y1="26" x2="2755.0" y2="206.0" stroke="#cbc3b5" stroke-width="1"/>
<line x1="2786.0" y1="26.0" x2="2786.0" y2="206.0" stroke="#27221b" stroke-width="1.2"/><line x1="2791.0" y1="26.0" x2="2791.0" y2="206.0" stroke="#27221b" stroke-width="3.6"/>
<text x="2772.0" y="224.0" font-family="Segoe UI, Arial, sans-serif" font-size="10" font-weight="400" text-anchor="middle" fill="#636363">166</text>
</svg>