<svg xmlns="http://www.w3.org/2000/svg" width="2200" height="238" viewBox="0 0 2200 238">
<style>.music{font-family:"Leland","Bravura","Segoe UI Symbol","Noto Music",sans-serif;}</style>
<rect width="100%" height="100%" fill="#f7f5ef"/>
<text x="24.0" y="44.0" font-family="Segoe UI, Arial, sans-serif" font-size="11" font-weight="700" text-anchor="start" fill="#6b4c16">Mark</text>
<text x="24.0" y="71.0" font-family="Segoe UI, Arial, sans-serif" font-size="11" font-weight="700" text-anchor="start" fill="#6d3b60">Repeat</text>
<text x="24.0" y="98.0" font-family="Segoe UI, Arial, sans-serif" font-size="11" font-weight="700" text-anchor="start" fill="#4c6232">Key</text>
<text x="24.0" y="126.0" font-family="Segoe UI, Arial, sans-serif" font-size="11" font-weight="700" text-anchor="start" fill="#6b4c16">Meter</text>
<text x="24.0" y="193.0" font-family="Segoe UI, Arial, sans-serif" font-size="11" font-weight="700" text-anchor="start" fill="#1e526f">Tempo</text>
<line x1="82.0" y1="27" x2="2162.0" y2="27" stroke="#d7d0c2" stroke-width="1"/>
<rect x="82.0" y="160.0" width="40.0" height="46" fill="#ffffff" stroke="#ddd6c8" stroke-width="1"/>
<line x1="82.0" y1="26" x2="82.0" y2="206.0" stroke="#cbc3b5" stroke-width="1"/>
<rect x="86.9" y="82.0" width="30.3" height="22" rx="4" fill="#e4eed1" stroke="#8da969"/><text x="102.0" y="97.0" font-family="Segoe UI, Arial, sans-serif" font-size="11" font-weight="700" text-anchor="middle" fill="#222">2♭</text>
<text x="102.0" y="122.0" font-family="Segoe UI, Arial, sans-serif" font-size="10" font-weight="700" text-anchor="middle" fill="#222">3</text><line x1="92.0" y1="126.0" x2="112.0" y2="126.0" stroke="#5f512f" stroke-width="1"/><text x="102.0" y="137.0" font-family="Segoe UI, Arial, sans-serif" font-size="10" font-weight="700" text-anchor="middle" fill="#222">4</text>
<text x="102.0" y="192.0" font-family="Segoe UI, Arial, sans-serif" class="music" font-size="11" font-weight="700" text-anchor="middle" fill="#1e526f">♩=60</text>
<text x="102.0" y="224.0" font-family="Segoe UI, Arial, sans-serif" font-size="10" font-weight="400" text-anchor="middle" fill="#636363">1</text>
<rect x="122.0" y="160.0" width="70.0" height="46" rx="4" fill="#ece8de" stroke="#c8c0b1" stroke-dasharray="4 3"/>
<line x1="130.0" y1="183.0" x2="184.0" y2="183.0" stroke="#8f8778" stroke-width="1.4"/>
<text x="157.0" y="177.0" font-family="Segoe UI, Arial, sans-serif" font-size="11" font-weight="700" text-anchor="middle" fill="#5e594f">--14--</text>
<text x="157.0" y="223.0" font-family="Segoe UI, Arial, sans-serif" font-size="9" font-weight="400" text-anchor="middle" fill="#777066">2-15</text>
<rect x="192.0" y="160.0" width="34.0" height="46" fill="#ffffff" stroke="#ddd6c8" stroke-width="1"/>
<line x1="192.0" y1="26" x2="192.0" y2="206.0" stroke="#cbc3b5" stroke-width="1"/>
<line x1="224.0" y1="26.0" x2="224.0" y2="206.0" stroke="#27221b" stroke-width="1.2"/><line x1="228.0" y1="26.0" x2="228.0" y2="206.0" stroke="#27221b" stroke-width="1.2"/>
<text x="209.0" y="224.0" font-family="Segoe UI, Arial, sans-serif" font-size="10" font-weight="400" text-anchor="middle" fill="#636363">16</text>
<rect x="226.0" y="160.0" width="34.0" height="46" fill="#fbfaf6" stroke="#ddd6c8" stroke-width="1"/>
<line x1="226.0" y1="26" x2="226.0" y2="206.0" stroke="#cbc3b5" stroke-width="1"/>
<rect x="232.0" y="28.0" width="22.0" height="22" rx="4" fill="#ffe7a8" stroke="#c18a18"/><text x="243.0" y="43.0" font-family="Segoe UI, Arial, sans-serif" font-size="13" font-weight="700" text-anchor="middle" fill="#222">A</text>
<text x="243.0" y="224.0" font-family="Segoe UI, Arial, sans-serif" font-size="10" font-weight="400" text-anchor="middle" fill="#636363">17</text>
<rect x="260.0" y="160.0" width="70.0" height="46" rx="4" fill="#ece8de" stroke="#c8c0b1" stroke-dasharray="4 3"/>
<line x1="268.0" y1="183.0" x2="322.0" y2="183.0" stroke="#8f8778" stroke-width="1.4"/>
<text x="295.0" y="177.0" font-family="Segoe UI, Arial, sans-serif" font-size="11" font-weight="700" text-anchor="middle" fill="#5e594f">--4--</text>
<text x="295.0" y="223.0" font-family="Segoe UI, Arial, sans-serif" font-size="9" font-weight="400" text-anchor="middle" fill="#777066">18-21</text>
<rect x="330.0" y="160.0" width="34.0" height="46" fill="#fbfaf6" stroke="#ddd6c8" stroke-width="1"/>
<line x1="330.0" y1="26" x2="330.0" y2="206.0" stroke="#cbc3b5" stroke-width="1"/>
<line x1="362.0" y1="26.0" x2="362.0" y2="206.0" stroke="#27221b" stroke-width="1.2"/><line x1="366.0" y1="26.0" x2="366.0" y2="206.0" stroke="#27221b" stroke-width="1.2"/>
<text x="347.0" y="224.0" font-family="Segoe UI, Arial, sans-serif" font-size="10" font-weight="400" text-anchor="middle" fill="#636363">22</text>
<rect x="364.0" y="160.0" width="47.0" height="46" fill="#ffffff" stroke="#ddd6c8" stroke-width="1"/>
<line x1="364.0" y1="26" x2="364.0" y2="206.0" stroke="#cbc3b5" stroke-width="1"/>
<text x="387.5" y="122.0" font-family="Segoe UI, Arial, sans-serif" font-size="10" font-weight="700" text-anchor="middle" fill="#222">4</text><line x1="377.5" y1="126.0" x2="397.5" y2="126.0" stroke="#5f512f" stroke-width="1"/><text x="387.5" y="137.0" font-family="Segoe UI, Arial, sans-serif" font-size="10" font-weight="700" text-anchor="middle" fill="#222">4</text>
<text x="387.5" y="192.0" font-family="Segoe UI, Arial, sans-serif" class="music" font-size="11" font-weight="700" text-anchor="middle" fill="#1e526f">♩=158</text>
<text x="387.5" y="224.0" font-family="Segoe UI, Arial, sans-serif" font-size="10" font-weight="400" text-anchor="middle" fill="#636363">23</text>
<rect x="411.0" y="160.0" width="34.0" height="46" fill="#fbfaf6" stroke="#ddd6c8" stroke-width="1"/>
<line x1="411.0" y1="26" x2="411.0" y2="206.0" stroke="#cbc3b5" stroke-width="1"/>
<rect x="445.0" y="160.0" width="34.0" height="46" fill="#ffffff" stroke="#ddd6c8" stroke-width="1"/>
<line x1="445.0" y1="26" x2="445.0" y2="206.0" stroke="#cbc3b5" stroke-width="1"/>
<text x="462.0" y="224.0" font-family="Segoe UI, Arial, sans-serif" font-size="10" font-weight="400" text-anchor="middle" fill="#636363">25</text>
<rect x="479.0" y="160.0" width="34.0" height="46" fill="#fbfaf6" stroke="#ddd6c8" stroke-width="1"/>
<line x1="479.0" y1="26" x2="479.0" y2="206.0" stroke="#cbc3b5" stroke-width="1"/>
<line x1="511.0" y1="26.0" x2="511.0" y2="206.0" stroke="#27221b" stroke-width="1.2"/><line x1="515.0" y1="26.0" x2="515.0" y2="206.0" stroke="#27221b" stroke-width="1.2"/>
<text x="496.0" y="224.0" font-family="Segoe UI, Arial, sans-serif" font-size="10" font-weight="400" text-anchor="middle" fill="#636363">26</text>
<rect x="513.0" y="160.0" width="34.0" height="46" fill="#ffffff" stroke="#ddd6c8" stroke-width="1"/>
<line x1="513.0" y1="26" x2="513.0" y2="206.0" stroke="#cbc3b5" stroke-width="1"/>
<rect x="519.0" y="28.0" width="22.0" height="22" rx="4" fill="#ffe7a8" stroke="#c18a18"/><text x="530.0" y="43.0" font-family="Segoe UI, Arial, sans-serif" font-size="13" font-weight="700" text-anchor="middle" fill="#222">B</text>
<text x="530.0" y="224.0" font-family="Segoe UI, Arial, sans-serif" font-size="10" font-weight="400" text-anchor="middle" fill="#636363">27</text>
<rect x="547.0" y="160.0" width="70.0" height="46" rx="4" fill="#ece8de" stroke="#c8c0b1" stroke-dasharray="4 3"/>
<line x1="555.0" y1="183.0" x2="609.0" y2="183.0" stroke="#8f8778" stroke-width="1.4"/>
<text x="582.0" y="177.0" font-family="Segoe UI, Arial, sans-serif" font-size="11" font-weight="700" text-anchor="middle" fill="#5e594f">--30--</text>
<text x="582.0" y="223.0" font-family="Segoe UI, Arial, sans-serif" font-size="9" font-weight="400" text-anchor="middle" fill="#777066">28-57</text>
<rect x="617.0" y="160.0" width="34.0" height="46" fill="#ffffff" stroke="#ddd6c8" stroke-width="1"/>
<line x1="617.0" y1="26" x2="617.0" y2="206.0" stroke="#cbc3b5" stroke-width="1"/>
<line x1="649.0" y1="26.0" x2="649.0" y2="206.0" stroke="#27221b" stroke-width="1.2"/><line x1="653.0" y1="26.0" x2="653.0" y2="206.0" stroke="#27221b" stroke-width="1.2"/>
<text x="634.0" y="224.0" font-family="Segoe UI, Arial, sans-serif" font-size="10" font-weight="400" text-anchor="middle" fill="#636363">58</text>
<rect x="651.0" y="160.0" width="34.0" height="46" fill="#fbfaf6" stroke="#ddd6c8" stroke-width="1"/>
<line x1="651.0" y1="26" x2="651.0" y2="206.0" stroke="#cbc3b5" stroke-width="1"/>
<rect x="657.0" y="28.0" width="22.0" height="22" rx="4" fill="#ffe7a8" stroke="#c18a18"/><text x="668.0" y="43.0" font-family="Segoe UI, Arial, sans-serif" font-size="13" font-weight="700" text-anchor="middle" fill="#222">C</text>
<text x="668.0" y="224.0" font-family="Segoe UI, Arial, sans-serif" font-size="10" font-weight="400" text-anchor="middle" fill="#636363">59</text>
<rect x="685.0" y="160.0" width="70.0" height="46" rx="4" fill="#ece8de" stroke="#c8c0b1" stroke-dasharray="4 3"/>
<line x1="693.0" y1="183.0" x2="747.0" y2="183.0" stroke="#8f8778" stroke-width="1.4"/>
<text x="720.0" y="177.0" font-family="Segoe UI, Arial, sans-serif" font-size="11" font-weight="700" text-anchor="middle" fill="#5e594f">--14--</text>
<text x="720.0" y="223.0" font-family="Segoe UI, Arial, sans-serif" font-size="9" font-weight="400" text-anchor="middle" fill="#777066">60-73</text>
<rect x="755.0" y="160.0" width="34.0" height="46" fill="#fbfaf6" stroke="#ddd6c8" stroke-width="1"/>
<line x1="755.0" y1="26" x2="755.0" y2="206.0" stroke="#cbc3b5" stroke-width="1"/>
<line x1="787.0" y1="26.0" x2="787.0" y2="206.0" stroke="#27221b" stroke-width="1.2"/><line x1="791.0" y1="26.0" x2="791.0" y2="206.0" stroke="#27221b" stroke-width="1.2"/>
<text x="772.0" y="224.0" font-family="Segoe UI, Arial, sans-serif" font-size="10" font-weight="400" text-anchor="middle" fill="#636363">74</text>
<rect x="789.0" y="160.0" width="34.0" height="46" fill="#ffffff" stroke="#ddd6c8" stroke-width="1"/>
<line x1="789.0" y1="26" x2="789.0" y2="206.0" stroke="#cbc3b5" stroke-width="1"/>
<rect x="795.0" y="28.0" width="22.0" height="22" rx="4" fill="#ffe7a8" stroke="#c18a18"/><text x="806.0" y="43.0" font-family="Segoe UI, Arial, sans-serif" font-size="13" font-weight="700" text-anchor="middle" fill="#222">D</text>
<text x="806.0" y="224.0" font-family="Segoe UI, Arial, sans-serif" font-size="10" font-weight="400" text-anchor="middle" fill="#636363">75</text>
<rect x="823.0" y="160.0" width="70.0" height="46" rx="4" fill="#ece8de" stroke="#c8c0b1" stroke-dasharray="4 3"/>
<line x1="831.0" y1="183.0" x2="885.0" y2="183.0" stroke="#8f8778" stroke-width="1.4"/>
<text x="858.0" y="177.0" font-family="Segoe UI, Arial, sans-serif" font-size="11" font-weight="700" text-anchor="middle" fill="#5e594f">--13--</text>
<text x="858.0" y="223.0" font-family="Segoe UI, Arial, sans-serif" font-size="9" font-weight="400" text-anchor="middle" fill="#777066">76-88</text>
<rect x="893.0" y="160.0" width="34.0" height="46" fill="#ffffff" stroke="#ddd6c8" stroke-width="1"/>
<line x1="893.0" y1="26" x2="893.0" y2="206.0" stroke="#cbc3b5" stroke-width="1"/>
<text x="910.0" y="192.0" font-family="Segoe UI, Arial, sans-serif" class="music" font-size="11" font-weight="700" text-anchor="middle" fill="#1e526f">rit</text>
<text x="910.0" y="224.0" font-family="Segoe UI, Arial, sans-serif" font-size="10" font-weight="400" text-anchor="middle" fill="#636363">89</text>
<rect x="927.0" y="160.0" width="34.0" height="46" fill="#fbfaf6" stroke="#ddd6c8" stroke-width="1"/>
<line x1="927.0" y1="26" x2="927.0" y2="206.0" stroke="#cbc3b5" stroke-width="1"/>
<line x1="959.0" y1="26.0" x2="959.0" y2="206.0" stroke="#27221b" stroke-width="1.2"/><line x1="963.0" y1="26.0" x2="963.0" y2="206.0" stroke="#27221b" stroke-width="1.2"/>
<text x="944.0" y="224.0" font-family="Segoe UI, Arial, sans-serif" font-size="10" font-weight="400" text-anchor="middle" fill="#636363">90</text>
<rect x="961.0" y="160.0" width="40.0" height="46" fill="#ffffff" stroke="#ddd6c8" stroke-width="1"/>
<line x1="961.0" y1="26" x2="961.0" y2="206.0" stroke="#cbc3b5" stroke-width="1"/>
<text x="981.0" y="192.0" font-family="Segoe UI, Arial, sans-serif" class="music" font-size="11" font-weight="700" text-anchor="middle" fill="#1e526f">♩=96</text>
<text x="981.0" y="224.0" font-family="Segoe UI, Arial, sans-serif" font-size="10" font-weight="400" text-anchor="middle" fill="#636363">91</text>
<rect x="1001.0" y="160.0" width="34.0" height="46" fill="#fbfaf6" stroke="#ddd6c8" stroke-width="1"/>
<line x1="1001.0" y1="26" x2="1001.0" y2="206.0" stroke="#cbc3b5" stroke-width="1"/>
<line x1="1033.0" y1="26.0" x2="1033.0" y2="206.0" stroke="#27221b" stroke-width="1.2"/><line x1="1037.0" y1="26.0" x2="1037.0" y2="206.0" stroke="#27221b" stroke-width="1.2"/>
<text x="1018.0" y="224.0" font-family="Segoe UI, Arial, sans-serif" font-size="10" font-weight="400" text-anchor="middle" fill="#636363">92</text>
<rect x="1035.0" y="160.0" width="34.0" height="46" fill="#ffffff" stroke="#ddd6c8" stroke-width="1"/>
<line x1="1035.0" y1="26" x2="1035.0" y2="206.0" stroke="#cbc3b5" stroke-width="1"/>
<rect x="1041.0" y="28.0" width="22.0" height="22" rx="4" fill="#ffe7a8" stroke="#c18a18"/><text x="1052.0" y="43.0" font-family="Segoe UI, Arial, sans-serif" font-size="13" font-weight="700" text-anchor="middle" fill="#222">E</text>
<text x="1052.0" y="224.0" font-family="Segoe UI, Arial, sans-serif" font-size="10" font-weight="400" text-anchor="middle" fill="#636363">93</text>
<rect x="1069.0" y="160.0" width="70.0" height="46" rx="4" fill="#ece8de" stroke="#c8c0b1" stroke-dasharray="4 3"/>
<line x1="1077.0" y1="183.0" x2="1131.0" y2="183.0" stroke="#8f8778" stroke-width="1.4"/>
<text x="1104.0" y="177.0" font-family="Segoe UI, Arial, sans-serif" font-size="11" font-weight="700" text-anchor="middle" fill="#5e594f">--14--</text>
<text x="1104.0" y="223.0" font-family="Segoe UI, Arial, sans-serif" font-size="9" font-weight="400" text-anchor="middle" fill="#777066">94-107</text>
<rect x="1139.0" y="160.0" width="34.0" height="46" fill="#ffffff" stroke="#ddd6c8" stroke-width="1"/>
<line x1="1139.0" y1="26" x2="1139.0" y2="206.0" stroke="#cbc3b5" stroke-width="1"/>
<line x1="1171.0" y1="26.0" x2="1171.0" y2="206.0" stroke="#27221b" stroke-width="1.2"/><line x1="1175.0" y1="26.0" x2="1175.0" y2="206.0" stroke="#27221b" stroke-width="1.2"/>
<text x="1156.0" y="224.0" font-family="Segoe UI, Arial, sans-serif" font-size="10" font-weight="400" text-anchor="middle" fill="#636363">108</text>
<rect x="1173.0" y="160.0" width="34.0" height="46" fill="#fbfaf6" stroke="#ddd6c8" stroke-width="1"/>
<line x1="1173.0" y1="26" x2="1173.0" y2="206.0" stroke="#cbc3b5" stroke-width="1"/>
<rect x="1179.0" y="28.0" width="22.0" height="22" rx="4" fill="#ffe7a8" stroke="#c18a18"/><text x="1190.0" y="43.0" font-family="Segoe UI, Arial, sans-serif" font-size="13" font-weight="700" text-anchor="middle" fill="#222">F</text>
<text x="1190.0" y="224.0" font-family="Segoe UI, Arial, sans-serif" font-size="10" font-weight="400" text-anchor="middle" fill="#636363">109</text>
<rect x="1207.0" y="160.0" width="70.0" height="46" rx="4" fill="#ece8de" stroke="#c8c0b1" stroke-dasharray="4 3"/>
<line x1="1215.0" y1="183.0" x2="1269.0" y2="183.0" stroke="#8f8778" stroke-width="1.4"/>
<text x="1242.0" y="177.0" font-family="Segoe UI, Arial, sans-serif" font-size="11" font-weight="700" text-anchor="middle" fill="#5e594f">--15--</text>
<text x="1242.0" y="223.0" font-family="Segoe UI, Arial, sans-serif" font-size="9" font-weight="400" text-anchor="middle" fill="#777066">110-124</text>
<rect x="1277.0" y="160.0" width="34.0" height="46" fill="#fbfaf6" stroke="#ddd6c8" stroke-width="1"/>
<line x1="1277.0" y1="26" x2="1277.0" y2="206.0" stroke="#cbc3b5" stroke-width="1"/>
<line x1="1309.0" y1="26.0" x2="1309.0" y2="206.0" stroke="#27221b" stroke-width="1.2"/><line x1="1313.0" y1="26.0" x2="1313.0" y2="206.0" stroke="#27221b" stroke-width="1.2"/>
<text x="1294.0" y="224.0" font-family="Segoe UI, Arial, sans-serif" font-size="10" font-weight="400" text-anchor="middle" fill="#636363">125</text>
<rect x="1311.0" y="160.0" width="47.0" height="46" fill="#ffffff" stroke="#ddd6c8" stroke-width="1"/>
<line x1="1311.0" y1="26" x2="1311.0" y2="206.0" stroke="#cbc3b5" stroke-width="1"/>
<rect x="1323.5" y="28.0" width="22.0" height="22" rx="4" fill="#ffe7a8" stroke="#c18a18"/><text x="1334.5" y="43.0" font-family="Segoe UI, Arial, sans-serif" font-size="13" font-weight="700" text-anchor="middle" fill="#222">G</text>
<rect x="1319.4" y="82.0" width="30.3" height="22" rx="4" fill="#e4eed1" stroke="#8da969"/><text x="1334.5" y="97.0" font-family="Segoe UI, Arial, sans-serif" font-size="11" font-weight="700" text-anchor="middle" fill="#222">3♭</text>
<text x="1334.5" y="192.0" font-family="Segoe UI, Arial, sans-serif" class="music" font-size="11" font-weight="700" text-anchor="middle" fill="#1e526f">♩=158</text>
<text x="1334.5" y="224.0" font-family="Segoe UI, Arial, sans-serif" font-size="10" font-weight="400" text-anchor="middle" fill="#636363">126</text>
<rect x="1358.0" y="160.0" width="70.0" height="46" rx="4" fill="#ece8de" stroke="#c8c0b1" stroke-dasharray="4 3"/>
<line x1="1366.0" y1="183.0" x2="1420.0" y2="183.0" stroke="#8f8778" stroke-width="1.4"/>
<text x="1393.0" y="177.0" font-family="Segoe UI, Arial, sans-serif" font-size="11" font-weight="700" text-anchor="middle" fill="#5e594f">--8--</text>
<text x="1393.0" y="223.0" font-family="Segoe UI, Arial, sans-serif" font-size="9" font-weight="400" text-anchor="middle" fill="#777066">127-134</text>
<rect x="1428.0" y="160.0" width="34.0" height="46" fill="#ffffff" stroke="#ddd6c8" stroke-width="1"/>
<line x1="1428.0" y1="26" x2="1428.0" y2="206.0" stroke="#cbc3b5" stroke-width="1"/>
<line x1="1460.0" y1="26.0" x2="1460.0" y2="206.0" stroke="#27221b" stroke-width="1.2"/><line x1="1464.0" y1="26.0" x2="1464.0" y2="206.0" stroke="#27221b" stroke-width="1.2"/>
<text x="1445.0" y="224.0" font-family="Segoe UI, Arial, sans-serif" font-size="10" font-weight="400" text-anchor="middle" fill="#636363">135</text>
<rect x="1462.0" y="160.0" width="34.0" height="46" fill="#fbfaf6" stroke="#ddd6c8" stroke-width="1"/>
<line x1="1462.0" y1="26" x2="1462.0" y2="206.0" stroke="#cbc3b5" stroke-width="1"/>
<rect x="1468.0" y="28.0" width="22.0" height="22" rx="4" fill="#ffe7a8" stroke="#c18a18"/><text x="1479.0" y="43.0" font-family="Segoe UI, Arial, sans-serif" font-size="13" font-weight="700" text-anchor="middle" fill="#222">H</text>
<text x="1479.0" y="224.0" font-family="Segoe UI, Arial, sans-serif" font-size="10" font-weight="400" text-anchor="middle" fill="#636363">136</text>
<rect x="1496.0" y="160.0" width="70.0" height="46" rx="4" fill="#ece8de" stroke="#c8c0b1" stroke-dasharray="4 3"/>
<line x1="1504.0" y1="183.0" x2="1558.0" y2="183.0" stroke="#8f8778" stroke-width="1.4"/>
<text x="1531.0" y="177.0" font-family="Segoe UI, Arial, sans-serif" font-size="11" font-weight="700" text-anchor="middle" fill="#5e594f">--7--</text>
<text x="1531.0" y="223.0" font-family="Segoe UI, Arial, sans-serif" font-size="9" font-weight="400" text-anchor="middle" fill="#777066">137-143</text>
<rect x="1566.0" y="160.0" width="34.0" height="46" fill="#fbfaf6" stroke="#ddd6c8" stroke-width="1"/>
<line x1="1566.0" y1="26" x2="1566.0" y2="206.0" stroke="#cbc3b5" stroke-width="1"/>
<text x="1583.0" y="122.0" font-family="Segoe UI, Arial, sans-serif" font-size="10" font-weight="700" text-anchor="middle" fill="#222">5</text><line x1="1573.0" y1="126.0" x2="1593.0" y2="126.0" stroke="#5f512f" stroke-width="1"/><text x="1583.0" y="137.0" font-family="Segoe UI, Arial, sans-serif" font-size="10" font-weight="700" text-anchor="middle" fill="#222">4</text>
<text x="1583.0" y="224.0" font-family="Segoe UI, Arial, sans-serif" font-size="10" font-weight="400" text-anchor="middle" fill="#636363">144</text>
<rect x="1600.0" y="160.0" width="34.0" height="46" fill="#ffffff" stroke="#ddd6c8" stroke-width="1"/>
<line x1="1600.0" y1="26" x2="1600.0" y2="206.0" stroke="#cbc3b5" stroke-width="1"/>
<text x="1617.0" y="224.0" font-family="Segoe UI, Arial, sans-serif" font-size="10" font-weight="400" text-anchor="middle" fill="#636363">145</text>
<rect x="1634.0" y="160.0" width="34.0" height="46" fill="#fbfaf6" stroke="#ddd6c8" stroke-width="1"/>
<line x1="1634.0" y1="26" x2="1634.0" y2="206.0" stroke="#cbc3b5" stroke-width="1"/>
<text x="1651.0" y="122.0" font-family="Segoe UI, Arial, sans-serif" font-size="10" font-weight="700" text-anchor="middle" fill="#222">4</text><line x1="1641.0" y1="126.0" x2="1661.0" y2="126.0" stroke="#5f512f" stroke-width="1"/><text x="1651.0" y="137.0" font-family="Segoe UI, Arial, sans-serif" font-size="10" font-weight="700" text-anchor="middle" fill="#222">4</text>
<text x="1651.0" y="224.0" font-family="Segoe UI, Arial, sans-serif" font-size="10" font-weight="400" text-anchor="middle" fill="#636363">146</text>
<rect x="1668.0" y="160.0" width="70.0" height="46" rx="4" fill="#ece8de" stroke="#c8c0b1" stroke-dasharray="4 3"/>
<line x1="1676.0" y1="183.0" x2="1730.0" y2="183.0" stroke="#8f8778" stroke-width="1.4"/>
<text x="1703.0" y="177.0" font-family="Segoe UI, Arial, sans-serif" font-size="11" font-weight="700" text-anchor="middle" fill="#5e594f">--10--</text>
<text x="1703.0" y="223.0" font-family="Segoe UI, Arial, sans-serif" font-size="9" font-weight="400" text-anchor="middle" fill="#777066">147-156</text>
<rect x="1738.0" y="160.0" width="34.0" height="46" fill="#fbfaf6" stroke="#ddd6c8" stroke-width="1"/>
<line x1="1738.0" y1="26" x2="1738.0" y2="206.0" stroke="#cbc3b5" stroke-width="1"/>
<line x1="1770.0" y1="26.0" x2="1770.0" y2="206.0" stroke="#27221b" stroke-width="1.2"/><line x1="1774.0" y1="26.0" x2="1774.0" y2="206.0" stroke="#27221b" stroke-width="1.2"/>
<text x="1755.0" y="224.0" font-family="Segoe UI, Arial, sans-serif" font-size="10" font-weight="400" text-anchor="middle" fill="#636363">157</text>
<rect x="1772.0" y="160.0" width="35.0" height="46" fill="#ffffff" stroke="#ddd6c8" stroke-width="1"/>
<line x1="1772.0" y1="26" x2="1772.0" y2="206.0" stroke="#cbc3b5" stroke-width="1"/>
<rect x="1778.5" y="28.0" width="22.0" height="22" rx="4" fill="#ffe7a8" stroke="#c18a18"/><text x="1789.5" y="43.0" font-family="Segoe UI, Arial, sans-serif" font-size="13" font-weight="700" text-anchor="middle" fill="#222">I</text>
<rect x="1774.4" y="82.0" width="30.3" height="22" rx="4" fill="#e4eed1" stroke="#8da969"/><text x="1789.5" y="97.0" font-family="Segoe UI, Arial, sans-serif" font-size="11" font-weight="700" text-anchor="middle" fill="#222">2♭</text>
<text x="1789.5" y="224.0" font-family="Segoe UI, Arial, sans-serif" font-size="10" font-weight="400" text-anchor="middle" fill="#636363">158</text>
<rect x="1807.0" y="160.0" width="70.0" height="46" rx="4" fill="#ece8de" stroke="#c8c0b1" stroke-dasharray="4 3"/>
<line x1="1815.0" y1="183.0" x2="1869.0" y2="183.0" stroke="#8f8778" stroke-width="1.4"/>
<text x="1842.0" y="177.0" font-family="Segoe UI, Arial, sans-serif" font-size="11" font-weight="700" text-anchor="middle" fill="#5e594f">--17--</text>
<text x="1842.0" y="223.0" font-family="Segoe UI, Arial, sans-serif" font-size="9" font-weight="400" text-anchor="middle" fill="#777066">159-175</text>
<rect x="1877.0" y="160.0" width="34.0" height="46" fill="#ffffff" stroke="#ddd6c8" stroke-width="1"/>
<line x1="1877.0" y1="26" x2="1877.0" y2="206.0" stroke="#cbc3b5" stroke-width="1"/>
<text x="1894.0" y="122.0" font-family="Segoe UI, Arial, sans-serif" font-size="10" font-weight="700" text-anchor="middle" fill="#222">3</text><line x1="1884.0" y1="126.0" x2="1904.0" y2="126.0" stroke="#5f512f" stroke-width="1"/><text x="1894.0" y="137.0" font-family="Segoe UI, Arial, sans-serif" font-size="10" font-weight="700" text-anchor="middle" fill="#222">4</text>
<text x="1894.0" y="224.0" font-family="Segoe UI, Arial, sans-serif" font-size="10" font-weight="400" text-anchor="middle" fill="#636363">176</text>
<rect x="1911.0" y="160.0" width="34.0" height="46" fill="#fbfaf6" stroke="#ddd6c8" stroke-width="1"/>
<line x1="1911.0" y1="26" x2="1911.0" y2="206.0" stroke="#cbc3b5" stroke-width="1"/>
<line x1="1943.0" y1="26.0" x2="1943.0" y2="206.0" stroke="#27221b" stroke-width="1.2"/><line x1="1947.0" y1="26.0" x2="1947.0" y2="206.0" stroke="#27221b" stroke-width="1.2"/>
<text x="1928.0" y="224.0" font-family="Segoe UI, Arial, sans-serif" font-size="10" font-weight="400" text-anchor="middle" fill="#636363">177</text>
<rect x="1945.0" y="160.0" width="45.0" height="46" fill="#ffffff" stroke="#ddd6c8" stroke-width="1"/>
<line x1="1945.0" y1="26" x2="1945.0" y2="206.0" stroke="#cbc3b5" stroke-width="1"/>
<rect x="1956.5" y="28.0" width="22.0" height="22" rx="4" fill="#ffe7a8" stroke="#c18a18"/><text x="1967.5" y="43.0" font-family="Segoe UI, Arial, sans-serif" font-size="13" font-weight="700" text-anchor="middle" fill="#222">J</text>
<text x="1967.5" y="184.0" font-family="Segoe UI, Arial, sans-serif" class="music" font-size="9" font-weight="700" text-anchor="middle" fill="#1e526f">tempo I</text>
<text x="1967.5" y="196.0" font-family="Segoe UI, Arial, sans-serif" class="music" font-size="10" font-weight="700" text-anchor="middle" fill="#1e526f">♩=60</text>
<text x="1967.5" y="224.0" font-family="Segoe UI, Arial, sans-serif" font-size="10" font-weight="400" text-anchor="middle" fill="#636363">178</text>
<rect x="1990.0" y="160.0" width="70.0" height="46" rx="4" fill="#ece8de" stroke="#c8c0b1" stroke-dasharray="4 3"/>
<line x1="1998.0" y1="183.0" x2="2052.0" y2="183.0" stroke="#8f8778" stroke-width="1.4"/>
<text x="2025.0" y="177.0" font-family="Segoe UI, Arial, sans-serif" font-size="11" font-weight="700" text-anchor="middle" fill="#5e594f">--3--</text>
<text x="2025.0" y="223.0" font-family="Segoe UI, Arial, sans-serif" font-size="9" font-weight="400" text-anchor="middle" fill="#777066">179-181</text>
<rect x="2060.0" y="160.0" width="34.0" height="46" fill="#ffffff" stroke="#ddd6c8" stroke-width="1"/>
<line x1="2060.0" y1="26" x2="2060.0" y2="206.0" stroke="#cbc3b5" stroke-width="1"/>
<text x="2077.0" y="192.0" font-family="Segoe UI, Arial, sans-serif" class="music" font-size="11" font-weight="700" text-anchor="middle" fill="#1e526f">rit</text>
<text x="2077.0" y="224.0" font-family="Segoe UI, Arial, sans-serif" font-size="10" font-weight="400" text-anchor="middle" fill="#636363">182</text>
<rect x="2094.0" y="160.0" width="34.0" height="46" fill="#fbfaf6" stroke="#ddd6c8" stroke-width="1"/>
<line x1="2094.0" y1="26" x2="2094.0" y2="206.0" stroke="#cbc3b5" stroke-width="1"/>
<rect x="2128.0" y="160.0" width="34.0" height="46" fill="#ffffff" stroke="#ddd6c8" stroke-width="1"/>
<line x1="2128.0" y1="26" x2="2128.0" y2="206.0" stroke="#cbc3b5" stroke-width="1"/>
<line x1="2159.0" y1="26.0" x2="2159.0" y2="206.0" stroke="#27221b" stroke-width="1.2"/><line x1="2164.0" y1="26.0" x2="2164.0" y2="206.0" stroke="#27221b" stroke-width="3.6"/>
<text x="2145.0" y="224.0" font-family="Segoe UI, Arial, sans-serif" font-size="10" font-weight="400" text-anchor="middle" fill="#636363">184</text>
</svg>